<svg xmlns="http://www.w3.org/2000/svg" viewBox="0 0 430.11 430.12"><path d="M398.36 0H31.78C14.23 0 0 13.79 0 30.82v368.47c0 17 14.23 30.83 31.78 30.83h366.58c17.54 0 31.76-13.82 31.76-30.83V30.82C430.11 13.8 415.9 0 398.36 0zm-268 360h-65V165.85h65zM97.91 139.32h-.43c-21.8 0-35.92-14.91-35.92-33.57 0-19 14.54-33.53 36.76-33.53s35.9 14.49 36.33 33.53c0 18.67-14.09 33.57-36.74 33.57zM364.66 360h-65V256.14c0-26.11-9.41-43.92-32.9-43.92-18 0-28.65 12-33.33 23.62-1.74 4.14-2.17 9.94-2.17 15.73V360h-64.92s.85-176 0-194.19h65v27.53c8.63-13.23 24-32.1 58.54-32.1 42.76 0 74.82 27.74 74.82 87.42V360zM230.88 194c.11-.18.27-.4.42-.61v.61z"/></svg>