<svg data-name="Layer 1" xmlns="http://www.w3.org/2000/svg" viewBox="0 0 18.88 18.03"><circle cx="4.5" cy="9.5" r="1.5" fill="#fff"/><circle cx="9" cy="8.5" r="1.5" fill="#fff"/><circle cx="13.5" cy="9.5" r="1.5" fill="#fff"/><path d="M16.89 13.33a9 9 0 10-2.51 2.88l4.5 1.79zM4.5 11A1.5 1.5 0 116 9.5 1.5 1.5 0 014.5 11zM9 10a1.5 1.5 0 111.5-1.5A1.5 1.5 0 019 10zm3-.5a1.5 1.5 0 111.5 1.5A1.5 1.5 0 0112 9.5z" fill="#fff" fill-rule="evenodd"/><circle cx="4.5" cy="9.5" r="1.5"/><circle cx="9" cy="8.5" r="1.5" opacity=".6" style="isolation:isolate"/><circle cx="13.5" cy="9.5" r="1.5" opacity=".3" style="isolation:isolate"/></svg>