<svg version="1.1" id="Layer_1" xmlns="http://www.w3.org/2000/svg" x="0" y="0" viewBox="0 0 126.5 101.8" xml:space="preserve"><style>.st0{fill:none}.st1{fill-rule:evenodd;clip-rule:evenodd;fill:#fff}</style><g transform="translate(-70 -199)" id="symbols"><g id="Global-footer"><g id="Group-4" transform="translate(101 192)"><g id="footer-logo"><path class="st0" d="M95.4 57.3v51.5H-31V7H95.4v48.8c.1.5.2.9 0 1.5z"/><g transform="translate(-31 4)"><g id="Page-1"><g id="Group-92" transform="translate(0 1.711)"><path class="st0" d="M126.4 51.6v51.5H0V1.3h126.4v48.8c.1.4.2.9 0 1.5z"/><path id="Fill-22" class="st1" d="M75 53.1c-.4-2.6-1.4-5.1-2.9-7.2.2-.1.4-.4.4-.7-.3 0-.6.1-.8.2-.1-.1-.2-.3-.3-.4-1.9-2.3-4.2-3.9-6.7-4.6 0-.4-.4-.6-.6-.5-.1 0-.2.1-.3.3h-.1c-.1-.1-.3-.2-.6-.3 0 .3 0 .5.2.7v.1c-.2 0-.3.1-.4.2-.1.2 0 .6.4.7v5.3c-.2 0-.4.1-.6.3.2.2.4.3.6.3v5.7c-.3.1-.5.4-.4.6.1.1.2.2.4.2-.1.1-.1.3-.2.5.2 0 .4 0 .5-.1h.1c0 .2.1.3.2.4.2.1.5 0 .6-.4h3.9c0 .2.1.5.3.7.2-.2.3-.5.3-.7h4.4c.1.4.5.5.7.4.1-.1.2-.2.2-.4h.1c.2.1.3.2.6.2 0-.2-.1-.4-.1-.5v-.2c.2 0 .3-.1.4-.2.2-.2 0-.6-.3-.6zm-11.3 1V40.5c2.8.5 5.4 2.2 7.5 4.7 2 2.5 3.3 5.7 3.5 8.9h-11z"/><path id="Fill-23" class="st1" d="M74.4 53.7c-.3-3-1.5-6-3.4-8.4-.9-1.2-2-2.1-3.2-2.9-1.2-.8-2.4-1.3-3.7-1.6h-.2v13.1h10.5v-.2zm-.7-.2H70c0-.2-.1-.3-.3-.4-.2-.1-.3 0-.5.2 0-.2-.1-.4-.3-.6-.2.2-.3.4-.3.6-.2-.2-.3-.2-.5-.2-.1 0-.3.2-.3.4h-3.2c.1-.2.2-.3.2-.6-.2 0-.4.1-.6.2V48c.2 0 .4-.1.5-.3 0-.1 0-.3-.2-.5.2 0 .5-.1.7-.3-.2-.2-.4-.3-.7-.3.2-.2.2-.4.2-.5 0-.1-.2-.3-.5-.3v-4.3c.1.1.3.2.5.2 0-.2 0-.4-.1-.6 2.2.7 4.3 2.1 5.9 4.1-.1.1-.1.2-.1.3 0 .2.2.3.4.3-.2.1-.3.3-.3.6.3 0 .5 0 .7-.2-.1.3 0 .4.2.5.1.1.2.1.3 0 1.1 1.8 1.9 3.9 2.2 6-.1-.1-.3-.1-.5-.1.1.6.2.8.3.9z"/><path id="Fill-24" class="st1" d="M72.4 51.6c.2-.1.4-.3.4-.4-.2.1-.4 0-.5-.1.2-.1.4 0 .2-.3s-.3-.3-.5-.1c-.2.2-1.5-.1-1.5-1 .1.2.2.3.4.3.6.4 1.2.1 1.3-.4 0-.5-.4-.8-1-1.2-.2-.2-.4-.4-.6-.5-.2-.4 0-.7-.5-1.4 0-.2-.1-.3-.2-.6-.3.4-.4 1.3.3 2 .5.6 1.7 1.1 1.6 1.6 0 .1-.1.2-.3.3-.3 0-.5-.2-.8-.4l-.1-.1c-.5-.4-.9-1.1-1.2-1.4-.5-.7-.3-1.3-.2-1.8.4-.5-.2-1.5-.6-1.8 0 0 .1-.2 0-.5-.1.1-.2.1-.3 0-.1-.2-.1-.2-.3-.3-.2 0-.2-.2-.2-.2-.1.1-.2.2-.3.2-.2 0-.3 0-.3.1-.1.1-.2.1-.4.1s-.2.1-.2.3c0 .1 0 .2.2.3h.1l.2.2.1-.2c.1-.1.4-.1.4.1 0 .1.1.2-.1.2H67c-.1 0-.1.2-.1.3 0 .1.1.2.4.1.2-.1.7-.1.7.1 0 .6-.7.5-.8 1.2-.2-.1-.3-.2-.4-.3-.1-.2-.3-.4-.5-.6-.1-.1-.3-.3-.5-.4-.2-.1-.2-.2-.2-.5 0-.2.1-.4.1-.6v-.2c0-.1-.2-.2-.3-.2 0 0 .1.1.1.2l-.1.1c0 .1-.1.1 0 .2v.1c-.1-.1-.1-.3-.2-.3h-.1c0-.1-.2-.3-.3-.1 0 0 .1 0 .1.1v.1c0 .2.1.2.3.2v.1c-.3-.1-.4 0-.4.1v.1c-.1.1-.1.2.1.3 0 0 0-.1.1-.2l.1.1h.3s.1 0 .1.1c-.2.2-.1.3.1.4-.1.2-.4.1-.4-.2-.2.3.1.6.4.5v.4s0-.1.1-.1c0 .1 0 .2.2.2v-.1c.1.1.1.2.2.3.1.2.4.9 1.1 1.2-.4.2-.6.5-.8.8-.2.2-.5.4-.6.3l-.2-.2c-.1-.1-.2-.1-.2-.1h-.1c-.1 0-.3 0-.3.1h.2v.1c0 .1 0 .2.4.1 0 0 .1 0 0 0 0 0-.1.1-.2.1-.2 0-.2-.2-.3 0 0 0 0 .1-.1.1s-.3.3-.1.4c0 0 0-.1.1-.2l.1.1c.1.1.2.2.4-.1 0 .2-.2.4 0 .4h.1c0 .2.3.2.4.2-.1 0-.2-.1-.2-.2h.1c.1-.1 0-.3 0-.4h.1c0 .1.2.2.3.1l.2-.2c.2-.1.4-.2.6-.1 0-.1.1-.3.4-.4.3-.1.4 0 .4.1 0-.1.1-.3.3-.4 0 1 1.3 1 1.6 1.5-.4-.2-.8-.2-1.1-.2-.3.1-.9.4-1 .7-.1.3.3.8.6 1-.4.1-.5-.1-.9 0-.3 0-.4-.5-.7-.4 0 0-.1 0-.1.1-.1 0-.3.2-.3.3 0 0 .1-.1.2-.1v.1c0 .1 0 .1.1.1h.1c0 .1-.4-.1-.4.3 0 0 0 .1.1.1 0 .1.1.2.3.2l-.1-.1h.1v-.1.2c0 .1.2.3.4.1-.1 0-.2 0-.2-.1h.1v-.1h.2c0 .1.2.2.3.1.1 0 .1-.1.1-.1s.1.1.2.1c0-.1.1-.3.4-.1l.2-.2s.3.1.4 0c.2-.2.1-.2.1-.3-.1-.3-.2-.3-.3-.6-.1-.5.6-.8 1-.7.1.3.5 1.1 1.3 1.4.5.2.7-.3.8-.3l.1.1v.6c-.1.1-.3 0-.5 0-.2.4-.3.5-.3.5-.1 0-.3.1-.3.3 0 0 .1-.1.2-.1v.1c0 .2.2.3.4.1 0 0 .1 0 0 0-.1.1-.3.3-.1.3h.1c0 .1.1.2.2.2v-.2h.1c.1 0 .1-.2.2-.3 0 .1-.1.3.1.3h.1c0 .1.2.2.3.1 0 0-.1-.1-.2-.1l.1-.1c.1-.3-.2-.3-.2-.4 0-.1.3 0 .3-.3.1-.1.3-.2.3-.3 0 .1-.2 0-.2 0z"/><path id="Fill-26" class="st1" d="M59.9 59.1h-.3v-.3c0-.9-.5-1.6-1.5-1.6-.9 0-2.6 1.1-5 1.1-1 0-2.2-.5-3-.9l-.3.7V58c0-.3-.3-.6-.6-.6s-.6.3-.6.6.3.6.6.6c.2 0 .4-.1.5-.2l-.3.7c.1 0 .2.1.3.1-.4 3.6 2.2 8.1 7 9.5.7-.2 1.5-.1 1.5.7 0 .5-.2.7-.7.7-.3 0-.5-.2-.5-.3 0-.3.6-.1.6-.3.1-.3-.1-.4-.4-.4-.3 0-.8.2-.8.8 0 .6.5 1 1.1 1 .5 0 1.6-.3 1.5-1.6.3 0 .5 0 .6-.3l.1-.7h-.3l.2-8.2h.2c.3 0 .6-.1.6-.5 0-.3-.3-.4-.5-.5zm-8.6.7l5.7 8.1c-3-1.1-6-3.9-5.7-8.1zm6 7.3L52 59.7h.5c.3 0 .5 0 .8-.1l4.2 5.9c-.1.7-.2 1.2-.2 1.6zm.4-2.3L54 59.6l1.2-.3 2.8 3.9c-.2.5-.3 1-.3 1.6zm.8-5.8h-.2c-.3 0-.6.1-.6.4 0 .3.2.5.5.5h.1l-.3 2.4-2.3-3.3c1.1-.4 2-.9 2.4-.9.4 0 .5.2.4.9z"/><path id="Fill-28" class="st1" d="M61 43.3c0-1.3-3.2-.5-3.2-1.3 0-.1.1-.2.2-.3 1.6-.1 1.7-1.3 2.8-1.5-1.4-.2-1.6.9-2.2.9.3-.1.4-.5.4-.7-.3.4-.9.4-1.2.8 0 .1-.1.2-.1.2-.2.1-.3.3-.3.5 0 1.2 3.2.4 3.2 1.3 0 .3-.6.5-1.5.5-.7 0-1.1-.5-2.4-.2 0-.2.4-.6.3-.8.1-.1.2-.2.2-.3-.1-.1-.2-.1-.2-.1 0-.1 0-.1-.1-.2 0 0 0-.1-.1-.2 0 0-.1-.1-.3-.2-.2-.1-.2-.1-.3-.1H56c.1.4 0 .4 0 .4-.1-.1-.1-.1-.2-.1-.1.1-.1.2 0 .4-.1 0-.2.3-.3.3 0 .1.1.1.1.1-.1.2-.1.4-.3.4 0 .1.1.1.1.1-.1.3-.2.6-.2.7-.1-.1-.2-.1-.3-.2-.2-.1-.2-.2-.1-.4 0-.2.1-.3.1-.4v-.1c0-.1-.2-.2-.3-.2 0 0 .1.1.1.2l-.1.1s-.1.1 0 .2v.1c0-.1-.1-.3-.2-.3h-.1c0-.1-.1-.2-.3-.1h.1v.1c0 .1.1.2.2.2-.2-.1-.3 0-.4.1v.1c-.1 0-.1.2 0 .3 0 0 0-.1.1-.1 0 0 0 .1.1.1h.2c-.2.1-.2.3 0 .3-.1.3-.4.2-.4 0-.3.3.1.5.4.4 0 0 0 .1.1.1 0 0 0-.1.1 0 0 .1 0 .2.1.2v-.1s.1.2.3.4c-.3.1-.7.2-.7.2h-.6c-.2.1-.6.3-.8.1 0-.1 0-.1-.1-.2 0-.1-.1-.1-.1-.1h-.1c-.1-.1-.3-.1-.3 0 .1 0 .1 0 .2.1v.1c0 .1 0 .2.3.3v.1h-.2c-.1-.1-.1-.2-.3-.1h-.1c-.1 0-.3.1-.2.3 0 0 .1-.1.2-.1v.1c0 .1.1.3.4.1-.1.1-.3.3-.1.4h.1c0 .2.2.3.3.3 0 0-.1-.1-.1-.3h.1c.1-.1.1-.2.2-.3 0 .1 0 .2.2.2s.2-.2.2-.3c.1 0 .1.1.1.2l.1-.1c0 .1 0 .2-.1.3.1 0 .2-.1.3-.3 0 0 0 .1.1.1h.3v.2s0-.1.1-.1 0 .2.1.3c0-.4.3-.3.5-.4 0 0 0 .1-.1.1.1 0 .3-.1.3-.2l.2-.2c.1 0 .2 0 .3-.1 0 0 .1.2 0 .2.3 0 .6-.3.7-.3.6-.1-.4-.6.9-.5.1 0 .3 0 .4-.1-.1.2-.1.6.1.6.1 0 .3.1.3.1-.1 0-.2 0-.3.1-.3.2-.3-.4-.6-.3H57c-.1 0-.3.2-.3.3 0 0 .1-.1.2-.1v.1s0 .1.1.1h.1c0 .1-.4-.1-.3.3 0 0 0 .1.1.1 0 .1.1.2.2.1l-.1-.1h.1v.2c0 .1.2.2.3.1 0 0-.1 0-.2-.1h.1v-.1h.2c0 .1.1.1.2.1.2-.1 0-.3.2-.3h.6c0-.1 0-.4-.2-.5-.1 0 0-.2-.1-.3.2.1.4.2.6.2.5 0 0-.1.2-.2.2-.2.5-.1.5-.1.1 0 .1 0 .1.1-.1.2 0 .3 0 .3 0 .1-.2 0-.4 0-.1 0-.1 0-.1.1-.1 0-.2.1-.2.3 0 0 .1-.1.2-.1 0 .1.2.2.3.1-.1.1-.3.2-.1.3h.1c0 .1.1.2.1.2v-.2h.1c.1 0 0-.2.2-.3 0 .1-.1.3.1.3h.1c0 .1.1.1.3.1 0 0-.1 0-.1-.1l.1-.1c.1-.2-.1-.2-.1-.3 0-.1.2 0 .2-.3 0 0 0-.1-.1-.1.1 0 .1 0 .2-.1-.2 0-.1-.1-.1-.2.1 0 .1-.1.1-.3 0 .1-.3.2-.3 0 0 0 0-.1-.2-.1-.3 0-.4-.1-1-.2 0 0-.1 0 0 0 1.4-.5 2-.9 2-1.3zm-4.7-.8c-.1.1-.2.1-.2.1-.1-.1 0-.1-.1-.3 0 0 .2.2.3.2zm.2.6c-.1 0-.1-.1 0 0-.2-.2-.2-.1 0 0-.2 0-.3-.1-.3 0v.3c0 .1-.1.2-.2.1s-.1-.2-.1-.2c0-.1.1-.1.1-.1.1 0 .1 0 .1-.1s0-.1-.1-.2c.1 0 .1 0 .1-.1H56s0-.1.1-.1h.1l.3.1v.3c0-.1 0-.1 0 0zm.1-.3c-.1 0-.2-.2-.1-.2 0 0 .3.1.4.1-.2.1-.1.1-.3.1z"/><path id="Fill-29" class="st1" d="M60.7 47.8c0-.3-.4-.5-1.4-.5-1.1 0-3.5.4-3.5-.2 0-.3.5-.3 1-.2 0 0 .1.1.2.1 1.4.4 3-.3 3.9-.1-1-.7-1.8 0-2.9-.2.6 0 .8-.2.9-.3-.5.3-1.4-.2-2 .2 0 0-.1 0-.1.1-.8 0-1.4 0-1.4.5 0 1.1 2.9.4 3.8.4.9 0 1.1.1 1.1.3 0 .3-.9.3-1.4.3-.8 0-3.2-.4-4.6-.1.1-.2.4-.5.2-.7.1-.1.2-.2.2-.3-.1-.1-.2-.1-.3-.1 0-.1 0-.1-.1-.2 0 0 0-.1-.1-.2-.1 0-.2-.1-.3-.2-.2-.1-.3-.1-.3-.1h-.2c-.1 0-.2 0-.2.1-.1 0-.2-.1-.3-.1 0 .1-.1.2 0 .4-.1 0-.3.3-.4.3 0 .1.1.1.1.1-.1.2-.2.4-.3.4.1.1.1.2.2.2v.4l-.2-.1-.2-.1c-.1-.1-.3-.3-.5-.4-.2-.1-.2-.2-.2-.4s.1-.4.1-.5v-.2c0-.1-.2-.2-.3-.2 0 0 .1.1.1.2l-.1.1s-.1.1 0 .2v.1c0-.1-.1-.3-.2-.3h-.1c0-.1-.1-.3-.3-.1 0 0 .1 0 .1.1v.1c0 .1.1.2.2.2v.1c-.3-.1-.4 0-.4.1-.1.1-.1.2 0 .3 0 0 0-.1.1-.2 0 0 .1 0 .1.1h.3c-.2.2-.2.3.1.3 0 .3-.4.2-.4-.1-.2.4.1.6.5.4l.1.1s0-.1.1-.1c0 .1 0 .2.1.2v-.1c.1 0 .2.2.4.4.2.1.3.3.5.2 0 .2.2.4.1.4h-.8c-.2.1-.7.3-.8.1-.1-.1 0-.1-.1-.3 0-.1-.1-.1-.2-.1h-.1c-.1-.1-.3-.1-.3 0 .1 0 .1 0 .2.1v.1c0 .1 0 .2.3.3h-.2c-.1-.1-.2-.2-.3-.1h-.1c-.1 0-.4.2-.3.3 0 0 .1-.1.2-.1v.1c0 .2.1.3.4.1-.1.1-.3.3-.1.4l.1.1c0 .2.2.3.3.3 0 0-.1-.2-.1-.3h.1c.2-.1.1-.3.2-.3 0 .1.1.3.2.2.2 0 .3-.2.3-.3.1 0 .1.1.1.2l.1-.1c0 .1 0 .2-.1.3.1 0 .3-.1.3-.3l.1.1h.4v.2s0-.1.1-.1c0 0 0 .2.1.3 0-.5.3-.3.6-.5 0 .1 0 .1-.1.2.3.1.9-.4.9-.6h.3c.9.1.3-.8 1.8-.6.1 0 .3-.1.4-.2-.1.2-.1.6.1.6.1 0 .3.1.4.2-.1 0-.3.1-.3.1-.3.2-.3-.5-.7-.3 0 0-.1 0-.1.1-.1 0-.3.1-.3.3 0 0 .1-.1.2-.1v.1c0 .1 0 .1.1.1h.1c0 .1-.4-.1-.3.3 0 0 0 .1.1.1 0 .1.1.2.3.1l-.1-.1h.1v-.1.2c0 .1.2.3.4.1 0 0-.2 0-.2-.1h.1v-.1h.2c0 .1.1.2.3.1.2-.1 0-.3.2-.3h.6c0-.1 0-.4-.2-.5-.1 0 0-.2-.1-.3.2.1.4.2.7.2.5 0 .6-.1.8-.2.3-.1.5-.1.6 0 .1 0 .1 0 .1.1v.4c0 .1-.3 0-.4 0-.1 0-.2.1-.2.1-.1 0-.3.1-.3.3 0 0 .1-.1.2-.1v.1c0 .2.2.2.3.1 0 0 .1 0 0 0-.1.1-.3.3-.1.3h.1c0 .1.1.2.1.2v-.2h.1c.1 0 .1-.2.2-.3 0 .1-.1.3 0 .3h.1c0 .1.2.2.3.1 0 0-.1 0-.1-.1l.1-.1c.1-.3-.1-.3-.1-.4s.3 0 .3-.3c0 0 0-.1-.1-.2.1 0 .2 0 .2-.1-.2 0-.1-.1-.2-.2.1 0 .1-.1.1-.3-.1.1-.3.2-.3 0 0 0 0-.1-.2-.1-.3 0-.6 0-1.2-.1 1.2 0 2.3-.2 2.3-.6zm-7-1c0 .1-.2.2-.3.1-.1-.1 0-.1-.1-.3.1 0 .3.2.4.2zm.2.6s0-.1-.1-.1v.1c-.1 0-.2-.1-.2 0v.4c0 .1-.1.2-.2.1s-.1-.2-.1-.3c0-.1.1-.1.1-.1.1 0 .1 0 .1-.1s0-.1-.1-.2c.1 0 .1-.1.1-.1h-.1s0-.1.1-.1h.1l.3.2s.1 0 .1.1c-.1 0-.1.1-.1.1zm.2-.2c-.1 0-.2-.2-.2-.3 0 0 .3.1.4.2-.1 0-.1.1-.2.1z"/><path id="Fill-30" class="st1" d="M60.5 52.2c0-.3-.4-.5-1.4-.5-1.1 0-4.4.4-4.4-.2 0-.4 1.1-.2 2-.2 0 .1.1.1.2.1 1.4.4 2.9-.5 3.9-.2-.8-.7-1.8.1-2.9-.1.6 0 1.3-.1 1.3-.3-.5.3-1.8-.2-2.4.1 0 0-.1 0-.1.1-1 0-2.3-.1-2.3.5 0 1.1 3.8.4 4.7.4s1.1.1 1.1.3c0 .3-.9.3-1.4.3-.8 0-4.4-.5-5.8 0 .1-.2.4-.6.3-.8.1 0 .2-.2.2-.3-.1-.1-.2-.1-.3-.1 0-.1 0-.1-.1-.2 0 0 0-.2-.1-.2s-.2-.1-.3-.2c-.2-.1-.3-.1-.3-.1h-.2c-.1 0-.2 0-.2.1-.1-.1-.2-.1-.3-.1 0 .1-.1.2 0 .4-.1 0-.3.3-.4.3 0 .1.1.1.1.1-.1.2-.2.4-.3.4 0 .1.1.1.1.1v.3h-.5c-.2 0-.3-.3-.6-.4-.1-.1-.1-.2-.1-.4s.1-.4.1-.5v-.2c0-.1-.2-.2-.3-.2.1 0 .1.1.1.2l-.1.1v.3c0-.1-.1-.3-.2-.3h-.1c0-.1-.2-.2-.3-.1 0 0 .1 0 .1.1v.1c0 .1.1.2.3.2v.1c-.3-.1-.3 0-.4.1v.1c-.1.1-.1.2 0 .3v-.1s.1 0 .1.1h.3c-.2.2-.1.3.1.4 0 .3-.4.2-.4-.1-.2.3.2.6.5.4 0 .1 0 .1.1.1 0 0 0-.1.1-.1 0 .1 0 .2.1.2v-.1c.1 0 .3.4.7.6.1 0 .2 0 .3-.1 0 0 0 .1.1.1 0 .2.2.4.1.4h-.9c-.2.1-.7.3-.8.1 0-.1 0-.1-.1-.2s-.1-.1-.2-.1h-.1c-.1-.1-.3-.1-.3 0 .1 0 .1 0 .2.1 0 0 0 .1-.1.1 0 .1 0 .2.3.3 0 0 .1 0 0 0h-.2c-.1-.1-.1-.2-.3-.1h-.1c-.1 0-.4.2-.3.3 0 0 .1-.1.2-.1v.1c0 .2.1.3.4.1-.1.1-.3.3-.1.4l.1.1c0 .2.2.3.3.3 0 0-.1-.1-.1-.3h.1c.2-.1.1-.3.2-.3 0 .1 0 .3.3.2.2 0 .3-.2.2-.3.1 0 .1.1.1.2l.1-.1c0 .1 0 .2-.1.3.1 0 .3-.1.3-.3l.1.1h.4v.2s0-.1.1-.1c0 0 0 .2.1.3 0-.5.6-.2.9-.4 0 0-.1.1-.1.2.1 0 .2-.1.3-.1.2-.1.6-.2.5-.4h.2v.1c.3 0 .3-.3.4-.3 1.8.2.8-.8 2.9-.5.1 0 .1-.1.2-.1-.1.2-.1.5.1.6.1 0 .3.1.4.1-.1 0-.3 0-.3.1-.3.2-.3-.5-.7-.3 0 0-.1 0-.1.1-.1 0-.3.2-.3.3 0 0 .1-.1.2-.1V54c0 .1 0 .1.1.1h.1c0 .1-.4-.1-.3.3 0 0 0 .1.1.1 0 .1.1.2.3.2l-.1-.1h.1v-.1.2c0 .1.2.3.4.1-.1 0-.2 0-.2-.1h.1v-.1h.2c0 .1.1.2.3.1.2-.1 0-.3.2-.3h.1c.2 0 .5 0 .5-.1s0-.4-.2-.5c-.1 0 0-.2-.1-.4.2.1.4.2.7.2.5 0 .6-.1.8-.2.3-.2.5-.1.6-.1s.1 0 .1.1v.4c-.1.1-.3 0-.4 0-.1 0-.1 0-.1.1-.1 0-.3.1-.3.3 0 0 .1-.1.2-.1 0 .2.2.2.3.1 0 0 .1 0 0 0-.1.1-.3.2-.1.3h.1c0 .1.1.2.2.2v-.2h.1c.1 0 .1-.2.2-.3-.1.1-.1.3 0 .3h.1c0 .1.2.2.3.1l-.1-.1.1-.1c.1-.3-.2-.3-.2-.4 0-.1.3 0 .3-.3 0 0 0-.1-.1-.2.1 0 .1 0 .2-.1-.2 0-.1-.2-.2-.3.1 0 .1-.1.1-.3-.1.1-.3.2-.3 0 0 0 0-.1-.2-.1-.3 0-.6 0-1.2-.1.9.2 2 0 2-.4zm-8.2-1c-.1.1-.2.2-.3.1-.1-.1 0-.1-.1-.3l.4.2zm.3.7s0-.1-.1-.1-.1 0 0 .1c-.1 0-.2-.1-.2 0v.4c0 .1-.1.2-.2.1s-.1-.2-.1-.3V52c.1 0 .1 0 .1-.1s0-.1-.1-.2c.1 0 .1-.1.1-.1H52s0-.1.1-.1h.1l.3.2s.1 0 .1.1v.1zm.2-.3c-.1 0-.2-.2-.2-.3.1 0 .3.1.4.2-.2.1-.1.2-.2.1z"/><path id="Fill-31" class="st1" d="M74.4 59.8s0-.1 0 0c.1-.1.1-.2.1-.3-.1.1-.3.2-.3 0 0 0 0-.1-.2-.1-.3 0-.7 0-1.3-.1 0 0-.1 0 0 0 .8-.1 1.8-.1 1.8-.5 0-.3-.4-.5-1.5-.5s-4.4.4-4.4-.2c0-.4 1.1-.2 2-.2 0 .1.1.1.2.2 1.4.4 3-.6 3.8-.4-1.1-.4-1.8.3-2.8 0 .6 0 1.3-.1 1.3-.3-.5.3-1.8-.2-2.4.1 0 0-.1 0-.1.1-1 0-2.3-.1-2.3.5 0 1.1 3.8.4 4.7.4s1.1.1 1.1.3c0 .3-.9.3-1.4.3-.8 0-4.4-.5-5.8 0 .1-.2.4-.6.3-.8.1 0 .2-.2.2-.3-.1-.1-.2-.1-.3-.1 0-.1 0-.1-.1-.2 0 0 0-.2-.1-.2s-.2-.1-.3-.2c-.2-.1-.3-.1-.3-.1h-.2c-.1 0-.2 0-.2.1-.1-.1-.2-.1-.3-.1 0 .1-.1.2 0 .4-.1 0-.3.3-.4.3 0 .1.1.1.1.1-.1.2-.2.4-.3.4.1.1.1.2.2.2v.3l-.2-.1h-.4c-.2 0-.3-.3-.6-.5v-.5c0-.2.1-.3.1-.5 0 0 0-.1-.1-.2 0-.1-.2-.2-.3-.2.1 0 .1.1.1.2l-.1.1c-.1.1-.1.1 0 .2v.1c0-.1-.1-.3-.2-.3h-.1c0-.1-.1-.2-.3-.1 0 0 .1 0 .1.1v.1c0 .1.1.2.2.2h.1c-.3-.1-.3 0-.4.1v.1c-.1 0-.1.2.1.3v-.1l.1.1h.2c-.2.2-.1.3.1.4 0 .3-.4.3-.4 0-.2.3.2.6.5.4l.1.1s0-.1.1-.1c0 .1 0 .2.1.2v-.1c.1 0 .3.4.7.7 0 0 .2-.1.3-.2 0 .1.1.2.2.2h.1c0 .2.2.4.2.4h-.6c-.2.1-.7.3-.9.1 0-.1 0-.1-.1-.3 0-.1-.1-.1-.2-.1h-.1c-.1-.1-.3-.1-.3 0 .1 0 .1 0 .2.1 0 0 0 .1-.1.1 0 .1 0 .2.3.3h-.2c-.1-.1-.1-.2-.3-.1h-.1c-.1 0-.3.2-.3.3 0 0 .1-.1.2-.1v.1c0 .2.1.3.4.1-.1.1-.3.3-.1.4l.1.1c0 .2.2.3.3.3 0 0-.1-.2-.1-.3h.1c.2-.1.1-.3.2-.3 0 .1 0 .3.2.2.2 0 .3-.2.3-.3.1 0 .1.1.1.2l.1-.1c0 .1 0 .2-.1.3.1 0 .3-.1.3-.3l.1.1h.4v.2s0-.1.1-.1c0 0 0 .2.1.3 0-.5.3-.3.6-.5 0 .1-.1.1-.1.2.1.1.6-.2.6-.4 0 0 .2-.1.3-.1.3 0 .3-.2.4-.2 1.8.2.8-.8 2.8-.6.1 0 .2-.1.2-.2-.1.2-.1.6.1.6.1 0 .3.1.4.1-.1 0-.3.1-.3.1-.3.2-.3-.5-.7-.4 0 0-.1 0-.1.1-.1 0-.3.2-.3.3 0 0 .1-.1.2-.1v.1s0 .1.1.1h.1c0 .1-.4-.1-.4.3 0 0 0 .1.1.1 0 .1.1.2.3.2l-.1-.1h.1v-.1.2c0 .1.2.3.4.1-.1 0-.2 0-.2-.1h.1v-.1h.2c0 .1.1.2.3.1.2-.1 0-.3.2-.3h.1c.2.1.5.1.5 0 .1-.1 0-.4-.2-.5-.1 0 0-.2-.1-.3.2.1.4.2.7.2.5 0 .6-.1.9-.2.3-.2.5-.1.6-.1.1 0 .1 0 .1.1-.1.3 0 .3-.1.4-.1.1-.3 0-.4 0-.1 0-.1 0-.1.1-.1 0-.3.1-.3.3 0 0 .1-.1.2-.1v.1c0 .2.2.2.3.1 0 0 .1 0 0 0-.1.1-.3.2-.2.3h.1c0 .1 0 .2.1.2V61h.1c.1 0 .1-.2.2-.3 0 .1-.1.3 0 .3h.1c0 .1.1.2.3.1l-.1-.1.1-.1c.1-.3-.1-.3-.1-.4 0-.1.3 0 .3-.3 0 0 0-.1-.1-.2h.1s.1 0 .1-.1c.3.1.4 0 .4-.1zm-8.1-2.1c0 .1-.2.2-.3.1-.1-.1 0-.1-.1-.3.2 0 .4.1.4.2zm.3.6s0-.1-.1-.1-.1.1 0 .1c-.1 0-.2-.1-.2 0v.4c0 .1-.1.2-.3.1-.1-.1-.1-.2-.1-.3 0-.1.1-.1.1-.1.1 0 .1 0 .1-.1s0-.1-.1-.2c.1 0 .1 0 .1-.1h-.2s0-.1.1-.1h.1l.3.2s.1 0 .1.1c.1 0 .1.1.1.1zm.1-.2c-.1 0-.2-.2-.1-.3.1 0 .3.1.4.2-.2 0-.1.1-.3.1z"/><path id="Fill-32" class="st1" d="M69.6 62c0 .1.1.1.3.2 1.3.4 2.9-.6 3.7-.4-1-.4-1.7.3-2.7 0 .6 0 1.2-.1 1.2-.3-.4.3-1.8-.2-2.3.1 0 0-.1 0-.1.1-.5 0-1.3 0-1.3.5 0 1 2.8.4 3.6.4.7 0 .8.1.8.3 0 .2-1 .3-1.5.3-.8 0-3-.4-4.4-.1.1-.2.4-.5.2-.7.1 0 .2-.2.2-.3-.1-.1-.2-.1-.3-.1 0-.1 0-.1-.1-.2 0 0 0-.2-.1-.2s-.1-.1-.3-.2c-.2-.1-.2-.1-.3-.1H66c-.1 0-.2 0-.2.1-.1-.1-.2-.1-.2-.1-.1.1-.1.2 0 .4-.1 0-.3.3-.4.3 0 .1.1.1.1.1-.1.2-.1.4-.3.4l.1.1c0 .1-.1.3-.1.4h-.2c-.2 0-.3 0-.5-.2-.2-.1-.2-.2-.2-.4s.1-.3.1-.5v-.2c0-.1-.2-.2-.3-.2 0 0 .1.1.1.2l-.1.1v.3c0-.1-.1-.3-.2-.3h-.1c0-.1-.1-.2-.3-.1h.1v.1c0 .1.1.2.2.2v.1c-.2-.1-.3 0-.3.1v.1c-.1.1-.1.2.1.3v-.1s.1 0 .1.1c0 0 .1 0 .1-.1h.2c0 .3 0 .5.2.5 0 .3-.4.2-.4 0-.2.3.2.6.5.4 0 .1 0 .1.1.1 0 0 0-.1.1-.1 0 .1 0 .2.1.2v-.1s0-.1.4.1c0 .1.1.1.1.1h.3v.5h-.6c-.2.1-.7.3-.8.1-.1-.1 0-.1-.1-.2 0-.1-.1-.1-.1-.1h-.1c-.1-.1-.3-.1-.3 0 .1 0 .1 0 .2.1v.1c0 .1 0 .2.3.3h-.2c-.1-.1-.1-.2-.3-.2l-.1.1c-.1 0-.3.2-.3.3 0 0 .1-.1.2-.1v.1c0 .2.1.3.4.1-.1.1-.3.3-.1.4h.1c0 .2.2.3.3.3 0 0-.1-.1-.1-.3h.1c.1-.1.1-.3.2-.3h.1c0 .1 0 .2.2.2s.3-.2.2-.3c0 0 .1.1.1.2l.1-.1c0 .1 0 .2-.1.3.1 0 .3-.1.3-.3 0 0 0 .1.1.1h.4v.2l.1-.1s0 .2.1.3c0-.4.4-.3.7-.5 0 0 0 .1-.1.1.3.2.6-.2.7-.5l.1-.1v.1c.3 0 .3-.2.4-.2.9.1.2-.7 1.7-.5.1 0 .3-.1.4-.2-.1.2-.1.6.1.6.1 0 .3.1.3.1-.1 0-.2 0-.3.1-.3.2-.3-.5-.6-.3 0 0-.1 0-.1.1-.1 0-.3.2-.3.3 0 0 .1-.1.2-.1v.1c0 .1 0 .1.1.1h.1c0 .1-.4-.1-.3.3 0 0 0 .1.1.1 0 .1.1.2.3.1l-.1-.1h.1v.2c0 .1.2.3.4.1-.1 0-.2 0-.2-.1h.1v-.1h.2c0 .1.1.1.3.1.2-.1 0-.3.2-.3h.6c0-.1 0-.4-.2-.5-.1-.1 0-.2-.1-.3.2.1.4.2.6.2.5 0 .7-.1.9-.2.3-.1.5-.1.6 0 0 0 .1 0 0 .1-.1.2 0 .3-.1.4-.1.1-.3 0-.4 0-.1 0-.2 0-.2.1-.1 0-.3.1-.3.3 0 0 .2-.1.3-.1v.1c0 .2.1.2.3.1 0 0 .1 0 0 0-.1.1-.3.2-.2.3h.1c0 .1 0 .2.1.2 0-.1 0-.1.1-.2h.1c.1 0 .1-.2.2-.3-.1.1-.1.3 0 .3h.1c0 .1.1.2.3.1 0 0-.1 0-.1-.1l.1-.1c.1-.3-.1-.3 0-.4 0-.1.3 0 .3-.3 0 0 0-.1-.1-.2h.1s.1 0 .1-.1c-.2 0-.1-.2-.1-.2.1 0 .1-.1.2-.3-.1.1-.3.2-.3 0 0 0 0-.1-.2-.1-.3 0-.8 0-1.4-.1 0 0-.1 0 0 0 .6 0 1.8-.1 1.8-.6 0-.2-.1-.5-1.1-.5s-3.4.4-3.4-.2c-.1-.4.6-.3.9-.3zm-3.3-.1c0 .1-.2.2-.3.1-.1-.1 0-.1-.1-.3.1.1.3.2.4.2zm.2.6s0-.1-.1-.1 0 0 0 .1c-.1 0-.2-.1-.2 0v.4c0 .1-.1.2-.2.1s-.1-.2-.1-.3c0-.1.1-.1.1-.1.1 0 .1 0 .1-.1s0-.1-.1-.2c.1 0 .1 0 .1-.1-.1-.1-.1 0-.1 0s0-.1.1-.1h.1l.3.2s.1 0 .1.1l-.1.1zm.2-.2c-.1 0-.2-.2-.2-.3 0 0 .3.1.4.2-.2 0-.1.1-.2.1z"/><path id="Fill-33" class="st1" d="M70.4 66.8c-1 .1-2.3.2-2.3-.1 0-.2.2-.3.5-.4 0 .1.1.1.2.2 1.3.4 2.7-.5 3.5-.4-1-.3-1.6.3-2.6.1.6 0 1.2-.1 1.2-.3-.5.3-1.8-.2-2.3.1l-.1.1c-.4.1-.8.3-.8.6 0 .4.5.5 1.4.5.9 0 2-.1 2 0 0 .2-.7.4-1.5.4-.7 0-1.9-.4-3.3-.1.1-.3.4-.6.3-.8.1 0 .2-.1.2-.2-.1-.1-.2-.1-.2-.1 0-.1 0-.1-.1-.2 0 0 0-.2-.1-.2 0 0-.1-.1-.3-.2-.1-.1-.2-.1-.3-.1h-.2c-.1 0-.1 0-.2.1-.1-.1-.1-.1-.2-.1 0 .1-.1.2 0 .3-.1 0-.2.3-.4.3 0 .1.1.1.1.1-.1.2-.1.4-.3.4 0 .1.1.1.1.1-.1.3-.1.6-.1.8-.2-.2-.5-.7-.7-.8.1-.1.1-.2.1-.3 0-.2.1-.3.1-.5V66c0-.1-.2-.2-.3-.2 0 0 .1.1.1.2l-.1.1v.3c0-.1-.1-.3-.2-.3h-.1c0-.1-.1-.2-.3-.1h.1v.1c0 .1.1.2.2.2-.2-.1-.3 0-.3.1v.1c-.1 0-.1.2 0 .3v-.1s.1 0 .1.1h.2c-.2.1-.1.3.1.3 0 .3-.4.2-.4-.1-.2.3.2.6.4.4 0 0 0 .1.1.1h.1c0 .1 0 .2.1.2v-.1s0 .4.4.6c.1.2.3.4.5.3.1.2.2.3.1.3s-.5-.1-.7 0c-.1 0-.2.1-.4.1h-.1c-.1 0-.3 0-.3-.1s0-.1-.1-.2c0-.1-.1-.1-.1-.1h-.1c-.1-.1-.2-.1-.3 0 .1 0 .1 0 .2.1v.1s0 .1.3.3h-.2c-.1-.1-.1-.2-.3-.1h-.1c-.1 0-.3.2-.2.3 0 0 .1-.1.2-.1v.1c0 .2.1.3.4.1-.1.1-.3.2-.1.3l.1.1c0 .2.1.3.2.3 0 0-.1-.1-.1-.2h.1c.1-.1.1-.2.1-.3 0 .1 0 .2.2.2s.2-.2.2-.2c.1 0 .1.1.1.2l.1-.1c0 .1 0 .2-.1.3.1 0 .2-.1.3-.3 0 0 0 .1.1.1h.3v.2s0-.1.1-.1c0 0 0 .2.1.3 0-.4.3-.3.5-.4l-.1.1c.1 0 .4-.1.4-.3 0 0 .2-.2.3-.7h.1c.4 0 .5-.3.9-.3-.1.1-.1.3-.1.5s.3.4.3.5c-.1 0-.2 0-.3.1.2 0 .2-.6-.2-.5 0 0-.1 0-.1.1-.1 0-.3.1-.3.3 0 0 .1-.1.2-.1v.1s0 .1.1.1h.1c0 .1-.4-.1-.3.2 0 0 0 .1.1.1 0 .1.1.2.2.1l-.1-.1h.1v.2c0 .1.2.2.3.1 0 0-.2 0-.2-.1h.1V70h.2c0 .1.1.1.2.1.2-.1 0-.3.2-.3h.1c.2 0 .3.1.3 0s0-.4-.2-.5c-.1-.1.2-.7-.3-1 .2.1 1 .2 1.1 0 .2 0 .5.2.5.3v.1c-.2.1-.2.2-.3.2-.1-.1-.1-.2-.2-.2h-.1c-.1 0-.3 0-.3.1h.2v.1c-.1 0-.3 0-.3.1v.1c-.1.1-.1.2 0 .2 0 0 0-.1.1-.1h.1c.1.1.2-.1.3 0-.1 0-.2.1-.2.2v.1c0 .1 0 .2.1.3v-.1h.1c.2-.1.1-.3.1-.3.1-.1.2.1.4 0 0 0 .1-.1 0-.2 0 0 .1.1.2.1-.1-.1 0-.2.1-.3.1 0 .2 0 .2-.1-.1 0-.3-.1-.2-.2.2-.1.3-.2.2-.3-.2-.2-.5-.2-.6-.5h.3c1.2 0 1.9-.3 1.9-.7.6-.4.3-.5-.6-.4zm-4.5-.6c-.1.1-.2.2-.2.1-.1-.1 0-.1-.1-.3 0 .1.2.2.3.2zm.2.6s0-.1-.1-.1-.1 0 .1.1c-.2 0-.3-.1-.3 0v.4c0 .1-.1.2-.2.1s-.1-.2-.1-.3c0-.1.1-.1.1-.1.1 0 .1 0 .1-.1s0-.1-.1-.2c.1 0 .1 0 .1-.1h-.1v-.1h.1l.3.1s.1 0 .1.1v.2zm.1-.2c-.1 0-.1-.2-.1-.3 0 0 .3.1.4.2-.2 0-.2.1-.3.1z"/><path id="Fill-34" class="st1" d="M45.5 56.5c.1-.8-1.1-1.6-1.2-2.7-.2-1.1 0-2.2-1.3-3.7s-5.5-6.1-6.9-7.6c.3 0 .7 0 1.6.8.5.5 1.8 1.7 2.7 2.6 1.1-2.9 2.8-5.6 4.9-7.9.4-.4.8-.8 1.1-1.2-.9.2-1.9.6-2.7 1.2 0-1.3-.3-2.5-1.3-3.3.4-1.8.1-4-4-6.6 2.1.5 3.3 2.4 4.9.9-1.4 0-1.5-3.1-6.7-5.7 2 0 3.5 3.1 5.8 1.3-2.2-.3-2.9-4-6.8-5.2 1.3.1 2.7.8 3.9-.8-1.3.3-2.1-.9-3.6-1 .5-1.7.4-2.7-.2-3.9-1 .1-2.1.4-2.8 1-.1-.9-1.1-1-1.9-.9 0 .4.2 1-.2 1-.7.1-3 .8-4.8 1.4-1.8.7-3.8 1.9-4.4 2.3-.4.2-.7-.3-.9-.6-.6.5-1.2 1.2-.8 1.9-1 .1-2.1.3-3 1.1 0 1.1 1 2.2 2.4 2.9-2.4 2.3-.2 4.5-2.3 6.6 3 .1 2.5-4 4-4.5-.2 2.9-1.8 3.4-1.8 6.5 0 1.7 1 3.4.1 4.5 2.5-.7 1.8-6.1 3.4-7.7.3.9.1 1.8-.2 2.8-.9 2.5.1 6-1.3 7.1 2.2-.2 2.7-3.3 4.2-5.1-1.6 4.1-3.3 11.2-5.6 14.5-4.3 5.7-6.9 12.7-10.8 12.7-1.8 0-3.1-1.1-3.1-3.2 0-6.5 11.4-11 11.4-18 0-3.1-2.6-4.3-4.2-4.3-1.1 0-2.4.5-3.5 1.4-.5-.2-.9-.3-1.3-.3-4 0-3 7.1-6.5 7.1 1.4.8 3.8-.7 5.2-2.7-.6 4.6-7.3 3.4-6.8 8.9 1-4.3 11.7-3.7 11.7-10.3 0-.7-.4-1.4-.9-1.9.8-.5 1.6-.7 2.3-.7 1.3 0 2.5 1 2.5 2.8 0 5.9-11.3 10.8-11.3 18 0 1.2.4 2.2.9 3-.8.3-1.6.2-2.3-.6-.1 1.8 2.6 3 4.3 2.1.4.1.8.2 1.2.2-.5 1.4-2.2 1.8-3.1 1.7 2.8 2.1 7.6-.7 7.3-3.1 2.2-1.8 3.6-4.8 5.2-6.7-.1.5-.2.9-.3 1.4-1.6 2.9-3.1 5.5-3.6 9.4-.4 3.2-2 6.1-4.3 6.1-.5 0-1.3-.6-1.7-.3-.7.6 0 1.2 0 1.8 0 .9-1.8 1.8-1.8 4.6 0 1.3.8 2.8.5 3.6.7-.4 1.7-1.6 2.1-3.1.8 3.7-1.6 3.6.1 6.9.2-1.1 1.3-1.5 2-1.1.7.5.4.8-.1 1.3s-1 3 1.3 2.8c-.4-.3-.5-.9.7-1.2 1.6-.3 2 .4 3.7.4 1 0 1.3-1.3 2.1-1.3s.8.6.5 1.1c1.3-.4 1.6-1.1 1.6-1.8s-.6-1.2-.1-1.5c.5-.3 2 0 1.4 1.3.8-.1 1.2-.7 1.2-1.7s-1.1-1.5-2.1-1.3c-.3-.7-1.2-1-2-1-1.9 0-1.6 1.4-2.8 1.4-2 0-4-2.6-4-7 0-2.4 2.6-3 4.4-3.7 1.8-.8 5-2.7 6.9-5.9 1.5-2.5 1.6-5.2 1.4-8.4 2.6 1.5 2.9 3.5 2.9 5.1 0 2-1 2.8-1.8 3.1-.7.3-.9.2-1 .6-.1.5.3.8.5 1 .9.5.7 1.3 1 2.3.3 1 1.1 2.4 2.6 3.5.1-.6.1-1.5 0-2.8 2 1 .4 4.9 4.2 4.9-.7-.4-.5-1.4-.1-1.6.4-.1.9.3 1.7 1.3.7 1 .5.9 2.4.9 1.8 0 1-.6 2-.6s.9 1.1.4 1.9c1.6-.5 2.1-1.7 1.6-2.9 1.4-.8 2.2.3 2.4 1.1 1.4-1.4 0-3.1-1.1-3.2 0-.5-.4-1.1-1-1.1s-1.2-.1-1.8 0c-.7 0-1 1-1.8 1-2.4 0-7.1-4.3-7.1-6.1s4.5-3 4.5-5.9c0-3.8-3.8-5-6.9-7.5 1.1-1.2 4.4-1.5 6.3-.6.2-1 .9-.8 1.1-2.6.7 1.6-.2 2.9.5 3.6.1-.9 1.4-.8 1.4-2.8.4 1.2-.5 3.1.4 4 .2-1 .8-1.2 1.2-1.2s.7.3.7.9c0 1.5-1.8 1.1-1.8 2.8 0 .7.9 1 .9 1.4 0 .5-.8 1.2-1.7.6.3.7.9 1.2 1.7 1.2.8 0 1.7-.7 2.1-1.5.4 1.1.1 2.3-.7 2.4.8.4 2.8 0 2.6-2.5 1.1.2 1.7.9 1 2.3.9-.2 1.8-.7 1.8-1.6-.1-.8-.8-1.3-.7-2.3zM24.3 22.7c-1 .1-1-.9-2.8-1.3 1.3-.3 2.9-.9 4.4-1.4.2 1.1-.3 2.6-1.6 2.7zm7.4 7.7c-1.3.6-2.4-.6-2.6-1.4-.3-.8-.5-1.4-.2-1.7.6-.6.8-1 .4-1.7-.4-.8-1.3-.4-2.2-.2.4-.8.5-1.3-.1-1.3-.7.1-.7 1.2-1.1 1.1-.4-.1-.2-.8-.2-1.1 0-.5.3-.6.8-.9l3.9-1.4c.5-.2.8-.3 1.2.1.3.2.9.6.7.9-.2.4-1-.4-1.5 0s-.1.7.8 1c-.8.5-1.7.8-1.4 1.7.2.7.7.9 1.5.9.4 0 .8.6 1.1 1.4.2.6.3 2-1.1 2.6zm.2-10.6c-1 .8-2.4.1-3-1 1.4-.6 3.1-1.2 4.2-1.9-1.1 1.5-.4 2.2-1.2 2.9z"/><path id="Fill-35" class="st1" d="M18.9 13.8c0-.4-.3-.7-.7-.7-.4 0-.7.3-.7.7 0 .4.3.7.7.7.4 0 .7-.3.7-.7z"/><path id="Fill-36" class="st1" d="M18.7 11.8c0-.4-.3-.7-.7-.7-.4 0-.7.3-.7.7 0 .4.3.7.7.7.3 0 .7-.3.7-.7z"/><path id="Fill-37" class="st1" d="M19.1 10.9c.4 0 .7-.3.7-.7 0-.4-.3-.7-.7-.7-.4 0-.7.3-.7.7 0 .4.3.7.7.7z"/><path id="Fill-38" class="st1" d="M21.1 10.8c.4 0 .7-.3.7-.7 0-.4-.3-.7-.7-.7-.4 0-.7.3-.7.7-.1.4.3.7.7.7z"/><path id="Fill-39" class="st1" d="M29.5 9.5c.3.3.8.3 1.1 0 .3-.3.3-.7 0-1-.3-.3-.8-.3-1.1 0-.3.2-.3.7 0 1z"/><path id="Fill-40" class="st1" d="M29.3 7.9c.3-.3.3-.7 0-1-.3-.3-.8-.3-1 0-.3.3-.3.7 0 1 .3.3.8.3 1 0z"/><path id="Fill-41" class="st1" d="M27.4 7.6c.3-.3.3-.7 0-1-.3-.3-.8-.3-1.1 0-.3.3-.3.7 0 1 .3.3.8.3 1.1 0z"/><path id="Fill-42" class="st1" d="M25.7 8.8c.3-.3.3-.7 0-1-.3-.3-.8-.3-1.1 0-.3.3-.3.7 0 1 .3.3.8.3 1.1 0z"/><path id="Fill-43" class="st1" d="M21 7.8l.6 1.3.8-.9h.1c.1.4.1 1.2.1 1.6 0 .5.4.9.9.9s.9-.4.9-.9c0-.4-.2-.7-.5-.8-.4-.3-.8-.7-1-1v-.1l1.2.1-.5-1.3-.9.8-.1-1.4-1.3.5.9 1v.1l-1.2.1z"/><path id="Fill-44" class="st1" d="M29.6 10.1c.3.4.4.7.4 1-.2-.1-.5-.3-.8-.7l.2 1.7c.2-.3.4-.5.6-.6-.1 1.1-.5 1.6-.9 1.6-.5.1-.8-.2-.9-.6-.1-.5.3-.8.8-.4.1-1-.8-1-1.1-.6.4-1 .3-1.6-.6-2.2-.6.9-.3 1.5.4 2.2-.7-.3-1.3.2-.7 1 .1-.7.7-.5.8 0 .1.4-.3 1-1.1 1.2-1.1.3-1.4-.4-1.7-.9.2-.1.8-.1 1.4.3l-.5-1.7c-.2.6-.6.8-1 1 0-.5.3-1.5.3-1.5l-2 .8s.9.4 1.3.8c-.4.2-.8.2-1.4 0l.8 1.5c.2-.7.5-1.1.8-1.2.2.6.4 1.3-.5 1.8-.7.4-1.4.2-1.6-.2-.3-.5 0-1 .6-.6-.1-1-.9-1-1.2-.2 0-1-.2-1.6-1.3-1.9-.3 1 .1 1.6 1.1 2-.6-.1-1.2.5-.4 1.2 0-.6.5-.7.8-.3.2.3.2.8-.2 1-.3.2-1 .2-1.8-.6.2-.1.5-.1.9 0L20 13.7c.1.5 0 .8-.1 1-.2-.3-.3-.5-.4-1l-.8.7c.8.5 1.7 1.2 2.8 2.7 1.2-.7 3.2-1.7 4.5-2.2 1.3-.5 3.5-1.2 4.8-1.5-.3-1.8-.2-3 .1-3.9l-1.3.6z"/><path id="Fill-45" class="st1" d="M121.2 71.3c-1.8 0-3.2 1.4-3.2 3.2s1.4 3.2 3.2 3.2c1.8 0 3.2-1.4 3.2-3.2s-1.4-3.2-3.2-3.2zm0 5.5c-1.3 0-2.4-1-2.4-2.3s1.1-2.3 2.4-2.3 2.4 1 2.4 2.3-1.1 2.3-2.4 2.3z"/><path id="Fill-46" class="st1" d="M108.1 76.9c-.7-.1-1.5 0-2 .4-.4.3-.7.7-.8 1.2-.1.5.1 1.1.5 1.6.4.4 1 .7 1.6.9.6.1 1.3 0 1.8-.3.6-.3.9-.8 1-1.3.2-1.1-.7-2.2-2.1-2.5zm1.3 2.3c-.1.7-1 1.1-1.9.9-.9-.2-1.5-.8-1.4-1.5 0-.3.3-.5.5-.6.4-.3.9-.4 1.4-.3.8.1 1.5.7 1.5 1.3-.1.1-.1.2-.1.2z"/><path id="Fill-47" class="st1" d="M91.4 33.1c-.3-.3-.7-.6-1.1-.6-.6-.1-1.3.1-1.8.5-1 .8-1.3 2-.7 2.9s2 .8 3 .1c.5-.4.9-1 1-1.6 0-.5-.1-.9-.4-1.3zm-.5 1.2c0 .4-.3.8-.7 1.1-.6.5-1.5.5-1.8.1-.1-.2-.2-.3-.2-.5 0-.4.2-.9.7-1.2.4-.3.8-.4 1.2-.4.2 0 .4.1.6.3.3.2.3.4.2.6z"/><path id="Fill-48" class="st1" d="M105.1 72.3c-.4-.5-.9-.8-1.5-.8-.5 0-.9.2-1.3.5-.5.5-.8 1.1-.8 1.9v.1c0 .7.3 1.4.7 1.9.4.4.8.6 1.3.6s1-.2 1.3-.5c.5-.5.8-1.1.8-1.9.1-.7-.1-1.3-.5-1.8zm-.8 3c-.2.1-.4.3-.7.3-.3 0-.6-.2-.7-.3-.3-.3-.5-.8-.5-1.3s.2-1 .5-1.3c.2-.2.4-.3.7-.3.7 0 1.2.8 1.2 1.7 0 .4-.2.9-.5 1.2z"/><path id="Fill-49" class="st1" d="M90.2 48.2c-.2-.6-.7-1.2-1.4-1.5-.7-.3-1.4-.4-2.1-.2-.5.2-.9.5-1.1.9-.5 1 .1 2.3 1.4 2.9.7.3 1.4.4 2.1.2.5-.2.9-.5 1.1-.9.1-.4.1-.9 0-1.4zm-.8 1.1c-.2.3-.4.4-.6.5-.4.1-1 .1-1.4-.1-.8-.4-1.3-1.2-1-1.8.1-.3.4-.4.6-.5.4-.2 1-.1 1.4.1.5.2.8.6 1 1 .1.2.1.5 0 .8z"/><path id="Fill-50" class="st1" d="M126.4 50.1c-.8-2.4-5.9-2.1-6.1-6.8 1 2.8 3.1 3.8 4.7 3.1-3.5-.4-.7-6.3-5.2-6.3-.3 0-.5 0-.7.1-.8-.8-1.6-1.1-3-1.1-1.9 0-5.2 1.8-5.2 5.6 0 8.1 9.6 8.9 9.6 16 0 2.1-1.6 3.4-3.4 3.4-1.6 0-2.9-1.8-4.3-4.6-.7-1.3-2-3.1-3.5-5 .4.3.9.5 1.4.5.5 0 1-.2 1.3-.5.3-.3.5-.8.6-1.3v-.1c0-.6-.3-1.3-.8-1.8s-1.2-.9-1.9-.9c-.5 0-1 .2-1.3.5-.4.3-.5.8-.6 1.3v.1c0 .3 0 .6.2.8-2.1-2.7-4-5.3-4-6.7 0-1.3.9-2.4 2-3.7.1 0 .4.2.4.2l.3-.3c.4-.4 1.2-1.3 2.8-3l.1-.1.4-.4-1-.8c.3-.6.5-1.3.7-2 .3 1.3 1 2.2 1.9 1.9-.6-1.4.6-3.2-.2-6.5.8 1.3 1.9 2 2.7 1.7-2.1-1.9.6-4.5-2.1-8.5.9.3 1.5.1 1.9-.3-2.5-.3-1.4-3.5-5.8-4.7 1.1-.2 1.7-.8 1.6-1.4-1.2.8-2.2-1.5-6-1.5-.2-1.4-1.6-2.9-3.1-3.6.3 1.1 0 2.1-.3 2.9L88 4.2c-.4-.3-.6-.4-.7-.3-.1.1-.1.3.1.6l10.7 13.3-2.4.9c-.5.2-.9.7-.9 1.4-2 1-3.7 2.2-4.6 3-.7.6-1.2.7-.6 2.1.2.5-.5 1.8 1.1.8 1-.6 3.3-1.8 3.7-1.1.2.4-1 1-1.8 1.3-.8.3-1.6.9-1.5 1.2.1.3.7 0 .8.3 0 .4.3.7.6.7s.7-.6 1-.4c.3.2-.1 1.7-.4 2 1.2-.2 2-1.3 2-2.2 0-.9.3-1.1.5-1.2.2-.1.4 1 .1 1.6.7-.1 1.3-1 1.2-2.5.3-.3.7-.4.9-.4.4 0 1.2 1.1 2.4 1.1 2.1 0 3.3-1.7 3.4-2.5.1-.6.1-1.3-.3-1.7.8.6 1 1.5 1 2.3 0 3-5.3 4.4-7.5 6.4l-.2.2-2.5-1-.2.5s0 .1-.1.5c-.3.8-.8 2.6-1.1 3.6l-.1.4.2.1c-1.5 2-2.7 4.1-2.9 6.4-.6-.6-1.2-1.1-1.8-1.6.1-.2.1-.5.1-.7 0-.7-.2-1.3-.6-1.7-.3-.4-.7-.6-1.1-.6-.4 0-.9.1-1.2.4-.1.1-.2.1-.2.2-.1-.1-.2-.1-.3-.2-.8-.6-1.8-1.4-2.5-2-.3-.3-.5-.4-1.1-.4h-1.1c-.4 0-.6.3-1 .7-.2.2-1 .8-1.8 1.4.4.4.8.8 1.1 1.2l.3.3c.4-.3.6-.5.8-.6.3-.2.6-.3.9-.3.3 0 .8.2 1.1.7.2.3 2.3 2.9 3.9 4.8-.2.1-.4.1-.5.2-.7.3-2.3.2-3 .2-.7-.1-.9-.2-1.4.5-.2.3-.4.6-.7.9-.2.3-.4.6.1 1.5.7 1.2 2.6 4.5 3.2 5.9.6 1.5 1.3 1.7 2.5 2.2 1.2.5 3.1 1.6 3.4 1.9V55c-.3-.4-1.5-.8-1.9-.9-.4-.2-.5-.3 0-.3s1.9.5 2.9.9c-.3-1.1-1.4-2.3-2-3-.8-.2-1.7-.2-2 0 0 .2-.1.5-.5.5-.3 0-.6-.3-.5-.6.1-.3.6-.4.5-1.1-.1-.6-.9-.7-1.4-.8-.7-1-1.5-2.5-1.9-3.1-.4-.6-.2-.9.1-1.1.6-.5 1.9.3 4.4.4.9 0 2 .1 3.2.2.3 2.9 1.5 5.7 5.6 6.7 2 .5 4.1 1.9 4.8 3.8-8.2-.1-9.5 3-9.5 6 0 3.4 2.9 3.2 2.9 5.7 0 2.2-6.9 3.1-9 3.4-1.8.3-2.8.6-3.6 1.5-.9.8-1.7 1.6-3.3 3.2 0 0 .6.1 1.3.1l1.2-1.5c.3-.5.6-.9.8-.9.2 0 .1.4-.2.9l-1 1.6c4 .3 4.3-1.2 4.3-1.8 0-.6-1-1-.4-1.4.6-.4 1.1-.1 1.5.4.5.5.6 1 1.7.6 0 0 8.8-3.6 9.9-4.1 1-.4.7-.9.1-1.4-.7-.5-.8-1.4-.8-2.3 0-2.6 1.6-3.5 4.5-3.4 0 .4-.1.9-.1 1.3 0 4.1 6.3 8.1 8 8.1.8 0 1.8-.6 1.8 1.9 0 1.8.4 3.1.1 5.2-.3 2.1-.9 2.4-2.2 3.3-1.3.9-2.5 3.7-3 4.3.6.4 1.2.4 1.7-.9.4-1.1.9-1.9 1.3-2.2-.5 1.2-.9 3-1.1 3.6 1.6.3 4.2-1.2 4.2-2.3 0-1.1-.9-1-.9-1.8 0-.3.4-.7.9-.7.7 0 1.1.5 1.2.7.7-.4 1.2-1.1 1.1-2.7 0-.6 0-1.3-.1-2 0 .1.1.2.2.3.3.5.8.8 1.4.8.6 0 1.2-.1 1.8-.5.6-.4 1.1-1 1.2-1.7v-.4c0-.4-.1-.7-.3-1-.3-.4-.7-.7-1.2-.8-.7-.1-1.4 0-2 .4-.6.4-1 .9-1.2 1.5-.1-2.2-.3-4.3-.2-5.2.1-1.3.1-1.8-.3-2s-.9.5-1.5.5-2.5-1.7-2.5-3.5 2-4.1 1.9-6.5c0-.8.4-1.1.8-.5.4.8.9 2 1.8 2.9-.5 3.1 2.9 6 5.7 3.8-1.4.2-2.3-1-3-2.2.2 0 .5.1.8.1h.4c1 1.2 4.1 1.1 4.9-1.9-.6.6-1.7 1.1-2.5 1 1.2-.9 1.8-2.4 1.8-4 0-7.8-9.5-8.7-9.5-15.7 0-2.6 2.3-4.3 3.9-4.3.6 0 1.1.2 1.5.5-.6.6-.9 1.5-.9 2.7.3 5.6 9.5 5.3 9.6 8 .4-.3.3-.8.2-1.2zM95.7 22c.5-.8 0-2.1 1.6-2.1.8 0 1.5.8 2.4 1.1-1.5 0-2.9.3-4 1zm-8.9 18.2c-.1.1-.3.3-.6.2-.5 0-1-.7-1-1.3V39c0-.4.2-.9.5-1.1.1-.1.4-.3.6-.2.3 0 .5.2.6.3.3.3.4.7.4 1.2 0 .3-.2.7-.5 1zm27.8 38c.1-.4.4-.9.9-1.2.5-.3 1-.4 1.4-.3.2 0 .5.2.7.4.1.2.1.4.1.5v.2c-.1.4-.4.9-.9 1.1-.8.5-1.7.5-2.1-.1-.2-.1-.2-.4-.1-.6zm-5.5-26.7c.2-.2.5-.3.8-.3.5 0 .9.2 1.3.6.4.4.6.9.6 1.3 0 .2-.1.5-.3.7-.2.2-.5.3-.8.3-.5 0-.9-.3-1.3-.6-.4-.4-.6-.9-.5-1.3-.1-.2 0-.5.2-.7zM93 34.7c.5-1.4 1.3-4.1 1.3-4.1v-.1l1.8.7-.2.1c-.3.1-.8.4-1.2.9.3.1.8.1 1.1-.1l.3-.2-.8 1.9-.1-.2c-.1-.2-.5-.6-.8-.8v.4c0 .7.5 1 1 1.3.8.4 1.4.5 1.6.2 0-.1.1-.2.1-.2 0-.1-.1-.3-.2-.4-.2-.2-.5-.3-.8-.1H96v-.1c-.1-.5.1-.8.3-1 .2-.2.4-.3.7-.3.3 0 .6.2.7.5.1-1.1.7-1.8 1.7-2.1h.1v.1c.1.3.2.7.2 1 0 .6-.3 1.2-.8 1.7.4-.1.8 0 1 .3.2.2.2.5.1.7 0 .2-.2.5-.7.8l-.1.1v-.1c-.1-.3-.3-.5-.6-.6-.3 0-.5.1-.6.3-.2.4.1.8.9 1.3 1 .5 1.6.1 2-.5-.3 0-.7 0-1.1.3l-.3.2 1.3-2.3v.3c0 .1.1.5.5.9.1-.2.2-.5.2-.8 0-.2 0-.5-.1-.7l-.1-.3 2.6 1.5h-.3c-.5 0-.9.3-1.3.8.5.1.9 0 1 0l.3-.1-1.4 2.3v-.5c0-.5-.1-.8-.3-1-.1.2-.2.5-.2.7 0 .4.2.9.8 1.2.8.5 1.3.5 1.6.1.1-.2.1-.4-.1-.6-.2-.2-.5-.3-.8-.2l-.1.1v-.1c0-.5.2-.8.3-.9.2-.2.4-.3.7-.3.4 0 .6.3.8.7.4-1.1 1-1.7 2.1-1.9h.1v.1c0 .2.1.4.1.6 0 .8-.4 1.5-1.1 2 .3 0 .6.1.8.4.1.2.1.3.1.5v.3c-.1.2-.2.5-.7.7h-.1V40c-.1-.4-.3-.6-.6-.6-.2-.1-.5 0-.6.2-.2.3.1.8.9 1.3.5.3 1.2.7 1.9 0-.3-.2-.8-.3-1.1-.3h-.2l1.3-1.6v.4c0 .3.2.7.4.9.1-.4.2-.8.2-1.1v-.6l1.5 1.2-.1.1s-2 2.1-2.9 3.1v.1L93 34.7zm13.1 32.1c-.5.7-1.4 1-2 .6-.6-.4-.6-1.3-.1-2s1.4-1 2-.6c.6.4.6 1.3.1 2zm3.8-5.9c-.5.7-1.4 1-2 .6s-.6-1.3-.1-2 1.4-1 2-.6c.5.4.6 1.3.1 2z"/><path id="Fill-51" class="st1" d="M65.3 85.9c-.2 0-.5 0-.7.1v-3.7c-1.7-.1-3.7-.4-5.7-.9V86c-.2-.1-.4-.1-.7-.1-1.4 0-2.2 1.1-2.2 2.2 0 1 .6 1.9 1.1 2.5.3-.6.5-1.1.8-1.1.7 0 .4 3.3 2.4 3.4-.1.2-.1.3-.1.5 0 .8.7 1.5 1.6 1.5.8 0 1.5-.7 1.5-1.5 0-.2 0-.4-.1-.5 2-.1 1.6-3.4 2.3-3.4.3 0 .6.5.9 1.1.5-.6 1.1-1.5 1.1-2.5 0-1.1-.9-2.2-2.2-2.2zm-3.5 8.3c-.5 0-.9-.4-.9-.8 0-.5.4-.9.9-.9s.9.4.9.9c-.1.5-.5.8-.9.8zm4.6-4.8c-.2-.4-.6-.7-.9-.7-1.3 0-.8 3.4-2.4 3.4-.7 0-1.1-.4-1.1-.9s.3-.6.3-1-.3-.5-.6-.5c-.4 0-.7.1-.7.5s.4.5.4 1-.4.9-1.1.9c-1.6 0-1.1-3.4-2.4-3.4-.3 0-.6.2-.9.7-.3-.5-.4-1-.4-1.4 0-.6.5-1.5 1.5-1.5 1.8 0 1.3 2.4 2.2 2.4.4 0 .6-.2.6-.6 0-.7-1.2-1.3-1.2-2.3 0-1 .9-1.8 1.9-2.6 1 .8 1.9 1.6 1.9 2.6s-1.2 1.6-1.2 2.3c0 .4.3.6.7.6.8 0 .4-2.4 2.2-2.4 1 0 1.5.9 1.5 1.5.1.4 0 .9-.3 1.4z"/><path id="Fill-52" class="st1" d="M54.1 18c-.6 1.1-1.1 1.8-1 2.6.1.9 1 1.5 1.4 2.3.4-1 1.1-1.8 1-2.6-.1-.6-1.2-1.7-1.4-2.3z"/><path id="Fill-53" class="st1" d="M69.4 18c.6 1.1 1.1 1.8 1 2.6-.1.9-1 1.5-1.4 2.3-.4-1-1.1-1.8-1-2.6.1-.6 1.2-1.7 1.4-2.3z"/><path id="Fill-54" class="st1" d="M45.3 17.4c.6 0 1-.5 1-1s-.5-1-1-1c-.6 0-1 .5-1 1s.5 1 1 1z"/><path id="Fill-55" class="st1" d="M46 18.8c0-.6-.5-1-1-1-.6 0-1 .4-1 1s.5 1 1 1c.6.1 1-.4 1-1z"/><path id="Fill-56" class="st1" d="M46.5 21.3c0-.6-.5-1-1-1-.6 0-1 .5-1 1 0 .6.5 1 1 1 .6 0 1-.4 1-1z"/><path id="Fill-57" class="st1" d="M51 12.5c.6 0 1-.5 1-1 0-.6-.5-1-1-1-.6 0-1 .5-1 1 0 .6.5 1 1 1z"/><path id="Fill-58" class="st1" d="M48.5 13.3c.6 0 1-.5 1-1 0-.6-.5-1-1-1-.6 0-1 .5-1 1-.1.6.4 1 1 1z"/><path id="Fill-59" class="st1" d="M46.5 15.1c.6 0 1-.5 1-1 0-.6-.5-1-1-1-.6 0-1 .5-1 1-.1.5.4 1 1 1z"/><path id="Fill-60" class="st1" d="M53.7 12.8c.6 0 1-.5 1-1 0-.6-.5-1-1-1s-1 .5-1 1 .5 1 1 1z"/><path id="Fill-61" class="st1" d="M56.3 13.5c.6 0 1-.5 1-1 0-.6-.5-1-1-1-.6 0-1 .5-1 1 0 .6.4 1 1 1z"/><path id="Fill-62" class="st1" d="M58.7 14.6c.6 0 1-.5 1-1 0-.6-.5-1-1-1-.6 0-1 .5-1 1 0 .6.4 1 1 1z"/><path id="Fill-63" class="st1" d="M77.1 16.4c0 .6.5 1 1 1 .6 0 1-.5 1-1 0-.6-.5-1-1-1s-1 .4-1 1z"/><path id="Fill-64" class="st1" d="M78.5 17.8c-.6 0-1 .5-1 1 0 .6.5 1 1 1 .6 0 1-.5 1-1s-.5-1-1-1z"/><path id="Fill-65" class="st1" d="M78 20.3c-.6 0-1 .5-1 1 0 .6.5 1 1 1s1-.4 1-1-.5-1-1-1z"/><path id="Fill-66" class="st1" d="M72.4 12.5c.6 0 1-.5 1-1 0-.6-.5-1-1-1-.6 0-1 .5-1 1 0 .6.5 1 1 1z"/><path id="Fill-67" class="st1" d="M75 13.3c.6 0 1-.5 1-1 0-.6-.5-1-1-1-.6 0-1 .5-1 1 0 .6.4 1 1 1z"/><path id="Fill-68" class="st1" d="M77 15.1c.6 0 1-.5 1-1 0-.6-.5-1-1-1-.6 0-1 .5-1 1s.4 1 1 1z"/><path id="Fill-69" class="st1" d="M69.7 12.8c.6 0 1-.5 1-1 0-.6-.5-1-1-1-.6 0-1 .5-1 1s.5 1 1 1z"/><path id="Fill-70" class="st1" d="M67.2 13.5c.6 0 1-.5 1-1 0-.6-.5-1-1-1-.6 0-1 .5-1 1-.1.6.4 1 1 1z"/><path id="Fill-71" class="st1" d="M63.7 13.6c0 .6.5 1 1 1 .6 0 1-.5 1-1 0-.6-.5-1-1-1s-1 .5-1 1z"/><path id="Fill-72" class="st1" d="M60 19.1h1.2v-4.4l-1.2-.3v4.7z"/><path id="Fill-73" class="st1" d="M63.5 14.4c-.4.2-.8.3-1.2.4v4.4h1.2v-4.8z"/><path id="Fill-74" class="st1" d="M61.1 9.6V7c-1.3.3-2.3 1.3-2.5 2.6h2.5z"/><path id="Fill-75" class="st1" d="M62.4 9.6h2.5c-.2-1.3-1.2-2.3-2.5-2.6v2.6z"/><path id="Fill-76" class="st1" d="M58.6 10.9c.3 1.4 1.6 2.5 3.2 2.5s2.8-1.1 3.2-2.5h-6.4z"/><path class="st1" d="M64.5 2.3v3.5c-.6-.7-1.5-1.3-2.4-1.5.1.9.7 1.7 1.4 2.3H60c.7-.6 1.3-1.4 1.4-2.3-.8.1-1.8.7-2.3 1.5V2.3c.6.7 1.5 1.3 2.3 1.5-.1-.9-.6-1.6-1.3-2.5h3.4c-.7.9-1.3 1.7-1.4 2.5.8-.1 1.8-.7 2.4-1.5z"/><path id="Fill-78" class="st1" d="M67.3 76.4c-3.2-.8-7.1-2.2-10.7-3.8.1-.7-.2-1.5-.7-2.2-.6-.6-1.3-1-2-1-.3 0-.7.1-1 .2l-1.5-1.5c-1.4-1.6-2.4-3.4-3.2-5.4-.4-1.2-.7-2.4-.9-3.6-.2 1-1.4 2.2-3.5 2.3 0-.2 0-.5-.2-.6-.5.6-1.2 1.2-3.1.5.3 1.4.7 2.8 1.2 4.2 1.1 2.9 2.7 5.5 4.7 7.7.7.7 1.4 1.4 2.1 2v.4c0 .8.7 1.9 1.8 2.5.9.4 1.8.3 2.7-.3 1.6.8 3.6 1.6 5.8 2.2 2.4.7 4.8 1 6.6 1 1.6 0 3.7-.7 5.7-2 .8-.5 1.6-1.1 2.2-1.6l.2-.2c-1.8.2-4.2-.3-6.2-.8zM42.8 65.1c-.3-.7-.3-1.3 0-1.9.3-.6.7-1 1.3-1.2.6-.2 1.3-.2 1.9 0 .6.3 1.1.8 1.3 1.4.1.3.2.6.2 1 0 .3-.1.7-.2.9-.3.6-.7 1-1.3 1.3-.6.2-1.3.2-1.8 0-.7-.3-1.2-.8-1.4-1.5zm3.9 6.7l-.8-1.1s1.3-.9 1.4-1c-.1-.1-.7-1-.8-1.1-.1.1-1.4 1-1.4 1l-.8-1.1 3.9-2.7.8 1.1s-1.3.9-1.4 1c.1.1.7 1 .8 1.1.1-.1 1.4-1 1.4-1l.8 1.1-3.9 2.7zm8.7-.2l-.3-.3c-.6-.5-1.2-.5-1.7 0-.3.2-.5.5-.8.8l-.3.4.2.2c.7.5.8 1.1.6 1.4l-.3.3c-.3.1-.8 0-1.3-.3l-.3-.1-.2.2c0 .1-.1.1-.1.2-.1.1-.1.2-.2.3-.3.5-.4.9-.4 1.2v.3c.1.4.4.5.7.7l.1.1c.3.2.7.4 1 .6-.6.3-1.2.4-1.8.1-.9-.4-1.5-1.4-1.5-1.9 0-.8.4-1.7 1-2.7l.1-.2.1-.3c-.2-.3-.3-.6-.5-.9.3 0 .7.1 1 .2h.2l.1-.1c.4-.4 1.8-1.8 3-1.8.6 0 1.2.3 1.6.8.3.4.5.8.6 1.2-.2-.1-.4-.2-.6-.4zm2.1 6.1c-.8 0-1.4-.6-1.4-1.4 0-.8.6-1.4 1.4-1.4.8 0 1.4.6 1.4 1.4 0 .8-.6 1.4-1.4 1.4zm6.1 1.9c-.7 0-1.3-.6-1.3-1.3 0-.7.6-1.3 1.3-1.3.7 0 1.3.6 1.3 1.3 0 .7-.6 1.3-1.3 1.3z"/><path id="Fill-79" class="st1" d="M46.1 64.3c0-.2 0-.3-.1-.5-.2-.6-.8-.9-1.4-.6-.6.3-.8.8-.6 1.4.1.3.3.5.6.6.3.1.5.1.8 0 .4-.1.7-.4.7-.9z"/><path id="Fill-80" class="st1" d="M46.8 44c-.5-.3-1.1-.1-1.4.5-.1.3-.2.5-.1.8.1.2.3.4.5.6.2.1.5.2.8.1.3-.1.5-.3.6-.5.1-.2.1-.3.1-.5 0-.5-.2-.9-.5-1z"/><path id="Fill-81" class="st1" d="M75.2 41.5l-.5.1.2.3z"/><path id="Fill-82" class="st1" d="M81.3 50.9l-.4-.9c-.1.1-.2.2-.3.4-.1.1-.1.1-.1.2.1 0 .2.1.3.1.1.1.3.2.5.2z"/><path id="Fill-83" class="st1" d="M80.9 56.9c.1 0 .2 0 .2-.2v-.3h-.4v.2c0 .1 0 .2.1.2 0 .1 0 .1.1.1z"/><path id="Fill-84" class="st1" d="M57 34.9c-.2-.1-.5-.1-.8 0-.3.1-.6.3-.7.6-.1.3-.1.6 0 .8.1.2.4 1 1.5.6.3-.1.5-.3.6-.5.1-.1.1-.3.1-.4 0-.1 0-.2-.1-.4-.2-.3-.4-.5-.6-.7z"/><path id="Fill-85" class="st1" d="M83.5 54.2c-.5-.3-1-.8-1.4-1.6-.5-.2-1.9-.7-2.5-.9l-.3-.1-2 .5-.3-1.3 1.9-.5.2-.2c.3-.4.8-1.1 1.1-1.3-.5-.9-1-1.7-1.3-2.2-.3-.5-.5-1-.5-1.3l-1.8.9c.1.1.8 1.6.8 1.6l-1.2.6-1.4-2.8 4.3-2 .2.3c.1-.1.2-.3.3-.5.1-.2.3-.4.4-.5-.8-1.4-1.8-2.7-2.9-3.9-1.3-1.5-2.8-2.7-4.4-3.8.9-.5 1.7-1.4 1.7-2.7 0-.8-.3-1.4-.9-1.9.9-2.9 2.5-6.3 3.9-7.8l-2.9-1.2c.8 1.1.8 2.5.6 3.2-.8-.5-1.4-1.2-1.6-2.2-.1.9-.6 2.3-1.1 3.1.8-.4 1.5-.6 2.4-.2-.5.6-1.8 1.7-3.7 1.2-1-.2-2.1-.8-2-1.6 0-.5.4-1 1-1 .6.1.7 1 .5 1.4.8-.5 1.7-2.9.4-3.2-1-.3-2 1.1-2.3 2.2-.2-1.3-.7-2.5-1.8-2.5-1.4.1-.9 2.5-.4 3.2.1-.9.5-1.3.9-1.3s.8.3.8 1.1c-.1.8-1.2 1.3-2.5 1.3-1.2 0-3.4-.4-3.6-2.7.8.1 2 .7 2.6 1.5-.2-1.4-.2-2.4 0-3.9-.7.9-1.8 1.4-2.6 1.5.2-1 1.1-2.1 2.1-2.7h-5.3c1 .6 1.9 1.7 2.1 2.7-.8-.1-1.9-.6-2.5-1.5.2 1.5.2 2.5 0 3.9.5-.8 1.8-1.4 2.5-1.5-.2 2.3-2.4 2.7-3.6 2.7-1.3 0-2.4-.5-2.5-1.3-.1-.8.4-1 .8-1.1.4 0 .9.4.9 1.3.5-.6.9-3.1-.4-3.2-1-.1-1.6 1.2-1.8 2.5-.3-1.1-1.3-2.5-2.3-2.2-1.3.4-.4 2.8.4 3.2-.2-.4-.2-1.4.5-1.4.6-.1 1 .5 1 1 0 .8-1 1.3-2 1.6-1.9.5-3.2-.5-3.7-1.2.9-.4 1.6-.2 2.4.2-.4-.8-.9-2.3-1.1-3.1-.2 1-.9 1.7-1.7 2.2-.2-.8-.1-2.1.6-3.3l-2.9 1.2c1.4 1.5 3 5 3.9 7.9-.6.5-.9 1.1-.9 1.9 0 1.3.9 2.1 1.7 2.7-1.6 1-3.1 2.3-4.4 3.8-2 2.2-3.6 4.8-4.7 7.7 0 .1-.1.3-.1.4.3.3.6.7 1 1 0 0 0-.1.1-.1.1-.4.6-.8.9-1l1.5.6c-.6.4-1.3 1-1.2 1.2.1.1.4-.2.5-.3.4-.3 1.1-.9 2-.5.4.2.7.4.8.8.2.4.2.8 0 1.1-.2.4-.6.9-1.1 1.2l-1.3-.5c.5-.3 1.1-.9 1.2-1.1v-.2c-.1-.1-.4.1-.7.3-.3.2-.6.5-1 .5.6.9 1 1.7 1.1 2.4 0 1.3.3 1.8 1 2.7 1.1 1.3 0 1.2.9 2.8 0-.5-.1-.9-.1-1.4h14.5v15.6c-.6 0-1.2.1-1.7.7 1.7.7 3.4 1.3 5 1.8.2-1 .4-1.5 1-2.1l-3.3-.3V56.4h14.2c0 2.2-.4 4.3-1.2 6.2-.8 2-1.8 3.9-3.2 5.4-1.4 1.6-3 2.8-4.7 3.7-.4.2-.7.9-1 1.4-.2.5-.4.9-.5 1.5.7.2.8.3 1.4.5 5 1.2 6.3 1 6.6.8 1.1-.9 2.2-1.8 3.1-2.9 2-2.2 3.6-4.8 4.7-7.7 1.1-3 1.7-6.2 1.7-9.4.3-.5.3-1.1.2-1.7zm-6.8-14.5l.6.7-2.5 4.8-.9-1.2.5-.8-1-1.2-.8.3-1.1-1 5.2-1.6zm-3.2-3.1l.8.6-2.9 3.8-1.1-.8 1.5-1.9-1.4.4-.2-1.5-1.4 1.9-1.2-.7 2.8-3.9.9.5.3 2 1.9-.4zM50 32.5c0-2.7 7.8-3 11.7-3 2 0 4.9.1 7.3.5 2.4.4 4.4 1.1 4.4 2.5 0 .8-.5 1.4-1.6 2-2-1.3-5.3-2.7-10.1-2.7s-8.2 1.4-10.1 2.7c-1.1-.6-1.6-1.3-1.6-2zm16.7 1l-.9 4.7-1.5-.2.9-4.7 1.5.2zm-7 3.6l-.6 1.3c-1 .2-2.1 0-2.4-.1-1.1.1-2.2-.5-2.6-1.5-.2-.6-.2-1.2 0-1.8.3-.6.8-1.1 1.5-1.3 1.3-.5 2.7.1 3.2 1.4.1.3.1.5.1.8 0 .5-.1.9-.4 1.3.3 0 .7 0 1.2-.1zm-9.2-.6l.9.9-.9.9c.1.1 2.2 2.3 2.2 2.3l-1 .9-2.2-2.4-1 .9-.9-.9 2.9-2.6zM47 39.8l3.6 2.8-.8 1-3.6-2.8.8-1zm-.1 7.3c-.6.2-1.2.1-1.8-.2-.5-.3-1-.8-1.1-1.3-.2-.6-.1-1.2.2-1.8.3-.6.8-1 1.4-1.2.6-.2 1.2-.1 1.8.2.6.3 1 .8 1.1 1.3.1.2.1.4.1.7 0 .4-.1.8-.3 1.2-.3.5-.8 1-1.4 1.1zm14.6 8.5H47c0-2.2.4-4.3 1.2-6.3.8-2 1.8-3.9 3.2-5.5 1.4-1.6 2.9-2.8 4.7-3.7 1.7-.9 3.6-1.3 5.5-1.3v16.8zm.3-17.8c-1 0-2.1-.6-2.1-1.9v-2.8h1.4v2.7c0 .4.1.4.1.5.1.1.3.2.5.2.3 0 .5-.1.6-.2.1-.1.1-.2.1-.6V33h1.4v2.8c0 .5-.2 1-.5 1.4-.3.4-.8.6-1.5.6zm.6 17.8V38.8c1.8.1 3.5.5 5.1 1.3 1.8.9 3.3 2.1 4.7 3.7 1.4 1.6 2.4 3.4 3.2 5.5.7 2 1.1 4.1 1.2 6.3H62.4zm11.9 18.8l-1-.9 1.2-1.2-.3-.3-1.1 1.1-1-.9 1.1-1.1-.2-.2-1.2 1.1-.9-.9L73 69l3.4 3.3-2.1 2.1zm3.8-4.2c-.2.3-.7.7-1.1.8l-1.3-.9c1.4-.4 1.5-.8 1.4-.9-.1-.1-.3.1-.6.2-.5.2-1.2.6-2 .1-.3-.2-.6-.5-.6-.9-.1-.4 0-.8.3-1.1.3-.4.8-.7 1.3-.9l1.3.9h-.2c-.6.2-1.2.5-1.3.7-.1.1-.1.1-.1.2.1.1.5-.1.7-.2.5-.2 1.2-.5 1.9-.1.3.2.5.5.6.9v.3c.1.2-.1.6-.3.9zm2.9-5.6l-3 1 2.2.9-.5 1.2-4.4-1.8.4-1 2.9-1-2.2-.8.5-1.3 4.4 1.8-.3 1zm.7-2.3l-1.3-.2.3-1.6-.3-.1L80 62l-1.3-.2.3-1.5-.4-.1-.3 1.6-1.3-.3.6-3 4.7.8-.6 3zm.7-5.6c0 .5-.2.9-.5 1.2-.3.3-.7.4-1.1.4-.4 0-.8-.2-1-.4-.3-.3-.4-.7-.4-1.3v-.2h-1.7V55l4.7.1v1.6z"/><path id="Fill-86" class="st1" d="M24.1 89.3s-.2.1-.3.2c.1.2 1.1 1.7 1.2 2 .1 0 .3-.2.3-.2 1-.5.9-1.3.6-1.7-.4-.9-1.1-.7-1.8-.3z"/><path id="Fill-87" class="st1" d="M88.9 83.2c.1 0 .1-.1.2-.1V83c0-.1-.1-.2-.2-.3l-.4-.2s-.2.4-.3.5c.1.1.3.2.3.2h.4z"/><path id="Fill-88" class="st1" d="M82.7 82.5c.9.2 1.5.1 1.9-.8.3-.7.1-1.2-1-1.5 0 0-.1 0-.4-.1-.1.2-.8 2.2-.8 2.3.1.1.3.1.3.1z"/><path id="Fill-89" class="st1" d="M92.1 87.6c.3.2.7.2 1 .2.4-.1.6-.3.8-.6.2-.3.2-.6.1-.9-.1-.3-.3-.6-.6-.8-.4-.2-.7-.2-1-.2-.3.1-.6.3-.8.6-.2.3-.2.6-.2.9.2.4.4.6.7.8z"/><path id="Fill-90" class="st1" d="M68.6 98.3c-.3-.2-.6-.3-1-.3s-.7.1-1 .4c-.3.2-.4.5-.4.9s.1.6.4.9c.3.2.6.3 1 .3s.7-.1 1-.4c.3-.3.4-.6.4-.9 0-.4-.1-.7-.4-.9z"/><path id="Fill-91" class="st1" d="M102 94.5c2.7 0 5.1-3.4 8.5-4.9-8.6 2.4-20.4-11.8-28.4-11.8-2.3 0-4.9.8-6.2 3.9C74.6 85 73 86 73 87.5c0 1.3 1.2 2.2 3.1 3.3 1.3.7 2.6 1 2.5 2.2-3.7 1.7-9.7 2.8-16.9 2.8-7.2 0-13.2-1.1-16.9-2.8-.1-1.2 1.3-1.5 2.5-2.2 2-1 3.1-2 3.1-3.3 0-1.4-1.5-2.5-2.9-5.8-1.3-3.1-3.9-3.9-6.2-3.9-8 0-19.9 14.3-28.4 11.8 3.4 1.5 5.8 4.9 8.5 4.9 6.9 0 15-10.3 22.5-10.3h.3C42.4 86.4 40 86.8 40 89c0 1.5 1.3 2.4 2.3 4.5.6 1.3.7 2.2 1.2 4 .4 1.6 1.5 5.6 18.2 5.6 16.6 0 17.8-4 18.2-5.6.5-1.8.6-2.7 1.2-4 .9-2 2.3-3 2.3-4.5 0-2.2-2.5-2.6-4.2-4.8h.3c7.5.1 15.6 10.3 22.5 10.3zm1.2-4.9l-.7 1.2c-.4-.2-1.1-.5-1.6-.7-.4.7-1.7 2.7-2 3.1l-1.3-.6s1.5-2.3 2-3.1c-.4-.2-1-.6-1.4-.8l.7-1.2c1.1.6 3.3 1.7 4.3 2.1zm-4.8-2.5l-2.7 4.4-1.3-.8 2.8-4.4 1.2.8zM92 84c.7-.2 1.4 0 2.1.3.7.4 1.1.9 1.3 1.6.1.2.1.5.1.7 0 .4-.1.9-.4 1.3-.4.6-1 1-1.7 1.2-.7.1-1.4 0-2.1-.4-.7-.4-1.1-.9-1.3-1.6-.2-.7-.1-1.3.3-2 .5-.5 1-.9 1.7-1.1zm-2.3-2.5c.3.2.6.4.8.8.3.5.3 1-.1 1.5-.2.3-.5.5-.8.6h-.4c0 .2.1.5.1.7.1 1.1.2 2.3.2 2.3-.2-.2-1.5-.9-1.6-1l-.1-1.5c0-.5-.1-.8-.2-.9-.1.2-1 1.6-1 1.6l-1.3-.6 2.6-4.5c.4.2 1.4.8 1.8 1zm-7.5-3l2 .5c1.3.3 2.4 1.5 1.8 3.2-.8 1.9-2.3 2-3.8 1.7l-1.8-.4 1.8-5zM26 92.4l-1.5.8-2.6-4.3 1.6-.9c.6-.3 1.1-.5 1.5-.5.5 0 .9.1 1.3.3.4.2.8.5 1 1 .6 1.2.7 2.6-1.3 3.6zm4-2.3l-2.8-4.3 1.2-.8 2.8 4.4-1.2.7zm2.9-1.9l-2.8-4.4 2.9-1.9.7 1.2-1.7 1.1c.1.1.2.3.3.4l1.6-1.1.7 1.2-1.6 1.1c.1.1.2.3.3.5l1.7-1.1.7 1.2-2.8 1.8zm6-3.3c-1.6.7-2.5 0-3-1.1L34.7 81l1.3-.7 1.3 2.8c.3.6.6.8 1.1.5.7-.3.7-.6.4-1.1l-1.3-2.9 1.5-.5 1.2 2.8c.4 1.2.3 2.3-1.3 3zm2.1 4.3c0-2 3.2-3.2 4.5-4.8 1.9.3 4.4 1.2 4.4 2.9 0 1.9-6.3 2.7-5.8 5.4-1.9-1.1-3.1-2.3-3.1-3.5zm6.5 11l-.3-5.3c.8.2 2.6.7 3.5.9v1.4c-.5-.1-1.3-.3-2-.4v.5c.2.1 1.8.5 1.8.5l.1 1.5s-1.5-.4-1.8-.4v.5c.5.2 1.3.4 1.9.5l.1 1.5c-1.1-.4-2.5-.9-3.3-1.2zm8.3-2.3c-.4-.1-1.2-.1-1.6-.2v4l-1.5-.2v-4c-.4-.1-1.1-.2-1.5-.2v-1.4c1.3.2 3.1.5 4.6.6v1.4zm8.4 4.2h-1.5v-2.8c-.4.4-1.3 1.5-1.3 1.5s-.9-1-1.3-1.5v2.8h-1.5v-5.3h1.3s1.3 1.6 1.5 1.8c.2-.3 1.5-1.8 1.5-1.8h1.3v5.3zm5.5-1c-.6.5-1.3.8-2.1.8s-1.5-.2-2.1-.7c-.6-.5-.8-1.2-.8-1.9 0-.8.3-1.5.8-2s1.3-.8 2.1-.8 1.5.2 2.1.7c.6.5.9 1.2.9 1.9 0 .8-.3 1.5-.9 2zm6.3-.9l-1.1.4-2.2-2.2c0 .6-.2 2.8-.2 2.8l-1.5.3.3-5.5 1.1-.2 2.3 2.3c0-.6.2-2.8.2-2.8l1.5-.4-.4 5.3zm6.5-11c0 1.2-1.1 2.4-3.1 3.5.6-2.6-5.8-3.4-5.8-5.4 0-1.7 2.5-2.5 4.4-2.9 1.3 1.6 4.5 2.7 4.5 4.8z"/></g></g></g></g></g></g></g></svg>