<svg width="122" height="58" xmlns="http://www.w3.org/2000/svg"><g fill="none" fill-rule="evenodd"><path fill="#010202" d="M0 57.09h1.33V1H0zm7.975-27.953H9.48v4.864h5.957v-4.864h1.505V40.45h-1.505v-5.18H9.48v5.18H7.975zm11.051 0h2.06l3.564 9.506 3.58-9.506h2.06V40.45h-1.426v-9.41h-.032L25.3 40.45h-1.284l-3.532-9.41h-.032v9.41h-1.426zm25.807 3.406c-.317-1.6-1.6-2.408-3.168-2.408-2.694 0-3.834 2.218-3.834 4.578 0 2.583 1.14 4.737 3.849 4.737 1.981 0 3.121-1.394 3.264-3.263h1.505c-.285 2.82-2.044 4.531-4.896 4.531-3.516 0-5.227-2.599-5.227-5.893 0-3.28 1.869-5.957 5.354-5.957 2.361 0 4.309 1.267 4.658 3.675h-1.505zm6.449 6.907c1.41 0 2.55-1.109 2.55-3.089 0-1.996-1.14-3.105-2.55-3.105s-2.55 1.11-2.55 3.105c0 1.98 1.14 3.09 2.55 3.09m0-7.383c2.598 0 3.976 1.885 3.976 4.293 0 2.392-1.378 4.277-3.976 4.277s-3.976-1.885-3.976-4.277c0-2.408 1.378-4.293 3.976-4.293m11.942 8.381h-1.267v-1.3h-.032c-.57 1.015-1.489 1.49-2.662 1.49-2.154 0-2.82-1.236-2.82-2.994v-5.387h1.347v5.545c0 .998.634 1.648 1.664 1.648 1.631 0 2.424-1.093 2.424-2.567v-4.626h1.346v8.19zm1.613-8.191h1.267v1.727h.032c.65-1.315 1.553-1.965 3.01-1.917v1.426c-2.17 0-2.962 1.236-2.962 3.311v3.644h-1.347v-8.191zm7.386 0h1.632v1.188h-1.632v5.086c0 .618.174.728 1.014.728h.618v1.189h-1.03c-1.394 0-1.95-.286-1.95-1.791v-5.212h-1.393v-1.188h1.394v-2.456h1.347v2.456zm3.566 5.608c.047 1.204 1.093 1.584 2.202 1.584.84 0 1.98-.19 1.98-1.219 0-1.046-1.331-1.22-2.677-1.52-1.331-.303-2.677-.746-2.677-2.315 0-1.647 1.63-2.328 3.057-2.328 1.806 0 3.248.57 3.359 2.566h-1.347c-.095-1.045-1.014-1.378-1.901-1.378-.808 0-1.743.222-1.743 1.045 0 .967 1.426 1.125 2.678 1.426 1.346.301 2.677.745 2.677 2.33 0 1.948-1.822 2.582-3.485 2.582-1.838 0-3.39-.745-3.47-2.773h1.347zM91.82 31.53c0-.65-.49-1.204-1.298-1.204-.634 0-1.3.38-1.3 1.204 0 .68.603 1.346 1.094 1.965.65-.412 1.505-1.014 1.505-1.965zm-1.947 3.453c-1.062.603-1.965 1.204-1.965 2.552 0 1.14 1.06 1.916 2.154 1.916 1.03 0 1.854-.523 2.408-1.346l-2.597-3.121zm3.342 4.056c-.681 1.062-1.964 1.6-3.2 1.6-3.057 0-3.533-2.17-3.533-3.09 0-1.773 1.204-2.66 2.646-3.42-.634-.904-1.252-1.506-1.252-2.662 0-1.236.919-2.33 2.55-2.33 1.41 0 2.742.777 2.742 2.314 0 1.346-1.03 2.313-2.123 2.93l2.043 2.488a6.013 6.013 0 00.365-1.76h1.283c-.111 1.331-.285 1.791-.76 2.788l2.2 2.552H94.42l-1.204-1.41zm-82.674 8.008h-3.77v-1.268h9.046v1.268h-3.77v10.044H10.54zm4.598 1.853h1.267v1.728h.032c.65-1.315 1.553-1.964 3.01-1.917v1.426c-2.17 0-2.962 1.236-2.962 3.31v3.645h-1.347V48.9z"/><path d="M0 57.36h121.89V1H0z"/><path d="M20.229 57.092h1.347V48.9h-1.347v8.19zm-.001-9.664h1.347V45.78h-1.347v1.648zm6.819 2.471c-1.806 0-2.503 1.552-2.503 3.089 0 1.616.729 3.105 2.582 3.105 1.838 0 2.456-1.568 2.456-3.17 0-1.535-.792-3.024-2.535-3.024zm-3.802-4.12h1.346v4.23h.032c.444-.902 1.489-1.298 2.614-1.298 2.519 0 3.77 1.996 3.77 4.308 0 2.314-1.235 4.263-3.738 4.263-.84 0-2.044-.318-2.646-1.284h-.032v1.093h-1.346V45.78zM39 57.092h-1.267v-1.3H37.7c-.57 1.014-1.49 1.49-2.662 1.49-2.154 0-2.82-1.236-2.82-2.994V48.9h1.346v5.544c0 .998.635 1.648 1.665 1.648 1.63 0 2.424-1.093 2.424-2.567V48.9h1.345v8.192zm1.635-8.192h1.267v1.3h.032c.57-1.014 1.489-1.49 2.662-1.49 2.154 0 2.819 1.237 2.819 2.995v5.387h-1.346v-5.545c0-.998-.634-1.648-1.664-1.648-1.631 0-2.424 1.093-2.424 2.566v4.627h-1.346V48.9zm13.478 3.961c-.523.38-1.537.396-2.44.554-.887.159-1.647.476-1.647 1.474 0 .887.76 1.204 1.584 1.204 1.774 0 2.503-1.109 2.503-1.854v-1.378zm2.186 4.198c-.238.142-.538.222-.966.222-.697 0-1.14-.38-1.14-1.268-.745.872-1.744 1.268-2.884 1.268-1.489 0-2.709-.666-2.709-2.297 0-1.854 1.378-2.25 2.772-2.519 1.49-.285 2.757-.19 2.757-1.204 0-1.172-.967-1.362-1.822-1.362-1.14 0-1.98.348-2.044 1.552h-1.346c.08-2.028 1.647-2.741 3.47-2.741 1.473 0 3.072.333 3.072 2.25v4.214c0 .634 0 .919.428.919.111 0 .238-.016.412-.08v1.046zm.997.033h1.346V45.78h-1.346zm3.871-2.583c.048 1.204 1.093 1.584 2.203 1.584.84 0 1.98-.19 1.98-1.219 0-1.046-1.33-1.22-2.677-1.521-1.331-.302-2.678-.745-2.678-2.314 0-1.647 1.632-2.328 3.058-2.328 1.806 0 3.248.57 3.359 2.566h-1.348c-.094-1.045-1.013-1.378-1.9-1.378-.809 0-1.744.222-1.744 1.045 0 .966 1.426 1.125 2.678 1.426 1.347.301 2.677.745 2.677 2.329 0 1.949-1.822 2.583-3.485 2.583-1.837 0-3.39-.745-3.468-2.773h1.345zm17.95-5.419c-.174-1.616-1.252-2.313-2.804-2.313-1.268 0-2.535.46-2.535 1.934 0 1.394 1.806 1.6 3.628 2.012 1.806.412 3.612 1.044 3.612 3.263 0 2.408-2.361 3.375-4.42 3.375-2.535 0-4.673-1.236-4.673-3.993h1.425c0 1.9 1.585 2.724 3.296 2.724 1.362 0 2.867-.426 2.867-2.058 0-1.553-1.806-1.822-3.612-2.218-1.806-.397-3.628-.92-3.628-2.995 0-2.297 2.044-3.311 4.103-3.311 2.313 0 4.072 1.094 4.167 3.58h-1.426zm8.849 3.122c-.064-1.283-1.03-2.313-2.36-2.313-1.41 0-2.25 1.062-2.345 2.313h4.705zm1.3 2.28c-.365 1.807-1.665 2.79-3.502 2.79-2.614 0-3.85-1.806-3.929-4.31 0-2.455 1.616-4.261 3.85-4.261 2.9 0 3.786 2.709 3.706 4.689h-6.13c-.048 1.426.76 2.693 2.55 2.693 1.11 0 1.886-.54 2.123-1.6h1.331zm1.212-5.592h1.267v1.728h.031c.65-1.315 1.553-1.964 3.01-1.917v1.426c-2.17 0-2.963 1.236-2.963 3.31v3.645h-1.345V48.9zm9.164 8.192H98.2L95.158 48.9h1.506l2.297 6.828h.03l2.235-6.828h1.41zm3.886 0h1.346V48.9h-1.346v8.19zm.001-9.664h1.346V45.78h-1.346v1.648zm8.617 4.102c-.206-1.03-.919-1.632-2.028-1.632-1.948 0-2.551 1.537-2.551 3.2 0 1.505.682 2.995 2.393 2.995 1.299 0 2.075-.76 2.249-1.997h1.378c-.3 1.997-1.552 3.185-3.612 3.185-2.503 0-3.833-1.743-3.833-4.183 0-2.455 1.267-4.388 3.865-4.388 1.854 0 3.343.872 3.533 2.82h-1.394zm8.314.682c-.063-1.283-1.03-2.313-2.361-2.313-1.41 0-2.25 1.062-2.344 2.313h4.705zm1.299 2.28c-.364 1.807-1.664 2.79-3.501 2.79-2.614 0-3.85-1.806-3.93-4.31 0-2.455 1.617-4.261 3.85-4.261 2.9 0 3.787 2.709 3.707 4.689h-6.13c-.048 1.426.76 2.693 2.55 2.693 1.109 0 1.886-.54 2.123-1.6h1.33zM7.266 11.561c-.003-.002-.003-.003.001-.003v.003m15.015-.845c.442.558.714 1.256.769 1.969h-2.396V9.67c.609.117 1.185.488 1.627 1.046m.826 1.746a3.75 3.75 0 00-.622-1.602.22.22 0 00.092-.15.223.223 0 00-.167.045 1.809 1.809 0 00-.066-.087c-.405-.51-.917-.867-1.466-1.027-.007-.086-.086-.127-.132-.11a.087.087 0 00-.057.065.082.082 0 00-.027-.006.22.22 0 00-.126-.055.225.225 0 00.039.147v.011a.088.088 0 00-.08.043c-.024.042.002.124.08.148v1.175a.218.218 0 00-.141.064.218.218 0 00.14.064v1.271c-.075.02-.104.096-.084.137.014.029.039.051.085.053v.028a.232.232 0 00-.035.119.219.219 0 00.114-.031h.034c.003.043.024.068.052.08.04.022.115-.007.137-.08h.85c0 .049.02.1.064.147a.216.216 0 00.065-.147h.967c.02.083.1.114.144.091.029-.014.05-.042.05-.091h.02a.228.228 0 00.128.036.236.236 0 00-.034-.113l-.003-.034c.045-.003.069-.025.082-.052.02-.046-.017-.128-.103-.139" fill="#010202"/><path d="M22.15 10.755a.09.09 0 00-.018.076c.011.033.04.062.098.064a.218.218 0 00-.076.139.212.212 0 00.154-.035c-.014.058.006.094.036.112a.08.08 0 00.065.009c.248.403.416.864.486 1.336a.224.224 0 00-.108-.024.217.217 0 00.044.126h-.808c-.003-.042-.027-.077-.055-.086-.035-.013-.073-.006-.112.04a.22.22 0 00-.064-.146.222.222 0 00-.065.146c-.038-.046-.077-.053-.11-.04-.03.009-.054.044-.057.086h-.69a.224.224 0 00.038-.123.218.218 0 00-.127.039v-1.12c.047 0 .087-.024.1-.056.01-.034.005-.073-.04-.111a.224.224 0 00.144-.064.22.22 0 00-.145-.065c.046-.039.051-.078.04-.112-.012-.031-.052-.057-.099-.056v-.95c.03.02.064.033.106.039a.221.221 0 00-.024-.124c.478.149.93.463 1.286.9zm.843 1.838a3.62 3.62 0 00-.749-1.847 3.025 3.025 0 00-.69-.645 2.505 2.505 0 00-.802-.36l-.05-.012v2.908h2.296l-.005-.044z" fill="#010202"/><path d="M22.54 12.134v-.003a.186.186 0 00.095-.09c-.05.018-.087-.004-.099-.01.036-.022.077.001.037-.063-.04-.065-.068-.067-.111-.02-.04.043-.317-.012-.317-.219l.004.003a.19.19 0 00.088.076c.133.08.263.03.274-.079.011-.116-.097-.168-.216-.266a1.677 1.677 0 01-.121-.11c-.037-.08-.002-.154-.108-.3a.548.548 0 00-.035-.129.378.378 0 00.065.438c.115.125.361.246.352.354-.004.027-.027.055-.069.058-.055-.003-.11-.036-.165-.08l-.023-.024h-.001c-.103-.096-.195-.236-.256-.312-.113-.147-.062-.288-.044-.409.081-.112-.049-.339-.125-.394 0 0 .017-.052-.005-.118-.015.014-.051.011-.07.01-.021-.043-.03-.05-.058-.056-.049-.008-.047-.037-.053-.055-.029.025-.039.051-.068.053-.041.001-.057 0-.074.013-.028.023-.043.032-.085.031-.046-.002-.046.026-.042.06.003.021.005.053.034.066a.163.163 0 00.013.006l.037.043.026-.047c-.001.001-.001.001 0 0 .019-.017.08-.023.091.021.008.03.013.038-.025.042-.039.005-.061.005-.099.007-.026.001-.025.035-.025.057.001.028.032.04.087.027.054-.014.152-.024.152.023 0 .124-.148.113-.177.262a.257.257 0 01-.082-.078.47.47 0 00-.105-.13.541.541 0 00-.104-.086c-.05-.028-.051-.052-.051-.103 0-.042.02-.083.017-.123a.197.197 0 00-.011-.038c-.008-.027-.046-.047-.066-.043a.06.06 0 01.026.044.11.11 0 00-.019.023c-.009.013-.014.03.001.043l.004.008c0 .006-.002.013-.004.021-.001.008-.004.005-.005 0-.011-.03-.025-.075-.053-.077l-.021-.002.002-.006c0-.03-.036-.057-.074-.019.008.002.024.005.03.013a.163.163 0 00-.007.033c-.003.033.021.045.056.046.007 0 .009.002.01.006.003.005.003.01.005.013.001.008-.002.007-.006.005-.056-.025-.081.002-.081.026v.024c-.019.013-.024.042.013.066 0-.01-.003-.03.012-.036.003 0 .005 0 .008-.004.004.007.014.014.015.015.004.002.014.001.033-.01.004-.005.007-.005.013-.002l.016.012c.005.002.004.006 0 .01-.036.037-.03.071.017.082-.021.04-.088.021-.085-.038-.048.075.032.135.098.106.002.03 0 .08.011.081-.001-.005.004-.016.014-.016.005 0 .006.004.006.008.001.02.007.042.034.044-.004-.012-.002-.023.006-.026l.035.058c.031.055.095.204.243.265-.076.045-.127.11-.174.167-.041.04-.1.082-.138.06-.017-.012-.021-.026-.043-.043-.017-.012-.036-.017-.046-.013-.003.001-.015.004-.026.01-.025-.012-.065.004-.075.024.014-.003.03-.007.052.008l-.002.026c-.002.018.011.038.089.032.004 0 .013.003.008.008a.04.04 0 01-.04.013c-.034-.01-.05-.037-.073-.006l-.017.02a.011.011 0 00-.008 0c-.03.01-.059.067-.024.092a.057.057 0 01.023-.047.114.114 0 00.015.018c.023.033.048.052.097-.025.006-.008.008 0 .007.003-.004.035-.037.085.009.092l.021.005.001.01c.01.04.064.051.086.04a.08.08 0 01-.047-.05c.01 0 .02-.002.022-.005.028-.026-.005-.06.007-.08.005-.008.009-.006.011 0 .011.014.034.05.073.027a.063.063 0 00.033-.05c.05-.02.096-.037.133-.024-.008-.026.024-.064.078-.079.055-.014.08.001.097.02a.248.248 0 01.055-.097c-.006.217.285.212.354.34a.5.5 0 00-.24-.043c-.071.013-.195.077-.211.161-.013.066.055.184.126.232-.086.015-.113-.013-.192.01a.017.017 0 00-.007-.004c-.067.008-.077-.11-.155-.08a.221.221 0 00-.023.017c-.03 0-.074.036-.066.068a.094.094 0 01.05-.028l-.001.017c0 .012.004.025.03.025.016 0 .02-.008.032-.008.005 0 .008.004.008.01 0 .03-.098-.018-.08.065l.015.025c-.004.025.018.05.061.036-.008-.006-.025-.017-.021-.03a.087.087 0 00.02.001c.003 0 .008-.003.011-.014 0 0 0-.002.004-.002.005.001.008.004.008.007 0 .005-.006.01-.006.018 0 .002.005.023.008.026-.004.03.04.061.083.031-.012-.002-.039-.007-.042-.022.008-.003.019-.007.02-.009.007-.005.009-.016.009-.029 0-.008.005-.008.008-.008.006 0 .014 0 .021-.002.011 0 .013.004.013.006.011.02.033.036.062.027.017-.006.024-.014.027-.023a.35.35 0 01.035.023c-.01-.032.013-.056.081-.01l.049-.039s.065.026.089-.003c.041-.037.019-.039.019-.072-.029-.066-.045-.059-.058-.122-.022-.107.127-.168.214-.153.019.071.115.251.275.304.1.035.141-.075.172-.059.007.002.014.011.017.024-.007.053.004.098-.009.123-.011.024-.065.004-.101.002-.021-.002-.038.013-.039.016-.031.006-.065.033-.064.067.011-.007.031-.024.055-.028l.002.014c.004.043.053.056.08.028.003-.005.015 0 .008.006-.024.02-.068.06-.031.075a.14.14 0 01.022.011c-.002.026.018.052.04.055-.008-.013-.011-.02.002-.05l.022.001c.027.001.014-.053.045-.07.003-.002.007 0 .005.003-.01.03-.015.068.013.076l.022.005c.008.023.038.04.075.021-.009-.004-.029-.012-.033-.024l.02-.028c.019-.064-.037-.066-.037-.093 0-.03.064-.01.064-.074l-.001-.01c.031-.018.062-.039.064-.062a.208.208 0 01-.082-.014m-1.12-1.573s.001-.002 0 0m-1.893 3.22l-.045-.004c-.055-.004-.122.022-.128.093-.005.073.046.112.112.116l.034.002-.08.515-.509-.73c.238-.095.431-.198.533-.198.083 0 .101.038.083.206zm-.998.116c.09-.02.175-.047.257-.078l.605.868-.057.365-.805-1.155zm.721 1.675l-1.14-1.64a1.93 1.93 0 00.28-.01l.915 1.313-.055.337zm-1.29-1.629l1.252 1.8c-.668-.244-1.336-.862-1.252-1.8zm1.863-.14l-.057-.004.001-.056c.008-.2-.112-.349-.328-.349-.193 0-.563.25-1.084.25-.22 0-.485-.108-.65-.203l-.066.154c.002-.005.002-.01.002-.015a.129.129 0 10-.257 0c0 .071.057.128.128.128a.127.127 0 00.101-.049l-.065.156c.022.01.044.02.067.028-.075.787.49 1.787 1.52 2.094.152-.042.326-.014.326.152 0 .103-.052.15-.143.15-.06 0-.1-.037-.1-.078 0-.07.12-.028.132-.075.016-.064-.025-.092-.096-.092-.072 0-.18.047-.18.167 0 .141.113.224.234.224.115 0 .357-.063.322-.344.056.002.118-.007.131-.06l.012-.162-.054-.006.042-1.806.041.004c.066.006.123-.026.128-.097.005-.072-.053-.107-.107-.112zm-.413-3.849s.001 0 0 0m-.297.24c-.024 0-.035-.033-.03-.054.01.007.059.026.084.032-.04.01-.03.023-.054.022m-.037.05c-.007 0-.006-.023-.018-.024-.011-.003-.011.008-.004.024-.017-.005-.032-.014-.04.002-.007.012-.004.022.006.033.005.008 0 .02-.004.034-.006.015-.026.04-.05.025-.024-.012-.02-.038-.012-.053.007-.014.013-.027.02-.027.015 0 .023-.002.028-.015.005-.018-.01-.026-.024-.036.015-.004.023-.012.015-.018-.01-.008-.025.006-.028 0-.002-.008.009-.014.013-.019.007-.007.013-.004.02 0l.069.032c.009.005.014.008.014.018-.002.007.002.02-.005.023m-.044-.13c-.011.02-.034.034-.052.017-.02-.018 0-.023-.02-.058.02.014.06.04.072.042m.644.354c.252.002.379-.08.379-.16 0-.281-.696-.108-.696-.279 0-.027.019-.052.05-.075 0 0-.001 0 0 0 .352-.025.366-.276.616-.324-.302-.042-.345.195-.474.206.07-.032.095-.115.09-.146-.063.084-.198.09-.273.185-.011.015-.017.034-.013.05-.045.028-.074.061-.074.101 0 .268.708.085.708.277 0 .067-.123.114-.316.114-.146 0-.25-.104-.521-.034 0-.046.09-.131.056-.172.026-.013.043-.033.045-.056a.094.094 0 00-.052-.022c.008-.013-.003-.027-.014-.037-.002-.005-.008-.034-.014-.04a.307.307 0 00-.062-.04c-.032-.016-.052-.016-.064-.019-.008-.002-.036.008-.04.006-.015-.002-.033-.002-.035.016a.088.088 0 00-.05-.022.104.104 0 00-.006.078c-.025.002-.052.066-.076.059.009.018.017.025.024.026-.021.038-.03.083-.053.085.004.013.012.02.018.021a.72.72 0 00-.037.16h-.001a.272.272 0 00-.055-.043c-.041-.024-.04-.044-.033-.085.006-.036.03-.067.033-.1a.174.174 0 00-.007-.03c-.004-.022-.034-.04-.054-.035.009.008.02.014.018.036a.16.16 0 00-.021.017c-.01.01-.015.024-.003.035.002.002.002.005 0 .008 0 .004-.001.01-.004.016-.003.005-.004.002-.006 0-.005-.027-.013-.061-.037-.064l-.018-.002a.008.008 0 00.002-.005c.004-.025-.025-.046-.064-.017.007.002.022.003.025.012a.113.113 0 00-.011.026c-.006.026.014.037.044.038.007 0 .01.002.01.005 0 .005 0 .008.002.011 0 .005-.002.004-.005.003-.048-.02-.073 0-.078.02l-.002.02c-.02.01-.028.034.003.054 0-.008.002-.026.016-.029a.049.049 0 01.007-.003c.003.005.012.011.012.012.004.002.013.001.03-.008.005-.002.009-.004.013 0a.232.232 0 01.014.008c.003.003.002.005-.001.01-.04.028-.04.057.006.066.006.002.006.005.006.01-.013.055-.095.043-.083-.013-.055.064.019.116.085.084.005-.004.006-.002.007.001.002.01.006.02.017.02 0-.002.006-.011.016-.01.004-.002.004.002.004.005-.002.015.002.034.024.037-.001-.011.004-.021.012-.021.009 0 .027.046.064.086a.851.851 0 01-.157.047c-.014 0-.096-.008-.123.005-.04.022-.138.058-.167.018-.01-.014-.006-.028-.02-.049-.008-.014-.021-.024-.031-.026h-.023c-.016-.019-.053-.02-.067-.008a.05.05 0 01.038.024.085.085 0 00-.011.021c-.008.013-.003.034.059.055.002.001.008.006.003.01-.01.002-.022.005-.034-.005-.025-.018-.028-.046-.057-.028l-.02.008a.019.019 0 00-.007-.002c-.027-.002-.07.033-.05.063.004-.008.013-.024.033-.027a.097.097 0 01.006.02c.007.03.02.054.086.011.006-.004.006.002.005.005-.016.027-.06.055-.026.076.002 0 .009.006.016.011l-.003.006c-.007.037.033.063.054.063a.062.062 0 01-.02-.056.071.071 0 00.018.005c.03-.012.017-.05.034-.063.006-.004.009 0 .009.005.002.014.01.05.048.046a.051.051 0 00.048-.053c-.002-.002 0-.002.003-.002.012.008.022.022.018.04a.063.063 0 00.027-.027c.008.018.009.042-.015.064.015-.004.052-.022.06-.062a.052.052 0 01.014.02l.002-.002a.138.138 0 00.075-.003c.004 0 .006.002.004.005-.002.014-.002.03.005.037 0-.005.009-.018.015-.018.01 0-.001.036.02.057.01-.094.06-.056.12-.094.006-.005.007-.002.005.003a.052.052 0 01-.025.031c.023.001.073-.02.073-.054 0-.008.018-.02.039-.032.02.005.053-.008.066-.03.003.008.013.037-.003.045.063.004.127-.067.152-.073.133-.028-.084-.124.189-.109a.123.123 0 00.078-.028c-.02.04-.022.122.02.13a.17.17 0 01.07.029c.005.004.002.006-.002.006a.205.205 0 00-.058.015c-.063.043-.065-.095-.133-.069a.089.089 0 00-.018.013c-.028 0-.064.031-.057.06a.07.07 0 01.044-.024l-.001.013c-.001.011.002.022.025.022.013 0 .016-.007.026-.007.005 0 .008.003.008.008 0 .027-.084-.014-.068.056a.1.1 0 00.012.022c-.002.023.015.043.052.031-.007-.005-.02-.014-.017-.026.006.002.015.002.016.002.004 0 .007-.003.01-.012 0-.002 0-.003.003-.003.004.002.007.003.007.008 0 .002-.005.008-.005.014 0 .001.004.02.007.021-.003.027.034.053.07.028-.008 0-.033-.005-.035-.018a.148.148 0 00.017-.008c.006-.005.007-.014.007-.026 0-.006.005-.006.007-.006h.019c.008-.003.01 0 .012.005.008.014.027.03.053.02.045-.017.006-.055.043-.064a.081.081 0 01.027 0c.035.01.089.01.098-.01.009-.015.005-.08-.034-.103-.023-.01.002-.037-.02-.07.039.016.08.033.134.033.097 0 .004-.016.048-.04.047-.032.102-.016.117-.013.013.002.023.008.02.024-.012.051.005.056-.007.077-.01.021-.051.005-.08.003a.04.04 0 00-.03.013c-.024.005-.052.027-.051.056.009-.005.024-.02.044-.022v.01c.005.032.043.045.065.023.002-.004.012 0 .006.003-.018.015-.055.05-.025.061l.018.01c-.002.021.014.042.03.045-.005-.01-.007-.018.004-.042l.017.002c.02.001.01-.044.035-.057.003-.002.006 0 .004.002-.008.026-.013.055.01.063l.018.003c.005.02.03.032.059.018-.007-.003-.022-.01-.026-.022a.122.122 0 00.015-.022c.015-.053-.03-.053-.03-.075 0-.025.052-.008.052-.06 0-.01-.005-.027-.022-.033-.002 0-.002-.002-.002-.002.015 0 .03.003.038-.018-.038.004-.027-.03-.032-.05-.001-.004-.002-.006.002-.01.012-.008.022-.024.017-.054-.012.016-.054.036-.06 0-.001 0-.003-.026-.041-.02-.064.008-.096-.027-.218-.037-.007-.002-.014-.008 0-.009M18.57 11.67l.002-.004c0 .002 0 .002-.002.003zm-.193-.413c.008-.016.015-.029.023-.029.016 0 .025-.004.031-.019.007-.018-.01-.026-.027-.038.017-.005.026-.012.017-.02-.01-.01-.028.006-.03-.002-.004-.008.01-.014.014-.019.007-.007.013-.005.024 0l.074.035c.01.005.015.01.015.02 0 .007.003.022-.005.024-.008.002-.007-.022-.02-.024-.013-.002-.013.01-.005.026-.018-.005-.034-.014-.043.003-.008.014-.005.024.006.037.006.007.001.021-.006.038-.006.017-.027.04-.053.027-.028-.014-.024-.044-.015-.059zm.087-.19c-.012.021-.038.038-.058.018-.019-.02.003-.025-.022-.064a.32.32 0 00.08.045zm.057.03c.011.008.065.03.092.035-.042.01-.032.025-.059.025-.027-.002-.037-.037-.033-.06zm-.37.212c-.026-.022-.058-.06-.103-.089-.045-.026-.045-.05-.042-.097.001-.04.023-.079.023-.118a1.561 1.561 0 01-.01-.035c-.006-.026-.04-.046-.06-.04.01.007.021.016.022.04l-.02.022c-.009.012-.014.028 0 .041.003.003.003.006.003.01s-.003.01-.005.018c-.002.007-.004.004-.006 0-.007-.03-.019-.07-.045-.074-.003 0-.014-.002-.019 0l.001-.006c.002-.03-.03-.055-.069-.019.008.001.023.003.028.013a.249.249 0 00-.009.03c-.003.032.018.044.051.044.006 0 .01.002.01.006l.003.013c.002.006-.002.005-.005.003-.053-.022-.077.002-.079.025v.022c-.02.013-.026.042.008.064 0-.01 0-.028.014-.034l.007-.002c.004.005.013.011.014.012.004.003.013.001.032-.01.004-.002.007-.003.012 0l.015.01c.004.003.003.006 0 .01-.038.035-.033.07.013.077.006.002.008.005.008.011-.008.066-.095.054-.087-.012-.052.076.03.133.097.096.004-.004.006-.002.007.002.004.012.01.023.021.024 0-.004.005-.015.015-.015.004 0 .004.004.004.008 0 .017.006.04.03.042-.003-.013.002-.026.01-.026.012 0 .041.05.093.081.046.02.075.067.104.037-.005.045.04.098.028.098-.014 0-.136-.009-.166.008-.044.024-.153.063-.184.018-.012-.016-.008-.03-.023-.054-.01-.017-.024-.029-.035-.03h-.025c-.018-.018-.058-.022-.075-.008.013.003.03.006.042.028-.005.007-.01.02-.012.021-.009.015-.004.038.066.062.003.001.01.007.003.011-.01.005-.024.006-.038-.006-.027-.019-.03-.05-.063-.03a.07.07 0 00-.022.01.014.014 0 00-.007-.003c-.03-.003-.077.034-.056.07.004-.008.015-.027.037-.03a.092.092 0 01.006.021c.008.035.023.062.095.014.008-.005.008.001.006.004-.017.031-.065.06-.028.084.001 0 .008.008.017.014-.002.001-.003.002-.004.006-.007.04.038.07.061.07-.01-.012-.028-.033-.023-.064.008.005.02.007.02.006.035-.013.02-.055.038-.068.007-.004.01 0 .01.004.003.017.01.057.052.053.04-.005.058-.036.054-.059 0-.003 0-.004.004-.003.014.01.024.023.02.044a.072.072 0 00.03-.029.062.062 0 01-.017.071c.016-.005.057-.025.067-.07a.062.062 0 01.014.023.008.008 0 00.004-.004c.014.006.042.01.083-.002.004 0 .005.002.005.005-.004.017-.004.033.004.042 0-.006.011-.023.017-.023.011 0 0 .042.024.066.008-.105.065-.062.131-.105.008-.004.008-.002.006.004a.053.053 0 01-.028.034c.073.017.186-.093.202-.139.031-.004.056-.008.07-.006.207.018.062-.186.395-.129.021.004.062-.02.081-.036-.024.044-.025.133.021.142.02.004.062.017.078.033.004.004.001.007-.003.007a.359.359 0 00-.064.015c-.069.05-.072-.104-.147-.076a.073.073 0 00-.02.016c-.03 0-.072.034-.064.066a.09.09 0 01.05-.028c-.002.007-.002.015-.002.016-.003.012.002.025.028.025.015 0 .017-.008.028-.008.005 0 .01.003.01.01 0 .027-.094-.018-.077.06.001.002.01.02.014.025-.002.023.016.048.058.032-.008-.004-.023-.014-.019-.026l.017.001c.005 0 .01-.003.011-.012 0-.003.001-.004.005-.004.004.001.007.004.007.007 0 .004-.005.01-.005.016a.08.08 0 00.007.024c-.004.03.038.06.08.031-.012-.002-.038-.008-.042-.02l.02-.008a.042.042 0 00.01-.029c0-.006.003-.008.006-.008h.02c.01-.002.012.002.014.004.008.018.03.035.058.024.05-.017.007-.06.048-.069a.06.06 0 01.03 0c.04.01.098.008.108-.01.011-.02.006-.09-.038-.116-.024-.012.003-.043-.022-.079a.356.356 0 00.15.036c.108 0 .134-.014.183-.045.052-.033.114-.016.13-.013.014.002.025.008.02.026-.01.057.007.062-.006.088-.01.022-.057.003-.088.002-.019-.002-.033.011-.033.015-.029.005-.059.03-.058.06.01-.007.028-.022.05-.025l.001.012c.004.04.046.052.07.026.003-.004.014 0 .008.005-.022.017-.06.054-.029.067l.02.01c-.002.024.016.048.035.051-.007-.012-.009-.02.003-.047a.144.144 0 00.018.001c.023.002.012-.047.04-.06.003-.004.005-.002.004 0-.008.028-.014.061.01.07.003 0 .012.001.02.004.007.02.034.036.066.02-.007-.004-.025-.013-.029-.024.007-.008.016-.022.018-.025.017-.058-.032-.059-.032-.084 0-.028.055-.008.055-.068a.037.037 0 00-.024-.035c-.002 0-.002-.002-.002-.003l.001.001c.016 0 .033.003.041-.02-.042.004-.029-.032-.035-.056 0-.004 0-.006.002-.009.014-.01.024-.029.02-.062-.015.02-.062.042-.068.002 0-.002-.002-.03-.046-.022-.07.007-.12-.009-.256-.02.155 0 .383-.04.383-.128 0-.073-.08-.119-.316-.119-.237 0-.768.088-.768-.044 0-.066.103-.06.228-.054.01.011.025.022.052.028.304.088.662-.072.846-.019-.217-.165-.397.006-.628-.044.135 0 .181-.04.188-.076-.106.07-.304-.034-.428.042a.077.077 0 00-.019.016c-.169-.005-.304-.005-.304.107 0 .235.632.098.83.098.2 0 .241.02.241.057 0 .056-.197.07-.309.07-.172 0-.689-.089-1.002-.026.025-.052.081-.118.05-.155.03-.012.048-.035.05-.06a.118.118 0 00-.058-.027c.01-.013-.003-.029-.014-.042-.003-.002-.01-.035-.017-.04a.289.289 0 00-.069-.047c-.034-.017-.057-.017-.07-.02-.009-.002-.04.007-.044.007-.016-.003-.036-.003-.039.016a.101.101 0 00-.055-.023.116.116 0 00-.007.085c-.029.002-.059.075-.084.066.01.02.02.027.026.03-.023.041-.033.092-.059.093.016.022.03.033.038.034-.004.033-.005.065-.006.092l-.05-.019-.042-.014zm.114.834c-.028 0-.038-.037-.033-.06a.4.4 0 00.092.036c-.042.01-.032.026-.059.024m-.042.053c-.007.002-.006-.022-.02-.025-.01-.002-.01.01-.004.027-.018-.006-.035-.015-.044.002-.008.015-.005.025.006.038.006.006.001.02-.005.037-.007.016-.028.042-.053.027-.028-.015-.024-.044-.016-.06.008-.015.015-.028.023-.028.017.001.026-.003.031-.018.007-.019-.01-.027-.027-.038.018-.005.027-.013.018-.022-.01-.009-.028.007-.03 0-.005-.009.008-.015.013-.02.007-.007.014-.004.024 0l.074.036c.01.005.015.008.015.02 0 .007.003.021-.005.024m-.048-.142c-.013.02-.038.037-.058.017-.02-.02.002-.024-.023-.063.024.014.068.043.081.046m.128.627a.597.597 0 01.036-.008l-.004.013c.068.005.06-.06.088-.057.386.051.164-.166.62-.122.021.002.03-.01.05-.027-.025.044-.026.117.02.126.021.003.064.016.08.033.003.005 0 .007-.004.007a.233.233 0 00-.064.016c-.07.047-.072-.105-.147-.075-.004.001-.015.01-.02.013-.03 0-.07.037-.063.067a.07.07 0 01.048-.027v.015c-.003.013.001.025.026.025.015 0 .02-.008.03-.008.004 0 .008.003.008.008 0 .03-.093-.016-.076.063a.163.163 0 00.015.024c-.003.023.015.046.057.034-.008-.005-.023-.016-.019-.029a.136.136 0 00.018.001c.004.001.008-.002.01-.012 0-.002.002-.004.004-.004.004.002.008.004.008.008s-.005.008-.005.017a.12.12 0 00.006.024c-.004.03.04.058.081.03-.012 0-.039-.007-.042-.02l.02-.009c.006-.005.01-.015.01-.029 0-.006.003-.006.006-.006.007 0 .013 0 .02-.002.01 0 .012.002.013.006.01.02.031.035.06.025.05-.018.006-.062.047-.07a.05.05 0 01.03 0c.04.01.098.007.11-.01.01-.02.003-.092-.04-.117-.023-.01.002-.042-.022-.079a.36.36 0 00.15.037c.108 0 .134-.015.182-.046.054-.032.114-.016.131-.013.014.002.025.01.021.028-.012.056.006.062-.006.086-.01.022-.058.005-.089.002-.019 0-.033.011-.033.015-.028.006-.059.03-.057.062.01-.008.027-.024.048-.027l.002.012c.003.04.046.051.07.025.004-.003.014 0 .007.005-.02.017-.06.055-.028.068l.02.01c-.002.023.016.048.034.052-.006-.013-.008-.02.003-.046l.02.001c.023 0 .012-.048.038-.064.004-.002.006 0 .005.002-.008.028-.014.062.011.07a.068.068 0 00.02.004c.007.02.033.037.066.02-.008-.004-.026-.013-.029-.024a.188.188 0 00.016-.025c.017-.058-.032-.059-.032-.082 0-.029.057-.01.057-.069a.038.038 0 00-.025-.035c-.002-.002-.002-.003 0-.004v.001c.015 0 .032.003.04-.019-.043.003-.029-.033-.035-.057 0-.004-.002-.006.002-.01.013-.009.024-.028.02-.06-.014.02-.06.042-.067.001 0-.002-.004-.029-.046-.022-.07.007-.122-.007-.257-.02.136-.01.383-.039.383-.128 0-.072-.08-.118-.316-.118s-.964.087-.964-.045c0-.085.247-.052.427-.046.008.013.025.025.052.034.305.085.624-.118.842-.045-.173-.156-.397.017-.626-.03.134-.003.275-.029.284-.066-.105.068-.402-.047-.525.032a.112.112 0 00-.02.017c-.224-.003-.498-.032-.498.104 0 .235.827.097 1.025.097.2 0 .241.02.241.058 0 .057-.197.07-.309.07-.184 0-.957-.102-1.266-.009.018-.053.093-.13.058-.17.028-.013.05-.037.05-.062a.106.106 0 00-.057-.026c.008-.014-.003-.03-.015-.042-.003-.002-.009-.035-.017-.04-.01-.01-.034-.032-.069-.048s-.057-.016-.07-.019c-.008-.003-.04.007-.044.006-.016-.002-.036-.002-.039.018a.09.09 0 00-.055-.024.108.108 0 00-.007.084c-.028.003-.058.073-.084.065.01.02.018.03.026.031-.022.041-.032.092-.059.093.01.014.018.022.025.03a.43.43 0 00-.009.071l-.024-.009a.236.236 0 01-.038-.003.627.627 0 00-.038-.006c-.037-.002-.065-.063-.129-.1-.046-.027-.047-.05-.047-.099 0-.04.02-.077.016-.117a.574.574 0 00-.01-.035c-.01-.026-.044-.046-.065-.04a.047.047 0 01.026.041.133.133 0 00-.019.022c-.008.01-.012.027.002.04a.012.012 0 01.004.01.045.045 0 01-.004.017c-.002.01-.005.004-.005 0-.01-.03-.024-.07-.05-.073-.003 0-.015-.002-.019 0v-.007c0-.03-.032-.054-.069-.019.008.002.023.004.028.013a.278.278 0 00-.007.031c-.003.031.02.044.054.044.005 0 .008.003.01.005a.074.074 0 00.004.014c.002.004-.002.004-.005.003-.054-.023-.077.001-.078.026a.052.052 0 00.001.021c-.019.014-.024.042.011.063 0-.008 0-.028.012-.032a.016.016 0 00.007-.004l.015.014c.004.002.014.001.031-.01.004-.004.008-.004.013 0 .005.002.01.005.015.01.004.002.004.004.001.008-.036.035-.03.07.018.078.005.002.007.005.007.01-.004.068-.092.055-.088-.012-.047.076.038.133.103.096.004-.004.006 0 .007.002.003.012.011.023.022.024 0-.004.004-.013.015-.013.003 0 .003.002.004.007.001.016.008.04.032.042-.004-.014 0-.027.008-.027.013 0 .061.092.157.144.017-.006.044-.006.053-.028.002.008.01.016.021.022.003.044.033.1.023.1-.014 0-.165-.008-.196.01-.044.022-.152.063-.184.017-.01-.016-.008-.03-.022-.054-.01-.016-.025-.027-.036-.028h-.025c-.018-.02-.059-.023-.074-.01.013.003.028.006.042.028a.374.374 0 00-.012.021c-.009.015-.004.04.065.062.004.002.01.008.004.011a.038.038 0 01-.038-.004c-.027-.022-.03-.05-.063-.033a.313.313 0 01-.022.01c-.002 0-.005 0-.008-.002-.03-.003-.076.034-.056.071a.053.053 0 01.038-.032l.007.021c.006.036.022.064.094.015.007-.004.007.003.005.005-.016.028-.065.06-.028.083l.017.013-.003.006c-.007.04.036.072.06.07a.074.074 0 01-.022-.063c.008.004.018.01.02.007.035-.014.02-.056.04-.069.004-.004.008 0 .008.005.002.017.01.056.052.051.038-.003.058-.036.053-.058 0-.002.001-.004.005-.002a.041.041 0 01.02.043.07.07 0 00.03-.03c.007.02.01.046-.018.072a.095.095 0 00.067-.07.078.078 0 01.015.022c.002 0 .003 0 .004-.002a.16.16 0 00.082-.002c.004 0 .006.001.005.004-.003.016-.003.033.004.042.001-.004.011-.02.018-.02.011 0-.002.04.023.064.01-.105.132-.052.198-.094.007-.005.008-.003.006.003a.064.064 0 01-.028.034.147.147 0 00.074-.026c.044-.017.121-.05.116-.078m2.837.982c.008-.016.015-.029.024-.029.016.001.025-.003.029-.02.008-.018-.01-.025-.025-.036.016-.005.025-.013.016-.02-.01-.01-.027.006-.031-.002-.003-.008.009-.014.015-.019.007-.007.013-.006.023 0l.075.035c.009.004.015.01.015.02 0 .007.003.02-.005.024-.008.003-.007-.022-.021-.026-.011 0-.011.011-.002.028-.02-.006-.036-.014-.045.003-.007.015-.005.024.006.037.006.007 0 .021-.005.038-.006.017-.03.04-.054.026-.027-.014-.022-.044-.015-.059m.087-.19c-.012.022-.036.038-.058.018-.02-.019.002-.025-.022-.064a.315.315 0 00.08.046m.057.03a.504.504 0 00.092.036c-.042.01-.031.025-.058.025-.028-.003-.04-.038-.034-.06m1.705.44c0-.005 0-.009.003-.01.015-.01.026-.029.024-.063-.015.02-.064.043-.066.003 0-.002-.001-.03-.045-.022-.071.006-.14-.009-.274-.022-.01 0-.015-.006 0-.007.164-.01.383-.032.383-.119 0-.073-.081-.119-.317-.119-.235 0-.962.086-.962-.046 0-.084.245-.05.425-.044.009.013.026.024.054.032.304.086.65-.14.835-.088-.24-.084-.391.062-.621.012.136 0 .276-.028.285-.063-.107.068-.401-.046-.526.03a.086.086 0 00-.02.02c-.224-.004-.498-.032-.498.101 0 .236.828.098 1.027.098.197 0 .24.021.24.06 0 .055-.197.07-.308.07-.185 0-.96-.104-1.266-.01.018-.053.093-.132.057-.172.029-.012.049-.035.05-.06a.108.108 0 00-.058-.027c.009-.014-.002-.029-.014-.042-.004-.003-.01-.035-.017-.04a.316.316 0 00-.07-.048c-.033-.016-.056-.016-.07-.02-.008-.002-.04.008-.043.007-.017-.002-.036-.002-.04.02a.101.101 0 00-.054-.027.118.118 0 00-.007.086c-.028.002-.058.073-.084.066.01.02.018.027.025.03-.022.041-.031.091-.058.093.016.022.028.033.038.035-.003.023-.004.048-.005.07l-.041-.014h-.038a.171.171 0 00-.04-.008c-.036-.003-.063-.065-.127-.1-.046-.028-.047-.05-.047-.1 0-.04.019-.078.016-.115a.244.244 0 00-.013-.038c-.007-.024-.042-.045-.062-.04.01.007.023.018.026.041l-.02.022c-.007.012-.011.028.003.04.003.005.003.007.003.01l-.003.02c-.002.006-.004.003-.006 0-.01-.03-.023-.072-.05-.075a.064.064 0 00-.02 0l.003-.006c0-.03-.033-.055-.07-.019.008.001.023.002.028.013l-.008.031c-.002.031.02.043.054.043.006 0 .01.003.01.007l.004.011c.002.006-.001.005-.004.005-.054-.024-.077 0-.08.025 0 .001 0 .016.002.022-.018.012-.023.041.012.063 0-.009-.002-.029.012-.034a.014.014 0 00.007-.002.075.075 0 00.015.013c.005.003.012.001.032-.012.003 0 .006-.002.01 0l.018.011c.003.004.003.007 0 .01-.037.034-.03.07.017.077.007.001.008.006.008.011-.004.067-.093.054-.088-.012-.05.076.038.134.1.094.006-.002.009 0 .01.003.003.012.01.024.022.024-.001-.003.004-.013.014-.013.005 0 .005.003.005.006 0 .02.007.04.032.044-.004-.015 0-.027.008-.027.012 0 .056.097.152.151-.003-.009.037-.025.058-.035.004.017.014.036.032.043l.017-.009c-.006.045.048.091.038.091-.015 0-.106-.01-.136.006-.045.024-.152.063-.185.018-.011-.016-.008-.03-.021-.054-.011-.018-.024-.028-.036-.029h-.025c-.02-.02-.06-.023-.075-.009a.05.05 0 01.042.028l-.012.021c-.01.015-.003.038.065.062.004.001.01.007.005.01-.011.004-.025.007-.04-.005-.026-.02-.03-.05-.062-.03l-.02.008c-.004 0-.006 0-.01-.002-.03-.002-.075.035-.055.07.004-.008.016-.027.038-.03l.006.02c.007.037.022.063.094.016.008-.006.008.001.005.004-.016.03-.065.061-.027.083l.016.012c-.001.003-.003.005-.003.008-.006.04.037.071.06.07a.08.08 0 01-.022-.063c.009.004.018.008.02.007.035-.014.019-.056.039-.07.006-.004.008 0 .009.005.003.018.01.057.052.052.039-.004.058-.036.054-.058-.002-.003 0-.004.004-.003.014.01.025.023.02.044a.084.084 0 00.03-.03c.008.02.01.046-.017.072a.105.105 0 00.068-.07.074.074 0 01.014.022c.002 0 .002 0 .003-.003a.157.157 0 00.082 0c.005-.003.006 0 .005.003-.003.015-.003.033.005.042 0-.005.01-.023.017-.023.012 0-.001.041.024.066.009-.105.065-.063.13-.105.009-.006.009-.003.008.003a.064.064 0 01-.03.035c.024.02.12-.04.12-.08 0-.01.037-.013.068-.02.067.004.059-.05.087-.046.386.052.164-.166.618-.123.023.002.033-.024.052-.042-.024.043-.025.134.02.143a.173.173 0 01.079.032c.004.005 0 .007-.003.008a.162.162 0 00-.064.017c-.07.047-.073-.107-.147-.078a.098.098 0 00-.021.016c-.03 0-.071.034-.062.064a.082.082 0 01.047-.026.142.142 0 01-.001.015c-.001.012.004.024.028.024.015 0 .019-.007.03-.007.004 0 .007.003.007.01 0 .03-.092-.017-.075.061 0 .003.009.017.015.024-.004.024.015.047.057.035-.008-.007-.023-.017-.02-.03a.084.084 0 00.019.002c.004 0 .007-.003.01-.014 0 0 0-.003.004-.002.005.001.008.004.008.007 0 .005-.006.01-.006.017 0 .001.004.022.008.024-.004.028.038.06.08.03-.012-.002-.038-.007-.042-.02l.019-.008c.007-.005.01-.016.01-.029 0-.007.004-.008.008-.008h.018c.01 0 .013.003.014.005.01.018.03.034.059.024.05-.017.007-.06.048-.07a.094.094 0 01.029 0c.04.01.098.01.109-.01.01-.019.005-.09-.038-.115-.024-.012.002-.042-.021-.079a.347.347 0 00.148.037c.107 0 .142-.016.193-.046.056-.033.116-.016.132-.014.013.003.024.01.018.027-.016.057 0 .062-.013.088-.012.021-.057.003-.09.002a.039.039 0 00-.034.015c-.027.005-.06.03-.062.06a.115.115 0 01.05-.025v.012c.002.038.043.051.069.025.004-.004.014 0 .008.006-.024.016-.066.052-.034.066l.018.011c-.004.023.012.047.03.05-.005-.012-.006-.02.006-.045h.02c.024.001.016-.047.044-.062.004-.003.007-.002.005.002-.011.027-.02.061.005.07 0 0 .01.001.019.004.005.02.03.036.065.02-.008-.004-.026-.014-.028-.024a.095.095 0 00.019-.026c.022-.058-.027-.059-.024-.083.002-.028.056-.009.062-.068a.034.034 0 00-.022-.035l-.001-.003c.017 0 .033.004.043-.019-.042.003-.026-.032-.03-.056m-1.863.657c.008-.016.015-.028.023-.028.014 0 .024-.003.028-.017.007-.018-.01-.025-.025-.037.017-.005.025-.012.016-.019-.011-.009-.025.007-.029-.002-.004-.007.008-.013.013-.018.007-.007.014-.006.023 0l.072.034c.008.004.014.007.013.018 0 .007.004.021-.005.024-.007.003-.006-.02-.019-.024-.012-.002-.011.01-.004.027-.017-.006-.033-.016-.041.001-.008.013-.005.023.006.035.005.007 0 .02-.005.036-.006.016-.026.04-.051.026-.027-.014-.024-.042-.015-.057m.083-.18c-.011.02-.036.036-.055.018-.019-.02.002-.025-.021-.06.022.014.064.04.076.041m.055.028a.364.364 0 00.088.035c-.042.01-.031.025-.057.023-.026 0-.036-.035-.031-.058m.679-.012c.006.015.023.028.053.037.29.084.621-.134.797-.083-.229-.08-.372.058-.592.012.128-.002.264-.026.271-.06-.099.064-.381-.045-.5.028a.065.065 0 00-.018.015c-.12-.003-.29-.007-.29.101 0 .224.603.093.791.093.145 0 .167.02.167.055 0 .054-.216.066-.322.066-.164 0-.656-.084-.955-.025.023-.049.077-.112.048-.147.027-.01.046-.033.047-.057a.102.102 0 00-.055-.025c.009-.013-.003-.028-.013-.04-.004-.003-.01-.034-.016-.039-.011-.009-.033-.028-.066-.044-.033-.016-.054-.016-.067-.02-.008 0-.037.007-.041.007-.016-.002-.035-.002-.038.017a.095.095 0 00-.052-.023.11.11 0 00-.007.081c-.027.002-.055.07-.08.062.009.02.018.027.025.028-.022.041-.031.088-.057.09.009.012.017.02.023.025a.44.44 0 00-.014.086l-.026-.009c-.005 0-.008 0-.012-.002-.035-.002-.057.002-.117-.033-.045-.025-.046-.048-.046-.093 0-.04.018-.075.015-.11a.176.176 0 00-.01-.036c-.008-.025-.041-.045-.06-.039.01.008.022.017.024.04a.19.19 0 00-.018.02c-.007.011-.012.026.001.04a.008.008 0 01.005.008c0 .004-.002.01-.005.018-.001.007-.003.003-.004 0-.009-.028-.022-.069-.048-.07l-.018-.002.001-.006c0-.028-.032-.05-.066-.015.008 0 .021.003.026.011l-.007.03c-.002.03.021.04.051.041.006 0 .008.002.01.005l.005.013c.001.006-.002.005-.005.003-.052-.022-.074.002-.074.024v.02c-.017.014-.022.04.011.062 0-.01-.001-.029.011-.033l.007-.002.014.012c.005.002.013.001.029-.01a.029.029 0 01.013 0l.015.01c.004.002.003.005.001.008-.036.033-.03.067.016.074.006.002.008.006.008.011-.004.063-.089.051-.084-.012-.046.072.036.127.098.091.004-.003.005 0 .006.001.004.013.01.023.021.024 0-.003.005-.014.013-.014.005 0 .006.004.006.007 0 .016.006.038.03.041-.003-.012 0-.025.009-.025.01 0 .009-.028.087.014a.057.057 0 00.027.032l.058-.01c-.006.043.006.11-.004.11-.012 0-.1-.012-.128.004-.043.023-.147.06-.176.017-.012-.015-.008-.028-.022-.05-.009-.017-.023-.027-.033-.028h-.024c-.018-.019-.055-.02-.071-.009.013.003.027.006.039.026a.299.299 0 01-.011.021c-.008.015-.004.035.062.06.003 0 .009.007.004.01-.01.003-.023.005-.036-.006-.025-.019-.03-.048-.061-.03l-.02.01a.011.011 0 00-.008-.003c-.028-.002-.073.033-.054.067.005-.008.017-.027.037-.029l.007.02c.006.034.02.06.089.015.007-.006.007.001.005.003-.015.03-.061.057-.027.08l.016.012a.034.034 0 00-.003.008c-.006.036.035.066.058.064a.07.07 0 01-.022-.057c.009.002.018.006.021.004.031-.012.017-.054.035-.065.006-.004.008 0 .01.004.002.016.009.053.049.05.037-.004.055-.035.05-.056 0-.002.001-.005.005-.002a.038.038 0 01.019.042c.007-.005.022-.015.028-.029a.058.058 0 01-.016.068c.016-.005.055-.023.064-.066.006.005.011.015.014.02.002 0 .002 0 .003-.003a.13.13 0 00.079-.002c.004 0 .006.001.006.004-.005.016-.005.033.003.041 0-.004.01-.02.016-.02.011 0-.001.038.023.062.009-.099.088-.075.15-.117.007-.004.008-.003.006.004a.053.053 0 01-.026.032c.067.042.137-.05.156-.1a.047.047 0 00.018-.02c.005.01.006.021-.011.03.066.004.057-.047.084-.046.196.02.045-.163.362-.109.021.003.059-.018.077-.035-.023.043-.025.13.021.136a.206.206 0 01.074.03c.004.005 0 .007-.004.007a.245.245 0 00-.06.016c-.067.045-.069-.1-.14-.073a.115.115 0 00-.02.015c-.029 0-.068.034-.061.063a.087.087 0 01.047-.027l-.002.016c0 .011.003.023.028.023.014 0 .017-.007.027-.007.006 0 .009.003.009.008 0 .027-.088-.014-.074.06.002.002.01.016.015.021-.003.023.015.046.054.033-.007-.005-.021-.015-.018-.027a.066.066 0 00.017.002c.004 0 .008-.003.01-.012 0-.003.001-.004.004-.004.004.001.008.004.008.007 0 .005-.005.01-.005.016 0 .002.003.022.006.024-.003.027.037.055.077.028-.012 0-.038-.006-.04-.02l.019-.008c.006-.004.008-.015.008-.026 0-.007.003-.008.007-.008h.019c.008-.002.011.001.013.005a.044.044 0 00.056.023c.047-.017.007-.058.045-.066a.057.057 0 01.029 0c.037.01.093.007.103-.01.011-.02.006-.087-.036-.11-.024-.013.003-.04-.021-.075a.337.337 0 00.141.034.373.373 0 00.204-.043c.059-.032.112-.016.128-.013.012.002.021.008.012.025-.024.053-.009.06-.026.084-.016.02-.057.003-.086.001-.017 0-.034.011-.035.015-.028.004-.064.028-.07.058a.138.138 0 01.053-.025l-.001.012c-.006.036.031.05.059.024.004-.004.014 0 .007.005-.024.017-.071.05-.044.065a.648.648 0 01.016.01c-.007.02.004.044.021.047-.004-.012-.004-.02.013-.044l.019.001c.021.001.023-.046.052-.059.004-.002.007 0 .004.002-.015.026-.028.058-.006.066l.017.002c.001.022.023.036.058.02-.005-.003-.021-.012-.022-.022a.196.196 0 00.022-.023c.031-.057-.015-.057-.008-.08.006-.027.055-.009.069-.064.003-.01.003-.028-.014-.036-.002 0-.002-.002-.001-.002h.001c.015 0 .03.004.043-.017-.041.003-.02-.033-.02-.054 0-.003 0-.006.005-.01.015-.008.029-.027.033-.058-.017.02-.068.04-.063.001 0 0 .005-.028-.039-.02-.069.005-.168-.008-.295-.02-.008 0-.015-.007 0-.008.128-.01.395-.02.395-.125 0-.047-.032-.112-.241-.102-.225.012-.732.085-.732-.042 0-.064.139-.055.217-.05m-.739 1.015c-.024-.001-.034-.034-.03-.055a.346.346 0 00.083.033c-.038.008-.028.024-.053.022m-.037.047c-.007.002-.006-.02-.018-.022-.011-.002-.011.009-.004.024-.016-.006-.032-.013-.04.002-.006.014-.004.022.007.034.005.006 0 .019-.006.034-.005.015-.024.037-.048.024-.024-.014-.021-.04-.014-.054.008-.014.014-.026.022-.026.014 0 .022-.003.027-.016.006-.017-.01-.024-.023-.034.015-.005.023-.01.014-.018-.01-.01-.025.006-.027-.002-.004-.007.008-.014.013-.017.006-.007.013-.005.022 0l.066.03c.009.006.014.01.014.019 0 .007.002.02-.005.022m-.044-.128c-.011.018-.034.034-.052.015-.018-.017 0-.023-.02-.057a.428.428 0 00.072.042m.595 0c.006.014.023.03.054.038.289.083.62-.135.796-.085-.228-.078-.372.06-.591.013.128-.001.264-.027.27-.061-.1.064-.382-.043-.5.03a.063.063 0 00-.022.02c-.09.02-.166.069-.166.134 0 .085.109.109.314.1.2-.008.427-.032.427.005 0 .05-.144.098-.34.098-.147 0-.402-.098-.724-.017v-.004c.023-.055.092-.136.062-.172.025-.01.043-.031.044-.053a.089.089 0 00-.052-.024c.009-.014-.002-.028-.013-.037-.002-.002-.008-.033-.015-.04a.285.285 0 00-.061-.041c-.032-.015-.052-.013-.065-.018-.008-.001-.036.007-.04.007-.013-.002-.031-.002-.035.016a.077.077 0 00-.048-.022.093.093 0 00-.007.076c-.026.002-.052.067-.075.06.007.017.015.025.023.026-.021.039-.03.084-.054.086.01.014.02.023.027.027a.486.486 0 00-.013.18c-.045-.047-.114-.155-.16-.181-.041-.023-.042-.044-.042-.087 0-.037.017-.071.015-.106-.001-.003-.006-.023-.011-.033-.007-.023-.038-.041-.056-.037.009.007.02.016.023.039a.081.081 0 00-.017.019c-.008.01-.011.024 0 .036.003.003.003.005.003.009l-.001.017c-.002.006-.004.003-.005 0-.01-.027-.023-.065-.046-.067-.002 0-.013-.002-.017-.001v-.006c0-.025-.03-.048-.062-.015.008 0 .02.004.026.01a.186.186 0 00-.006.029c-.003.027.017.039.047.039.005 0 .009.002.01.005 0 .005.002.008.003.012 0 .006-.001.005-.004.003-.05-.021-.07.002-.071.023v.019c-.015.013-.02.037.012.058 0-.01-.002-.027.01-.03l.007-.004c.004.006.012.012.013.013.004.003.013 0 .029-.011.003-.001.005-.002.01 0 .004.004.01.006.015.01.003.002.002.006 0 .008-.032.032-.027.063.016.07.006.002.008.006.008.01-.005.06-.085.049-.081-.011-.043.069.035.122.093.086.003-.003.005-.001.006.003.004.01.01.02.02.022 0-.004.004-.014.014-.014.003 0 .004.003.004.006 0 .016.006.037.029.039-.004-.012 0-.024.007-.024.01 0-.002.093.085.142a.095.095 0 00.103.075c.015.035.036.069.03.069-.012 0-.115-.01-.143.004a.307.307 0 01-.078.028l-.017.005c-.03.006-.057.003-.071-.017-.01-.013-.007-.028-.02-.048-.01-.016-.021-.026-.031-.027h-.024c-.015-.016-.052-.018-.067-.006a.042.042 0 01.038.024c-.003.006-.008.018-.011.02-.007.012-.002.034.06.057.003 0 .008.006.003.007a.035.035 0 01-.035-.003c-.023-.02-.028-.047-.057-.03l-.018.01c-.002-.001-.005-.004-.008-.004-.027-.002-.07.033-.05.066a.046.046 0 01.034-.03l.006.019c.006.034.019.058.084.014.007-.003.007.003.006.005-.015.027-.06.055-.025.075l.014.01a.019.019 0 00-.002.008c-.006.036.033.063.054.062-.01-.01-.025-.03-.02-.055l.019.005c.03-.013.016-.05.033-.063.006-.003.009-.001.009.005.002.014.009.05.047.046.035-.002.052-.033.049-.053-.001-.002 0-.004.003-.002.012.008.022.02.018.04a.085.085 0 00.027-.027c.007.017.009.04-.016.064.015-.004.052-.022.06-.062a.03.03 0 01.014.02c.002-.001.002-.003.004-.003a.128.128 0 00.073-.002c.005-.001.005 0 .005.004-.003.014-.003.03.004.038 0-.004.01-.02.016-.02.01 0-.001.036.02.059.009-.093.06-.056.119-.094.007-.005.008-.003.006.002a.052.052 0 01-.025.03c.023.003.089-.028.089-.062 0-.013.043-.052.055-.162a.096.096 0 00.024 0c.079-.006.115-.064.194-.068-.02.022-.027.076-.025.112.003.045.056.09.072.105.003.005 0 .006-.003.007a.183.183 0 00-.06.015c-.061.042-.063-.094-.131-.07a.052.052 0 00-.018.015c-.028-.001-.064.03-.058.059a.075.075 0 01.043-.025.138.138 0 01-.001.014c0 .01.003.023.027.023.013 0 .016-.008.026-.008.004 0 .008.004.008.008 0 .026-.084-.015-.068.056 0 .003.007.016.01.022-.002.02.017.043.053.03-.007-.004-.02-.014-.016-.026a.168.168 0 00.016.002c.002 0 .006-.003.01-.012 0-.001 0-.003.003-.003.004.002.006.003.006.007s-.005.008-.004.016c0 0 .004.019.007.022-.004.025.033.052.07.026-.01-.001-.033-.006-.036-.02l.018-.006c.006-.004.007-.014.008-.025 0-.007.004-.007.006-.007l.018-.001c.008-.001.01.002.013.006.008.016.026.03.052.02.046-.014.007-.054.044-.061.005-.003.017-.004.026 0 .036.007.065.013.074-.004.01-.018.005-.082-.034-.103-.022-.012.033-.154-.075-.22.05.012.215.035.243-.004a.283.283 0 01.112.055c.007.009.01.02-.005.029-.044.028-.037.042-.061.049l-.003.002c-.015-.014-.03-.036-.044-.044-.015-.007-.032-.002-.033 0-.025-.006-.06.003-.07.029.01-.002.03-.008.05-.002l-.004.01c-.002.008.002.016.01.024h-.001.002l.002.002c.003.002.003.006-.002.006-.024-.004-.074-.007-.062.024l.005.017c-.017.015-.022.04-.011.055.004-.012.007-.017.032-.026.003.005.009.01.012.012.012.016.038-.021.064-.012.003 0 .005.003 0 .004-.022.01-.047.028-.037.05.002 0 .005.008.009.015-.01.017-.004.045.028.055-.001-.007-.007-.023-.004-.033a.132.132 0 00.029-.004c.048-.026.017-.058.034-.074.018-.016.04.032.079-.003a.037.037 0 00.009-.04v-.003c.01.01.019.025.038.016-.028-.026.004-.038.016-.058 0-.003.003-.005.008-.003.014.002.033-.002.05-.027-.02.004-.075-.03-.041-.042.049-.02.059-.045.037-.072-.038-.051-.12-.054-.122-.111a.911.911 0 00.072-.002c.252.003.41-.07.407-.148-.004-.065-.072-.09-.251-.076-.22.015-.507.042-.507-.033 0-.037.048-.066.105-.086m-8.001-10.28c-.226.178-.526.016-.662-.215.31-.129.67-.273.913-.424-.224.345-.071.498-.251.64m-.051 2.35c-.291.125-.517-.13-.573-.304-.057-.176-.103-.32-.035-.386.126-.124.166-.22.089-.376-.087-.179-.277-.094-.48-.044.094-.172.102-.293-.028-.277-.154.017-.157.268-.242.238-.087-.029-.038-.174-.038-.25 0-.107.069-.144.176-.192l.843-.319c.109-.04.184-.06.259.016.054.054.189.124.147.205-.041.082-.216-.097-.34-.002-.104.08-.013.161.174.218-.182.105-.376.176-.314.367.053.162.147.205.324.206.096 0 .164.138.243.302.082.164.106.464-.205.597M12.063 5.74c-.228.02-.221-.197-.62-.294.28-.057.64-.198.954-.318.059.261-.048.585-.334.612m4.358 6.871c-.036-.249-.006-.485-.29-.817-.278-.325-1.205-1.346-1.496-1.676.073-.007.16.01.34.178.113.106.39.378.589.572a5.722 5.722 0 011.31-2.014c-.2.05-.41.135-.59.257-.012-.285-.078-.552-.273-.733.074-.397.01-.878-.882-1.469.456.11.726.523 1.074.207-.313-.01-.32-.694-1.45-1.26.432-.01.769.687 1.269.293-.472-.057-.628-.893-1.477-1.152.294.033.598.177.85-.165-.293.07-.467-.203-.783-.227.119-.366.09-.592-.036-.866a1.097 1.097 0 00-.611.217c-.025-.2-.237-.213-.424-.198.01.087.05.213-.044.231a7.994 7.994 0 00-1.047.316 5.72 5.72 0 00-.963.517c-.08.054-.147-.073-.196-.132-.137.116-.271.268-.171.421-.216.02-.456.075-.658.236 0 .251.208.496.519.632-.524.521-.05 1.003-.511 1.458.649.023.536-.88.864-1.005-.034.635-.39.748-.39 1.432 0 .367.219.764.024 1.005.543-.15.4-1.35.737-1.712.059.206.026.407-.044.612-.19.56.02 1.327-.275 1.575.485-.047.596-.735.922-1.125-.344.908-.721 2.476-1.225 3.212-.944 1.274-1.5 2.827-2.365 2.827-.382 0-.67-.234-.67-.716 0-1.449 2.484-2.446 2.484-3.987 0-.686-.56-.95-.91-.95-.237 0-.522.117-.761.314a.822.822 0 00-.293-.064c-.878 0-.644 1.578-1.41 1.562.304.17.828-.16 1.134-.602-.128 1.023-1.601.751-1.488 1.98.206-.963 2.554-.822 2.554-2.282a.564.564 0 00-.201-.41.908.908 0 01.495-.156c.28 0 .538.21.538.623 0 1.293-2.47 2.383-2.47 3.972 0 .267.08.491.206.666-.174.074-.353.04-.502-.135-.014.41.57.667.939.462a.987.987 0 00.255.051c-.111.304-.49.395-.686.382.606.477 1.66-.149 1.603-.689.48-.387.784-1.05 1.132-1.487a7.127 7.127 0 00-.055.301c-.353.644-.685 1.22-.778 2.07-.077.71-.436 1.35-.934 1.35-.11 0-.29-.144-.374-.074-.156.134-.008.274-.008.406 0 .202-.39.404-.39 1.027 0 .28.164.616.102.802.159-.08.37-.347.458-.69.17.821-.351.786.025 1.516.047-.24.288-.342.435-.24.148.1.079.171-.03.28-.11.11-.211.654.288.623-.093-.063-.1-.207.148-.258.343-.07.443.09.81.09.225 0 .288-.298.467-.298.179 0 .179.14.117.242.288-.077.342-.234.342-.397s-.132-.265-.031-.327c.1-.063.436.007.304.28.172-.03.265-.155.265-.366 0-.21-.241-.335-.468-.295-.038-.133-.233-.204-.412-.204-.405 0-.343.32-.62.32-.445 0-.876-.578-.876-1.552 0-.522.56-.654.958-.825.397-.172 1.094-.6 1.51-1.299.328-.548.338-1.149.296-1.86.559.32.625.783.625 1.12 0 .435-.226.611-.403.692-.151.07-.201.04-.217.13-.02.111.055.175.12.21.202.103.16.296.217.505.057.21.243.54.557.782.032-.13.024-.338.005-.608.43.212.086 1.076.92 1.076-.152-.088-.112-.315-.023-.347.089-.033.2.056.362.282.162.225.118.207.514.207.394 0 .217-.137.426-.137.21 0 .193.241.082.42.352-.107.459-.375.34-.65.31-.169.474.07.52.24.307-.307 0-.678-.24-.702.007-.114-.097-.235-.227-.242a3.172 3.172 0 00-.393-.009c-.146.01-.227.22-.396.22-.523 0-1.56-.95-1.56-1.36 0-.412.99-.66.99-1.298 0-.833-.817-1.117-1.505-1.65.245-.275.96-.34 1.368-.142.045-.232.195-.175.249-.575.145.352-.048.641.1.79.116-.169.412-.145.394-.58.09.272-.115.69.09.871.037-.224.17-.266.255-.266.085 0 .158.06.158.193 0 .333-.4.242-.4.618 0 .157.2.212.2.315 0 .102-.164.26-.363.127.066.145.198.272.369.272.18 0 .376-.146.45-.332.096.238.023.503-.147.537.18.091.61.005.56-.545.243.04.37.205.227.498.199-.049.38-.146.38-.358 0-.163-.16-.276-.133-.5.023-.184-.23-.359-.266-.607M10.892 3.76a.162.162 0 10-.323 0 .162.162 0 10.323 0m-.057-.431a.162.162 0 10-.322 0 .162.162 0 00.322 0m.092-.192a.162.162 0 100-.323.162.162 0 000 .323m.43-.027a.162.162 0 100-.325.162.162 0 000 .324m1.838-.299a.161.161 0 00.23 0 .163.163 0 000-.229.162.162 0 00-.23 0 .162.162 0 000 .23m-.036-.346a.16.16 0 000-.229.16.16 0 00-.228 0 .162.162 0 000 .229.161.161 0 00.228 0m-.429-.07a.163.163 0 00-.23-.229.162.162 0 00.23.229m-.366.272a.163.163 0 000-.228.164.164 0 00-.23 0 .163.163 0 000 .229.163.163 0 00.23-.001m-1.032-.222l.13.282.165-.196a.07.07 0 00.018.006c.014.095.02.26.02.353a.206.206 0 10.413 0 .201.201 0 00-.11-.182 1.668 1.668 0 01-.226-.213c.002-.009.006-.016.008-.026l.274.025-.107-.292-.204.175-.011-.005-.017-.301-.283.107.19.224a.07.07 0 00-.011.022l-.248.02zm1.874.502c.063.098.085.145.09.223a.456.456 0 01-.169-.153l.034.377c.045-.068.081-.113.135-.136-.014.245-.112.346-.195.363a.158.158 0 01-.193-.125c-.021-.11.074-.177.17-.08.017-.226-.165-.223-.245-.127.095-.218.057-.362-.137-.48-.121.205-.07.338.083.494-.149-.076-.283.052-.15.218.029-.145.155-.112.184.003.026.1-.07.227-.231.275-.232.071-.307-.078-.363-.203.049-.033.169-.02.302.063l-.112-.368a.379.379 0 01-.222.224c-.007-.108.071-.324.071-.324l-.445.181s.206.1.276.182a.377.377 0 01-.315-.006l.178.342c.035-.153.113-.244.172-.257.046.13.097.29-.117.401-.15.078-.306.053-.358-.036-.061-.102.007-.215.128-.13-.02-.213-.205-.21-.259-.05.001-.22-.055-.352-.285-.414-.058.22.017.35.237.441-.124-.015-.257.11-.087.261 0-.138.115-.155.179-.062a.159.159 0 01-.052.224c-.072.046-.213.042-.394-.125.055-.02.114-.012.192.004l-.238-.293a.452.452 0 01-.015.227c-.051-.058-.068-.109-.091-.223l-.181.163c.172.105.37.27.61.602a7.78 7.78 0 01.989-.49 7.686 7.686 0 011.05-.34c-.061-.406-.033-.66.017-.856l-.243.01zM32.681 17.18a.52.52 0 011.04 0 .52.52 0 01-1.04 0m-.178 0a.699.699 0 101.395 0 .699.699 0 00-1.395 0m-2.289 1.265c-.199-.037-.339-.184-.313-.33a.222.222 0 01.1-.144.413.413 0 01.308-.057c.181.032.317.163.317.296a.195.195 0 01-.003.034c-.027.147-.21.236-.409.2m-.316-.62a.408.408 0 00-.173.258.411.411 0 00.107.349.619.619 0 00.35.19c.141.024.28.005.394-.056a.405.405 0 00.222-.29c.044-.242-.16-.483-.457-.537a.6.6 0 00-.443.086m-3.881-9.386c0-.09.053-.193.146-.266a.37.37 0 01.266-.082c.038.005.092.02.13.069.038.05.039.106.034.146a.37.37 0 01-.144.235c-.137.107-.318.112-.396.012a.185.185 0 01-.036-.114m.037-.41c-.217.17-.282.454-.142.634.14.178.43.188.646.02a.55.55 0 00.213-.355.375.375 0 00-.071-.277.37.37 0 00-.248-.137.55.55 0 00-.398.116m3.296 9.427a.221.221 0 01-.158-.074.422.422 0 01-.105-.298.414.414 0 01.116-.292.224.224 0 01.161-.068c.147.003.265.17.261.371a.417.417 0 01-.116.293.223.223 0 01-.16.068m-.27-.792a.593.593 0 00-.17.417v.014a.6.6 0 00.154.412.402.402 0 00.283.128.396.396 0 00.286-.117.591.591 0 00.172-.419.602.602 0 00-.117-.379.407.407 0 00-.32-.175.407.407 0 00-.288.12m-3.276-4.96c-.182-.086-.278-.267-.213-.402a.22.22 0 01.132-.11.416.416 0 01.314.028.419.419 0 01.218.227.224.224 0 01-.004.174.222.222 0 01-.132.111.413.413 0 01-.315-.028m-.139-.68a.403.403 0 00-.235.202c-.107.223.026.51.296.64a.594.594 0 00.452.035.4.4 0 00.234-.203.409.409 0 00.012-.31.599.599 0 00-.31-.329.591.591 0 00-.449-.036" fill="#010202"/><path d="M30.722 14.202c-.115.161-.31.218-.437.128s-.136-.293-.022-.454c.115-.16.31-.218.437-.128s.136.294.022.454zM29.9 15.5c-.115.162-.31.22-.437.13-.127-.089-.138-.294-.023-.455.112-.16.307-.22.436-.129.127.09.138.292.024.454zm-2.847-7.109l.005-.015c.097-.299.28-.897.28-.903l.008-.02.39.15-.052.02a1.015 1.015 0 00-.27.187c.07.018.169.013.235-.03l.057-.039-.168.423-.023-.039a.436.436 0 00-.172-.169.33.33 0 00-.01.084c0 .155.108.227.215.282.187.095.3.107.346.034a.104.104 0 00.012-.049.123.123 0 00-.033-.082c-.035-.038-.1-.067-.182-.032l-.026.011-.003-.029c-.012-.112.025-.178.056-.213a.198.198 0 01.15-.066c.065 0 .124.04.162.104a.517.517 0 01.373-.473l.02-.006.007.02a.625.625 0 01.039.211c0 .135-.056.256-.17.383.093-.017.177.007.217.066a.2.2 0 01.029.162c-.011.046-.047.113-.145.165l-.026.014-.005-.028c-.014-.072-.061-.119-.126-.13-.054-.007-.105.017-.127.06-.047.091.02.188.2.288.216.121.355.017.437-.1a.372.372 0 00-.25.063l-.068.043.277-.519.01.06c.007.028.028.12.105.197a.65.65 0 00.033-.188.353.353 0 00-.031-.149l-.028-.06.57.33-.067.005c-.1.01-.194.067-.288.171.106.027.195 0 .223-.009l.057-.02-.311.498.003-.079v-.017a.372.372 0 00-.07-.232.402.402 0 00-.041.165c0 .091.043.186.173.264.175.106.293.115.349.028.026-.04.02-.095-.013-.139-.04-.05-.105-.068-.174-.044l-.027.01-.001-.029c-.005-.11.035-.175.069-.208a.204.204 0 01.155-.057c.08.006.138.076.167.156.077-.244.21-.366.449-.41l.02-.005.005.02a.52.52 0 01-.223.559c.075.002.138.032.17.09a.216.216 0 01.029.102.21.21 0 01-.01.06c-.015.045-.053.11-.156.155l-.027.011-.003-.027a.157.157 0 00-.12-.142c-.05-.01-.1.008-.123.048-.041.075.025.167.202.281.118.076.256.143.419-.003-.06-.05-.18-.067-.232-.067h-.044l.28-.357-.004.07v.011c0 .076.043.16.092.207a1.17 1.17 0 00.032-.253.428.428 0 00-.005-.075l-.008-.054.325.261-.015.017c-.004.005-.431.461-.641.695l-.012.012-2.922-1.687zm3.443 3.877a.224.224 0 01.066-.158.222.222 0 01.164-.057.415.415 0 01.284.138.42.42 0 01.12.292.218.218 0 01-.065.16.22.22 0 01-.163.056.418.418 0 01-.284-.138.432.432 0 01-.122-.293zm1.25 5.75a.424.424 0 01.188-.257.422.422 0 01.307-.07.23.23 0 01.146.095.223.223 0 01.028.17.424.424 0 01-.186.256c-.17.11-.374.1-.454-.024a.225.225 0 01-.028-.17zm-5.948-8.663a.357.357 0 01-.108.246.187.187 0 01-.133.052c-.117-.007-.208-.142-.208-.299V9.33a.355.355 0 01.107-.245.186.186 0 01.135-.052c.06.003.103.038.128.067a.352.352 0 01.079.255zm1.84-3.78c.098-.186 0-.47.34-.47.168 0 .318.167.52.233-.33.027-.625.101-.86.237zm5.36 4.73c.227.624.679.848 1.023.688-.77-.089-.145-1.407-1.137-1.407a.689.689 0 00-.16.017c-.168-.178-.36-.252-.645-.252-.42 0-1.142.406-1.142 1.242 0 1.8 2.09 1.96 2.09 3.552a.729.729 0 01-.743.753c-.351 0-.635-.395-.93-1.012-.142-.294-.445-.698-.767-1.117a.563.563 0 00.309.11.398.398 0 00.29-.107.393.393 0 00.123-.282v-.017a.602.602 0 00-.17-.405.608.608 0 00-.41-.195.412.412 0 00-.29.106.402.402 0 00-.121.283l-.001.017c0 .061.01.122.033.183-.45-.587-.868-1.165-.868-1.48 0-.28.193-.525.43-.82l.082.045.063-.069c.084-.093.259-.284.62-.67l.02-.024v.001l.088-.092-.224-.18c.059-.135.11-.282.15-.443.069.29.217.474.422.416-.136-.299.139-.7-.042-1.432.172.282.418.432.595.381-.464-.413.137-.985-.466-1.873.199.066.328.03.415-.07-.55-.077-.3-.78-1.264-1.03.24-.044.38-.185.344-.31-.255.184-.48-.344-1.316-.329-.051-.314-.341-.643-.67-.803.062.243.004.461-.06.643l-2.727-2.677c-.08-.075-.124-.093-.145-.065-.023.027-.021.076.03.131l2.342 2.937c-.176.06-.348.134-.531.202a.314.314 0 00-.203.303 4.929 4.929 0 00-1.006.657c-.144.131-.26.162-.132.458.048.111-.102.39.237.186.223-.134.728-.41.802-.237.04.092-.21.211-.381.275-.171.067-.356.198-.33.264.028.065.163-.004.172.065.009.08.064.147.132.147.069 0 .157-.143.212-.095.054.048-.028.368-.083.45a.53.53 0 00.443-.484c.006-.197.06-.245.102-.273.04-.027.089.212.034.355.14-.03.286-.215.265-.556.073-.056.144-.098.197-.098.09 0 .266.244.519.244.463 0 .72-.375.748-.55.022-.143.012-.282-.065-.387a.645.645 0 01.219.5c0 .656-1.161.965-1.638 1.42-.02.015-.035.032-.053.05l-.544-.212-.037.12a55.216 55.216 0 01-.281.902l-.03.091.05.027c-.323.43-.584.911-.643 1.405a4.505 4.505 0 00-.396-.362.569.569 0 00.028-.15.526.526 0 00-.123-.385.366.366 0 00-.251-.126.362.362 0 00-.265.097.47.47 0 00-.05.051l-.057-.045c-.18-.138-.402-.303-.538-.45-.057-.065-.115-.099-.237-.099-.046 0-.161-.005-.242-.005-.081 0-.127.062-.22.144-.051.044-.223.18-.398.311a4.8 4.8 0 01.24.254c.024.025.046.051.068.076l.177-.138a.315.315 0 01.202-.059c.07 0 .168.052.237.156.05.075.49.654.856 1.057-.041.013-.08.027-.116.042-.156.066-.51.052-.665.04-.157-.013-.187-.052-.294.115a2.318 2.318 0 01-.145.203c-.052.063-.093.136.018.323.16.272.56.99.694 1.312.132.324.288.376.542.48.255.104.688.352.74.41l.017-.248c-.075-.076-.318-.167-.41-.2-.092-.034-.116-.07-.005-.07.109 0 .415.108.629.194-.064-.242-.295-.509-.433-.658-.185-.053-.371-.053-.445.005a.102.102 0 01-.105.116c-.07 0-.12-.06-.097-.128.023-.073.133-.097.109-.236-.023-.138-.196-.16-.306-.173-.155-.225-.335-.555-.415-.688-.082-.133-.033-.208.023-.254.133-.109.41.058.963.092.193.012.439.024.687.036.074.644.33 1.256 1.229 1.48.437.108.888.43 1.043.85-1.79-.032-2.071.666-2.071 1.324 0 .75.63.707.63 1.268 0 .49-1.504.692-1.958.76-.387.056-.606.141-.791.326-.184.186-.373.364-.708.701 0 0 .143.032.285.024l.255-.329c.075-.109.127-.202.177-.194.05.01.016.093-.043.211l-.21.352c.883.06.94-.267.94-.403 0-.134-.216-.226-.09-.31.126-.085.234-.026.336.092.1.118.134.218.379.126 0 0 1.925-.798 2.169-.908.219-.099.156-.195.025-.303-.144-.118-.168-.312-.168-.512 0-.583.35-.763.977-.75a2.6 2.6 0 00-.02.28c0 .91 1.376 1.797 1.748 1.797.165 0 .389-.123.404.425.009.403.09.688.018 1.153-.072.465-.206.537-.486.733-.28.198-.544.812-.662.942.125.082.258.092.362-.207.085-.248.185-.425.293-.485-.11.275-.19.675-.241.795.35.062.92-.259.92-.506 0-.248-.197-.229-.197-.393 0-.073.09-.155.197-.155.14 0 .248.112.258.164.156-.082.254-.237.248-.6a13.929 13.929 0 00-.014-.439c.008.021.019.04.03.06a.408.408 0 00.318.177.616.616 0 00.384-.103.599.599 0 00.263-.37.393.393 0 00-.054-.304.398.398 0 00-.258-.17.599.599 0 00-.443.095.615.615 0 00-.256.337c-.028-.493-.064-.96-.05-1.149.02-.278.03-.402-.062-.443-.094-.042-.197.114-.331.114s-.538-.373-.538-.765c0-.394.425-.9.404-1.438-.008-.168.098-.255.164-.103.084.185.204.434.385.636-.111.677.632 1.336 1.244.846-.302.046-.51-.224-.644-.493a1.069 1.069 0 00.255.01c.215.266.899.245 1.074-.416-.12.14-.366.243-.542.22.257-.198.39-.525.39-.875 0-1.717-2.081-1.917-2.081-3.479 0-.578.507-.95.859-.95a.53.53 0 01.323.102c-.135.137-.207.345-.196.597.056 1.232 2.069 1.171 2.095 1.765.227-.894-1.275-.618-1.33-1.823zM21.24 20.499c-.05-.096-.125-.15-.19-.15-.289 0-.176.764-.52.764-.15 0-.232-.097-.232-.205 0-.107.075-.14.075-.226 0-.085-.067-.117-.142-.117-.075 0-.143.032-.143.117 0 .087.076.119.076.226 0 .108-.08.205-.23.205-.345 0-.232-.763-.52-.763-.066 0-.14.053-.19.149a.696.696 0 01-.09-.3c0-.14.107-.332.332-.332.386 0 .295.526.48.526.082 0 .142-.048.142-.13 0-.15-.268-.29-.268-.505 0-.215.196-.395.411-.568.215.173.412.353.412.568 0 .215-.27.356-.27.506 0 .08.06.129.143.129.185 0 .094-.526.48-.526.227 0 .334.193.334.333a.71.71 0 01-.09.299m-1.009 1.068a.189.189 0 010-.377.188.188 0 010 .377m.765-1.85a.502.502 0 00-.142.02v-.821a6.038 6.038 0 01-1.238-.198v1.023a.482.482 0 00-.632.459c0 .218.128.42.24.546.056-.132.106-.24.18-.24.147 0 .081.736.511.756a.338.338 0 10.654.117.325.325 0 00-.023-.117c.432-.02.36-.755.507-.755.074 0 .121.1.185.239.112-.126.24-.328.24-.546a.482.482 0 00-.482-.482M18.564 4.706c-.13.248-.242.393-.224.584.017.192.218.327.314.52.084-.224.23-.393.212-.569-.017-.175-.258-.407-.302-.535m3.327 0c.13.248.242.393.224.584-.016.192-.218.327-.313.52-.087-.224-.23-.393-.214-.569.018-.175.26-.407.303-.535m-5.244-.143a.225.225 0 100-.45.225.225 0 000 .45m.15.321a.225.225 0 10-.45 0 .225.225 0 00.45 0m.11.546a.225.225 0 10-.45 0 .225.225 0 00.45 0m.986-1.94c.125 0 .225-.1.225-.224a.225.225 0 10-.225.225m-.559.172a.225.225 0 100-.45.226.226 0 100 .45m-.439.386a.225.225 0 10-.001-.45.225.225 0 000 .45m1.586-.504a.224.224 0 100-.449c-.124 0-.226.1-.226.224s.102.225.226.225m.557.161a.226.226 0 000-.45.225.225 0 000 .45m.524.247a.226.226 0 10.001-.451.226.226 0 000 .45m4.013.386a.225.225 0 10.45 0 .225.225 0 00-.45 0m.3.322a.225.225 0 100 .45.226.226 0 100-.45m-.11.545a.225.225 0 100 .449.225.225 0 100-.45m-1.21-1.714c.125 0 .227-.1.227-.224a.227.227 0 00-.227-.225.225.225 0 000 .45m.56.172a.225.225 0 100-.45.225.225 0 000 .45m.438.386a.225.225 0 100-.45.225.225 0 000 .45m-1.586-.504a.225.225 0 100-.45.225.225 0 000 .45m-.557.161a.226.226 0 000-.45.226.226 0 00-.225.224c0 .124.102.226.225.226m-.75.022a.225.225 0 10.45 0 .226.226 0 10-.45 0m-.82 1.216h.251v-.963a.907.907 0 01-.25-.078v1.041zm.768-1.041a.946.946 0 01-.252.078v.963h.252V3.903zm-.529-1.063v-.571a.707.707 0 00-.552.57h.552zm.292 0h.55a.71.71 0 00-.55-.571v.57zm-.837.276a.706.706 0 001.38 0h-1.38zm1.077-.937a.783.783 0 01-.307-.498.897.897 0 01.512.325V1.23a.893.893 0 01-.512.325c.021-.187.136-.36.295-.555h-.749c.157.196.272.368.294.555a.882.882 0 01-.51-.325v.776a.888.888 0 01.51-.325.789.789 0 01-.308.498h.775zm.021 16.14a.277.277 0 110-.553.277.277 0 010 .553zm-1.328-.409a.302.302 0 11.001-.603.302.302 0 01-.001.603zm-.457-1.347l-.074-.056c-.137-.104-.253-.102-.378.004-.058.05-.11.112-.162.172l-.077.088.052.042c.145.115.168.242.126.318a.119.119 0 01-.075.056c-.072.02-.173-.006-.278-.068l-.055-.032-.034.053a.549.549 0 01-.026.04c-.012.018-.025.036-.038.058a.561.561 0 00-.092.259c0 .019.003.037.007.054.022.079.086.115.142.148l.035.019c.065.042.157.095.225.135a.394.394 0 01-.386.016c-.194-.094-.318-.315-.318-.426 0-.168.076-.379.213-.597l.022-.034-.021-.034a1.38 1.38 0 01-.1-.195c.075.011.147.024.219.041l.036.009.026-.027c.084-.093.383-.394.659-.394.125 0 .253.064.35.175.07.08.116.177.128.271a7.03 7.03 0 01-.126-.095zm-1.911.044l-.175-.248.304-.214-.171-.243a68.12 68.12 0 00-.304.214l-.176-.248.846-.596.175.248-.303.215.17.242.306-.214.173.25-.845.594zm-.85-1.482a.55.55 0 01.002-.427.515.515 0 01.292-.276.514.514 0 01.402.007.554.554 0 01.29.316.596.596 0 01.042.213.53.53 0 01-1.027.167zm5.353 2.502a14.394 14.394 0 01-2.338-.837v-.011a.619.619 0 00-.16-.477.604.604 0 00-.446-.219.64.64 0 00-.215.041 3.537 3.537 0 01-.325-.333 3.888 3.888 0 01-.695-1.207 4.294 4.294 0 01-.203-.801c-.038.229-.311.496-.753.502.007-.048-.006-.118-.046-.129-.117.13-.27.26-.67.117.06.314.148.621.259.919a5.459 5.459 0 001.017 1.707c.144.163.295.315.454.453a.707.707 0 00-.006.091c0 .167.16.43.39.542a.547.547 0 00.578-.065c.343.183.783.354 1.254.485.53.149 1.042.23 1.443.23.345 0 .8-.162 1.25-.446.18-.113.35-.24.474-.357.018-.017.035-.032.049-.048-.35.05-.877-.048-1.311-.157z" fill="#010202"/><path d="M16.817 14.951v-.003a.3.3 0 00-.02-.1.23.23 0 00-.306-.14c-.128.05-.183.178-.131.311.025.064.07.114.126.14a.238.238 0 00.18 0 .224.224 0 00.15-.208m.151-4.508c-.115-.059-.24-.018-.301.1a.228.228 0 00-.022.177.219.219 0 00.11.127.214.214 0 00.168.019.223.223 0 00.135-.115.263.263 0 00.026-.111.22.22 0 00-.116-.197m6.19-.553l-.112.032.058.075zm1.338 2.095l-.096-.19-.001.001c-.018.021-.038.051-.057.079l-.031.046a.804.804 0 01.063.022c.04.014.084.03.122.042m-.088 1.329c.019 0 .038 0 .04-.05v-.058l-.083-.001-.001.049c0 .026.006.043.013.05.005.005.012.01.03.01m-5.22-4.867a.243.243 0 00-.183-.005c-.072.027-.122.067-.146.123a.253.253 0 00-.006.185c.018.051.098.213.317.133a.23.23 0 00.14-.298.238.238 0 00-.122-.138" fill="#010202"/><path d="M24.738 13.265a.37.37 0 01-.103.268.334.334 0 01-.24.088.312.312 0 01-.225-.094.393.393 0 01-.096-.277v-.052l-.37-.006.006-.304 1.035.02-.007.357zm-.161 1.24l-.285-.054.065-.354-.076-.014-.063.343-.286-.052.063-.343-.083-.016-.068.366-.286-.05.122-.667 1.017.186-.12.654zm-.162.496l-.642.223.474.192-.111.274-.96-.388.09-.219.634-.218-.468-.19.109-.274.96.388-.086.212zm-.615 1.242a.597.597 0 01-.242.178l-.288-.196c.303-.095.322-.182.307-.196-.013-.013-.061.014-.12.043-.108.055-.272.136-.443.022a.327.327 0 01-.136-.204.332.332 0 01.055-.25.587.587 0 01.287-.203l.288.195-.047.01a.577.577 0 00-.28.15c-.013.016-.02.032-.018.042a.01.01 0 00.005.007c.026.018.1-.017.16-.044.115-.053.26-.118.404-.02a.306.306 0 01.14.253.376.376 0 01-.072.213zm-.84.94l-.206-.204.253-.258-.055-.054-.244.248-.208-.203.245-.249-.062-.06-.267.255-.206-.203.48-.47.737.724-.467.474zm-2.597-4.167V9.31c.387.018.764.116 1.12.292a3.25 3.25 0 011.025.811c.299.35.532.756.695 1.208.16.443.245.912.254 1.396h-3.094zm-.131-3.929c-.221.004-.448-.123-.454-.416l-.001-.62.303-.007v.596c.003.085.014.096.027.11a.158.158 0 00.12.043c.062 0 .11-.017.137-.046.015-.014.027-.038.026-.124l-.002-.586.304.004v.611a.425.425 0 01-.11.301c-.08.085-.196.13-.35.134zm-3.225 3.93c.008-.485.093-.954.253-1.397.164-.452.397-.859.695-1.208a3.25 3.25 0 011.025-.81 2.77 2.77 0 011.196-.294v3.708h-3.17zm-.008-1.869a.502.502 0 01-.63-.332.528.528 0 01.045-.406.535.535 0 01.309-.269.508.508 0 01.584.742.52.52 0 01-.308.265zm.015-1.622l.779.611-.182.233-.78-.613.183-.23zm.76-.735l.19.207-.205.191.48.521-.216.2-.481-.52-.205.19-.192-.207.629-.582zm1.999.14l-.131.281a1.186 1.186 0 01-.521-.019.521.521 0 01-.56-.338.505.505 0 01.012-.397.578.578 0 01.334-.293.525.525 0 01.633.776c.049 0 .139.016.233-.01zm1.524-.796l-.205 1.043-.297-.06L21 8.076l.297.06zM17.674 7.9c0-.6 1.696-.653 2.556-.653h.002c.86 0 2.555.052 2.555.653 0 .168-.106.31-.351.454-.424-.282-1.15-.592-2.205-.593-1.056.001-1.782.311-2.205.593-.246-.145-.352-.286-.352-.454zm5.104.921l.18.141-.623.845-.251-.174.318-.416-.307.08-.05-.327-.293.423-.267-.144.602-.868.203.108.068.435.42-.103zm.71.673l.126.16-.547 1.061-.2-.273.1-.186L22.77 10l-.175.056-.244-.23 1.138-.332zm1.488 3.216a.968.968 0 01-.296-.347c-.112-.038-.416-.146-.546-.192l-.071-.026-.424.115-.08-.294.426-.114c.008-.008.022-.028.039-.05.062-.082.178-.232.23-.292a19 19 0 00-.276-.488.594.594 0 01-.097-.298l-.39.204.17.347-.262.128-.302-.619.927-.454.04.078c.024-.032.049-.067.072-.104a.73.73 0 01.088-.115 5.246 5.246 0 00-.625-.863 4.808 4.808 0 00-.961-.832c.189-.122.38-.299.38-.594a.541.541 0 00-.197-.422c.198-.636.553-1.4.856-1.736l-.637-.269a1 1 0 01.14.72c-.166-.117-.307-.275-.355-.483a2.82 2.82 0 01-.234.693c.183-.088.333-.126.518-.049a.757.757 0 01-.8.267c-.228-.054-.453-.174-.443-.35.007-.104.083-.23.225-.215.138.014.146.224.104.318.18-.103.37-.637.086-.716-.224-.062-.43.245-.503.481-.043-.284-.162-.557-.387-.54-.292.02-.2.56-.095.698.017-.19.12-.29.207-.285.078.006.182.062.165.234-.02.173-.264.28-.547.28-.27 0-.742-.084-.786-.603.174.031.448.163.566.34a3.384 3.384 0 010-.866.886.886 0 01-.558.34c.049-.224.24-.46.463-.598h-1.157c.222.138.414.373.463.595a.882.882 0 01-.55-.337c.037.326.037.55 0 .865.116-.173.383-.304.559-.338-.046.518-.518.602-.787.602-.282 0-.528-.107-.546-.28-.018-.172.086-.228.164-.234.086-.006.19.095.208.285.103-.138.198-.678-.095-.699-.226-.016-.345.257-.387.541-.074-.236-.28-.543-.503-.48-.285.078-.095.612.086.715-.042-.094-.035-.304.104-.318.142-.015.218.111.225.215.009.176-.216.296-.443.35a.76.76 0 01-.8-.265c.19-.08.34-.042.526.047a2.865 2.865 0 01-.235-.693c-.047.211-.193.371-.362.486a1.005 1.005 0 01.139-.723l-.637.27c.304.335.66 1.103.858 1.74a.545.545 0 00-.19.417c0 .295.19.472.379.594a4.864 4.864 0 00-.961.832 5.4 5.4 0 00-1.017 1.695l-.034.092.21.225.01-.029a.593.593 0 01.198-.224l.319.127c-.133.094-.292.224-.26.257.015.013.084-.044.116-.068.095-.074.235-.19.426-.115a.315.315 0 01.178.17.327.327 0 010 .254.603.603 0 01-.236.262l-.29-.115a.829.829 0 00.252-.24c.01-.025.01-.047 0-.052-.025-.015-.087.034-.145.078a.594.594 0 01-.22.121c.137.193.228.375.233.522.01.288.07.402.224.596.23.291-.005.268.195.63a4.504 4.504 0 01-.016-.309h3.169v3.458c-.13.002-.27.018-.38.15.368.148.737.28 1.087.39a.834.834 0 01.206-.478s-.477-.047-.726-.06v-3.46h3.094c-.01.478-.095.942-.254 1.381a3.83 3.83 0 01-.695 1.207 3.325 3.325 0 01-1.025.81c-.09.045-.156.191-.216.32a1.216 1.216 0 00-.097.342c.147.043.175.073.313.107 1.087.273 1.372.22 1.432.171.245-.188.473-.402.684-.642a5.402 5.402 0 001.017-1.707 5.95 5.95 0 00.36-2.482zm-12.95 7.756l-.062.032.262.438.065-.037c.228-.122.202-.279.14-.372-.118-.186-.264-.133-.405-.061m14.126-1.341a.06.06 0 00.038-.03.07.07 0 00.009-.032c0-.023-.016-.044-.044-.065a5.99 5.99 0 00-.087-.05 5.596 5.596 0 01-.07.117l.075.044a.095.095 0 00.079.016m-1.36-.153c.204.052.333.018.412-.178.059-.146.013-.26-.224-.327h.001a.944.944 0 01-.078-.018c-.019.052-.174.49-.181.506.032.01.07.017.07.017m2.056 1.135a.291.291 0 00.22.035.267.267 0 00.173-.128.24.24 0 00.032-.199.268.268 0 00-.133-.166.302.302 0 00-.222-.038.267.267 0 00-.173.13.244.244 0 00-.033.2c.02.07.064.124.136.166m-5.126 2.356a.278.278 0 00-.21-.073.311.311 0 00-.22.088.268.268 0 00-.084.205c0 .081.026.143.082.194a.286.286 0 00.213.072.306.306 0 00.218-.088.277.277 0 00.085-.206.244.244 0 00-.084-.192" fill="#010202"/><path d="M24.751 20.447c0 .275-.248.54-.687.767.124-.58-1.261-.76-1.261-1.186 0-.37.553-.562.968-.634.274.35.98.606.98 1.053zm-1.424 2.446l-.245.087-.487-.492-.037.632-.322.062.071-1.212.233-.041.498.5.035-.616.325-.088-.071 1.168zm-1.367.197a.696.696 0 01-.462.183.625.625 0 01-.448-.158.55.55 0 01-.183-.424c0-.173.061-.323.183-.441a.658.658 0 01.453-.186.632.632 0 01.459.158.553.553 0 01.187.428.587.587 0 01-.189.44zm-1.191.209l-.328.005v-.627l-.276.326-.274-.326v.626l-.328-.01v-1.178l.275.009.33.4.32-.397.281-.007v1.179zm-1.842-.915l-.339-.042v.882l-.329-.047v-.883a25.083 25.083 0 01-.332-.053v-.314c.289.049.681.105 1 .143v.314zm-1.81.498l-.06-1.162c.179.05.567.153.769.189l.008.318a7.373 7.373 0 01-.431-.097l.005.103.4.1.011.32-.394-.097.006.123c.111.037.28.079.421.109l.016.322a3.782 3.782 0 01-.751-.228zm-.719-1.668c-.438-.227-.686-.492-.686-.767 0-.447.704-.703.979-1.052.415.072.968.265.968.633 0 .427-1.383.606-1.261 1.186zm-1.153-1.721c-.338.147-.543.002-.654-.24l-.27-.608.289-.151s.272.614.274.614c.059.13.123.169.244.11.143-.067.142-.128.088-.246l-.282-.643.32-.11.264.628c.105.252.082.49-.273.646zm-1.299.735l-.6-.964.631-.411.16.258-.361.242c.018.028.038.06.055.09l.349-.235.161.259-.349.235.063.099.374-.25.162.259-.645.418zm-.633.419l-.604-.96.265-.175.603.964-.264.17zm-.874.52l-.333.182-.575-.963.352-.192a.734.734 0 01.33-.103.554.554 0 01.286.075.54.54 0 01.216.213c.129.242.143.567-.276.789zm12.254-3.087l.438.108c.276.07.532.324.381.698-.174.428-.499.454-.819.379l-.386-.094.386-1.091zm1.624.67a.5.5 0 01.172.169c.058.1.055.213-.01.323a.295.295 0 01-.176.143c-.028.007-.057.008-.087.007.009.047.016.102.02.165.014.24.047.5.047.505a90.416 90.416 0 00-.349-.223l-.028-.332c-.009-.12-.015-.168-.052-.193l-.208.355-.285-.15.571-.992c.087.049.3.17.385.223zm.52.559a.613.613 0 01.457.072.595.595 0 01.311.508c0 .1-.03.199-.088.29a.56.56 0 01-.372.265.648.648 0 01-.462-.08.583.583 0 01-.282-.351.53.53 0 01.066-.436.574.574 0 01.37-.268zm1.392.67l-.599.982-.28-.173.601-.975.278.167zm1.028.566l-.148.265a7.676 7.676 0 01-.347-.162c-.096.155-.374.594-.426.677l-.295-.13c.004-.005.332-.52.44-.695a7.556 7.556 0 01-.295-.171l.148-.266c.24.146.72.392.923.482zm-.251 1.088c.591 0 1.117-.746 1.855-1.075-1.867.544-4.444-2.62-6.197-2.62-.492 0-1.063.187-1.344.865-.295.72-.624.957-.624 1.277 0 .278.252.492.677.718.276.146.562.226.546.487-.8.366-2.12.618-3.688.618-1.567 0-2.887-.252-3.688-.618-.015-.261.271-.341.545-.487.427-.226.679-.438.679-.718 0-.32-.328-.556-.625-1.277-.279-.678-.851-.864-1.343-.864-1.753 0-4.331 3.163-6.197 2.62.739.328 1.264 1.075 1.856 1.075 1.513 0 3.264-2.272 4.907-2.272.022 0 .045 0 .072.003-.383.474-.917.573-.917 1.052 0 .337.29.539.491.989.126.28.15.48.256.877.094.35.338 1.245 3.964 1.245s3.87-.895 3.964-1.245c.106-.397.131-.596.257-.877.201-.45.491-.652.491-.99 0-.48-.536-.577-.917-1.052.025-.002.05-.002.071-.002 1.644 0 3.394 2.27 4.909 2.27z" fill="#010202"/></g></svg>