<svg width="215" height="31" xmlns="http://www.w3.org/2000/svg"><g fill="none" fill-rule="evenodd"><path fill="#000" d="M0 30.23h1.742V1H0zM55.08 8.537h2.695l4.666 12.446 4.69-12.447h2.695v14.81H67.96v-12.32h-.042l-4.625 12.32h-1.68l-4.626-12.32h-.04v12.32h-1.868zm17.256 14.81H74.1V12.623h-1.764v10.724zm0-12.653H74.1V8.537h-1.764v2.157zm3.92 1.929h1.66v1.7h.041c.747-1.327 1.95-1.95 3.485-1.95 2.821 0 3.692 1.62 3.692 3.92v7.054H83.37v-7.261c0-1.306-.829-2.156-2.177-2.156-2.136 0-3.173 1.43-3.173 3.36v6.057h-1.764V12.623z"/><path d="M0 30.496h214.615V1H0z"/><path d="M87.312 23.347h1.763V12.623h-1.763v10.724zm0-12.653h1.763V8.537h-1.763v2.157zm5.069 9.272c.062 1.576 1.432 2.074 2.884 2.074 1.098 0 2.592-.25 2.592-1.597 0-1.37-1.743-1.598-3.506-1.991-1.74-.395-3.505-.976-3.505-3.03 0-2.156 2.137-3.048 4.003-3.048 2.365 0 4.253.746 4.397 3.36h-1.762c-.124-1.37-1.328-1.804-2.489-1.804-1.058 0-2.282.29-2.282 1.369 0 1.265 1.866 1.472 3.505 1.867 1.764.394 3.506.974 3.506 3.049 0 2.55-2.386 3.38-4.564 3.38-2.406 0-4.438-.974-4.542-3.63h1.763zm11.285-7.343h2.137v1.556h-2.137v6.658c0 .808.23.953 1.328.953h.81v1.557h-1.349c-1.826 0-2.552-.374-2.552-2.345v-6.823h-1.825v-1.556h1.825V9.408h1.763v3.215zm3.42 0h1.66v2.26h.041c.851-1.72 2.032-2.571 3.942-2.51v1.868c-2.842 0-3.879 1.618-3.879 4.335v4.77h-1.764V12.624zm11.444 12.154c-.808 2.096-1.534 2.863-3.11 2.863-.415 0-.83-.042-1.225-.187v-1.618c.332.104.685.25 1.037.25.727 0 1.12-.354 1.452-.976l.726-1.825-4.251-10.66h1.99l3.133 8.772h.04l3.009-8.773h1.866l-4.666 12.154zm16.746-2.572c1.846 0 3.339-1.453 3.339-4.045 0-2.613-1.493-4.065-3.34-4.065-1.846 0-3.34 1.452-3.34 4.065 0 2.592 1.494 4.045 3.34 4.045m0-9.666c3.402 0 5.207 2.469 5.207 5.62 0 3.133-1.805 5.602-5.206 5.602-3.402 0-5.207-2.47-5.207-5.601 0-3.152 1.805-5.621 5.207-5.621m7.334 1.805h-1.805v-1.556h1.805v-1.596c0-1.743 1.037-2.655 2.966-2.655.332 0 .808.06 1.14.164v1.536a3.29 3.29 0 00-.995-.145c-.85 0-1.347.269-1.347 1.203v1.493h2.073v1.556h-2.073v9.168h-1.764v-9.168zm18.584 5.476c0 2.012-1.058 4.045-4.376 4.045-2.76 0-4.314-1.536-4.314-4.315v-.913h1.97v.622c0 1.723.456 2.946 2.385 2.946 1.805 0 2.365-1.037 2.365-2.676V8.702h1.97V19.82zm11.258 3.692h-1.659V21.81h-.04c-.748 1.328-1.95 1.95-3.486 1.95-2.82 0-3.692-1.618-3.692-3.92v-7.053h1.763v7.26c0 1.306.83 2.157 2.177 2.157 2.137 0 3.174-1.431 3.174-3.36v-6.057h1.763v10.724zm3.301-3.382c.062 1.577 1.431 2.075 2.883 2.075 1.1 0 2.593-.25 2.593-1.597 0-1.37-1.743-1.597-3.505-1.991-1.742-.395-3.505-.976-3.505-3.028 0-2.158 2.136-3.05 4.003-3.05 2.364 0 4.252.747 4.396 3.36h-1.762c-.125-1.37-1.328-1.804-2.49-1.804-1.057 0-2.28.29-2.28 1.369 0 1.265 1.865 1.472 3.505 1.867 1.763.394 3.505.974 3.505 3.049 0 2.55-2.386 3.38-4.564 3.38-2.406 0-4.439-.974-4.542-3.63h1.763zm11.285-7.342h2.137v1.556h-2.137V21c0 .809.23.954 1.328.954h.81v1.557h-1.349c-1.825 0-2.552-.374-2.552-2.345v-6.823h-1.825v-1.556h1.825V9.573h1.763v3.215zm3.536 10.724h1.763V12.788h-1.763v10.724zm-.001-12.654h1.763V8.7h-1.763v2.157zm11.284 5.372c-.27-1.347-1.203-2.135-2.655-2.135-2.552 0-3.34 2.01-3.34 4.19 0 1.97.892 3.92 3.133 3.92 1.7 0 2.716-.995 2.945-2.614h1.805c-.395 2.614-2.034 4.17-4.73 4.17-3.277 0-5.02-2.282-5.02-5.476 0-3.215 1.66-5.746 5.062-5.746 2.427 0 4.376 1.14 4.625 3.692h-1.825zm10.886.893c-.083-1.68-1.35-3.028-3.093-3.028-1.845 0-2.944 1.39-3.069 3.028h6.162zm1.7 2.987c-.477 2.365-2.179 3.65-4.585 3.65-3.423 0-5.04-2.364-5.143-5.642 0-3.214 2.115-5.58 5.04-5.58 3.796 0 4.958 3.548 4.853 6.14h-8.026c-.063 1.868.995 3.527 3.34 3.527 1.452 0 2.466-.706 2.779-2.095h1.742zM9.512 14.828c-.003-.002-.004-.003.001-.003l-.001.003m19.66-1.108a4.797 4.797 0 011.008 2.58h-3.137v-3.95c.797.153 1.551.64 2.13 1.37m1.081 2.286a4.934 4.934 0 00-.813-2.097.301.301 0 00.12-.197.284.284 0 00-.219.06c-.028-.038-.058-.08-.087-.115-.529-.667-1.2-1.135-1.919-1.344-.01-.114-.113-.167-.174-.144a.11.11 0 00-.073.084.155.155 0 00-.035-.007.293.293 0 00-.166-.072.276.276 0 00.052.192v.014a.12.12 0 00-.105.058c-.032.053.001.16.105.193v1.538a.288.288 0 00-.186.084.283.283 0 00.186.084v1.664c-.1.026-.138.126-.113.179.02.038.052.067.113.069v.037a.285.285 0 00-.046.156.287.287 0 00.15-.041h.043c.004.057.031.089.067.105.055.029.152-.01.18-.105h1.112a.295.295 0 00.085.194.284.284 0 00.084-.194h1.267c.025.11.132.15.188.12.04-.018.067-.056.066-.12h.026a.3.3 0 00.168.048.316.316 0 00-.045-.15c0-.014-.003-.028-.004-.043a.123.123 0 00.11-.069c.024-.06-.024-.167-.137-.181" fill="#000"/><path d="M28.998 13.772a.114.114 0 00-.02.1c.012.043.05.08.126.084a.287.287 0 00-.099.181.272.272 0 00.2-.046c-.017.076.01.123.05.147a.11.11 0 00.084.012 4.7 4.7 0 01.636 1.748.31.31 0 00-.142-.03.28.28 0 00.06.164h-1.06c-.004-.055-.035-.1-.072-.112-.045-.017-.095-.008-.147.052a.281.281 0 00-.084-.19.292.292 0 00-.085.19c-.049-.06-.1-.069-.145-.052-.038.012-.07.057-.073.112h-.903a.3.3 0 00.05-.16.297.297 0 00-.167.05v-1.466c.062.001.114-.032.13-.074.014-.043.007-.095-.053-.145a.287.287 0 00.19-.084.287.287 0 00-.19-.084c.06-.05.067-.103.053-.147-.016-.04-.068-.074-.13-.073v-1.244a.32.32 0 00.14.05.283.283 0 00-.033-.16c.625.194 1.216.605 1.684 1.177zm1.104 2.407a4.727 4.727 0 00-.979-2.419 4.028 4.028 0 00-.905-.845 3.29 3.29 0 00-1.049-.47l-.066-.016v3.806h3.006l-.007-.056z" fill="#000"/><path d="M29.51 15.578v-.003c.06-.03.106-.071.124-.118-.065.023-.113-.006-.129-.015.046-.027.101.003.048-.082-.052-.084-.089-.087-.145-.026-.052.057-.415-.015-.415-.286l.004.004a.262.262 0 00.117.099c.174.105.344.04.36-.103.012-.152-.129-.22-.285-.35a2.39 2.39 0 01-.158-.143c-.049-.105-.002-.201-.142-.392a.732.732 0 00-.045-.168.493.493 0 00.085.572c.15.164.473.323.46.465-.004.035-.035.072-.09.075-.072-.003-.144-.047-.215-.106l-.03-.03h-.003c-.134-.125-.254-.31-.334-.41-.149-.191-.08-.376-.058-.535.106-.146-.064-.443-.163-.514 0 0 .022-.07-.007-.156-.02.019-.067.015-.09.013-.03-.055-.04-.067-.077-.073-.065-.01-.063-.05-.07-.072-.038.033-.05.067-.089.069-.054 0-.075-.001-.097.017-.036.03-.056.042-.112.04-.059-.001-.059.035-.054.079.004.027.006.07.044.087l.018.008.047.056.034-.061c.025-.023.105-.03.12.027.01.039.016.05-.033.055-.052.007-.08.007-.129.008-.035.002-.033.047-.033.076.001.037.041.052.113.034.071-.017.2-.03.2.03 0 .164-.194.149-.232.344a.337.337 0 01-.107-.101.656.656 0 00-.139-.171.616.616 0 00-.136-.112c-.064-.038-.065-.07-.065-.134 0-.057.026-.11.021-.162a.31.31 0 00-.014-.05c-.01-.035-.06-.062-.087-.056.012.01.031.024.035.056a.203.203 0 00-.026.03c-.01.018-.018.04.002.058.004.005.005.007.005.01 0 .008-.004.017-.005.027-.002.01-.005.007-.006 0-.015-.04-.034-.098-.07-.1-.005 0-.02-.003-.027-.002l.002-.008c0-.041-.047-.075-.096-.026.01.003.031.007.038.018a.334.334 0 00-.009.043c-.003.043.028.059.073.06.01-.002.012.002.014.008l.006.017c.002.01-.002.008-.008.006-.073-.032-.105.002-.106.034l.001.03c-.025.019-.032.057.017.088 0-.014-.004-.041.015-.047.004 0 .007-.002.011-.005a.066.066 0 00.02.019c.004.003.018.002.042-.014.006-.005.01-.006.017-.001.008.005.015.008.022.014.006.004.005.01 0 .015-.048.046-.04.093.022.106-.027.054-.116.029-.11-.05-.064.1.04.178.127.14.003.038 0 .105.014.106 0-.007.005-.021.02-.021.006 0 .007.006.007.01.001.024.01.056.045.059-.006-.016-.003-.032.006-.035.016.026.033.05.046.076.04.072.125.266.32.347-.1.059-.167.145-.229.219-.054.052-.132.107-.18.077-.023-.014-.028-.033-.057-.055-.023-.016-.047-.022-.06-.017-.004 0-.02.006-.034.011-.033-.013-.086.007-.098.034.018-.004.04-.01.068.01 0 .013-.003.03-.003.034-.003.024.014.049.116.042.006-.002.018.003.012.01-.012.011-.028.024-.053.017-.044-.013-.066-.048-.096-.007l-.022.026a.02.02 0 00-.01 0c-.04.013-.079.087-.032.12a.074.074 0 01.03-.062.102.102 0 00.02.024c.03.043.062.068.128-.031.006-.012.01-.002.008.002-.005.046-.048.11.012.12a.097.097 0 00.027.007l.001.012c.013.053.084.068.114.052a.105.105 0 01-.063-.065.073.073 0 00.03-.004c.036-.037-.007-.082.008-.107.007-.01.012-.007.016 0 .013.019.044.065.095.036a.084.084 0 00.043-.066c.066-.025.125-.047.173-.03-.009-.034.032-.083.103-.104.072-.02.104.002.126.025a.345.345 0 01.073-.126c-.008.284.372.277.463.444-.114-.045-.242-.07-.314-.055-.092.017-.255.1-.277.21-.016.087.073.242.165.303-.112.02-.148-.016-.25.013a.027.027 0 00-.009-.003c-.088.01-.1-.143-.204-.105a.225.225 0 00-.03.022c-.039-.001-.097.047-.086.089a.114.114 0 01.066-.037v.023c-.002.016.004.032.038.032.02 0 .026-.01.041-.01.007 0 .01.005.01.011 0 .04-.127-.021-.104.088l.02.032c-.005.032.022.065.08.047-.01-.007-.034-.022-.029-.041a.212.212 0 00.027.003c.005 0 .011-.004.013-.018 0-.002.001-.003.006-.003.007 0 .011.005.011.01s-.008.01-.008.023c0 .002.007.029.011.034-.005.039.052.079.11.04-.016-.002-.053-.01-.057-.028.011-.005.025-.01.026-.012.01-.008.013-.022.013-.038 0-.011.006-.011.01-.011l.028-.002c.013-.002.016.004.016.008.014.024.044.047.082.034a.053.053 0 00.036-.03.868.868 0 01.044.03c-.012-.041.018-.073.107-.014l.063-.05s.086.035.118-.002c.052-.05.025-.053.025-.096-.038-.086-.06-.076-.076-.16-.03-.14.166-.22.28-.2.024.094.15.33.36.399.131.045.185-.1.225-.078.01.003.018.015.022.03-.009.07.004.13-.01.163-.017.03-.087.006-.134.002-.027-.002-.05.017-.05.02-.04.009-.086.045-.084.089.014-.01.04-.032.071-.036l.002.018a.062.062 0 00.106.037c.003-.006.02 0 .011.008-.032.024-.09.077-.04.097l.028.014c-.003.034.022.069.052.072-.01-.017-.014-.026.004-.064h.027c.036.002.02-.068.058-.091.005-.002.01-.001.007.004-.012.04-.019.089.017.099.003 0 .017.005.03.007.01.029.05.052.098.028-.012-.005-.038-.017-.044-.032a.217.217 0 00.026-.037c.025-.083-.049-.086-.049-.123 0-.04.085-.013.085-.096v-.012c.04-.024.08-.052.082-.082a.28.28 0 01-.107-.018m-1.467-2.06s.002-.002 0 0m-2.477 4.217l-.06-.005c-.072-.005-.16.029-.167.122-.007.095.06.146.146.15l.044.004-.104.675-.667-.957c.312-.125.565-.26.7-.26.108 0 .13.05.108.27zm-1.307.15a2.73 2.73 0 00.336-.1l.792 1.136-.075.478-1.053-1.513zm.944 2.194l-1.494-2.147a2.01 2.01 0 00.368-.012l1.197 1.719-.071.44zm-1.69-2.132l1.64 2.356c-.875-.32-1.748-1.128-1.64-2.356zm2.44-.184l-.075-.005v-.072c.012-.263-.145-.458-.427-.458-.253 0-.74.326-1.42.326-.29 0-.635-.14-.852-.265l-.085.202c.002-.006.002-.014.002-.02a.169.169 0 10-.036.104l-.086.205c.029.012.058.025.089.036-.1 1.03.64 2.339 1.988 2.74.2-.053.429-.017.429.2 0 .135-.068.195-.188.195-.08 0-.133-.046-.133-.1 0-.092.158-.036.176-.098.019-.083-.034-.12-.127-.12-.094 0-.236.06-.236.218 0 .185.149.294.307.294.15 0 .467-.083.422-.452.073.004.154-.008.172-.08l.015-.21-.071-.008.056-2.364.052.005c.087.008.162-.034.168-.127.006-.094-.07-.14-.14-.146zm-.542-5.039s.002 0 0 0m-.388.314c-.031 0-.045-.043-.04-.07a.567.567 0 00.11.042c-.05.01-.037.029-.07.028m-.05.064c-.008.002-.006-.028-.022-.03-.015-.003-.015.01-.005.032-.023-.008-.043-.02-.051.002-.011.016-.007.029.007.044.006.008 0 .026-.006.044-.008.02-.033.05-.064.032-.033-.017-.028-.05-.018-.07.01-.02.018-.035.027-.035.02 0 .03-.002.036-.021.007-.021-.012-.031-.031-.045.02-.005.03-.015.02-.023-.012-.013-.032.007-.036-.002-.003-.011.01-.017.016-.024.009-.008.018-.006.028 0l.089.043c.01.005.018.01.018.023-.002.009.003.025-.007.03m-.057-.17c-.014.024-.044.044-.07.022-.022-.023.003-.03-.024-.076a.441.441 0 00.094.054m.843.465c.33.002.495-.107.495-.211 0-.37-.911-.142-.911-.364 0-.036.027-.068.068-.1-.001 0-.002 0 0 0 .46-.031.478-.36.805-.422-.396-.055-.453.255-.621.269.092-.042.124-.15.117-.191-.082.109-.258.118-.356.243a.077.077 0 00-.017.064c-.06.038-.097.08-.097.134 0 .348.926.11.926.362 0 .087-.16.149-.414.149-.19 0-.327-.137-.681-.046 0-.06.119-.171.073-.225.034-.015.058-.042.059-.072a.13.13 0 00-.068-.03c.01-.018-.005-.035-.017-.05-.004-.004-.011-.041-.02-.05a.428.428 0 00-.081-.053c-.041-.02-.067-.02-.084-.023-.01-.005-.046.008-.052.007-.02-.003-.043-.003-.046.02a.116.116 0 00-.064-.027.127.127 0 00-.01.099c-.032.004-.067.088-.098.078.01.023.022.034.03.035-.027.05-.037.109-.07.112a.041.041 0 00.025.027 1.034 1.034 0 00-.05.21.388.388 0 00-.072-.058c-.053-.031-.051-.057-.043-.11.009-.047.039-.087.043-.131a.225.225 0 00-.01-.04c-.005-.03-.043-.051-.07-.047.012.01.026.02.024.048a.206.206 0 00-.027.023c-.012.012-.021.03-.004.046a.01.01 0 010 .009.055.055 0 01-.006.022c-.004.007-.006.003-.007 0-.007-.034-.017-.081-.05-.085h-.022a.019.019 0 00.002-.007c.006-.034-.032-.061-.083-.021.009 0 .027.003.032.014a.203.203 0 00-.014.034c-.008.035.018.049.058.05.008 0 .012.003.013.007 0 .004 0 .01.002.014 0 .007-.002.005-.007.005-.063-.028-.096 0-.101.025l-.004.024c-.024.015-.036.046.004.073 0-.011.002-.034.022-.038.002-.002.005-.002.009-.004a.052.052 0 00.016.015c.004.004.016.002.04-.01.004-.003.01-.005.016 0a.46.46 0 01.017.01c.005.006.004.008 0 .012-.052.038-.051.077.008.088.007.002.008.006.008.012-.018.073-.125.058-.11-.015-.072.083.025.149.112.107.006-.002.008-.001.009.003.003.014.008.026.023.028 0-.004.007-.016.02-.015.006-.001.006.003.006.007-.002.02.002.044.03.048-.001-.014.006-.03.017-.03.01.002.036.063.084.116a1.193 1.193 0 01-.207.062c-.017 0-.124-.012-.16.007-.052.028-.18.075-.22.022-.01-.018-.006-.038-.024-.064-.012-.02-.028-.032-.042-.034h-.03c-.021-.024-.07-.026-.087-.01.016.003.033.005.049.032-.007.009-.012.023-.014.027-.011.016-.004.043.077.07.003.002.012.01.004.014-.012.004-.03.008-.045-.006-.032-.024-.036-.06-.074-.037l-.024.012a.023.023 0 00-.011-.003c-.035-.003-.091.04-.066.082.005-.01.018-.032.043-.037l.009.026c.009.04.026.073.112.017.008-.006.008.002.006.006-.02.035-.077.07-.033.099.002 0 .01.009.02.015l-.004.007c-.01.049.044.083.07.082a.083.083 0 01-.024-.073c.008.004.02.007.022.007.04-.016.024-.066.045-.083.009-.004.01 0 .013.007.002.019.01.066.06.06.046-.004.069-.042.065-.068-.003-.004 0-.004.004-.004.015.01.028.029.022.053a.077.077 0 00.036-.034c.01.022.013.053-.02.083a.118.118 0 00.08-.082.069.069 0 01.017.026l.004-.003a.17.17 0 00.098-.003c.005-.002.007.002.005.005-.003.02-.003.04.006.05 0-.007.012-.025.02-.025.013 0-.001.048.028.076.01-.123.079-.074.155-.123.008-.007.009-.003.008.004a.08.08 0 01-.034.04c.03 0 .095-.027.095-.071 0-.01.024-.026.05-.042.027.007.07-.01.087-.04.006.012.017.049-.002.059.082.005.166-.088.197-.095.175-.037-.108-.161.249-.142a.157.157 0 00.102-.036c-.027.052-.03.16.026.168.025.004.074.02.092.039.006.006.002.009-.003.009a.283.283 0 00-.075.019c-.084.056-.086-.125-.175-.09a.154.154 0 00-.024.017c-.037-.001-.083.04-.074.078a.097.097 0 01.057-.032l-.001.018c-.002.014.003.03.032.03.018 0 .023-.01.035-.01.006 0 .01.004.01.01 0 .035-.11-.02-.09.073 0 .005.01.022.017.03-.003.027.019.054.068.04-.008-.008-.026-.02-.023-.034.008 0 .02 0 .022.002.005 0 .009-.003.012-.015 0-.003.003-.004.005-.004.005 0 .009.004.009.009 0 .004-.007.01-.007.018 0 .003.007.026.01.029-.005.035.045.069.092.036-.011-.001-.044-.008-.046-.024l.02-.01c.009-.006.01-.02.01-.034.003-.007.008-.007.01-.007l.024-.001c.012-.003.015 0 .016.006.01.019.035.039.069.027.06-.021.01-.072.057-.083.009-.001.024-.003.036 0 .046.012.116.01.128-.013.01-.02.007-.106-.045-.135-.03-.013.003-.05-.026-.092a.438.438 0 00.175.042c.128 0 .006-.02.063-.052.062-.041.134-.02.154-.016.017 0 .029.009.025.032-.015.065.007.07-.008.1-.012.028-.067.006-.104.004a.055.055 0 00-.04.016c-.031.008-.068.037-.067.074.01-.008.03-.027.057-.03a.093.093 0 01.002.014c.005.043.054.06.083.03.003-.005.016 0 .009.006-.024.019-.072.063-.033.079l.023.012c-.002.028.019.055.04.06-.008-.014-.01-.024.004-.055h.024c.026.003.013-.055.045-.071.003-.004.007-.003.005 0-.01.034-.017.072.014.082a.152.152 0 00.022.005c.007.026.04.043.078.024-.01-.003-.03-.014-.035-.028a.213.213 0 00.02-.03c.02-.068-.038-.07-.038-.097 0-.034.067-.012.067-.081 0-.011-.006-.033-.028-.041-.003-.002-.003-.003-.002-.004.019 0 .038.005.049-.022-.05.004-.035-.04-.042-.067-.002-.005-.002-.007.002-.011.016-.013.029-.032.022-.074-.015.023-.071.05-.077.002-.002-.002-.005-.033-.055-.026-.084.009-.126-.036-.285-.05-.008 0-.017-.008 0-.01m-1.447 1.572s0-.002.002-.003c0 .003 0 .003-.002.003zm-.254-.54c.01-.02.02-.038.03-.038.022 0 .035-.005.04-.024.01-.024-.012-.035-.034-.05.023-.006.034-.016.023-.026-.015-.013-.036.008-.04-.003-.006-.01.01-.018.018-.025.009-.01.018-.005.03 0l.098.046c.014.006.02.012.02.027 0 .009.005.028-.006.03-.011.003-.01-.028-.028-.03-.014-.004-.014.012-.004.033-.025-.005-.045-.018-.057.004-.011.018-.007.033.008.049.008.009 0 .027-.008.05-.008.022-.035.053-.07.035-.036-.02-.031-.058-.02-.077zm.114-.25c-.014.029-.048.05-.075.025-.026-.025.003-.032-.03-.084a.438.438 0 00.105.06zm.076.04a.5.5 0 00.12.047c-.055.012-.042.033-.077.033-.036-.003-.048-.05-.043-.08zm-.485.279c-.034-.028-.076-.08-.135-.116-.06-.035-.06-.066-.055-.128.002-.054.029-.103.029-.154 0-.004-.01-.032-.013-.046-.006-.034-.052-.06-.08-.054.015.01.03.023.032.054l-.028.029c-.011.014-.017.036 0 .054.005.004.005.006.005.01 0 .008-.004.014-.007.026-.002.008-.005.005-.007-.001-.01-.038-.026-.092-.06-.095-.002 0-.018-.004-.025-.001a.03.03 0 00.002-.008c.002-.04-.04-.071-.09-.024.01 0 .03.004.037.017a.252.252 0 00-.012.039c-.004.042.023.057.066.057.009 0 .012.003.014.008l.004.016c.003.009-.002.008-.006.006-.07-.03-.101.002-.104.032v.029c-.027.017-.035.054.01.083 0-.012-.001-.037.018-.044l.01-.003a.123.123 0 00.019.017c.004.002.016 0 .04-.014.007-.003.01-.004.017-.001l.019.015c.005.002.004.007 0 .012-.05.046-.044.09.017.1.009.003.01.009.01.015-.01.086-.123.07-.114-.016-.068.1.04.175.127.126.006-.004.008-.002.01.003.005.015.012.029.028.032-.001-.006.005-.02.019-.02.006 0 .006.004.006.01 0 .023.007.052.039.054-.004-.016.002-.033.012-.033.016 0 .054.066.123.107.059.025.097.087.135.048-.006.059.05.128.038.128-.02 0-.178-.011-.218.01-.058.032-.2.083-.241.024-.016-.021-.01-.041-.03-.071-.012-.022-.032-.037-.046-.038l-.033-.001c-.024-.024-.076-.028-.097-.01.016.004.038.007.054.036-.007.009-.013.026-.015.028-.011.019-.006.05.087.08.002.002.01.01.003.015a.045.045 0 01-.05-.007c-.036-.026-.04-.067-.082-.042l-.03.015c-.002-.003-.006-.003-.008-.003-.04-.004-.101.044-.073.09a.066.066 0 01.048-.04l.008.03c.01.045.029.08.124.017.01-.006.01.002.007.007-.022.039-.085.077-.035.108 0 .002.01.01.02.019-.002.002-.003.003-.004.007-.01.053.05.093.079.09-.012-.013-.036-.04-.03-.08a.065.065 0 00.027.007c.045-.017.025-.072.05-.09.008-.004.014-.001.014.006.003.022.012.075.067.069.05-.007.075-.047.07-.076 0-.005 0-.006.005-.005.018.01.033.03.027.058a.102.102 0 00.039-.04c.01.025.014.06-.022.095.02-.007.075-.034.088-.091a.07.07 0 01.019.029.018.018 0 00.005-.004.19.19 0 00.108-.004c.005 0 .006.002.006.007-.005.022-.005.044.006.055 0-.008.014-.03.022-.03.015 0-.001.054.03.086.012-.137.088-.082.173-.137.01-.006.01-.002.008.004a.071.071 0 01-.037.046c.096.02.243-.123.265-.183.04-.005.073-.01.092-.008.27.024.082-.243.517-.168.028.005.08-.026.106-.048-.033.057-.034.175.027.187a.237.237 0 01.103.042c.005.006 0 .009-.004.01a.329.329 0 00-.084.02c-.091.063-.095-.137-.193-.1a.086.086 0 00-.027.02c-.04 0-.093.046-.083.087a.124.124 0 01.064-.037c-.002.01-.002.02-.002.022-.003.015.003.032.037.032.02 0 .024-.01.038-.01a.01.01 0 01.01.01c0 .038-.121-.02-.1.08l.019.034c-.002.03.022.063.076.042-.01-.004-.03-.02-.025-.034a.443.443 0 00.024.002c.005 0 .01-.004.014-.017 0-.004 0-.005.006-.005s.009.005.009.01c0 .006-.006.012-.006.02 0 .003.005.03.009.033-.005.039.05.077.104.04-.015-.003-.05-.011-.054-.028l.026-.01c.008-.007.012-.022.012-.038 0-.007.005-.01.009-.01h.026c.012-.001.016.003.018.005.01.024.038.046.077.032.065-.021.009-.078.062-.091a.085.085 0 01.039 0c.05.013.129.01.142-.012.014-.027.007-.12-.05-.152-.032-.016.004-.056-.028-.103a.475.475 0 00.195.047c.14 0 .177-.02.24-.06.069-.042.149-.02.17-.016.019.003.033.01.027.034-.014.074.008.08-.008.115-.012.028-.075.004-.116.002-.024-.002-.042.015-.043.02-.037.006-.076.039-.076.079.013-.01.037-.03.067-.034v.017c.004.05.06.067.092.034.004-.006.018 0 .01.006-.028.022-.08.07-.037.087a.15.15 0 00.026.015c-.003.03.02.062.045.066-.008-.016-.01-.026.004-.062a.259.259 0 00.024 0c.03.004.016-.06.05-.08.006-.003.009 0 .007.004-.01.036-.017.08.014.09l.026.006c.01.026.044.047.087.026-.01-.005-.034-.017-.04-.031a.224.224 0 00.025-.034c.022-.074-.042-.076-.042-.108 0-.038.072-.012.072-.09a.05.05 0 00-.031-.046c-.003-.001-.003-.003-.002-.004.02 0 .044.006.053-.025-.054.005-.038-.042-.046-.072 0-.006 0-.01.003-.013.019-.013.032-.037.026-.081-.018.025-.08.055-.087.002 0-.002-.004-.04-.061-.028-.091.009-.16-.012-.337-.027.205 0 .502-.052.502-.167 0-.096-.104-.156-.413-.156-.31 0-1.006.115-1.006-.058 0-.087.136-.08.3-.07.012.015.032.028.067.037.398.115.867-.094 1.108-.026-.283-.215-.52.008-.823-.057.178 0 .237-.052.247-.1-.14.09-.4-.044-.561.056a.1.1 0 00-.025.02c-.221-.006-.398-.006-.398.14 0 .309.829.129 1.087.129.26 0 .315.025.315.075 0 .072-.258.092-.403.092-.225 0-.902-.118-1.313-.035.033-.067.106-.153.065-.203.04-.016.064-.046.067-.078a.153.153 0 00-.076-.035c.01-.017-.004-.04-.02-.056-.003-.002-.013-.045-.021-.052-.015-.013-.045-.04-.09-.061-.045-.023-.075-.023-.093-.028-.012-.001-.052.01-.057.01-.021-.003-.047-.003-.05.022a.145.145 0 00-.073-.031.161.161 0 00-.01.112c-.036.003-.077.097-.11.086.014.026.025.036.035.039-.03.054-.044.12-.078.122.022.03.038.043.05.046-.005.042-.006.084-.008.119l-.065-.024-.055-.02zm.148 1.092c-.036-.001-.05-.048-.043-.08a.526.526 0 00.12.048c-.055.012-.042.034-.077.032m-.055.069c-.008.003-.007-.03-.025-.033-.016-.002-.016.013-.005.036-.024-.008-.047-.02-.059.002-.009.02-.005.033.008.05.01.008.002.026-.007.049-.008.02-.036.055-.069.035-.036-.02-.03-.058-.02-.078.01-.021.02-.037.03-.037.021 0 .033-.004.04-.024.01-.025-.014-.035-.034-.05.022-.006.034-.017.022-.028-.013-.012-.037.009-.04-.001-.005-.011.012-.018.02-.025.007-.01.016-.006.03 0l.097.046c.011.007.02.01.02.025-.002.01.004.029-.008.033m-.063-.186c-.016.026-.049.049-.075.023-.027-.026.003-.032-.03-.084.032.02.088.058.105.06m.168.822l.048-.01c-.002 0-.004.017-.006.017.09.006.08-.081.115-.075.505.067.215-.218.812-.16.027.003.04-.014.064-.035-.03.057-.032.152.028.164a.228.228 0 01.103.045c.006.006.002.009-.004.009a.28.28 0 00-.084.02c-.09.06-.094-.138-.19-.098a.13.13 0 00-.029.018c-.04 0-.093.047-.082.087a.098.098 0 01.063-.036v.02c-.004.017.002.033.034.033.02 0 .025-.011.04-.011a.01.01 0 01.01.01c0 .038-.12-.02-.099.084a.22.22 0 00.02.03c-.005.03.02.06.074.044-.01-.006-.03-.02-.026-.037a.129.129 0 00.025.002c.005 0 .011-.003.013-.016 0-.003.001-.005.005-.005.005.003.01.005.01.01s-.007.01-.007.022c0 .003.006.028.01.032-.006.038.05.076.104.039-.015-.001-.05-.01-.053-.028l.023-.01c.01-.006.013-.02.013-.037.001-.01.006-.01.01-.01l.026-.001c.012-.002.016.003.018.008.01.024.04.045.076.03.065-.022.01-.08.062-.09a.068.068 0 01.04 0c.053.012.128.01.142-.014.014-.026.007-.118-.05-.151-.03-.015.003-.055-.028-.104.058.024.116.049.193.049.143 0 .178-.021.241-.061.071-.042.15-.021.171-.017.02.002.034.012.028.036-.015.075.008.082-.008.114-.014.029-.075.006-.116.002-.026-.001-.043.014-.043.019-.037.008-.077.039-.075.082.011-.01.036-.032.062-.035 0 .007.002.014.003.016.004.05.06.066.092.032.005-.005.017 0 .01.007-.027.022-.08.07-.038.089.003 0 .015.008.026.013-.002.03.021.062.045.067-.007-.016-.01-.027.004-.06h.025c.031.002.017-.061.051-.082.005-.002.008-.001.007.002-.012.037-.019.08.013.09a.314.314 0 00.026.009c.01.025.044.047.088.024-.01-.005-.035-.017-.039-.031a.317.317 0 00.022-.032c.022-.076-.042-.078-.042-.108 0-.038.073-.013.073-.09 0-.012-.006-.037-.03-.046-.004-.003-.004-.005-.003-.005.021 0 .042.005.054-.024-.056.003-.038-.043-.046-.074 0-.005-.002-.008.003-.013.016-.013.031-.038.024-.081-.016.026-.078.057-.086.003-.002-.003-.006-.038-.06-.03-.093.01-.159-.008-.337-.025.178-.014.502-.051.502-.167 0-.094-.105-.155-.413-.155-.31 0-1.263.114-1.263-.06 0-.11.323-.066.56-.06.01.018.032.034.068.045.397.112.815-.154 1.101-.06-.227-.202-.519.023-.82-.04.176-.001.361-.035.372-.084-.137.089-.525-.061-.686.042a.128.128 0 00-.028.02c-.292-.002-.652-.04-.652.138 0 .309 1.083.127 1.343.127.261 0 .315.026.315.076 0 .075-.258.09-.404.09-.24 0-1.253-.132-1.657-.01.023-.07.121-.171.076-.224.036-.016.063-.046.065-.08a.14.14 0 00-.075-.034c.011-.018-.005-.04-.019-.055-.004-.003-.012-.046-.022-.054-.016-.011-.046-.04-.09-.061-.047-.022-.076-.022-.093-.025-.01-.003-.05.01-.056.008-.023-.004-.049-.004-.053.024a.108.108 0 00-.07-.031.14.14 0 00-.01.11c-.037.002-.077.095-.11.084.012.027.023.039.033.04-.029.055-.042.12-.076.122.012.019.023.03.032.038a.602.602 0 00-.01.094l-.033-.012a1.982 1.982 0 00-.05-.002l-.05-.01c-.049-.002-.085-.082-.169-.131-.06-.034-.062-.065-.062-.128 0-.055.025-.102.022-.153l-.014-.047c-.012-.034-.057-.06-.083-.053a.07.07 0 01.033.055.155.155 0 00-.025.029c-.01.013-.015.035.002.052.004.005.005.007.005.012a.064.064 0 01-.005.024c-.002.01-.005.004-.006 0-.014-.04-.032-.093-.067-.096-.003 0-.017-.003-.023-.002l.001-.008c0-.04-.044-.07-.092-.023.011.002.03.005.037.017a.324.324 0 00-.01.04c-.003.04.028.057.072.057.006 0 .01.003.012.007l.005.018c.003.006-.002.006-.006.004-.07-.03-.1.002-.102.034 0 .002 0 .018.002.027-.027.019-.032.056.014.083 0-.011-.002-.037.015-.042a.031.031 0 00.01-.005c.008.009.018.016.018.018.007.003.02.002.042-.014.005-.004.01-.004.017 0l.02.013c.005.004.004.007.001.012-.048.046-.04.09.023.1.008.005.01.008.01.015-.005.088-.12.07-.116-.016-.06.1.05.174.135.125.006-.004.008-.001.01.003.003.016.014.03.028.032a.02.02 0 01.02-.018c.004-.001.004.004.006.01.001.022.01.05.042.055-.006-.018 0-.035.01-.035.017 0 .08.119.205.188.022-.008.058-.008.07-.037.002.01.012.022.027.029.004.058.043.13.03.13-.018 0-.216-.01-.256.013-.059.03-.2.084-.242.023-.014-.021-.009-.04-.028-.07-.015-.022-.033-.035-.047-.037l-.033-.001c-.024-.026-.077-.028-.097-.012.017.004.037.008.055.036l-.016.029c-.012.02-.005.05.084.08.006.003.014.01.007.014a.048.048 0 01-.05-.004c-.035-.03-.04-.067-.083-.043-.003 0-.015.008-.028.013-.003-.003-.007-.003-.012-.003-.038-.004-.098.044-.072.093a.07.07 0 01.05-.042.144.144 0 00.01.027c.005.048.027.084.122.02.01-.005.01.003.006.007-.02.036-.085.078-.036.109a.51.51 0 00.022.016l-.004.009c-.009.052.047.093.078.09-.013-.014-.035-.042-.028-.081.01.005.023.01.026.008.045-.017.024-.073.051-.09.006-.005.011 0 .011.007.004.022.013.073.07.067.05-.004.074-.047.068-.076 0-.003.001-.006.006-.003a.055.055 0 01.027.056.108.108 0 00.04-.04.082.082 0 01-.025.095.125.125 0 00.09-.092.097.097 0 01.018.03l.004-.003a.218.218 0 00.108-.003c.006-.002.008.002.007.005-.004.02-.004.044.006.055.001-.005.013-.027.023-.027.015 0-.002.053.03.085.012-.137.173-.068.26-.123.01-.007.01-.004.007.003a.086.086 0 01-.036.046.206.206 0 00.096-.034c.058-.023.16-.067.152-.103m3.714 1.286c.011-.022.02-.039.031-.039.022 0 .033-.004.04-.026.01-.023-.013-.033-.035-.047.023-.007.034-.017.023-.027-.015-.013-.037.008-.04-.003-.005-.01.01-.017.02-.025.007-.009.016-.006.028 0l.098.046c.013.007.021.013.021.027 0 .01.003.027-.007.031s-.009-.028-.028-.033c-.014-.002-.014.013-.004.036-.025-.008-.046-.019-.058.004-.009.02-.007.032.01.048.005.01 0 .028-.008.05-.009.022-.038.053-.07.034-.037-.018-.03-.057-.02-.077m.114-.249c-.016.028-.049.051-.077.024-.025-.025.002-.032-.029-.084.03.022.09.06.106.06m.074.04a.665.665 0 00.122.047c-.056.011-.042.033-.079.032-.035-.003-.049-.049-.043-.079m2.232.576c0-.005 0-.01.004-.014.02-.01.034-.037.032-.08-.019.025-.085.056-.087.003 0-.003-.002-.04-.058-.028-.093.007-.184-.012-.36-.029-.01 0-.019-.008 0-.01.215-.014.502-.04.502-.155 0-.096-.105-.157-.414-.157-.31 0-1.26.114-1.26-.059 0-.11.32-.066.556-.059.012.017.033.032.07.042.4.114.852-.183 1.094-.114-.313-.11-.512.08-.813.015.177 0 .362-.035.373-.08-.14.087-.525-.062-.688.038a.089.089 0 00-.026.025c-.294-.005-.654-.04-.654.133 0 .308 1.085.128 1.345.128s.316.027.316.077c0 .073-.259.092-.405.092-.242 0-1.255-.135-1.657-.013.022-.068.121-.17.074-.225.038-.015.064-.046.066-.079a.124.124 0 00-.077-.033c.013-.02 0-.039-.017-.056-.005-.004-.013-.046-.023-.053-.014-.012-.044-.038-.09-.062-.044-.022-.075-.02-.09-.026-.014-.003-.054.01-.059.01-.022-.004-.048-.004-.052.023a.124.124 0 00-.07-.033.163.163 0 00-.01.113c-.037.001-.076.095-.11.085.014.025.023.037.033.04-.029.054-.042.12-.077.122.022.03.038.043.051.045-.005.03-.006.062-.008.091l-.053-.017c-.02 0-.044 0-.05-.002a.365.365 0 00-.05-.01c-.049-.003-.085-.083-.168-.13-.06-.036-.062-.066-.062-.13 0-.054.025-.102.022-.15a.75.75 0 00-.017-.05c-.01-.032-.056-.06-.082-.053.013.01.03.023.033.054a.201.201 0 00-.023.028c-.012.017-.017.036.002.053.004.006.004.008.004.012 0 .008-.003.016-.004.025-.002.01-.006.006-.008 0-.013-.038-.03-.093-.063-.095a.064.064 0 00-.028-.002c.002-.003.002-.006.002-.008 0-.038-.043-.07-.09-.024.011.001.03.003.036.016-.004.013-.008.038-.01.042-.002.04.027.056.07.056.008 0 .014.003.015.01a.046.046 0 00.005.013c.001.01-.002.007-.006.007-.072-.03-.102 0-.104.033l.001.03c-.023.015-.03.053.017.081 0-.01-.004-.038.014-.045a.017.017 0 00.01-.003.054.054 0 00.02.017c.006.005.015.002.042-.014.004-.003.007-.003.014 0l.022.014c.005.005.004.01 0 .012-.047.045-.039.091.022.102.01.001.011.006.011.014-.006.088-.122.07-.115-.016-.064.1.05.175.133.124.005-.003.01 0 .011.004.003.015.014.03.03.031-.002-.005.003-.017.016-.017.007 0 .007.003.007.008.002.024.01.052.042.056-.006-.018 0-.035.011-.035.016 0 .073.128.198.198-.003-.01.05-.032.077-.046.005.023.018.047.042.057l.023-.012c-.009.06.061.12.048.12-.019 0-.138-.016-.176.007-.06.031-.2.083-.244.024-.013-.02-.01-.04-.028-.072-.013-.023-.03-.036-.046-.038h-.033c-.024-.025-.076-.029-.099-.01.02.002.04.006.055.036l-.015.028c-.012.018-.004.05.085.081.005.001.014.008.007.013a.047.047 0 01-.05-.007c-.037-.025-.042-.067-.084-.04l-.027.012c-.004 0-.007-.003-.01-.003-.04-.003-.1.046-.074.092.005-.01.021-.036.05-.04l.007.027c.01.048.03.082.124.02.011-.007.01.002.007.006-.023.04-.085.08-.035.108 0 .001.01.011.02.016-.002.004-.004.006-.004.011-.009.052.05.092.078.091-.01-.016-.033-.043-.029-.082a.077.077 0 00.027.008c.046-.018.025-.073.051-.09.008-.006.011 0 .011.006.005.023.013.074.068.068.052-.006.076-.047.07-.076 0-.005.001-.006.006-.005.02.012.034.031.027.058a.102.102 0 00.04-.039c.01.026.011.06-.023.094a.135.135 0 00.088-.093.16.16 0 01.02.031c.002 0 .002-.002.003-.004a.223.223 0 00.107-.002c.007-.002.008.001.007.005-.004.02-.004.044.007.055 0-.007.014-.03.022-.03.015 0-.002.054.031.086.012-.136.085-.08.171-.137.011-.007.011-.004.01.005a.081.081 0 01-.039.046c.031.024.158-.055.158-.105 0-.015.047-.019.088-.027.088.006.077-.065.113-.059.506.066.215-.219.81-.162.03.003.043-.032.067-.055-.03.056-.033.176.028.187a.245.245 0 01.103.042c.005.007 0 .01-.004.011a.212.212 0 00-.085.022c-.09.061-.095-.14-.192-.103a.1.1 0 00-.026.021c-.04 0-.094.045-.083.085a.109.109 0 01.062-.035.23.23 0 010 .02c-.003.016.004.032.036.032.02 0 .024-.01.038-.01.006 0 .01.004.01.011 0 .04-.12-.02-.099.082 0 .004.013.022.02.032-.005.031.02.061.075.045-.012-.009-.03-.02-.026-.039l.025.003c.004 0 .01-.004.012-.019 0 0 .002-.003.007-.002.006.001.01.004.01.008 0 .008-.008.013-.008.023 0 .002.006.03.01.032-.005.037.05.077.105.04-.016-.003-.05-.01-.055-.028a.167.167 0 01.026-.01c.008-.007.011-.02.011-.037 0-.01.005-.01.01-.01l.026-.002c.012 0 .015.004.018.007.012.024.04.045.077.032.065-.023.008-.08.062-.093.01 0 .027-.002.04 0 .052.013.127.013.14-.012.015-.026.008-.118-.049-.15-.032-.016.004-.056-.027-.103a.462.462 0 00.194.047c.14 0 .185-.02.253-.059.073-.045.151-.022.172-.019.017.003.031.012.024.035-.02.074.001.082-.017.116-.016.027-.075.004-.119.002a.056.056 0 00-.044.02c-.036.006-.079.038-.08.08a.146.146 0 01.065-.035v.015c.002.051.055.068.09.034.004-.005.02 0 .011.008-.032.021-.088.067-.046.087l.025.014c-.006.03.014.061.04.065-.008-.016-.009-.026.006-.059h.027c.03.002.021-.062.057-.08.006-.004.01-.003.006.002-.014.034-.024.08.007.09l.025.005c.006.027.04.048.085.026-.01-.004-.033-.016-.036-.03a.187.187 0 00.025-.033c.03-.076-.036-.078-.03-.109 0-.037.072-.012.08-.089a.045.045 0 00-.029-.046l-.002-.004h.001c.022 0 .042.005.055-.026-.055.004-.033-.042-.039-.072m-2.438.859c.01-.02.02-.036.03-.036.018.001.032-.004.037-.022.009-.024-.014-.033-.034-.048.023-.006.034-.015.023-.024-.015-.013-.035.008-.038-.003-.006-.01.01-.017.015-.024.01-.01.018-.008.03 0l.095.044c.01.006.018.01.017.024 0 .009.005.028-.006.031-.01.004-.008-.027-.024-.031-.016-.003-.014.013-.005.035-.024-.008-.046-.02-.055.001-.01.018-.006.032.008.047.007.008 0 .027-.008.046-.008.022-.034.051-.066.035-.036-.019-.032-.054-.02-.075m.108-.237c-.013.027-.045.048-.07.025-.026-.026.002-.034-.029-.08.03.02.084.053.1.055m.072.037a.58.58 0 00.114.046c-.053.011-.04.032-.072.03-.035-.001-.047-.046-.043-.076m.89-.016c.008.02.03.037.07.049.38.109.813-.175 1.043-.109-.3-.105-.488.076-.774.015.166-.002.345-.033.354-.079-.13.085-.5-.059-.655.038a.1.1 0 00-.022.019c-.159-.005-.38-.008-.38.133 0 .293.788.122 1.034.122.19 0 .22.024.22.071 0 .07-.284.087-.422.087-.216 0-.86-.109-1.252-.033.032-.064.103-.146.065-.192.035-.015.06-.044.061-.075a.132.132 0 00-.073-.032c.012-.018-.003-.038-.017-.053-.005-.004-.012-.044-.02-.052-.015-.01-.043-.036-.087-.056-.043-.022-.07-.022-.088-.026-.01-.002-.049.009-.053.008-.021-.002-.047-.002-.05.022a.117.117 0 00-.067-.029.146.146 0 00-.01.105c-.037.003-.072.091-.105.081.012.025.023.035.032.037-.027.054-.04.116-.073.118a.17.17 0 00.03.033.493.493 0 00-.018.112l-.035-.012-.015-.001c-.046-.003-.075.001-.154-.045-.058-.032-.06-.061-.06-.122 0-.051.023-.097.02-.145a.393.393 0 00-.012-.045c-.012-.034-.055-.059-.08-.051.012.01.028.022.03.053a.201.201 0 00-.023.024c-.008.016-.014.036 0 .053.006.003.008.006.008.011a.113.113 0 01-.005.024c-.003.009-.005.004-.006 0-.011-.037-.03-.09-.063-.092-.003 0-.018-.003-.024-.002 0-.002.003-.004.003-.008 0-.037-.043-.068-.087-.02.009.001.026.004.034.015-.002.011-.01.034-.01.038-.003.038.026.053.067.054.008 0 .01.003.014.006a.055.055 0 00.005.018c.002.007-.002.006-.006.004-.067-.029-.096.002-.098.031 0 .002 0 .019.002.027-.023.017-.03.051.014.08 0-.013-.002-.037.015-.042l.009-.004c.005.006.017.013.018.015.006.004.017.002.038-.013a.025.025 0 01.017 0l.018.013c.006.004.005.008.002.012-.046.043-.038.087.023.097.007.002.009.007.009.014-.005.082-.116.066-.11-.016-.06.095.047.166.128.119.005-.003.006 0 .009.002.005.017.012.031.026.032 0-.004.006-.018.018-.018.006 0 .008.005.008.008 0 .021.008.05.038.053-.003-.015 0-.033.011-.033.015 0 .014-.035.116.02a.07.07 0 00.036.041l.075-.014c-.01.057.008.145-.006.145-.017 0-.13-.015-.168.006-.056.029-.19.078-.23.022-.015-.019-.01-.037-.03-.067a.07.07 0 00-.041-.036h-.032c-.023-.024-.072-.027-.095-.011.018.004.038.008.053.034l-.015.027c-.01.019-.005.047.082.078.003.001.011.01.005.013a.04.04 0 01-.047-.007c-.034-.025-.04-.063-.08-.04l-.027.014a.018.018 0 00-.01-.004c-.037-.003-.095.044-.07.088.006-.011.021-.035.048-.039l.01.027c.006.045.024.079.115.019.01-.007.01.002.008.005-.02.037-.08.075-.035.104 0 .001.01.01.02.016a.023.023 0 00-.004.01c-.009.048.046.088.075.084a.092.092 0 01-.027-.075c.01.003.023.009.026.006.042-.016.023-.07.047-.086.008-.004.01-.001.012.006.003.021.012.069.064.065.05-.005.073-.045.067-.073-.002-.003.002-.006.006-.003.017.01.03.03.024.055.01-.006.03-.019.037-.038a.077.077 0 01-.02.09c.02-.007.072-.031.082-.087a.095.095 0 01.02.027l.005-.005a.165.165 0 00.102-.002c.006-.001.006.001.006.005-.005.021-.005.043.006.054 0-.005.012-.028.02-.028.015 0 0 .051.03.082.012-.129.115-.098.197-.152.01-.006.01-.004.008.004a.068.068 0 01-.034.043c.087.054.18-.066.203-.132a.075.075 0 00.026-.025c.005.012.006.027-.015.037.085.007.075-.06.108-.058.259.025.06-.213.476-.144.027.005.077-.023.1-.044-.03.055-.032.168.027.177a.263.263 0 01.098.04c.005.006 0 .008-.005.009a.265.265 0 00-.079.021c-.088.059-.09-.131-.184-.097-.005.004-.02.014-.024.02-.04 0-.09.045-.081.083a.118.118 0 01.06-.036c0 .009 0 .02-.002.022 0 .014.005.03.037.03.018 0 .023-.009.035-.009.007 0 .011.004.011.01 0 .036-.114-.019-.097.078l.02.028c-.003.03.02.06.072.044-.01-.007-.028-.021-.024-.036.008.002.02.002.023.002.005.001.01-.003.012-.014 0-.005.002-.006.006-.006.005.001.01.006.01.009 0 .006-.006.011-.006.021 0 .002.004.028.008.031-.005.035.047.072.1.037-.015-.002-.05-.008-.052-.026a.135.135 0 01.026-.011c.008-.006.009-.019.009-.034 0-.009.005-.01.01-.01l.024-.002c.01-.001.015.003.017.008a.06.06 0 00.074.031c.06-.022.008-.077.058-.087a.08.08 0 01.038-.002c.049.013.122.011.136-.012.014-.025.006-.112-.049-.144-.03-.016.005-.052-.026-.097a.45.45 0 00.184.045.488.488 0 00.267-.057c.076-.042.146-.022.168-.017.015.003.027.011.015.032-.032.069-.01.078-.035.11-.02.026-.073.005-.111.002-.023-.001-.044.015-.046.02-.037.004-.085.036-.093.075a.174.174 0 01.072-.032c-.002.006-.002.014-.002.015-.009.048.04.064.078.032.005-.006.017 0 .009.006-.034.022-.093.066-.058.085a.133.133 0 00.02.012c-.01.029.005.059.029.063-.006-.015-.006-.026.017-.057l.024.001c.026.001.03-.06.069-.078.005-.002.009-.001.005.003-.02.034-.038.076-.01.086.003 0 .014.003.023.003.003.028.03.048.076.027-.008-.005-.027-.016-.029-.029a.176.176 0 00.03-.031c.04-.074-.021-.074-.011-.105.008-.034.072-.011.09-.083.004-.013.004-.036-.018-.047-.002-.001-.002-.002-.001-.003.02 0 .04.005.058-.022-.056.004-.026-.043-.026-.07 0-.005 0-.009.006-.013.02-.011.038-.036.043-.076-.023.024-.088.051-.082.001 0-.001.006-.037-.052-.027-.09.007-.22-.01-.386-.026-.012 0-.02-.008 0-.01.168-.014.517-.028.517-.164 0-.061-.041-.147-.316-.133-.294.015-.957.111-.957-.055 0-.085.181-.072.282-.066m-.967 1.329c-.03 0-.045-.044-.038-.073a.47.47 0 00.108.044c-.049.01-.037.03-.07.029m-.048.062c-.009.002-.008-.026-.023-.03-.014-.002-.014.012-.005.032-.022-.007-.042-.017-.053.003-.009.018-.006.029.01.044.006.008 0 .025-.008.045-.008.019-.033.049-.064.03-.03-.017-.027-.051-.018-.07.011-.018.018-.033.028-.033.02 0 .03-.004.036-.022.008-.021-.013-.031-.03-.044.021-.006.03-.014.02-.024-.014-.014-.034.008-.036-.002-.005-.01.01-.018.015-.023.01-.01.018-.006.03 0l.085.04c.012.008.02.013.02.024 0 .01.003.027-.007.03m-.057-.168c-.015.024-.044.045-.068.02-.023-.023.001-.03-.027-.075.027.02.08.05.095.055m.78 0c.007.019.028.039.07.05.378.108.811-.177 1.041-.111-.299-.104-.486.078-.773.017.168-.001.344-.035.354-.08-.13.084-.5-.058-.655.039a.07.07 0 00-.029.027c-.119.027-.217.09-.217.174 0 .112.141.143.41.133.265-.011.56-.044.56.004 0 .067-.19.13-.445.13-.193 0-.527-.13-.948-.023v-.004c.03-.073.12-.18.081-.227.033-.013.056-.04.057-.07a.122.122 0 00-.068-.031c.012-.017-.003-.035-.016-.048-.003-.003-.01-.043-.02-.05-.013-.011-.04-.036-.08-.055-.042-.02-.068-.02-.086-.024-.01-.001-.047.009-.05.009-.019-.003-.043-.003-.048.02a.103.103 0 00-.063-.028.123.123 0 00-.009.099c-.034.003-.067.088-.098.079.01.023.02.033.031.034-.028.05-.039.11-.072.113.014.018.026.03.036.035a.642.642 0 00-.018.236c-.058-.062-.148-.203-.207-.237-.056-.031-.057-.058-.057-.114 0-.05.022-.094.02-.14a.324.324 0 00-.015-.042c-.008-.03-.049-.055-.072-.048a.07.07 0 01.03.05c-.01.008-.02.023-.023.025-.01.014-.015.032.002.048.002.004.002.006.002.01v.023c-.004.009-.006.004-.008 0-.013-.035-.029-.084-.06-.087l-.023-.002.001-.007c0-.033-.038-.063-.082-.02.011.002.028.005.034.014a.23.23 0 00-.008.037c-.004.036.024.05.062.05.007 0 .013.004.013.008 0 .006.002.01.004.016.001.007-.002.006-.004.003-.066-.027-.092.003-.093.029 0 .002-.002.02.001.027-.022.016-.028.048.014.076 0-.013-.003-.036.012-.04l.01-.005.016.016c.006.004.018 0 .04-.013.002-.002.005-.003.012 0l.02.012c.004.003.002.009.001.01-.044.043-.036.083.02.094.008 0 .01.006.01.012-.007.08-.11.063-.105-.015-.057.09.044.16.121.112.005-.002.006 0 .007.005.005.014.014.026.028.028 0-.005.004-.018.017-.018.004 0 .005.004.005.009.001.02.01.047.038.05-.005-.015 0-.03.01-.03.015 0-.002.12.111.185a.125.125 0 00.135.098c.02.046.047.09.04.09-.017 0-.15-.013-.188.005a.425.425 0 01-.102.038c0-.002-.022.007-.022.006-.04.007-.075.004-.093-.023-.013-.017-.009-.036-.025-.062-.013-.021-.03-.034-.042-.035l-.032-.001c-.019-.021-.068-.024-.087-.008.017.002.035.005.05.03a.365.365 0 01-.014.028c-.01.016-.003.044.078.074.004 0 .01.008.004.01-.012.005-.03.008-.046-.005-.03-.025-.036-.061-.075-.04 0 .003-.013.008-.024.014-.003-.001-.007-.005-.01-.005-.036-.002-.09.043-.066.086a.065.065 0 01.045-.04c.002.012.007.023.007.027.007.043.026.076.111.019.01-.006.01.002.008.005-.02.035-.079.072-.033.098l.018.015-.003.009c-.008.048.043.082.071.08-.01-.013-.033-.037-.026-.071a.168.168 0 00.026.006c.04-.016.02-.065.042-.082.007-.003.011-.001.012.006.002.019.011.067.062.06.045-.002.068-.042.064-.068-.002-.003 0-.005.004-.003.016.01.03.027.024.052a.104.104 0 00.035-.035c.008.023.012.054-.02.084.02-.006.067-.03.078-.082a.05.05 0 01.018.026c.002-.001.002-.003.006-.004.014.007.047.01.094-.001.006-.002.007 0 .007.004-.004.019-.004.04.005.05.001-.005.014-.025.021-.025.014 0 0 .046.027.076.012-.122.08-.073.155-.123.01-.005.01-.003.008.003a.072.072 0 01-.032.04c.03.002.116-.038.116-.083 0-.016.056-.066.071-.211a.18.18 0 00.033 0c.102-.008.15-.084.253-.09-.025.03-.035.1-.033.148.004.059.074.119.094.137.004.006.001.009-.004.009a.257.257 0 00-.076.019c-.082.055-.085-.123-.174-.09a.104.104 0 00-.023.018c-.036-.001-.084.04-.075.078a.092.092 0 01.056-.033l-.002.019c0 .014.004.029.035.029.018 0 .022-.01.034-.01.005 0 .011.005.011.012 0 .032-.11-.021-.09.072 0 .003.01.02.016.029-.004.027.021.056.067.04-.008-.007-.026-.02-.02-.034h.02c.003 0 .01-.002.013-.013 0-.003 0-.005.004-.005.006.002.01.005.01.009 0 .005-.009.01-.007.02 0 .002.005.026.01.03-.006.032.043.068.093.033-.014-.001-.046-.007-.049-.023a.134.134 0 01.023-.01c.008-.005.01-.02.011-.033 0-.008.006-.008.008-.008.007-.002.015-.002.023-.002.011-.002.014.002.017.007.01.022.035.039.068.029.061-.021.01-.073.057-.082a.047.047 0 01.035 0c.048.009.085.017.097-.005.013-.023.006-.108-.044-.136-.03-.015.043-.201-.099-.288.067.017.281.046.317-.005a.346.346 0 01.148.073c.01.012.013.027-.006.037-.059.037-.049.056-.08.065l-.005.002c-.019-.018-.038-.047-.058-.057-.019-.01-.04-.003-.043 0-.032-.008-.077.004-.09.038a.118.118 0 01.064-.004l-.004.015c-.004.01.002.02.013.03h-.002.003l.003.003c.003.003.003.008-.003.008-.032-.005-.096-.01-.08.03l.006.024c-.022.019-.03.052-.015.072.006-.016.01-.023.041-.035a.079.079 0 00.016.016c.016.02.05-.026.085-.016.002.002.006.005.001.006-.032.014-.064.037-.05.066.002.002.007.01.011.019-.01.023-.004.058.038.072-.002-.01-.01-.03-.005-.044a.142.142 0 00.037-.005c.063-.033.023-.076.044-.097.024-.02.053.042.103-.004a.044.044 0 00.012-.051c0-.003 0-.005.002-.005v.002c.013.012.022.03.05.019-.038-.033.004-.05.02-.075 0-.004.003-.007.01-.005.02.003.043-.003.067-.035-.027.005-.1-.038-.055-.056.064-.024.076-.058.048-.094-.049-.066-.158-.07-.16-.145.044 0 .086 0 .095-.003.33.005.537-.091.531-.193-.003-.085-.092-.116-.328-.1-.288.02-.664.056-.664-.042 0-.05.064-.087.14-.113M17.958 6.352c-.297.232-.689.02-.867-.282.406-.168.877-.357 1.195-.554-.293.45-.093.65-.328.836m-.066 3.077c-.382.165-.677-.17-.75-.397-.076-.23-.136-.418-.047-.506.165-.162.217-.288.117-.491-.114-.235-.362-.123-.629-.058.123-.225.134-.384-.036-.363-.202.023-.205.35-.318.312-.113-.038-.048-.228-.048-.328.001-.14.09-.188.23-.25l1.104-.42c.142-.051.241-.078.34.022.07.07.246.163.191.269-.055.106-.283-.126-.445-.002-.137.103-.018.21.226.284-.237.139-.49.23-.41.48.07.214.192.269.425.27.125 0 .214.18.317.396.108.215.14.607-.267.782m-2.1-2.225c-.298.026-.289-.258-.812-.384.368-.075.838-.26 1.25-.417.077.342-.064.766-.438.8m5.706 8.997c-.047-.326-.008-.634-.38-1.07-.364-.424-1.577-1.761-1.959-2.193.097-.01.211.01.447.233.146.138.511.494.77.748a7.469 7.469 0 011.717-2.636 2.451 2.451 0 00-.775.335c-.014-.372-.1-.723-.357-.958.098-.521.014-1.151-1.154-1.925.596.144.95.686 1.406.27-.409-.011-.419-.906-1.899-1.648.566-.012 1.007.9 1.662.383-.618-.074-.822-1.17-1.934-1.508.385.044.783.233 1.114-.215-.385.09-.613-.266-1.026-.297.156-.48.118-.776-.047-1.135-.29.02-.587.11-.8.285-.034-.264-.31-.28-.555-.26.012.115.066.28-.059.303a10.35 10.35 0 00-1.369.414c-.51.198-1.094.56-1.263.677-.102.07-.19-.096-.255-.174-.18.152-.355.35-.224.55-.284.027-.597.1-.862.31 0 .33.272.65.68.829-.687.68-.065 1.313-.669 1.908.85.03.701-1.152 1.13-1.316-.044.832-.509.979-.509 1.876 0 .479.286.999.03 1.314.712-.195.524-1.766.965-2.24.078.27.034.533-.057.802-.248.732.027 1.736-.36 2.06.635-.061.781-.961 1.207-1.471-.45 1.188-.943 3.24-1.603 4.204-1.236 1.668-1.963 3.702-3.098 3.702-.5 0-.876-.306-.876-.938 0-1.897 3.251-3.201 3.251-5.22 0-.9-.732-1.244-1.19-1.244-.31 0-.684.154-.997.412a1.068 1.068 0 00-.384-.084c-1.15 0-.843 2.065-1.845 2.046.397.22 1.082-.211 1.484-.79-.168 1.34-2.095.984-1.949 2.592.271-1.26 3.345-1.075 3.345-2.987 0-.214-.11-.395-.264-.538.231-.147.45-.203.65-.203.367 0 .703.275.703.816 0 1.693-3.233 3.12-3.233 5.2 0 .35.104.643.268.872-.227.097-.46.052-.656-.176-.018.535.746.873 1.228.605.107.036.22.059.335.067-.146.398-.64.517-.898.5.793.624 2.174-.196 2.097-.903.63-.506 1.03-1.375 1.484-1.946a6.418 6.418 0 00-.07.394c-.465.843-.9 1.598-1.02 2.709-.102.929-.57 1.767-1.225 1.767-.142 0-.378-.187-.489-.096-.204.176-.01.359-.01.532 0 .265-.509.529-.509 1.344 0 .368.212.807.131 1.05.208-.106.486-.453.6-.905.225 1.077-.46 1.03.033 1.988.061-.316.377-.45.57-.316.195.132.103.225-.039.367-.144.143-.277.857.376.816-.122-.082-.129-.271.194-.338.45-.091.581.116 1.06.116.296 0 .378-.388.613-.388.233 0 .233.183.153.316.377-.101.447-.306.447-.52 0-.213-.174-.346-.04-.427.133-.082.571.009.398.367.225-.041.346-.203.346-.48 0-.275-.315-.438-.61-.387-.052-.173-.308-.266-.54-.266-.532 0-.45.419-.813.419-.583 0-1.147-.757-1.147-2.032 0-.683.734-.857 1.255-1.08.52-.225 1.432-.785 1.977-1.702.43-.716.442-1.503.386-2.435.733.42.82 1.026.82 1.466 0 .57-.296.802-.529.908-.196.09-.262.053-.284.169-.025.146.072.229.157.274.264.136.21.389.284.663.075.275.318.707.73 1.024.042-.171.031-.443.007-.796.563.277.112 1.408 1.205 1.408-.2-.115-.148-.413-.03-.454.115-.043.261.074.473.368.212.296.154.272.672.272.517 0 .284-.18.56-.18.273 0 .252.316.105.549.462-.14.602-.49.446-.851.406-.22.621.093.681.315.401-.401 0-.887-.314-.92.01-.147-.127-.305-.297-.316-.168-.01-.333-.02-.516-.01-.19.01-.297.286-.517.286-.686 0-2.044-1.243-2.044-1.781 0-.538 1.298-.864 1.298-1.698 0-1.091-1.072-1.462-1.97-2.162.32-.36 1.258-.443 1.79-.183.06-.306.254-.23.325-.753.19.46-.063.838.133 1.033.151-.221.54-.19.514-.76.12.358-.15.903.12 1.142.047-.294.22-.35.332-.35.111 0 .208.08.208.253 0 .436-.524.318-.524.81 0 .207.261.277.261.413 0 .132-.214.339-.475.166.086.189.26.356.483.356.237 0 .492-.191.591-.435.124.312.03.659-.194.703.236.12.8.007.734-.714.317.053.485.269.296.653.26-.065.5-.192.5-.47 0-.213-.212-.36-.176-.654.03-.241-.3-.47-.349-.795M14.045 4.401a.21.21 0 00-.209.211.21.21 0 00.21.212.213.213 0 00.213-.212.213.213 0 00-.214-.21zm.14-.352a.214.214 0 00-.213-.213.212.212 0 10.213.213m.12-.251a.212.212 0 100-.424.212.212 0 000 .424m.563-.037a.211.211 0 10.001-.423.211.211 0 000 .423m2.406-.391a.212.212 0 10.298-.302.212.212 0 00-.298.301m-.048-.451a.21.21 0 000-.3.212.212 0 100 .3m-.561-.092a.212.212 0 00-.3-.299.212.212 0 000 .299.214.214 0 00.3 0m-.479.356a.21.21 0 000-.297.213.213 0 00-.301-.002.213.213 0 000 .3.213.213 0 00.3-.001m-1.35-.291l.17.37.215-.257a.057.057 0 00.025.008c.02.125.027.341.027.461 0 .149.12.271.268.271a.272.272 0 00.271-.271.266.266 0 00-.144-.237 2.154 2.154 0 01-.297-.279c.005-.011.011-.021.013-.033l.36.031-.143-.381-.268.228-.014-.007-.019-.394-.37.142.245.292a.103.103 0 00-.014.03l-.325.026zm2.454.659c.081.128.11.189.116.292a.609.609 0 01-.22-.201l.043.493c.06-.087.107-.147.177-.178-.017.322-.146.455-.256.477a.208.208 0 01-.252-.165c-.027-.143.097-.231.223-.104.022-.296-.216-.292-.32-.166.123-.286.074-.475-.18-.628-.158.268-.09.442.11.646-.197-.1-.372.068-.197.284.036-.19.202-.146.24.006.035.13-.09.297-.302.36-.304.092-.402-.103-.476-.267.065-.042.222-.027.396.084L16.245 4a.489.489 0 01-.29.293c-.009-.141.094-.424.094-.424l-.584.238s.27.13.362.238a.493.493 0 01-.413-.01l.232.45c.046-.201.15-.32.226-.336.061.17.127.378-.153.524-.197.102-.4.069-.469-.047-.079-.134.01-.281.168-.17-.026-.28-.27-.277-.34-.067.003-.287-.07-.46-.373-.541-.074.287.022.458.311.578-.163-.02-.337.143-.114.34 0-.18.151-.201.234-.08a.207.207 0 01-.069.293c-.092.06-.278.056-.514-.162.071-.03.148-.017.251.004l-.312-.384a.602.602 0 01-.019.298c-.068-.077-.089-.143-.12-.292l-.237.213c.226.137.485.352.8.788a10.39 10.39 0 011.293-.643c.368-.151.994-.36 1.375-.443-.079-.532-.043-.866.023-1.121l-.318.013zm25.497 18.633a.68.68 0 011.361 0 .68.68 0 11-1.36 0m-.233 0c0 .505.41.916.914.916a.915.915 0 000-1.83.915.915 0 00-.914.914m-2.997 1.657c-.26-.048-.443-.242-.41-.433a.298.298 0 01.13-.19.546.546 0 01.405-.072c.237.042.414.214.414.388 0 .015-.002.029-.004.044-.035.192-.274.309-.535.263m-.413-.813a.526.526 0 00-.227.338.536.536 0 00.14.457.795.795 0 00.458.248.81.81 0 00.516-.072.536.536 0 00.29-.38h.002c.056-.317-.212-.632-.6-.703a.776.776 0 00-.58.112m-5.082-12.289c0-.117.069-.253.19-.348a.484.484 0 01.349-.108c.05.007.12.027.17.09a.243.243 0 01.045.192.486.486 0 01-.19.308c-.178.139-.415.146-.517.015a.245.245 0 01-.047-.15m.048-.534c-.284.223-.368.593-.186.828.183.233.564.246.847.026a.719.719 0 00.277-.464.485.485 0 00-.091-.363.489.489 0 00-.326-.18.716.716 0 00-.521.153m4.315 12.343a.292.292 0 01-.206-.097.552.552 0 01-.137-.391.541.541 0 01.152-.382.288.288 0 01.211-.088c.193.003.347.22.341.485a.553.553 0 01-.15.384.294.294 0 01-.21.089m-.355-1.038a.782.782 0 00-.222.547v.018c0 .208.073.404.202.539a.53.53 0 00.37.168.52.52 0 00.375-.154.776.776 0 00.225-.548.793.793 0 00-.153-.496.533.533 0 00-.42-.23.534.534 0 00-.377.156m-4.289-6.492c-.237-.113-.363-.349-.278-.526a.292.292 0 01.172-.145.54.54 0 01.411.037.544.544 0 01.285.298.295.295 0 01-.004.228.3.3 0 01-.172.145.544.544 0 01-.413-.037m-.184-.892a.528.528 0 00-.306.266c-.14.293.035.668.386.837a.778.778 0 00.593.046.527.527 0 00.306-.265.531.531 0 00.015-.406.78.78 0 00-.405-.431.781.781 0 00-.589-.047" fill="#000"/><path d="M40.222 18.285c-.15.211-.405.285-.571.168-.167-.119-.18-.384-.03-.595.15-.21.406-.286.572-.168.166.117.178.386.029.595zm-1.077 1.7c-.15.212-.405.287-.571.17-.166-.118-.181-.385-.031-.596.148-.21.403-.288.572-.169.166.116.179.383.03.595zm-3.727-9.308l.007-.02c.127-.392.366-1.174.368-1.183l.008-.027.511.197-.067.025a1.365 1.365 0 00-.354.246.408.408 0 00.307-.039l.075-.05-.22.554-.029-.052c-.032-.056-.129-.181-.226-.22a.394.394 0 00-.013.11c0 .204.142.296.282.368.244.125.392.14.453.045a.14.14 0 00.015-.064.16.16 0 00-.043-.108c-.046-.05-.13-.088-.239-.042l-.033.015-.005-.038c-.014-.147.033-.233.074-.279a.255.255 0 01.197-.086c.085 0 .162.052.212.136.029-.307.201-.53.487-.62l.026-.008.01.025a.837.837 0 01.052.278c0 .176-.073.335-.223.502.121-.023.232.008.283.086.043.065.057.14.038.211-.014.063-.06.15-.19.217l-.034.02-.006-.037c-.018-.096-.08-.158-.164-.17-.071-.01-.138.021-.167.076-.061.12.027.248.262.379.283.157.465.021.572-.133a.479.479 0 00-.327.085l-.089.055.363-.68.014.078a.506.506 0 00.136.26.847.847 0 00.043-.247.445.445 0 00-.041-.195l-.036-.08.746.432-.087.008c-.131.013-.255.087-.377.224a.52.52 0 00.292-.012l.074-.028-.406.654.002-.104v-.022a.493.493 0 00-.09-.304.504.504 0 00-.054.216c0 .12.055.245.226.348.229.136.383.148.457.035.034-.053.027-.125-.017-.182-.052-.067-.139-.089-.228-.058l-.036.012-.001-.037c-.007-.145.046-.228.091-.273a.27.27 0 01.202-.074c.106.008.181.1.22.204.101-.319.276-.479.587-.537l.026-.005.007.025a.805.805 0 01.019.166c0 .225-.109.421-.312.567.099.001.182.041.225.116a.282.282 0 01.037.134.233.233 0 01-.014.078c-.019.06-.069.143-.204.204l-.035.015-.003-.036c-.015-.116-.091-.17-.157-.184a.146.146 0 00-.162.061c-.054.1.033.22.264.368.155.1.335.186.549-.004-.079-.066-.235-.088-.305-.088h-.056l.367-.466-.006.09-.001.016c0 .1.057.207.121.27.029-.127.042-.24.042-.332a.586.586 0 00-.007-.098l-.01-.07.426.342-.02.022c-.005.006-.564.604-.839.91l-.016.017-3.826-2.21zm4.509 5.076a.289.289 0 01.086-.207l.001-.002a.282.282 0 01.213-.072c.13.002.267.07.372.18.103.11.164.255.159.383a.294.294 0 01-.086.208h-.002a.284.284 0 01-.213.074.554.554 0 01-.371-.18.554.554 0 01-.159-.384zm1.637 7.528a.554.554 0 01.245-.335.545.545 0 01.401-.093c.06.014.141.045.192.124h.002a.3.3 0 01.035.223.562.562 0 01-.244.335c-.221.145-.489.13-.594-.03a.294.294 0 01-.037-.224zM33.776 11.94a.474.474 0 01-.143.322.246.246 0 01-.174.067c-.152-.01-.272-.186-.272-.39l.001-.032a.464.464 0 01.138-.322.25.25 0 01.178-.068.248.248 0 01.167.088.467.467 0 01.105.334zm2.408-4.95c.128-.244 0-.617.446-.617.22 0 .415.22.68.307-.43.035-.817.132-1.126.31zm7.018 6.193c.298.817.889 1.11 1.34.901-1.008-.117-.191-1.843-1.489-1.843a.901.901 0 00-.21.024c-.22-.234-.472-.33-.845-.33-.549 0-1.495.53-1.495 1.625 0 2.357 2.739 2.565 2.739 4.65 0 .61-.46.987-.975.987-.46 0-.831-.517-1.218-1.326-.185-.384-.581-.912-1.005-1.461a.752.752 0 00.407.143.527.527 0 00.38-.14.52.52 0 00.161-.37l.001-.02a.8.8 0 00-.223-.531.791.791 0 00-.537-.255.536.536 0 00-.38.139.523.523 0 00-.16.37l-.001.02c0 .083.014.163.044.242-.589-.77-1.137-1.525-1.137-1.94 0-.366.252-.685.563-1.072l.107.059.083-.09c.11-.121.339-.371.811-.878l.028-.03h-.001l.114-.12-.293-.235c.077-.178.144-.37.196-.581.091.38.285.622.554.545-.179-.391.181-.916-.056-1.877.225.372.547.568.779.5-.607-.54.18-1.29-.61-2.451.26.087.43.037.543-.092-.719-.101-.391-1.021-1.655-1.35.315-.055.498-.24.45-.405-.332.242-.626-.45-1.721-.431-.068-.41-.447-.841-.879-1.05.082.318.006.603-.077.84l-3.571-3.504c-.104-.098-.162-.122-.19-.084-.031.034-.028.099.04.17L36.88 5.78c-.231.078-.456.175-.696.263a.415.415 0 00-.266.398c-.567.284-1.068.632-1.317.86-.189.172-.339.21-.173.599.064.146-.133.51.311.243.292-.174.953-.537 1.05-.31.053.12-.275.277-.5.36-.223.088-.465.26-.429.346.034.086.212-.005.223.086.013.103.084.193.173.193.09 0 .205-.188.278-.127.07.064-.037.483-.109.589.348-.043.57-.374.579-.632.009-.258.081-.32.134-.357.054-.036.117.277.045.464.184-.04.375-.282.347-.729.095-.073.188-.129.258-.129.117 0 .349.321.679.321.606 0 .943-.492.98-.722.028-.186.015-.368-.085-.506.215.175.286.45.286.655 0 .86-1.52 1.263-2.145 1.858-.024.021-.045.043-.068.066l-.713-.277-.048.158-.041.134a83.883 83.883 0 01-.365 1.165l.064.037c-.422.563-.764 1.192-.841 1.84a5.935 5.935 0 00-.519-.475.797.797 0 00.036-.198.69.69 0 00-.161-.503.472.472 0 00-.329-.164.474.474 0 00-.347.126.666.666 0 00-.063.067 1.53 1.53 0 01-.076-.059c-.236-.18-.528-.397-.705-.59-.075-.084-.151-.128-.31-.128-.06 0-.211-.007-.317-.007-.106 0-.166.081-.287.188-.068.058-.294.236-.523.409.109.105.215.216.316.332.031.033.059.066.088.1.1-.08.178-.14.233-.183a.41.41 0 01.264-.075c.091 0 .219.067.309.204.066.097.643.855 1.122 1.383a1.575 1.575 0 00-.152.054c-.204.087-.667.07-.871.053-.206-.018-.246-.068-.386.151-.053.083-.12.183-.189.265-.068.085-.122.178.023.425.212.354.734 1.293.909 1.716.173.425.378.492.71.628.334.136.901.462.97.537l.021-.325c-.097-.099-.417-.218-.537-.26-.12-.045-.151-.095-.007-.095s.544.143.824.256c-.084-.317-.386-.666-.567-.86-.241-.07-.485-.07-.583.005a.133.133 0 01-.136.152c-.093 0-.157-.08-.129-.167.032-.096.175-.128.144-.31-.03-.18-.256-.21-.4-.227-.205-.294-.44-.725-.544-.9-.108-.174-.043-.272.029-.333.175-.143.537.077 1.262.122l.899.047c.097.842.435 1.643 1.609 1.936.573.142 1.163.562 1.367 1.114-2.345-.043-2.711.873-2.711 1.734 0 .98.824.925.824 1.66 0 .641-1.97.906-2.565.994-.505.074-.793.186-1.035.428-.241.243-.488.476-.927.917 0 0 .186.042.374.032l.334-.43c.097-.144.165-.266.231-.254.064.011.021.121-.056.275l-.274.461c1.155.08 1.231-.35 1.231-.527 0-.177-.284-.296-.119-.407.164-.11.306-.033.44.12.133.156.175.287.496.166 0 0 2.52-1.045 2.84-1.189.286-.128.204-.254.033-.397-.189-.154-.22-.407-.22-.67 0-.763.459-.999 1.279-.983-.014.13-.025.255-.025.367 0 1.19 1.8 2.354 2.286 2.354.217 0 .51-.16.529.556.012.528.119.9.024 1.51s-.27.703-.637.96c-.364.258-.711 1.063-.866 1.232.164.108.339.121.474-.27.112-.325.243-.557.383-.635-.142.36-.248.884-.315 1.04.459.081 1.205-.338 1.205-.662 0-.325-.258-.299-.258-.514 0-.096.117-.203.258-.203.185 0 .324.146.338.215.204-.108.332-.31.325-.786a24.86 24.86 0 00-.019-.575.536.536 0 00.457.311.81.81 0 00.502-.136.777.777 0 00.343-.485.502.502 0 00-.07-.397.515.515 0 00-.338-.223.79.79 0 00-.58.124.805.805 0 00-.334.442c-.038-.646-.084-1.257-.066-1.504.026-.364.041-.527-.081-.58-.122-.055-.257.15-.433.15-.177 0-.705-.489-.705-1.003 0-.515.556-1.179.528-1.883-.01-.219.129-.334.215-.134.11.243.267.568.504.833-.145.885.829 1.75 1.63 1.107-.397.06-.668-.293-.844-.645a1.472 1.472 0 00.334.012c.281.35 1.177.321 1.406-.544-.156.181-.478.32-.71.288.336-.26.512-.688.512-1.146 0-2.248-2.726-2.51-2.726-4.555 0-.757.665-1.245 1.125-1.245.176 0 .312.054.422.135-.175.18-.27.451-.255.782.073 1.613 2.708 1.533 2.743 2.31.296-1.17-1.669-.809-1.742-2.386zM27.809 26.53c-.067-.125-.164-.195-.248-.195-.38 0-.232.998-.683.998-.197 0-.302-.126-.302-.267 0-.14.098-.182.098-.296 0-.112-.088-.154-.186-.154-.1 0-.187.042-.187.154 0 .114.099.156.099.296 0 .14-.106.267-.303.267-.45 0-.303-.998-.681-.998-.085 0-.183.07-.248.195a.908.908 0 01-.118-.392c0-.183.14-.436.436-.436.506 0 .386.688.629.688.107 0 .186-.063.186-.168 0-.196-.351-.381-.351-.662 0-.282.256-.518.538-.743.28.225.538.46.538.743 0 .28-.352.466-.352.662 0 .105.078.168.186.168.243 0 .124-.688.63-.688.296 0 .435.253.435.436a.93.93 0 01-.116.392m-1.321 1.398a.247.247 0 010-.493.247.247 0 010 .493m1.002-2.42a.665.665 0 00-.187.025v-1.076a7.813 7.813 0 01-1.621-.26v1.34a.631.631 0 00-.827.601c0 .286.168.55.313.715.074-.173.14-.314.236-.314.193 0 .106.963.67.99a.444.444 0 00.414.596.443.443 0 00.413-.596c.564-.027.469-.99.664-.99.096 0 .156.133.242.314.147-.165.314-.43.314-.715a.631.631 0 00-.631-.63M24.303 5.852c-.169.324-.315.514-.293.765.022.251.285.428.41.68.113-.293.302-.514.279-.744-.023-.23-.338-.533-.396-.7m4.357-.001c.171.324.317.514.294.765-.023.251-.285.428-.41.68-.113-.293-.302-.514-.28-.744.023-.23.34-.533.396-.7m-6.865-.188a.293.293 0 00.294-.294.295.295 0 10-.294.294m.195.42a.292.292 0 00-.293-.293.293.293 0 00-.296.293.295.295 0 10.59 0m.144.715a.294.294 0 10-.588-.002.294.294 0 00.588.002m1.29-2.539a.295.295 0 100-.588.295.295 0 000 .588m-.732.225a.295.295 0 100-.59.295.295 0 000 .59m-.574.506a.294.294 0 000-.59.294.294 0 100 .59m2.076-.66a.295.295 0 10-.002-.59.295.295 0 00.002.59m.728.211a.295.295 0 000-.589.294.294 0 00-.294.293c0 .163.132.296.294.296m.687.323a.295.295 0 100-.59.295.295 0 00-.292.295c0 .163.13.295.293.295m5.255.504a.294.294 0 10.588 0 .294.294 0 00-.588 0m.392.421a.295.295 0 100 .59.295.295 0 100-.59m-.144.714a.293.293 0 100 .587.293.293 0 100-.587M29.53 4.261a.295.295 0 10.002-.59.295.295 0 00-.002.59m.732.225a.295.295 0 100-.59.295.295 0 000 .59m.575.506a.293.293 0 00.294-.295.294.294 0 10-.294.295m-2.077-.66a.294.294 0 10.002-.589.294.294 0 00-.002.589m-.73.211a.295.295 0 000-.589.295.295 0 000 .59m-.98.027a.295.295 0 10.588 0 .294.294 0 10-.588 0m-1.075 1.592h.33v-1.26a1.133 1.133 0 01-.33-.103v1.363zM26.982 4.8a1.212 1.212 0 01-.331.103v1.26h.33V4.802zm-.695-1.391V2.66a.927.927 0 00-.723.748h.723zm.383 0h.72a.93.93 0 00-.72-.748v.748zm-1.095.361a.926.926 0 001.806 0h-1.806zm1.41-1.227c-.211-.166-.371-.403-.402-.653.24.044.508.217.67.426V1.301c-.162.21-.431.384-.67.425.027-.245.178-.469.386-.726h-.981c.206.257.357.481.386.726a1.159 1.159 0 01-.67-.425v1.015c.159-.209.428-.382.669-.426-.031.25-.192.487-.403.653h1.015zm.026 21.133a.362.362 0 11.001-.724.362.362 0 01-.001.724zm-1.738-.536a.396.396 0 11.001-.792.396.396 0 01-.001.792zm-.598-1.762l-.097-.075c-.18-.135-.332-.133-.495.006-.076.065-.145.146-.214.224l-.099.116.068.055c.189.15.219.317.164.416a.15.15 0 01-.097.074c-.094.026-.228-.008-.365-.09l-.072-.041-.044.069a.52.52 0 01-.034.052c-.016.024-.033.048-.05.076-.081.143-.12.252-.12.34 0 .025.004.048.009.07.029.103.112.152.186.194l.045.026c.085.053.205.124.294.176a.515.515 0 01-.504.02c-.255-.122-.417-.412-.417-.557 0-.22.1-.496.28-.782l.028-.044-.027-.044a1.867 1.867 0 01-.13-.255c.096.013.191.03.285.053l.048.01.033-.035c.111-.121.502-.514.864-.514.163 0 .331.083.458.228a.7.7 0 01.168.354 3.82 3.82 0 01-.165-.122zm-2.503.056l-.229-.324.399-.281-.225-.317-.398.279-.229-.324 1.107-.78.229.324-.397.282.223.317.399-.281.229.327-1.108.778zm-1.111-1.94a.717.717 0 01.001-.56.68.68 0 01.382-.361.671.671 0 01.526.01c.175.077.306.22.382.414a.779.779 0 01.053.278.676.676 0 01-.44.638.677.677 0 01-.523-.008.728.728 0 01-.381-.411zm7.007 3.276c-.927-.232-2.03-.628-3.062-1.096l.002-.015a.815.815 0 00-.209-.624.795.795 0 00-.585-.287.855.855 0 00-.282.054 4.411 4.411 0 01-.426-.437 5.063 5.063 0 01-.909-1.58 5.574 5.574 0 01-.267-1.048c-.049.299-.406.649-.986.657.01-.062-.007-.154-.061-.168-.153.169-.352.339-.876.153.08.41.194.812.339 1.203a7.162 7.162 0 001.332 2.235c.189.213.387.412.594.593a.951.951 0 00-.008.119c0 .218.21.563.511.71.248.119.516.088.757-.086a8.35 8.35 0 001.642.636c.693.194 1.364.3 1.889.3.451 0 1.048-.212 1.638-.583.236-.15.456-.315.62-.467.023-.022.045-.043.063-.063-.458.065-1.148-.063-1.716-.206z" fill="#000"/><path d="M22.017 19.266v-.004a.384.384 0 00-.025-.13c-.067-.171-.235-.249-.402-.184-.168.066-.24.233-.172.407a.328.328 0 00.166.182.316.316 0 00.236.001.293.293 0 00.197-.272m.196-5.902c-.15-.078-.313-.024-.395.13a.3.3 0 00-.027.232c.022.07.073.13.145.167a.281.281 0 00.394-.127.32.32 0 00.034-.145.288.288 0 00-.15-.257m8.104-.724l-.146.042.075.098zm1.751 2.742l-.125-.249-.002.002a.882.882 0 00-.073.103c-.015.02-.028.041-.042.061a.69.69 0 01.083.03l.159.053m-.115 1.739c.024 0 .05.001.053-.064l.001-.077a4.11 4.11 0 00-.11-.002l-.002.064c0 .034.008.057.017.066.007.006.015.013.041.013m-6.837-6.371a.31.31 0 00-.238-.006.326.326 0 00-.193.161.328.328 0 00-.006.242c.024.067.127.28.416.174a.302.302 0 00.181-.39.306.306 0 00-.16-.18" fill="#000"/><path d="M32.388 17.058a.484.484 0 01-.136.351.431.431 0 01-.313.115.408.408 0 01-.295-.124.507.507 0 01-.126-.362v-.067l-.483-.009.007-.398 1.354.025-.008.47zm-.211 1.623l-.373-.069.085-.464-.1-.019-.082.45-.375-.069.083-.45-.109-.02-.088.48-.375-.067.159-.872 1.332.243-.157.857zm-.213.65l-.841.292.621.251-.144.36-1.256-.509.117-.287.83-.286-.614-.247.144-.36 1.255.508-.112.277zm-.805 1.626a.775.775 0 01-.316.233l.001-.002-.378-.255c.397-.124.421-.237.401-.256-.016-.016-.08.02-.158.057-.14.072-.355.178-.578.028a.426.426 0 01-.179-.267.43.43 0 01.073-.328.77.77 0 01.375-.265l.377.255-.062.013a.767.767 0 00-.367.197c-.016.02-.024.041-.023.054 0 .002.001.007.007.011.034.022.133-.023.209-.059.152-.069.34-.154.53-.027a.396.396 0 01.182.332.487.487 0 01-.094.28zm-1.099 1.231l-.271-.267.332-.338-.071-.07-.32.324-.273-.265.321-.327-.08-.079-.35.335-.271-.267.629-.615.965.95-.611.62zm-3.401-5.456v-4.854c.506.024 1 .152 1.467.383.503.25.954.607 1.342 1.062.391.457.696.99.91 1.581.21.58.321 1.195.331 1.828h-4.05zm-.17-5.145c-.29.006-.587-.16-.595-.544l-.002-.81.397-.01v.78c.003.111.019.126.036.144a.2.2 0 00.158.056c.079 0 .142-.022.178-.06.019-.019.036-.05.034-.162l-.002-.768.398.005v.801a.56.56 0 01-.143.393c-.105.111-.258.17-.459.175zm-4.223 5.145a5.67 5.67 0 01.331-1.828c.215-.59.52-1.124.909-1.58.389-.456.84-.813 1.344-1.063a3.645 3.645 0 011.564-.384v4.855h-4.148zm-.012-2.446a.66.66 0 01-.823-.435.69.69 0 01.058-.53.699.699 0 01.405-.352.66.66 0 01.501.05.65.65 0 01.353.58.73.73 0 01-.089.341.686.686 0 01-.405.346zm.021-2.123l1.02.8-.239.305-1.02-.803.239-.302zm.995-.962l.25.271-.271.25.63.682-.284.261-.628-.68-.27.248-.251-.27.824-.762zm2.616.182l-.171.37c-.289.068-.61-.008-.681-.026a.681.681 0 01-.732-.443.666.666 0 01.014-.519.754.754 0 01.437-.384.689.689 0 01.829 1.016c.065-.002.182.021.304-.014zm1.996-1.042l-.267 1.365-.39-.078.268-1.364.389.077zm-4.743-.307c0-.787 2.22-.855 3.347-.855h.002c1.127 0 3.345.068 3.345.855 0 .22-.138.405-.459.594-.555-.369-1.506-.775-2.887-.776-1.382.001-2.333.407-2.887.776-.322-.189-.461-.375-.461-.594zm6.683 1.206l.236.184-.817 1.107-.33-.228.418-.544-.402.103-.064-.427-.385.553-.349-.188.787-1.136.267.141.089.57.55-.135zm.929.881l.165.208-.716 1.39-.26-.357.131-.243-.261-.335-.23.073-.32-.3 1.491-.436zm1.949 4.211a1.275 1.275 0 01-.388-.455c-.147-.05-.544-.19-.716-.252l-.092-.033-.555.15-.104-.384.558-.15a11.473 11.473 0 01.35-.448 18.916 18.916 0 00-.361-.639.785.785 0 01-.126-.389l-.511.267.223.454-.344.168-.395-.812 1.214-.593.053.102c.031-.042.064-.088.094-.136a.87.87 0 01.114-.152 6.871 6.871 0 00-.818-1.129 6.284 6.284 0 00-1.258-1.09c.248-.159.497-.39.497-.777a.709.709 0 00-.257-.553c.259-.832.724-1.834 1.12-2.272l-.833-.352a1.3 1.3 0 01.183.94c-.218-.152-.402-.358-.466-.63a3.635 3.635 0 01-.306.906c.241-.114.436-.165.679-.063a.994.994 0 01-1.048.35c-.298-.07-.592-.228-.579-.459.008-.135.109-.3.293-.28.182.017.192.292.137.415.235-.135.484-.834.113-.937-.294-.082-.563.32-.659.63-.057-.373-.212-.73-.506-.71-.384.028-.261.736-.125.916.023-.248.158-.38.272-.373.101.007.238.08.214.306-.024.227-.345.366-.714.366-.353 0-.972-.11-1.03-.789.229.04.586.214.741.444a4.421 4.421 0 010-1.132 1.157 1.157 0 01-.731.443c.064-.292.315-.6.607-.782h-1.515c.291.182.541.49.605.78a1.149 1.149 0 01-.717-.44c.047.425.047.72 0 1.131.149-.227.5-.397.729-.443-.059.678-.678.788-1.03.788-.369 0-.691-.139-.715-.366-.022-.226.113-.299.215-.306.113-.007.249.125.271.373.136-.18.26-.888-.124-.916-.296-.02-.45.337-.505.71-.097-.31-.366-.712-.659-.63-.373.103-.124.802.114.937-.057-.123-.047-.398.134-.416.187-.02.286.146.294.281.013.231-.282.388-.579.46a.994.994 0 01-1.046-.349c.248-.104.444-.054.688.061a3.683 3.683 0 01-.308-.907c-.062.277-.253.486-.474.637a1.306 1.306 0 01.181-.946l-.833.352c.398.44.864 1.445 1.123 2.28a.711.711 0 00-.249.545c0 .386.249.618.496.777a6.34 6.34 0 00-1.258 1.09 7.092 7.092 0 00-1.376 2.34c.093.096.185.194.276.295a.212.212 0 01.013-.038.777.777 0 01.258-.294l.417.166c-.173.124-.382.293-.338.336.018.018.11-.058.15-.088.126-.097.308-.25.558-.15a.414.414 0 01.234.554.783.783 0 01-.309.344l-.381-.15a1.08 1.08 0 00.33-.316c.014-.032.015-.06 0-.068-.032-.019-.113.044-.189.102a.791.791 0 01-.287.16c.178.253.297.49.304.682.013.377.092.527.293.78.302.382-.007.352.255.825a6.069 6.069 0 01-.02-.404h4.148v4.528c-.168.002-.352.023-.495.195.481.194.962.368 1.421.511a1.09 1.09 0 01.271-.626s-.625-.06-.952-.078v-4.53h4.05a5.613 5.613 0 01-.331 1.808 5.05 5.05 0 01-.91 1.58 4.363 4.363 0 01-1.342 1.061c-.118.06-.205.25-.282.42a1.553 1.553 0 00-.127.447c.192.056.229.095.409.14 1.423.357 1.795.286 1.875.224a6.49 6.49 0 00.895-.84 7.105 7.105 0 001.332-2.236 7.773 7.773 0 00.488-2.733c0-.173-.005-.345-.016-.516zM15.743 26.486l-.08.044c.03.048.303.506.343.572l.085-.05c.299-.158.264-.363.184-.485-.155-.243-.346-.173-.531-.081m18.495-1.756a.079.079 0 00.05-.039.09.09 0 00.012-.043c0-.028-.02-.057-.058-.084l-.113-.067a14.37 14.37 0 01-.091.154l.097.06c.035.022.072.03.103.02m-1.781-.201c.268.069.437.025.54-.232.076-.191.017-.342-.293-.428h.001c-.004 0-.018-.003-.102-.024-.026.068-.228.64-.237.663l.091.022m2.692 1.486a.38.38 0 00.288.046.351.351 0 00.228-.17.319.319 0 00.04-.258.355.355 0 00-.172-.218.4.4 0 00-.292-.05.352.352 0 00-.226.17.325.325 0 00-.044.262.36.36 0 00.179.218m-6.711 3.084a.365.365 0 00-.277-.096.415.415 0 00-.288.115.351.351 0 00-.108.27.32.32 0 00.107.253.379.379 0 00.28.095.407.407 0 00.285-.116.368.368 0 00.11-.269.322.322 0 00-.11-.252" fill="#000"/><path d="M32.405 26.461c0 .36-.325.707-.9 1.005.163-.76-1.65-.994-1.65-1.554 0-.483.723-.736 1.267-.829.359.457 1.283.793 1.283 1.378zm-1.864 3.203l-.321.114s-.522-.527-.637-.645c-.011.162-.05.828-.05.828l-.421.081.094-1.586.304-.055.652.657.047-.808.425-.116-.093 1.53zm-1.79.258a.921.921 0 01-.604.24.824.824 0 01-.59-.207.727.727 0 01-.238-.556c0-.227.08-.422.239-.577a.87.87 0 01.595-.244.83.83 0 01.6.207.724.724 0 01.245.56.768.768 0 01-.247.577zm-1.56.273l-.43.007v-.82a80.41 80.41 0 00-.36.426l-.36-.426v.818l-.428-.01v-1.545l.359.011.432.524.42-.52.368-.008v1.543zm-2.411-1.197c-.124-.016-.33-.04-.444-.056v1.155l-.431-.06V28.88a27.814 27.814 0 01-.435-.07v-.41c.379.063.892.136 1.31.186v.412zm-2.37.652l-.08-1.522c.236.067.744.201 1.009.248l.009.416a11.17 11.17 0 01-.564-.126l.007.134.524.131.015.42-.517-.129.008.161c.145.05.366.104.552.143l.02.422a5.034 5.034 0 01-.983-.298zm-.942-2.184c-.573-.298-.897-.645-.897-1.005 0-.585.92-.92 1.28-1.377.544.094 1.269.347 1.269.828 0 .56-1.812.794-1.652 1.554zm-1.508-2.254c-.443.193-.712.002-.858-.313l-.353-.797.379-.199s.356.806.358.806c.077.17.16.221.319.145.188-.089.187-.169.116-.324l-.37-.842.419-.142.347.82c.137.33.106.644-.357.846zm-1.702.963l-.786-1.262.827-.539.21.338-.473.317c.022.036.049.08.07.118l.458-.308.21.34-.456.306a6.8 6.8 0 01.082.13l.49-.327.212.34-.844.547zm-.83.548l-.79-1.257.348-.229.789 1.263-.347.223zm-1.143.682l-.436.237-.753-1.26.46-.252a.948.948 0 01.433-.134.711.711 0 01.375.098c.116.067.22.157.282.278.169.318.188.743-.361 1.033zm16.044-4.042l.573.141c.362.093.696.424.499.914-.228.561-.652.594-1.072.496l-.505-.123.505-1.428zm2.127.876c.07.044.164.117.224.221a.397.397 0 01-.013.423.386.386 0 01-.23.188.392.392 0 01-.115.01c.014.06.022.133.027.215.019.314.062.654.062.662a58.021 58.021 0 00-.457-.292l-.036-.435c-.012-.157-.021-.22-.07-.252l-.271.464-.373-.195.747-1.3c.114.063.393.223.505.291zm.679.732a.811.811 0 01.6.094.778.778 0 01.406.666c0 .13-.04.26-.114.381a.735.735 0 01-.488.346.85.85 0 01-.604-.105.755.755 0 01-.37-.46.692.692 0 01.087-.572.755.755 0 01.483-.35zm1.824.88l-.784 1.283-.368-.226.786-1.277.366.22zm1.345.738l-.193.348a11.78 11.78 0 01-.455-.212l-.557.886-.386-.17c.005-.006.434-.68.576-.91a11.06 11.06 0 01-.387-.224l.193-.349c.315.191.944.514 1.209.631zm-.328 1.426c.773 0 1.462-.978 2.429-1.408-2.444.712-5.818-3.43-8.114-3.43-.644 0-1.392.245-1.76 1.132-.386.944-.817 1.253-.817 1.672 0 .364.33.645.887.94.36.191.736.295.716.637-1.05.48-2.777.81-4.83.81-2.052 0-3.78-.33-4.83-.81-.02-.342.357-.446.715-.638.558-.294.889-.573.889-.939 0-.418-.43-.728-.818-1.672-.366-.887-1.114-1.13-1.76-1.13-2.294 0-5.67 4.14-8.112 3.428.967.43 1.655 1.41 2.429 1.41 1.982 0 4.273-2.975 6.425-2.975.029 0 .06 0 .095.002-.502.621-1.201.75-1.201 1.378 0 .441.38.706.643 1.294.165.37.196.63.335 1.15.124.458.443 1.63 5.19 1.63 4.748 0 5.067-1.172 5.189-1.63.14-.52.172-.78.337-1.15.264-.588.643-.853.643-1.294 0-.628-.7-.757-1.2-1.378a1.58 1.58 0 01.093-.004c2.152 0 4.444 2.975 6.427 2.975z" fill="#000"/></g></svg>