<svg width="215" height="31" xmlns="http://www.w3.org/2000/svg"><g fill="none" fill-rule="evenodd"><path fill="#FFF" d="M0 30.23h1.742V1H0zM55.08 8.536h2.695l4.666 12.446 4.69-12.446h2.695v14.811H67.96V11.025h-.042l-4.625 12.322h-1.68l-4.626-12.322h-.04v12.322h-1.868zm17.256 14.811H74.1V12.623h-1.764v10.724zm0-12.653H74.1V8.537h-1.764v2.157zm3.92 1.929h1.66v1.7h.041c.747-1.326 1.95-1.95 3.485-1.95 2.821 0 3.692 1.62 3.692 3.922v7.052H83.37v-7.26c0-1.307-.829-2.157-2.177-2.157-2.136 0-3.173 1.43-3.173 3.36v6.057h-1.764V12.623z"/><path d="M0 30.496h214.615V1H0z"/><path d="M87.312 23.347h1.763V12.623h-1.763v10.724zm0-12.653h1.763V8.537h-1.763v2.157zm5.069 9.271c.062 1.576 1.432 2.075 2.884 2.075 1.098 0 2.592-.25 2.592-1.598 0-1.369-1.743-1.597-3.506-1.99-1.74-.395-3.505-.977-3.505-3.029 0-2.158 2.137-3.049 4.003-3.049 2.365 0 4.253.746 4.397 3.36h-1.762c-.124-1.37-1.328-1.805-2.489-1.805-1.058 0-2.282.29-2.282 1.37 0 1.264 1.866 1.471 3.505 1.866 1.764.395 3.506.974 3.506 3.05 0 2.55-2.386 3.38-4.564 3.38-2.406 0-4.438-.974-4.542-3.63h1.763zm11.285-7.342h2.137v1.556h-2.137v6.658c0 .809.23.954 1.328.954h.81v1.556h-1.349c-1.826 0-2.552-.373-2.552-2.344v-6.824h-1.825v-1.556h1.825V9.408h1.763v3.215zm3.42 0h1.66v2.26h.041c.851-1.72 2.032-2.571 3.942-2.51v1.868c-2.842 0-3.879 1.618-3.879 4.336v4.77h-1.764V12.623zm11.444 12.154c-.808 2.095-1.534 2.862-3.11 2.862-.415 0-.83-.04-1.225-.186v-1.617c.332.104.685.248 1.037.248.727 0 1.12-.352 1.452-.974l.726-1.826-4.251-10.662h1.99l3.133 8.774h.04l3.009-8.774h1.866l-4.666 12.155zm16.746-2.572c1.846 0 3.339-1.452 3.339-4.045 0-2.613-1.493-4.065-3.34-4.065-1.846 0-3.34 1.452-3.34 4.065 0 2.593 1.494 4.045 3.34 4.045m0-9.666c3.402 0 5.207 2.469 5.207 5.62 0 3.133-1.805 5.602-5.206 5.602-3.402 0-5.207-2.47-5.207-5.601 0-3.152 1.805-5.621 5.207-5.621m7.334 1.804h-1.805v-1.556h1.805v-1.596c0-1.743 1.037-2.655 2.966-2.655.332 0 .808.062 1.14.165v1.536a3.26 3.26 0 00-.995-.146c-.85 0-1.347.27-1.347 1.203v1.493h2.073v1.556h-2.073v9.168h-1.764v-9.168zm18.584 5.477c0 2.011-1.058 4.044-4.376 4.044-2.76 0-4.314-1.535-4.314-4.315v-.913h1.97v.623c0 1.723.456 2.947 2.385 2.947 1.805 0 2.365-1.038 2.365-2.678V8.702h1.97v11.117zm11.258 3.692h-1.659V21.81h-.04c-.748 1.327-1.95 1.95-3.486 1.95-2.82 0-3.692-1.62-3.692-3.921v-7.052h1.763v7.26c0 1.306.83 2.157 2.177 2.157 2.137 0 3.174-1.432 3.174-3.361v-6.056h1.763v10.724zm3.301-3.382c.062 1.576 1.431 2.075 2.883 2.075 1.1 0 2.593-.25 2.593-1.598 0-1.369-1.743-1.596-3.505-1.99-1.742-.395-3.505-.977-3.505-3.029 0-2.158 2.136-3.049 4.003-3.049 2.364 0 4.252.746 4.396 3.36h-1.762c-.125-1.37-1.328-1.805-2.49-1.805-1.057 0-2.28.29-2.28 1.37 0 1.264 1.865 1.472 3.505 1.867 1.763.393 3.505.974 3.505 3.049 0 2.55-2.386 3.38-4.564 3.38-2.406 0-4.439-.975-4.542-3.63h1.763zm11.285-7.342h2.137v1.556h-2.137v6.658c0 .809.23.954 1.328.954h.81v1.556h-1.349c-1.825 0-2.552-.373-2.552-2.344v-6.824h-1.825v-1.556h1.825V9.573h1.763v3.215zm3.536 10.724h1.763V12.788h-1.763v10.724zm-.001-12.654h1.763V8.7h-1.763v2.157zm11.284 5.373c-.27-1.348-1.203-2.136-2.655-2.136-2.552 0-3.34 2.011-3.34 4.19 0 1.97.892 3.92 3.133 3.92 1.7 0 2.716-.996 2.945-2.614h1.805c-.395 2.614-2.034 4.17-4.73 4.17-3.277 0-5.02-2.283-5.02-5.477 0-3.215 1.66-5.745 5.062-5.745 2.427 0 4.376 1.141 4.625 3.692h-1.825zm10.886.892c-.083-1.68-1.35-3.029-3.093-3.029-1.845 0-2.944 1.39-3.069 3.03h6.162zm1.7 2.986c-.477 2.366-2.179 3.651-4.585 3.651-3.423 0-5.04-2.364-5.143-5.642 0-3.215 2.115-5.579 5.04-5.579 3.796 0 4.958 3.547 4.853 6.14h-8.026c-.063 1.867.995 3.525 3.34 3.525 1.452 0 2.466-.705 2.779-2.095h1.742zM9.512 14.828c-.003-.002-.004-.003.001-.003l-.001.003m19.66-1.108a4.8 4.8 0 011.007 2.578h-3.137V12.35c.797.154 1.551.64 2.13 1.37m1.081 2.286a4.934 4.934 0 00-.813-2.097.299.299 0 00.12-.196.28.28 0 00-.219.06 4.948 4.948 0 00-.087-.116c-.529-.667-1.2-1.135-1.919-1.344-.01-.113-.113-.167-.174-.144a.111.111 0 00-.073.084.155.155 0 00-.035-.007.286.286 0 00-.166-.07.275.275 0 00.052.19v.015a.118.118 0 00-.105.057c-.032.054.001.161.105.193v1.538a.288.288 0 00-.186.084.283.283 0 00.186.084v1.664c-.1.027-.138.126-.113.18.02.037.052.066.113.068v.037a.285.285 0 00-.046.156.277.277 0 00.15-.04h.043c.004.056.031.088.067.105.055.028.152-.01.18-.105h1.112a.295.295 0 00.085.193.284.284 0 00.084-.193h1.267c.025.11.132.15.188.12.04-.019.067-.057.066-.12h.026c.044.028.1.047.168.047a.312.312 0 00-.045-.148c0-.015-.003-.029-.004-.044a.123.123 0 00.11-.069c.024-.06-.024-.168-.137-.182" fill="#FFF"/><path d="M28.998 13.772a.117.117 0 00-.02.1c.012.043.05.08.126.084a.287.287 0 00-.099.181.272.272 0 00.2-.046c-.017.076.01.123.05.147a.11.11 0 00.084.012c.324.528.543 1.131.636 1.75a.298.298 0 00-.142-.033.286.286 0 00.06.166h-1.06c-.004-.056-.035-.1-.072-.113-.045-.017-.095-.008-.147.052a.283.283 0 00-.084-.19.294.294 0 00-.085.19c-.049-.06-.1-.069-.145-.052-.038.012-.07.057-.073.113h-.903a.307.307 0 00.05-.162.297.297 0 00-.167.051v-1.466c.062.001.114-.032.13-.074.014-.043.007-.095-.053-.145a.287.287 0 00.19-.084.292.292 0 00-.19-.084c.06-.05.067-.103.053-.147-.016-.04-.068-.074-.13-.073v-1.244a.32.32 0 00.14.05.283.283 0 00-.033-.16c.625.194 1.216.605 1.684 1.177zm1.104 2.407a4.727 4.727 0 00-.979-2.419 4.028 4.028 0 00-.905-.845 3.29 3.29 0 00-1.049-.47l-.066-.016v3.807h3.006l-.007-.057z" fill="#FFF"/><path d="M29.51 15.578v-.004c.06-.03.106-.07.124-.117-.065.023-.113-.006-.129-.015.046-.028.101.003.048-.082-.052-.084-.089-.087-.145-.026-.052.056-.415-.016-.415-.286l.004.004a.262.262 0 00.117.099c.174.105.344.039.36-.104.012-.151-.129-.22-.285-.348a2.706 2.706 0 01-.158-.144c-.049-.105-.002-.201-.142-.393a.76.76 0 00-.045-.168.493.493 0 00.085.572c.15.164.473.324.46.466-.004.034-.035.07-.09.074-.072-.003-.144-.046-.215-.106-.01-.008-.02-.02-.03-.03h-.003c-.134-.125-.254-.308-.334-.41-.149-.191-.08-.375-.058-.534.106-.147-.064-.443-.163-.515 0 0 .022-.07-.007-.156-.02.02-.067.015-.09.014-.03-.056-.04-.067-.077-.074-.065-.01-.063-.048-.07-.071-.038.033-.05.067-.089.069-.054 0-.075-.001-.097.017-.036.03-.056.042-.112.04-.059-.001-.059.035-.054.079.004.028.006.07.044.086a.06.06 0 00.018.009l.047.056.034-.061c.025-.023.105-.031.12.026.01.04.016.05-.033.056-.052.007-.08.007-.129.009-.035 0-.033.046-.033.075.001.036.041.052.113.035.071-.018.2-.031.2.03 0 .162-.194.148-.232.343a.337.337 0 01-.107-.101.658.658 0 00-.139-.172.645.645 0 00-.136-.112c-.064-.037-.065-.068-.065-.134 0-.056.026-.11.021-.162a.28.28 0 00-.014-.05c-.01-.034-.06-.061-.087-.055.012.01.031.024.035.057a.203.203 0 00-.026.03c-.01.017-.018.039.002.057.004.005.005.007.005.01 0 .008-.004.017-.005.027-.002.01-.005.006-.006 0-.015-.04-.034-.098-.07-.101l-.027-.002.002-.008c0-.04-.047-.074-.096-.025.01.003.031.006.038.018a.367.367 0 00-.009.042c-.003.044.028.06.073.06.01 0 .012.003.014.008l.006.018c.002.01-.002.008-.008.006-.073-.033-.105.002-.106.034l.001.03c-.025.019-.032.057.017.088 0-.013-.004-.041.015-.047.004 0 .007-.002.011-.005a.066.066 0 00.02.019c.004.003.018 0 .042-.014.006-.005.01-.006.017-.001.008.005.015.009.022.015.006.003.005.008 0 .014-.048.047-.04.092.022.106-.027.054-.116.028-.11-.05-.064.099.04.177.127.139.003.038 0 .105.014.106 0-.006.005-.02.02-.02.006 0 .007.005.007.01.001.025.01.056.045.058-.006-.015-.003-.031.006-.034.016.025.033.05.046.076.04.07.125.266.32.347-.1.058-.167.144-.229.219-.054.052-.132.107-.18.077-.023-.015-.028-.033-.057-.055-.023-.017-.047-.022-.06-.017a.136.136 0 00-.034.012c-.033-.014-.086.005-.098.032.018-.004.04-.01.068.01 0 .013-.003.032-.003.035-.003.023.014.049.116.042.006-.001.018.003.012.01-.012.01-.028.023-.053.017-.044-.013-.066-.048-.096-.007-.002 0-.012.015-.022.026a.01.01 0 00-.01 0c-.04.012-.079.087-.032.12a.074.074 0 01.03-.061.19.19 0 00.02.023c.03.043.062.068.128-.032.006-.012.01-.001.008.003-.005.046-.048.11.012.12a.157.157 0 00.027.007l.001.01c.013.055.084.069.114.054a.105.105 0 01-.063-.066c.014 0 .027-.001.03-.004.036-.035-.007-.08.008-.106.007-.01.012-.007.016 0 .013.019.044.065.095.035a.08.08 0 00.043-.065c.066-.026.125-.047.173-.03-.009-.034.032-.084.103-.104.072-.02.104.002.126.024a.335.335 0 01.073-.125c-.008.284.372.278.463.444a.656.656 0 00-.314-.056c-.092.017-.255.102-.277.212-.016.086.073.24.165.303-.112.019-.148-.017-.25.01l-.009-.001c-.088.009-.1-.144-.204-.105a.161.161 0 00-.03.022c-.039-.001-.097.046-.086.088a.12.12 0 01.066-.037v.023c-.002.016.004.033.038.033.02 0 .026-.01.041-.01.007 0 .01.005.01.012 0 .039-.127-.022-.104.086l.02.032c-.005.033.022.065.08.048-.01-.008-.034-.022-.029-.041a.212.212 0 00.027.003c.005 0 .011-.004.013-.018 0-.002.001-.003.006-.003.007 0 .011.005.011.009 0 .006-.008.012-.008.023 0 .003.007.03.011.035-.005.039.052.079.11.04-.016-.002-.053-.01-.057-.028.011-.005.025-.01.026-.012.01-.007.013-.022.013-.038 0-.011.006-.011.01-.011l.028-.002c.013-.001.016.004.016.008.014.024.044.046.082.034.021-.007.031-.018.036-.03.014.01.03.019.044.03-.012-.041.018-.073.107-.014l.063-.05s.086.035.118-.002c.052-.05.025-.053.025-.096-.038-.086-.06-.076-.076-.16-.03-.14.166-.22.28-.2.024.093.15.33.36.399.131.045.185-.1.225-.078.01.003.018.015.022.03-.009.07.004.13-.01.163-.017.03-.087.005-.134.002-.027-.002-.05.017-.05.02-.04.009-.086.044-.084.089.014-.01.04-.032.071-.037l.002.019a.061.061 0 00.106.036c.003-.006.02 0 .011.008-.032.024-.09.078-.04.098l.028.014c-.003.034.022.069.052.072-.01-.017-.014-.026.004-.064h.027c.036.002.02-.07.058-.091.005-.003.01-.001.007.004-.012.039-.019.089.017.099.003 0 .017.005.03.007.01.029.05.052.098.027-.012-.004-.038-.016-.044-.031a.266.266 0 00.026-.037c.025-.083-.049-.087-.049-.122 0-.04.085-.014.085-.097v-.013c.04-.023.08-.05.082-.081a.28.28 0 01-.107-.018m-1.467-2.059s.002-.002 0 0m-2.477 4.216l-.06-.006c-.072-.005-.16.03-.167.122-.007.096.06.146.146.151l.044.003-.104.675-.667-.957c.312-.123.565-.259.7-.259.108 0 .13.052.108.27zm-1.307.15a2.73 2.73 0 00.336-.1l.792 1.136-.075.477-1.053-1.512zm.944 2.193l-1.494-2.146a1.809 1.809 0 00.368-.012l1.197 1.719-.071.44zm-1.69-2.131l1.64 2.357c-.875-.32-1.748-1.13-1.64-2.357zm2.44-.184l-.075-.006v-.072c.012-.262-.145-.457-.427-.457-.253 0-.74.325-1.42.325-.29 0-.635-.139-.852-.265l-.085.203c.002-.006.002-.015.002-.02a.169.169 0 00-.17-.17.17.17 0 00-.167.17.168.168 0 00.3.104l-.085.204c.029.012.058.026.089.037-.1 1.03.64 2.338 1.988 2.741.2-.055.429-.018.429.2 0 .134-.068.193-.188.193-.08 0-.133-.046-.133-.1 0-.09.158-.036.176-.098.019-.082-.034-.12-.127-.12-.094 0-.236.061-.236.218 0 .185.149.294.307.294.15 0 .467-.082.422-.451.073.003.154-.009.172-.08l.015-.21-.071-.008.056-2.364.052.006c.087.006.162-.035.168-.128.006-.095-.07-.14-.14-.146zm-.542-5.04s.002 0 0 0m-.388.315c-.031 0-.045-.043-.04-.07a.56.56 0 00.11.042c-.05.01-.037.028-.07.028m-.05.063c-.008.003-.006-.027-.022-.029-.015-.004-.015.01-.005.032-.023-.008-.043-.02-.051.002-.011.016-.007.03.007.044.006.008 0 .025-.006.044-.008.02-.033.05-.064.032-.033-.017-.028-.05-.018-.07.01-.019.018-.035.027-.035.02.001.03-.002.036-.02.007-.022-.012-.033-.031-.047.02-.005.03-.014.02-.022-.012-.013-.032.006-.036-.002-.003-.01.01-.018.016-.024.009-.008.018-.006.028 0l.089.043c.01.005.018.01.018.023-.002.01.003.025-.007.03m-.057-.17c-.014.024-.044.044-.07.021-.022-.023.003-.029-.024-.075a.49.49 0 00.094.054m.843.464c.33.002.495-.106.495-.21 0-.369-.911-.142-.911-.364 0-.036.027-.069.068-.099-.001 0-.002 0 0 0 .46-.033.478-.36.805-.423-.396-.055-.453.254-.621.27.092-.043.124-.15.117-.193-.082.11-.258.12-.356.244a.077.077 0 00-.017.064c-.06.037-.097.081-.097.133 0 .35.926.11.926.363 0 .087-.16.148-.414.148-.19 0-.327-.137-.681-.045 0-.06.119-.17.073-.225.034-.016.058-.042.059-.072a.122.122 0 00-.068-.03c.01-.018-.005-.036-.017-.049-.004-.006-.011-.042-.02-.05a.471.471 0 00-.081-.055c-.041-.02-.067-.02-.084-.023-.01-.004-.046.008-.052.007-.02-.002-.043-.002-.046.022a.11.11 0 00-.064-.029.13.13 0 00-.01.1c-.032.004-.067.087-.098.078.01.023.022.033.03.035-.027.05-.037.108-.07.112a.041.041 0 00.025.027 1.034 1.034 0 00-.05.21.352.352 0 00-.072-.058c-.053-.03-.051-.057-.043-.11.009-.047.039-.087.043-.13a.19.19 0 00-.01-.04c-.005-.03-.043-.053-.07-.048.012.011.026.02.024.048a.149.149 0 00-.027.023c-.012.011-.021.03-.004.046a.01.01 0 010 .01.067.067 0 01-.006.021c-.004.006-.006.002-.007 0-.007-.034-.017-.08-.05-.085h-.022a.01.01 0 00.002-.007c.006-.035-.032-.06-.083-.022.009.001.027.003.032.015a.25.25 0 00-.014.033c-.008.036.018.05.058.051.008 0 .012.003.013.007 0 .004 0 .01.002.014 0 .007-.002.005-.007.004-.063-.027-.096 0-.101.026l-.004.024c-.024.014-.036.046.004.073 0-.012.002-.034.022-.038.002-.002.005-.003.009-.004a.052.052 0 00.016.015c.004.004.016.001.04-.01.004-.004.01-.005.016 0a.46.46 0 01.017.011c.005.004.004.006 0 .011-.052.038-.051.077.008.088.007.002.008.006.008.012-.018.073-.125.058-.11-.016-.072.084.025.15.112.108.006-.003.008 0 .009.003.003.013.008.025.023.027 0-.003.007-.016.02-.014.006-.002.006.003.006.006-.002.021.002.045.03.05-.001-.016.006-.03.017-.03.01.001.036.062.084.115a1.193 1.193 0 01-.207.062c-.017 0-.124-.012-.16.007-.052.027-.18.075-.22.022-.01-.019-.006-.038-.024-.064-.012-.019-.028-.032-.042-.034-.002 0-.017-.002-.03 0-.021-.025-.07-.027-.087-.01.016.003.033.005.049.031-.007.01-.012.023-.014.027-.011.017-.004.044.077.072.003.001.012.01.004.013-.012.004-.03.008-.045-.006-.032-.024-.036-.06-.074-.037l-.024.011-.011-.002c-.035-.003-.091.041-.066.082.005-.01.018-.032.043-.038l.009.027c.009.041.026.073.112.017.008-.006.008.002.006.006-.02.035-.077.071-.033.1.002 0 .01.007.02.014-.002.002-.004.004-.004.007-.01.05.044.083.07.081a.08.08 0 01-.024-.072c.008.004.02.007.022.007.04-.016.024-.066.045-.083.009-.004.01 0 .013.007.002.02.01.066.06.061.046-.006.069-.044.065-.07-.003-.003 0-.003.004-.003.015.01.028.03.022.053a.08.08 0 00.036-.035c.01.023.013.054-.02.084.02-.006.068-.03.08-.082a.062.062 0 01.017.026c.002 0 .002-.002.004-.003a.18.18 0 00.098-.003c.005-.002.007.002.005.005-.003.02-.003.04.006.05 0-.007.012-.026.02-.026.013 0-.001.05.028.077.01-.123.079-.074.155-.123.008-.007.009-.003.008.004a.08.08 0 01-.034.04c.03 0 .095-.027.095-.07 0-.01.024-.027.05-.043.027.007.07-.009.087-.04.006.012.017.048-.002.058.082.006.166-.087.197-.094.175-.037-.108-.162.249-.142a.164.164 0 00.102-.037c-.027.053-.03.16.026.17.025.002.074.02.092.038.006.006.002.01-.003.01a.248.248 0 00-.075.018c-.084.056-.086-.125-.175-.09a.273.273 0 00-.024.016c-.037 0-.083.041-.074.08a.102.102 0 01.057-.034l-.001.02c-.002.013.003.028.032.028.018 0 .023-.01.035-.01.006 0 .01.004.01.011 0 .035-.11-.019-.09.073 0 .004.01.021.017.03-.003.027.019.054.068.04-.008-.008-.026-.02-.023-.034l.022.002c.005 0 .009-.003.012-.015 0-.004.003-.004.005-.004.005 0 .009.004.009.01 0 .003-.007.01-.007.017 0 .003.007.026.01.03-.005.034.045.068.092.035-.011 0-.044-.008-.046-.024l.02-.01c.009-.006.01-.019.01-.034.003-.007.008-.007.01-.007.007 0 .017 0 .024-.002.012-.002.015.002.016.006.01.02.035.04.069.028.06-.022.01-.072.057-.083a.073.073 0 01.036 0c.046.012.116.011.128-.013.01-.02.007-.106-.045-.136-.03-.012.003-.049-.026-.092a.422.422 0 00.175.043c.128 0 .006-.02.063-.052.062-.042.134-.02.154-.016.017.001.029.008.025.031-.015.066.007.072-.008.101-.012.027-.067.006-.104.004a.051.051 0 00-.04.016c-.031.007-.068.037-.067.074.01-.008.03-.027.057-.03a.089.089 0 01.002.014c.005.043.054.06.083.03.003-.006.016 0 .009.005-.024.02-.072.064-.033.08l.023.012c-.002.028.019.055.04.06-.008-.015-.01-.024.004-.055l.024.001c.026.002.013-.056.045-.073.003-.003.007-.002.005.002-.01.033-.017.071.014.081a.152.152 0 00.022.005c.007.026.04.043.078.024-.01-.004-.03-.014-.035-.028a.168.168 0 00.02-.03c.02-.069-.038-.069-.038-.097 0-.035.067-.013.067-.08a.043.043 0 00-.028-.042c-.003-.002-.003-.003-.002-.005.019 0 .038.006.049-.02-.05.002-.035-.04-.042-.068-.002-.005-.002-.007.002-.012.016-.012.029-.032.022-.073-.015.023-.071.05-.077.002-.002-.002-.005-.034-.055-.026-.084.008-.126-.036-.285-.049-.008-.002-.017-.01 0-.012m-1.447 1.573l.002-.004c0 .003 0 .003-.002.004zm-.254-.54c.01-.021.02-.038.03-.038.022 0 .035-.005.04-.024.01-.024-.012-.035-.034-.05.023-.006.034-.016.023-.026-.015-.013-.036.008-.04-.004-.006-.01.01-.017.018-.024.009-.01.018-.006.03 0l.098.045c.014.007.02.013.02.027 0 .01.005.029-.006.032-.011.002-.01-.03-.028-.032-.014-.003-.014.013-.004.034-.025-.006-.045-.018-.057.004-.011.018-.007.032.008.049.008.009 0 .027-.008.049-.008.023-.035.053-.07.036-.036-.02-.031-.058-.02-.078zm.114-.25c-.014.028-.048.05-.075.024-.026-.024.003-.032-.03-.083a.397.397 0 00.105.059zm.076.04a.5.5 0 00.12.047c-.055.012-.042.033-.077.033-.036-.003-.048-.05-.043-.08zm-.485.278c-.034-.028-.076-.08-.135-.116-.06-.034-.06-.065-.055-.127.002-.054.029-.104.029-.154 0-.005-.01-.032-.013-.047-.006-.033-.052-.06-.08-.054.015.01.03.023.032.055l-.028.029c-.011.014-.017.035 0 .054.005.003.005.006.005.01 0 .008-.004.014-.007.026-.002.008-.005.005-.007-.001-.01-.038-.026-.093-.06-.096-.002 0-.018-.003-.025 0l.002-.008c.002-.04-.04-.071-.09-.024.01 0 .03.003.037.017a.252.252 0 00-.012.039c-.004.042.023.057.066.057.009 0 .012.003.014.008l.004.016c.003.009-.002.007-.006.005-.07-.03-.101.002-.104.033v.029c-.027.017-.035.054.01.083 0-.013-.001-.037.018-.044l.01-.003a.075.075 0 00.019.016c.004.003.016 0 .04-.013.007-.003.01-.005.017-.002l.019.015c.005.003.004.008 0 .013-.05.046-.044.09.017.1.009.003.01.008.01.015-.01.086-.123.07-.114-.017-.068.1.04.176.127.127.006-.004.008-.003.01.003.005.015.012.029.028.032-.001-.006.005-.02.019-.02.006 0 .006.004.006.009 0 .023.007.053.039.055-.004-.016.002-.034.012-.034.016 0 .054.067.123.107.059.026.097.088.135.049-.006.059.05.128.038.128-.02 0-.178-.011-.218.01-.058.03-.2.083-.241.023-.016-.02-.01-.04-.03-.071-.012-.021-.032-.036-.046-.038h-.033c-.024-.025-.076-.028-.097-.01.016.004.038.006.054.036-.007.009-.013.026-.015.028-.011.019-.006.05.087.08.002.002.01.01.003.015a.044.044 0 01-.05-.008c-.036-.025-.04-.066-.082-.041l-.03.014a.019.019 0 00-.008-.003c-.04-.004-.101.045-.073.09a.067.067 0 01.048-.04l.008.03c.01.046.029.082.124.018.01-.007.01.002.007.007-.022.039-.085.077-.035.108l.02.019c-.002.002-.003.003-.004.007-.01.053.05.093.079.09-.012-.013-.036-.041-.03-.081a.063.063 0 00.027.008c.045-.018.025-.073.05-.09.008-.004.014-.001.014.006.003.022.012.074.067.068.05-.006.075-.047.07-.076 0-.004 0-.005.005-.004.018.01.033.03.027.057a.098.098 0 00.039-.038c.01.024.014.059-.022.093.02-.007.075-.033.088-.091a.08.08 0 01.019.03l.005-.005c.018.007.053.01.108-.003.005-.001.006.002.006.007-.005.022-.005.043.006.055 0-.008.014-.03.022-.03.015 0-.001.054.03.086.012-.137.088-.082.173-.138.01-.005.01-.002.008.005a.074.074 0 01-.037.046c.096.02.243-.123.265-.183.04-.005.073-.01.092-.008.27.024.082-.244.517-.168.028.004.08-.026.106-.05-.033.059-.034.177.027.188a.252.252 0 01.103.043c.005.006 0 .009-.004.01a.32.32 0 00-.084.02c-.091.063-.095-.138-.193-.1a.082.082 0 00-.027.02c-.04 0-.093.045-.083.087a.118.118 0 01.064-.037c-.002.01-.002.02-.002.022-.003.015.003.032.037.032.02 0 .024-.011.038-.011.005 0 .01.004.01.012 0 .037-.121-.021-.1.08.003.003.014.025.019.033-.002.03.022.062.076.042-.01-.005-.03-.02-.025-.034l.024.002c.005 0 .01-.005.014-.017 0-.004 0-.005.006-.005s.009.005.009.009c0 .006-.006.013-.006.02 0 .003.005.03.009.033-.005.039.05.078.104.04-.015-.003-.05-.01-.054-.027l.026-.01c.008-.008.012-.022.012-.038 0-.007.005-.01.009-.01h.026c.012-.002.016.003.018.005a.06.06 0 00.077.032c.065-.022.009-.08.062-.091a.085.085 0 01.039 0c.05.013.129.01.142-.012.014-.027.007-.12-.05-.152-.032-.016.004-.056-.028-.103a.475.475 0 00.195.047c.14 0 .177-.02.24-.06.069-.042.149-.02.17-.016.019.003.033.01.027.034-.014.074.008.08-.008.115-.012.028-.075.004-.116.002-.024-.002-.042.015-.043.019-.037.007-.076.04-.076.08.013-.01.037-.03.067-.034v.017c.004.05.06.067.092.033.004-.005.018 0 .01.007-.028.022-.08.07-.037.087l.026.014c-.003.03.02.063.045.066-.008-.016-.01-.026.004-.062a.13.13 0 00.024.002c.03.003.016-.061.05-.08.006-.004.009-.001.007.002-.01.036-.017.08.014.09l.026.006c.01.026.044.047.087.026-.01-.004-.034-.016-.04-.031a.183.183 0 00.025-.033c.022-.075-.042-.076-.042-.11 0-.036.072-.01.072-.088a.05.05 0 00-.031-.046c-.003-.001-.003-.003-.002-.005v.002c.02-.002.044.004.053-.027-.054.006-.038-.041-.046-.072 0-.006 0-.01.003-.013.019-.012.032-.037.026-.081-.018.025-.08.056-.087.003 0-.003-.004-.041-.061-.028-.091.008-.16-.012-.337-.028.205 0 .502-.051.502-.166 0-.096-.104-.156-.413-.156-.31 0-1.006.115-1.006-.058 0-.087.136-.08.3-.07.012.015.032.028.067.037.398.115.867-.095 1.108-.026-.283-.216-.52.008-.823-.057.178 0 .237-.052.247-.1-.14.09-.4-.044-.561.056a.1.1 0 00-.025.02c-.221-.007-.398-.007-.398.14 0 .308.829.128 1.087.128.26 0 .315.026.315.075 0 .073-.258.093-.403.093-.225 0-.902-.118-1.313-.035.033-.068.106-.154.065-.203.04-.016.064-.046.067-.078a.153.153 0 00-.076-.035c.01-.018-.004-.04-.02-.056-.003-.002-.013-.046-.021-.053-.015-.012-.045-.038-.09-.06-.045-.023-.075-.023-.093-.028-.012-.002-.052.01-.057.01-.021-.004-.047-.004-.05.02a.153.153 0 00-.073-.03.16.16 0 00-.01.113c-.036.002-.077.097-.11.086.014.026.025.036.035.039-.03.054-.044.12-.078.122.022.029.038.043.05.045-.005.043-.006.084-.008.12l-.065-.025-.055-.02zm.148 1.093c-.036 0-.05-.048-.043-.08a.526.526 0 00.12.048c-.055.012-.042.034-.077.032m-.055.069c-.008.002-.007-.03-.025-.034-.016-.001-.016.015-.005.037-.024-.008-.047-.02-.059.002-.009.02-.005.033.008.05.01.008.002.027-.007.049-.008.022-.036.055-.069.035-.036-.02-.03-.057-.02-.079.01-.02.02-.035.03-.035.021 0 .033-.005.04-.025.01-.025-.014-.035-.034-.05.022-.006.034-.017.022-.028-.013-.012-.037.009-.04-.001-.005-.011.012-.018.02-.025.007-.01.016-.006.03 0l.097.046c.011.008.02.01.02.024-.002.013.004.03-.008.034m-.063-.187c-.016.027-.049.05-.075.024-.027-.027.003-.032-.03-.083.032.019.088.056.105.06m.168.82a.41.41 0 00.048-.01c-.002.002-.004.018-.006.018.09.006.08-.082.115-.075.505.066.215-.219.812-.16.027.002.04-.015.064-.036-.03.057-.032.153.028.164.028.006.083.023.103.045.006.006.002.01-.004.01a.315.315 0 00-.084.02c-.09.06-.094-.137-.19-.098-.007.002-.022.013-.029.018-.04 0-.093.046-.082.087a.093.093 0 01.063-.035v.019c-.004.017.002.033.034.033.02 0 .025-.011.04-.011a.01.01 0 01.01.01c0 .038-.12-.02-.099.084a.22.22 0 00.02.03c-.005.03.02.06.074.045-.01-.007-.03-.021-.026-.038a.129.129 0 00.025.002c.005 0 .011-.003.013-.016 0-.003.001-.005.005-.005.005.003.01.005.01.01s-.007.01-.007.022c0 .003.006.028.01.032-.006.038.05.076.104.039-.015-.001-.05-.01-.053-.028l.023-.01c.01-.006.013-.02.013-.037.001-.01.006-.01.01-.01l.026-.001c.012-.002.016.003.018.008a.06.06 0 00.076.032c.065-.023.01-.08.062-.092a.068.068 0 01.04 0c.053.012.128.01.142-.014.014-.026.007-.118-.05-.151-.03-.015.003-.055-.028-.104a.462.462 0 00.193.049c.143 0 .178-.02.241-.06.071-.042.15-.021.171-.018.02.002.034.012.028.037-.015.074.008.08-.008.113-.014.029-.075.006-.116.002-.026-.001-.043.014-.043.02-.037.008-.077.037-.075.08a.126.126 0 01.062-.034c0 .007.002.014.003.016.004.05.06.065.092.031.005-.004.017 0 .01.007-.027.023-.08.072-.038.09.003 0 .015.008.026.013-.002.03.021.061.045.067-.007-.017-.01-.028.004-.06h.025c.031.001.017-.062.051-.083.005-.002.008 0 .007.002-.012.037-.019.081.013.091a.314.314 0 00.026.008c.01.025.044.047.088.024-.01-.005-.035-.017-.039-.03a.317.317 0 00.022-.033c.022-.076-.042-.078-.042-.108 0-.038.073-.013.073-.09 0-.012-.006-.037-.03-.046-.004-.003-.004-.005-.003-.005.021 0 .042.006.054-.023-.056.002-.038-.044-.046-.075 0-.005-.002-.008.003-.013.016-.013.031-.038.024-.08-.016.025-.078.056-.086.002-.002-.002-.006-.038-.06-.029-.093.01-.159-.009-.337-.026.178-.014.502-.05.502-.167 0-.094-.105-.154-.413-.154-.31 0-1.263.113-1.263-.06 0-.11.323-.067.56-.06.01.018.032.034.068.044.397.112.815-.154 1.101-.059-.227-.203-.519.023-.82-.04.176-.002.361-.036.372-.085-.137.09-.525-.06-.686.042a.105.105 0 00-.028.022c-.292-.004-.652-.04-.652.136 0 .31 1.083.127 1.343.127.261 0 .315.027.315.076 0 .075-.258.092-.404.092-.24 0-1.253-.134-1.657-.012.023-.069.121-.17.076-.223.036-.017.063-.047.065-.08a.14.14 0 00-.075-.035c.011-.018-.005-.039-.019-.055-.004-.003-.012-.046-.022-.053-.016-.011-.046-.04-.09-.062-.047-.022-.076-.022-.093-.025-.01-.003-.05.01-.056.01-.023-.005-.049-.005-.053.022a.108.108 0 00-.07-.03.14.14 0 00-.01.11c-.037.002-.077.095-.11.084.012.026.023.038.033.04-.029.055-.042.12-.076.122a.184.184 0 00.032.037.602.602 0 00-.01.095l-.033-.012-.05-.003a.635.635 0 00-.05-.008c-.049-.004-.085-.084-.169-.133-.06-.033-.062-.065-.062-.127 0-.055.025-.103.022-.154l-.014-.046c-.012-.035-.057-.06-.083-.054a.07.07 0 01.033.056.155.155 0 00-.025.028c-.01.013-.015.035.002.052.004.005.005.007.005.013a.06.06 0 01-.005.023c-.002.011-.005.004-.006 0-.014-.039-.032-.093-.067-.095-.003 0-.017-.004-.023-.002l.001-.008c0-.04-.044-.07-.092-.024.011.002.03.005.037.017a.324.324 0 00-.01.04c-.003.041.028.057.072.057.006 0 .01.005.012.008a.12.12 0 00.005.017c.003.006-.002.006-.006.005-.07-.03-.1.001-.102.033 0 .002 0 .02.002.027-.027.02-.032.056.014.083 0-.01-.002-.037.015-.042.004 0 .007-.003.01-.005.008.01.018.016.018.02.007.001.02 0 .042-.016.005-.004.01-.004.017 0l.02.013c.005.004.004.007.001.012-.048.046-.04.091.023.101.008.005.01.008.01.014-.005.09-.12.071-.116-.016-.06.1.05.175.135.125.006-.003.008 0 .01.003.003.018.014.03.028.033a.02.02 0 01.02-.018c.004-.002.004.003.006.01.001.021.01.05.042.056-.006-.02 0-.037.01-.037.017 0 .08.12.205.188.022-.006.058-.006.07-.036.002.01.012.021.027.03.004.057.043.13.03.13-.018 0-.216-.01-.256.013-.059.03-.2.083-.242.023-.014-.021-.009-.04-.028-.071-.015-.021-.033-.035-.047-.036-.002-.002-.019-.002-.033-.002-.024-.026-.077-.028-.097-.012.017.004.037.008.055.037-.007.01-.014.025-.016.028-.012.02-.005.05.084.08.006.003.014.01.007.014a.048.048 0 01-.05-.004c-.035-.03-.04-.067-.083-.043-.003 0-.015.008-.028.013-.003-.002-.007-.002-.012-.003-.038-.003-.098.044-.072.093a.068.068 0 01.05-.041l.01.027c.005.047.027.083.122.019.01-.005.01.004.006.007-.02.037-.085.079-.036.109a.51.51 0 00.022.016l-.004.009c-.009.052.047.093.078.09-.013-.014-.035-.042-.028-.081.01.005.023.012.026.008.045-.017.024-.072.051-.09.006-.005.011 0 .011.007.004.022.013.073.07.067.05-.004.074-.047.068-.076 0-.003.001-.006.006-.003a.055.055 0 01.027.056.108.108 0 00.04-.04.082.082 0 01-.025.095.125.125 0 00.09-.092.097.097 0 01.018.03l.004-.003a.218.218 0 00.108-.003c.006-.001.008.002.007.005-.004.02-.004.044.006.055.001-.004.013-.027.023-.027.015 0-.002.054.03.085.012-.136.173-.068.26-.123.01-.007.01-.004.007.004a.088.088 0 01-.036.045.206.206 0 00.096-.034c.058-.023.16-.067.152-.103m3.714 1.286c.011-.022.02-.039.031-.039.022.001.033-.004.04-.026.01-.023-.013-.033-.035-.047.023-.007.034-.017.023-.027-.015-.013-.037.008-.04-.002-.005-.01.01-.018.02-.025.007-.01.016-.007.028 0l.098.046c.013.006.021.012.021.026 0 .01.003.027-.007.031s-.009-.028-.028-.033c-.014-.002-.014.014-.004.036-.025-.007-.046-.018-.058.004-.009.02-.007.032.01.048.005.01 0 .028-.008.05-.009.022-.038.053-.07.034-.037-.018-.03-.057-.02-.077m.114-.249c-.016.028-.049.051-.077.025-.025-.026.002-.033-.029-.085.03.022.09.06.106.06m.074.04a.6.6 0 00.122.047c-.056.012-.042.033-.079.032-.035-.003-.049-.049-.043-.079m2.232.576c0-.005 0-.01.004-.013.02-.012.034-.038.032-.082-.019.027-.085.057-.087.004 0-.002-.002-.04-.058-.028-.093.007-.184-.012-.36-.029-.01 0-.019-.008 0-.01.215-.014.502-.04.502-.155 0-.096-.105-.156-.414-.156-.31 0-1.26.113-1.26-.06 0-.11.32-.066.556-.059.012.018.033.033.07.042.4.115.852-.183 1.094-.114-.313-.11-.512.08-.813.015.177 0 .362-.035.373-.08-.14.087-.525-.062-.688.038a.089.089 0 00-.026.025c-.294-.005-.654-.04-.654.133 0 .308 1.085.128 1.345.128s.316.027.316.077c0 .073-.259.092-.405.092-.242 0-1.255-.135-1.657-.012.022-.069.121-.172.074-.225.038-.016.064-.046.066-.08a.136.136 0 00-.077-.033c.013-.019 0-.039-.017-.055-.005-.005-.013-.046-.023-.054-.014-.012-.044-.038-.09-.062-.044-.022-.075-.02-.09-.026-.014-.003-.054.01-.059.01-.022-.004-.048-.004-.052.023a.124.124 0 00-.07-.033.164.164 0 00-.01.113c-.037.002-.076.095-.11.086.014.025.023.036.033.038-.029.055-.042.12-.077.123.022.03.038.043.051.045-.005.031-.006.063-.008.092l-.053-.017-.05-.003c-.013-.003-.03-.007-.05-.009-.049-.004-.085-.084-.168-.13-.06-.037-.062-.067-.062-.13 0-.055.025-.103.022-.15a.997.997 0 00-.017-.052c-.01-.03-.056-.059-.082-.052a.07.07 0 01.033.054.19.19 0 00-.023.03c-.012.015-.017.035.002.051a.02.02 0 01.004.012c0 .008-.003.016-.004.026-.002.01-.006.005-.008 0-.013-.039-.03-.094-.063-.096a.064.064 0 00-.028-.002c.002-.003.002-.006.002-.007 0-.039-.043-.07-.09-.025.011.002.03.003.036.017-.004.012-.008.038-.01.041-.002.04.027.056.07.056.008 0 .014.004.015.01a.038.038 0 00.005.013c.001.01-.002.008-.006.007-.072-.03-.102.001-.104.033l.001.03c-.023.015-.03.053.017.081 0-.01-.004-.038.014-.044.004 0 .007-.002.01-.004a.054.054 0 00.02.017c.006.005.015.002.042-.014.004-.003.007-.003.014 0a.105.105 0 00.022.014c.005.005.004.01 0 .012-.047.046-.039.091.022.102.01.001.011.007.011.014-.006.088-.122.071-.115-.016-.064.1.05.175.133.124.005-.003.01 0 .011.005.003.014.014.03.03.03-.002-.005.003-.017.016-.017.007 0 .007.004.007.008.002.024.01.052.042.057-.006-.019 0-.036.011-.036.016 0 .073.128.198.198-.003-.01.05-.032.077-.046.005.023.018.047.042.058l.023-.013c-.009.06.061.12.048.12-.019 0-.138-.016-.176.007-.06.031-.2.083-.244.024-.013-.02-.01-.04-.028-.07-.013-.024-.03-.038-.046-.04h-.033c-.024-.024-.076-.028-.099-.01.02.002.04.007.055.036l-.015.028c-.012.02-.004.05.085.081.005.001.014.01.007.013-.014.006-.033.01-.05-.006-.037-.026-.042-.067-.084-.04a.145.145 0 00-.027.011c-.004 0-.007-.002-.01-.003-.04-.003-.1.046-.074.092.005-.01.021-.036.05-.04l.007.027c.01.048.03.082.124.02.011-.007.01.002.007.006-.023.04-.085.08-.035.108 0 .001.01.011.02.016-.002.005-.004.007-.004.011-.009.053.05.092.078.091-.01-.016-.033-.043-.029-.082.012.006.024.01.027.008.046-.018.025-.073.051-.09.008-.006.011 0 .011.006.005.023.013.074.068.068.052-.006.076-.047.07-.076 0-.005.001-.006.006-.005.02.013.034.032.027.058a.102.102 0 00.04-.039c.01.026.011.06-.023.095.021-.008.074-.034.088-.094a.16.16 0 01.02.031c.002 0 .002-.002.003-.004a.21.21 0 00.107-.002c.007-.002.008.001.007.006-.004.02-.004.044.007.054 0-.006.014-.029.022-.029.015 0-.002.053.031.086.012-.137.085-.082.171-.138.011-.007.011-.004.01.005a.081.081 0 01-.039.046c.031.024.158-.055.158-.104 0-.015.047-.019.088-.027.088.005.077-.066.113-.06.506.066.215-.218.81-.162.03.003.043-.032.067-.055-.03.056-.033.176.028.187a.245.245 0 01.103.042c.005.007 0 .01-.004.012a.215.215 0 00-.085.021c-.09.061-.095-.14-.192-.103a.126.126 0 00-.026.021c-.04 0-.094.046-.083.085a.109.109 0 01.062-.035v.02c-.003.016.004.032.036.032.02 0 .024-.01.038-.01.006 0 .01.005.01.011 0 .04-.12-.02-.099.082 0 .004.013.023.02.032-.005.031.02.061.075.045-.012-.009-.03-.02-.026-.039.011.002.021.002.025.004.004 0 .01-.005.012-.019 0-.002.002-.004.007-.003.006.001.01.005.01.01 0 .006-.008.012-.008.021 0 .002.006.03.01.033-.005.036.05.076.105.038-.016-.002-.05-.009-.055-.027l.026-.01c.008-.007.011-.02.011-.037 0-.01.005-.01.01-.01l.026-.002c.012 0 .015.004.018.008.012.023.04.044.077.031.065-.023.008-.079.062-.092a.17.17 0 01.04 0c.052.013.127.012.14-.013.015-.025.008-.118-.049-.15-.032-.016.004-.056-.027-.103a.462.462 0 00.194.047c.14 0 .185-.02.253-.059.073-.045.151-.022.172-.018.017.002.031.011.024.034-.02.075.001.082-.017.116-.016.027-.075.004-.119.002-.022-.002-.042.015-.044.02-.036.006-.079.038-.08.08a.146.146 0 01.065-.035v.016c.002.05.055.067.09.033.004-.005.02 0 .011.008-.032.021-.088.068-.046.087l.025.015c-.006.03.014.06.04.064-.008-.016-.009-.026.006-.059h.027c.03.002.021-.062.057-.08.006-.004.01-.003.006.002-.014.035-.024.08.007.09l.025.006c.006.026.04.047.085.025-.01-.004-.033-.016-.036-.029a.227.227 0 00.025-.034c.03-.076-.036-.078-.03-.109 0-.037.072-.012.08-.089a.047.047 0 00-.029-.046l-.002-.004h.001c.022 0 .042.005.055-.025-.055.004-.033-.042-.039-.073m-2.438.859c.01-.02.02-.037.03-.037.018.002.032-.003.037-.02.009-.026-.014-.034-.034-.049.023-.006.034-.015.023-.025-.015-.013-.035.008-.038-.003-.006-.01.01-.016.015-.023.01-.01.018-.008.03 0l.095.044c.01.006.018.01.017.024 0 .008.005.028-.006.031-.01.004-.008-.027-.024-.03-.016-.004-.014.011-.005.034-.024-.008-.046-.02-.055.001-.01.018-.006.031.008.047.007.008 0 .026-.008.046-.008.022-.034.051-.066.035-.036-.019-.032-.055-.02-.075m.108-.237c-.013.026-.045.048-.07.024-.026-.026.002-.033-.029-.079.03.02.084.053.1.055m.072.036a.48.48 0 00.114.046c-.053.011-.04.032-.072.031-.035 0-.047-.047-.043-.077m.89-.015c.008.02.03.036.07.05.38.108.813-.176 1.043-.11-.3-.105-.488.075-.774.015.166-.002.345-.033.354-.079-.13.085-.5-.059-.655.038a.066.066 0 00-.022.02c-.159-.006-.38-.01-.38.132 0 .293.788.121 1.034.121.19 0 .22.025.22.072 0 .07-.284.087-.422.087-.216 0-.86-.11-1.252-.033.032-.064.103-.146.065-.192.035-.015.06-.045.061-.076a.148.148 0 00-.073-.032c.012-.017-.003-.038-.017-.052-.005-.004-.012-.045-.02-.052-.015-.01-.043-.037-.087-.056-.043-.022-.07-.022-.088-.027-.01-.002-.049.01-.053.01-.021-.004-.047-.004-.05.021a.117.117 0 00-.067-.029.146.146 0 00-.01.105c-.037.002-.072.091-.105.081.012.025.023.035.032.037-.027.054-.04.116-.073.118a.17.17 0 00.03.033.484.484 0 00-.018.112l-.035-.012c-.006 0-.01 0-.015-.002-.046-.003-.075.002-.154-.044-.058-.033-.06-.062-.06-.123 0-.05.023-.097.02-.145a.453.453 0 00-.012-.044c-.012-.034-.055-.059-.08-.05a.061.061 0 01.03.051.278.278 0 00-.023.025c-.008.016-.014.035 0 .053.006.003.008.006.008.011a.113.113 0 01-.005.024c-.003.01-.005.003-.006 0-.011-.037-.03-.09-.063-.093-.003 0-.018-.002-.024 0 0-.003.003-.005.003-.009 0-.038-.043-.068-.087-.02.009.001.026.004.034.014-.002.012-.01.034-.01.038-.003.04.026.054.067.055.008 0 .01.002.014.006a.055.055 0 00.005.018c.002.007-.002.005-.006.004-.067-.029-.096.001-.098.031 0 .002 0 .02.002.027-.023.017-.03.05.014.08 0-.013-.002-.037.015-.043l.009-.003c.005.006.017.013.018.015.006.004.017.001.038-.013a.025.025 0 01.017 0 .157.157 0 00.018.012c.006.005.005.008.002.012-.046.044-.038.088.023.097.007.003.009.008.009.015-.005.082-.116.066-.11-.016-.06.095.047.166.128.12.005-.005.006 0 .009.001.005.017.012.031.026.031 0-.004.006-.018.018-.018.006 0 .008.005.008.01 0 .02.008.05.038.052-.003-.016 0-.033.011-.033.015 0 .014-.036.116.02a.066.066 0 00.036.04l.075-.013c-.01.057.008.144-.006.144-.017 0-.13-.014-.168.006-.056.03-.19.078-.23.023-.015-.02-.01-.037-.03-.067a.067.067 0 00-.041-.036h-.032c-.023-.025-.072-.027-.095-.01a.069.069 0 01.053.032l-.015.028c-.01.02-.005.047.082.077.003.002.011.011.005.014a.045.045 0 01-.047-.007c-.034-.025-.04-.063-.08-.04l-.027.014a.018.018 0 00-.01-.004c-.037-.003-.095.044-.07.088.006-.01.021-.036.048-.039l.01.026c.006.046.024.08.115.02.01-.007.01.002.008.005-.02.037-.08.074-.035.104 0 .001.01.01.02.016a.023.023 0 00-.004.01c-.009.047.046.087.075.084a.092.092 0 01-.027-.075c.01.002.023.008.026.006.042-.016.023-.07.047-.086.008-.004.01-.002.012.006.003.021.012.07.064.065.05-.005.073-.045.067-.073-.002-.003.002-.006.006-.003.017.01.03.03.024.055.01-.006.03-.019.037-.038a.077.077 0 01-.02.09c.02-.007.072-.03.082-.087a.083.083 0 01.02.027l.005-.006c.018.008.05.013.102 0 .006-.002.006 0 .006.004-.005.021-.005.042.006.054 0-.006.012-.028.02-.028.015 0 0 .051.03.082.012-.129.115-.098.197-.152.01-.006.01-.004.008.004-.005.015-.015.034-.034.043.087.054.18-.066.203-.133a.075.075 0 00.026-.025c.005.013.006.027-.015.038.085.007.075-.06.108-.059.259.025.06-.213.476-.143.027.005.077-.023.1-.044-.03.054-.032.168.027.176a.302.302 0 01.098.04c.005.007 0 .01-.005.01a.272.272 0 00-.079.02c-.088.06-.09-.13-.184-.096a.146.146 0 00-.024.02c-.04 0-.09.044-.081.083a.118.118 0 01.06-.036c0 .01 0 .02-.002.022 0 .014.005.03.037.03.018 0 .023-.009.035-.009.007 0 .011.004.011.01 0 .036-.114-.019-.097.078.003.002.014.021.02.028-.003.03.02.06.072.043-.01-.006-.028-.02-.024-.035.008.002.02.002.023.002.005.001.01-.004.012-.015 0-.004.002-.005.006-.005.005.001.01.005.01.01 0 .004-.006.01-.006.02 0 .002.004.028.008.031-.005.035.047.072.1.037-.015-.002-.05-.008-.052-.026a.135.135 0 01.026-.01c.008-.007.009-.02.009-.035 0-.009.005-.01.01-.01l.024-.002c.01 0 .015.003.017.008a.058.058 0 00.074.03c.06-.022.008-.077.058-.086a.08.08 0 01.038-.002c.049.013.122.011.136-.012.014-.025.006-.113-.049-.144-.03-.016.005-.053-.026-.098a.45.45 0 00.184.045.498.498 0 00.267-.056c.076-.042.146-.022.168-.017.015.003.027.01.015.032-.032.07-.01.078-.035.11-.02.025-.073.004-.111.002a.062.062 0 00-.046.02c-.037.004-.085.035-.093.075a.174.174 0 01.072-.032c-.002.006-.002.014-.002.015-.009.048.04.064.078.031.005-.006.017 0 .009.007-.034.022-.093.066-.058.085.002.001.01.007.02.011-.01.03.005.06.029.064-.006-.016-.006-.026.017-.057l.024.001c.026.001.03-.06.069-.078.005-.002.009 0 .005.003-.02.034-.038.076-.01.086.003 0 .014.003.023.003.003.028.03.047.076.026-.008-.004-.027-.015-.029-.028a.221.221 0 00.03-.03c.04-.075-.021-.075-.011-.106.008-.035.072-.012.09-.083.004-.013.004-.037-.018-.047-.002-.002-.002-.002-.001-.004.02 0 .04.006.058-.02-.056.003-.026-.045-.026-.07 0-.006 0-.01.006-.015.02-.01.038-.036.043-.076-.023.024-.088.051-.082.002 0-.002.006-.037-.052-.027-.09.007-.22-.01-.386-.026-.012 0-.02-.009 0-.01.168-.014.517-.028.517-.164 0-.062-.041-.148-.316-.133-.294.014-.957.111-.957-.055 0-.085.181-.072.282-.066m-.967 1.329c-.03 0-.045-.044-.038-.072a.525.525 0 00.108.043c-.049.01-.037.03-.07.029m-.048.062c-.009.002-.008-.025-.023-.03-.014-.002-.014.012-.005.032-.022-.007-.042-.017-.053.003-.009.018-.006.029.01.044.006.008 0 .025-.008.046-.008.019-.033.048-.064.03-.03-.018-.027-.051-.018-.07.011-.02.018-.034.028-.034.02.002.03-.004.036-.022.008-.021-.013-.031-.03-.044.021-.006.03-.014.02-.024-.014-.013-.034.008-.036-.002-.005-.01.01-.017.015-.023.01-.01.018-.006.03 0l.085.04c.012.008.02.013.02.025 0 .009.003.026-.007.029m-.057-.168c-.015.024-.044.045-.068.02-.023-.023.001-.03-.027-.075.027.02.08.05.095.055m.78 0c.007.019.028.039.07.05.378.108.811-.177 1.041-.111-.299-.103-.486.078-.773.017.168-.001.344-.035.354-.08-.13.084-.5-.058-.655.039a.07.07 0 00-.029.027c-.119.027-.217.09-.217.174 0 .112.141.143.41.133.265-.011.56-.044.56.005 0 .066-.19.129-.445.129-.193 0-.527-.13-.948-.023v-.004c.03-.072.12-.18.081-.227.033-.013.056-.04.057-.07a.122.122 0 00-.068-.031c.012-.017-.003-.035-.016-.048-.003-.003-.01-.043-.02-.05-.013-.011-.04-.036-.08-.055-.042-.02-.068-.018-.086-.024-.01-.001-.047.009-.05.009-.019-.003-.043-.003-.048.02a.103.103 0 00-.063-.028.125.125 0 00-.009.1c-.034.002-.067.087-.098.078.01.023.02.033.031.034-.028.05-.039.11-.072.113.014.018.026.03.036.035a.642.642 0 00-.018.236c-.058-.061-.148-.202-.207-.237-.056-.031-.057-.058-.057-.114 0-.05.022-.093.02-.14a.324.324 0 00-.015-.042c-.008-.03-.049-.055-.072-.048a.07.07 0 01.03.05c-.01.008-.02.023-.023.025-.01.014-.015.032.002.048.002.004.002.006.002.01v.023c-.004.009-.006.004-.008 0-.013-.035-.029-.084-.06-.087-.003 0-.016-.002-.023-.001l.001-.008c0-.033-.038-.063-.082-.02.011.002.028.005.034.014a.255.255 0 00-.008.037c-.004.036.024.05.062.05.007 0 .013.004.013.008 0 .006.002.01.004.016.001.007-.002.006-.004.003-.066-.027-.092.003-.093.03 0 .002-.002.019.001.026-.022.016-.028.048.014.076 0-.013-.003-.036.012-.04l.01-.005.016.017c.006.004.018 0 .04-.014.002-.002.005-.003.012 0l.02.012a.008.008 0 01.001.01c-.044.044-.036.083.02.095.008 0 .01.005.01.012-.007.079-.11.063-.105-.016-.057.09.044.16.121.113.005-.003.006-.001.007.004.005.015.014.026.028.028 0-.005.004-.017.017-.017.004 0 .005.004.005.008.001.02.01.047.038.05-.005-.015 0-.03.01-.03.015 0-.002.12.111.186a.126.126 0 00.135.097c.02.046.047.09.04.09-.017 0-.15-.013-.188.005a.425.425 0 01-.102.038l-.022.006c-.04.007-.075.004-.093-.022-.013-.018-.009-.037-.025-.063-.013-.021-.03-.034-.042-.035l-.032-.001c-.019-.021-.068-.024-.087-.008.017.002.035.005.05.03a1.071 1.071 0 01-.014.029c-.01.015-.003.043.078.073.004 0 .01.008.004.01-.012.005-.03.008-.046-.005-.03-.025-.036-.061-.075-.038l-.024.012c-.003-.001-.007-.004-.01-.004-.036-.003-.09.042-.066.085a.07.07 0 01.045-.04c.002.012.007.023.007.027.007.044.026.076.111.019.01-.006.01.002.008.006-.02.034-.079.07-.033.097l.018.015-.003.009c-.008.048.043.083.071.08-.01-.012-.033-.037-.026-.071a.168.168 0 00.026.006c.04-.016.02-.065.042-.082.007-.003.011-.001.012.007.002.019.011.066.062.06.045-.003.068-.043.064-.07-.002-.001 0-.004.004-.001a.046.046 0 01.024.05.104.104 0 00.035-.034c.008.023.012.054-.02.084a.113.113 0 00.078-.082.05.05 0 01.018.026l.006-.004c.014.007.047.01.094-.001.006-.002.007 0 .007.004-.004.019-.004.04.005.05.001-.005.014-.025.021-.025.014 0 0 .046.027.077.012-.123.08-.074.155-.124.01-.005.01-.003.008.003a.072.072 0 01-.032.04c.03.002.116-.038.116-.083 0-.016.056-.066.071-.211a.18.18 0 00.033 0c.102-.008.15-.084.253-.09-.025.03-.035.1-.033.148.004.059.074.119.094.137.004.006.001.009-.004.009a.257.257 0 00-.076.019c-.082.056-.085-.123-.174-.09a.104.104 0 00-.023.018c-.036-.001-.084.04-.075.079a.084.084 0 01.056-.033l-.002.018c0 .015.004.029.035.029.018 0 .022-.01.034-.01.005 0 .011.005.011.012 0 .033-.11-.021-.09.072 0 .003.01.02.016.029-.004.028.021.056.067.04-.008-.007-.026-.02-.02-.034a.197.197 0 00.02 0c.003 0 .01-.002.013-.013 0-.003 0-.005.004-.005.006.002.01.005.01.009 0 .005-.009.01-.007.02 0 .003.005.026.01.03-.006.032.043.068.093.034-.014-.002-.046-.008-.049-.024.01-.005.022-.008.023-.01.008-.005.01-.02.011-.033 0-.008.006-.008.008-.008.007-.002.015-.002.023-.002.011-.002.014.003.017.007.01.022.035.039.068.029.061-.02.01-.073.057-.082a.052.052 0 01.035 0c.048.009.085.018.097-.005.013-.023.006-.108-.044-.136-.03-.015.043-.201-.099-.288.067.017.281.046.317-.005a.358.358 0 01.148.073c.01.012.013.027-.006.037-.059.037-.049.056-.08.065l-.005.002c-.019-.018-.038-.047-.058-.057-.019-.01-.04-.003-.043 0-.032-.008-.077.004-.09.038a.118.118 0 01.064-.004l-.004.015c-.004.01.002.02.013.03h-.002.003l.003.003c.003.003.003.008-.003.008-.032-.005-.096-.008-.08.03l.006.025c-.022.018-.03.05-.015.07.006-.015.01-.022.041-.034a.059.059 0 00.016.016c.016.02.05-.026.085-.016.002.002.006.005.001.006-.032.014-.064.037-.05.066.002.002.007.01.011.019-.01.023-.004.058.038.072-.002-.008-.01-.03-.005-.044a.142.142 0 00.037-.005c.063-.033.023-.076.044-.097.024-.02.053.042.103-.004a.044.044 0 00.012-.051c0-.003 0-.005.002-.005v.002c.013.012.022.03.05.019-.038-.033.004-.05.02-.075 0-.004.003-.007.01-.005.02.003.043-.003.067-.035-.027.005-.1-.038-.055-.055.064-.025.076-.06.048-.094-.049-.067-.158-.071-.16-.145a.632.632 0 00.095-.004c.33.005.537-.091.531-.193-.003-.085-.092-.116-.328-.1-.288.02-.664.056-.664-.042 0-.05.064-.087.14-.113M17.958 6.352c-.297.232-.689.02-.867-.282.406-.168.877-.357 1.195-.554-.293.45-.093.652-.328.836m-.066 3.077c-.382.165-.677-.17-.75-.397-.076-.23-.136-.418-.047-.506.165-.162.217-.288.117-.491-.114-.235-.362-.123-.629-.058.123-.225.134-.384-.036-.363-.202.023-.205.35-.318.313-.113-.04-.048-.23-.048-.33.001-.14.09-.187.23-.25l1.104-.418c.142-.052.241-.078.34.02.07.072.246.164.191.27-.055.107-.283-.126-.445-.002-.137.103-.018.21.226.284-.237.139-.49.23-.41.48.07.214.192.269.425.27.125 0 .214.182.317.396.108.215.14.607-.267.782m-2.1-2.225c-.298.026-.289-.258-.812-.384.368-.074.838-.26 1.25-.417.077.343-.064.767-.438.8m5.706 8.997c-.047-.326-.008-.634-.38-1.07-.364-.424-1.577-1.761-1.959-2.193.097-.01.211.01.447.233.146.138.511.494.77.748a7.469 7.469 0 011.717-2.636 2.477 2.477 0 00-.775.336c-.014-.373-.1-.723-.357-.96.098-.52.014-1.15-1.154-1.924.596.144.95.686 1.406.27-.409-.01-.419-.906-1.899-1.648.566-.012 1.007.9 1.662.384-.618-.074-.822-1.17-1.934-1.51.385.045.783.234 1.114-.214-.385.09-.613-.266-1.026-.297.156-.48.118-.776-.047-1.135-.29.02-.587.11-.8.286-.034-.265-.31-.281-.555-.261.012.115.066.28-.059.303-.199.038-.858.216-1.369.414-.51.198-1.094.56-1.263.677-.102.07-.19-.096-.255-.173-.18.15-.355.35-.224.55-.284.026-.597.099-.862.31 0 .329.272.649.68.828-.687.682-.065 1.313-.669 1.908.85.03.701-1.152 1.13-1.316-.044.832-.509.979-.509 1.876 0 .479.286.999.03 1.315.712-.196.524-1.767.965-2.241.078.27.034.533-.057.802-.248.733.027 1.736-.36 2.06.635-.06.781-.961 1.207-1.471-.45 1.188-.943 3.24-1.603 4.205-1.236 1.668-1.963 3.7-3.098 3.7-.5 0-.876-.305-.876-.937 0-1.897 3.251-3.201 3.251-5.22 0-.898-.732-1.244-1.19-1.244-.31 0-.684.154-.997.412a1.068 1.068 0 00-.384-.084c-1.15 0-.843 2.065-1.845 2.046.397.222 1.082-.211 1.484-.79-.168 1.34-2.095.984-1.949 2.592.271-1.26 3.345-1.075 3.345-2.986 0-.215-.11-.396-.264-.54.231-.146.45-.201.65-.201.367 0 .703.274.703.815 0 1.693-3.233 3.12-3.233 5.2 0 .35.104.643.268.872-.227.097-.46.052-.656-.176-.018.535.746.873 1.228.605.107.036.22.059.335.067-.146.398-.64.517-.898.5.793.624 2.174-.196 2.097-.902.63-.507 1.03-1.376 1.484-1.947a6.558 6.558 0 00-.07.394c-.465.843-.9 1.598-1.02 2.709-.102.929-.57 1.767-1.225 1.767-.142 0-.378-.187-.489-.095-.204.175-.01.358-.01.532 0 .264-.509.529-.509 1.344 0 .367.212.807.131 1.05.208-.107.486-.454.6-.905.225 1.076-.46 1.03.033 1.987.061-.316.377-.45.57-.316.195.132.103.225-.039.367-.144.143-.277.857.376.816-.122-.082-.129-.271.194-.337.45-.092.581.116 1.06.116.296 0 .378-.39.613-.39.233 0 .233.184.153.318.377-.102.447-.307.447-.52 0-.214-.174-.347-.04-.427.133-.082.571.008.398.366.225-.041.346-.203.346-.48 0-.275-.315-.438-.61-.386-.052-.174-.308-.267-.54-.267-.532 0-.45.419-.813.419-.583 0-1.147-.757-1.147-2.032 0-.683.734-.856 1.255-1.08.52-.225 1.432-.785 1.977-1.702.43-.716.442-1.503.386-2.435.733.42.82 1.026.82 1.466 0 .57-.296.802-.529.908-.196.09-.262.053-.284.169-.025.146.072.229.157.274.264.137.21.389.284.663.075.275.318.707.73 1.024.042-.171.031-.443.007-.796.563.277.112 1.408 1.205 1.408-.2-.115-.148-.412-.03-.454.115-.043.261.074.473.368.212.296.154.272.672.272.517 0 .284-.18.56-.18.273 0 .252.317.105.55.462-.14.602-.49.446-.852.406-.22.621.093.681.315.401-.401 0-.887-.314-.92.01-.147-.127-.305-.297-.316-.168-.01-.333-.02-.516-.01-.19.012-.297.286-.517.286-.686 0-2.044-1.242-2.044-1.781 0-.537 1.298-.864 1.298-1.697 0-1.092-1.072-1.463-1.97-2.163.32-.358 1.258-.443 1.79-.183.06-.305.254-.23.325-.753.19.46-.063.838.133 1.034.151-.222.54-.19.514-.761.12.358-.15.903.12 1.142.047-.294.22-.35.332-.35.111 0 .208.08.208.253 0 .436-.524.318-.524.81 0 .207.261.277.261.413 0 .132-.214.339-.475.166.086.189.26.356.483.356.237 0 .492-.191.591-.435.124.312.03.659-.194.703.236.12.8.007.734-.713.317.052.485.268.296.652.26-.065.5-.192.5-.47 0-.213-.212-.36-.176-.654.03-.24-.3-.47-.349-.795M14.26 4.612a.213.213 0 00-.215-.212.21.21 0 00-.209.212.21.21 0 00.21.213.213.213 0 00.213-.213m-.074-.563a.214.214 0 00-.213-.212.212.212 0 10.213.212m.12-.251a.212.212 0 000-.424.211.211 0 000 .424m.563-.037a.212.212 0 000-.424.211.211 0 00-.21.212c0 .117.095.212.21.212m2.407-.391a.21.21 0 00.3-.002.213.213 0 000-.298.212.212 0 10-.3.299m-.048-.451a.209.209 0 000-.299.21.21 0 00-.298 0 .21.21 0 000 .3.21.21 0 00.298 0m-.561-.093a.212.212 0 00-.3-.3.213.213 0 00.3.3m-.479.356a.212.212 0 10-.302-.298.212.212 0 00.302.298m-1.351-.292l.17.37.215-.256a.057.057 0 00.025.008c.02.125.027.34.027.46 0 .15.12.272.268.272a.272.272 0 00.271-.271.266.266 0 00-.144-.237 2.154 2.154 0 01-.297-.28c.005-.01.011-.02.013-.032l.36.03-.143-.38-.268.228-.014-.006L15.3 2.4l-.37.142.245.292a.103.103 0 00-.014.03l-.325.026zm2.454.66c.081.128.11.19.116.292a.609.609 0 01-.22-.202l.043.494c.06-.088.107-.148.177-.178-.017.321-.146.454-.256.477a.208.208 0 01-.252-.165c-.027-.143.097-.231.223-.103.022-.297-.216-.293-.32-.167.123-.286.074-.474-.18-.628-.158.268-.09.442.11.646-.197-.1-.372.069-.197.285.036-.19.202-.147.24.005.035.13-.09.297-.302.36-.304.091-.402-.103-.476-.267.065-.043.222-.028.396.083L16.245 4a.489.489 0 01-.29.293c-.009-.14.094-.423.094-.423l-.584.239s.27.129.362.237a.496.496 0 01-.413-.008l.232.448c.046-.2.15-.32.226-.337.061.17.127.378-.153.524-.197.103-.4.07-.469-.046-.079-.133.01-.282.168-.17-.026-.28-.27-.277-.34-.067.003-.288-.07-.46-.373-.542-.074.287.022.458.311.579-.163-.02-.337.143-.114.34 0-.18.151-.202.234-.08a.208.208 0 01-.069.293c-.092.06-.278.056-.514-.162.071-.03.148-.018.251.003l-.312-.383a.597.597 0 01-.019.298c-.068-.077-.089-.144-.12-.293l-.237.213c.226.138.485.353.8.788a10.39 10.39 0 011.293-.643c.368-.15.994-.36 1.375-.442-.079-.532-.043-.867.023-1.122l-.318.014zm25.497 18.633a.68.68 0 011.361 0 .68.68 0 11-1.36 0m-.233 0c0 .504.41.916.914.916a.914.914 0 10-.914-.916m-2.997 1.657c-.26-.047-.443-.242-.41-.433a.293.293 0 01.13-.189.541.541 0 01.405-.073c.237.041.414.215.414.387 0 .015-.002.03-.004.044-.035.192-.274.31-.535.263m-.413-.813a.528.528 0 00-.227.34.535.535 0 00.14.456.795.795 0 00.458.247.81.81 0 00.516-.072.536.536 0 00.29-.379h.002c.056-.317-.212-.633-.6-.703a.78.78 0 00-.58.111m-5.082-12.288c0-.117.069-.253.19-.348a.484.484 0 01.349-.108c.05.008.12.027.17.092a.24.24 0 01.045.19.483.483 0 01-.19.308c-.178.139-.415.147-.517.015a.245.245 0 01-.047-.15m.048-.534c-.284.223-.368.593-.186.828.183.234.564.245.847.026a.716.716 0 00.277-.464.486.486 0 00-.091-.363.489.489 0 00-.326-.18.716.716 0 00-.521.152m4.315 12.344a.292.292 0 01-.206-.097.552.552 0 01-.137-.391.543.543 0 01.152-.382.292.292 0 01.211-.088c.193.003.347.22.341.485a.551.551 0 01-.15.384.294.294 0 01-.21.089m-.355-1.038a.784.784 0 00-.222.547v.018c0 .208.073.404.202.539a.53.53 0 00.37.168.52.52 0 00.375-.154.776.776 0 00.225-.547.796.796 0 00-.153-.497.532.532 0 00-.42-.228.529.529 0 00-.377.154m-4.289-6.492c-.237-.113-.363-.35-.278-.526a.292.292 0 01.172-.145.535.535 0 01.411.038.54.54 0 01.285.297.295.295 0 01-.004.228.3.3 0 01-.172.145.539.539 0 01-.413-.037m-.184-.892a.531.531 0 00-.306.266c-.14.293.035.668.386.837a.783.783 0 00.593.047.529.529 0 00.306-.266.531.531 0 00.015-.406.78.78 0 00-.405-.431.781.781 0 00-.589-.047" fill="#FFF"/><path d="M40.222 18.285c-.15.211-.405.285-.571.167-.167-.118-.18-.383-.03-.594.15-.21.406-.286.572-.168.166.117.178.386.029.595zm-1.077 1.7c-.15.211-.405.287-.571.17-.166-.118-.181-.385-.031-.596.148-.21.403-.288.572-.169.166.117.179.383.03.595zm-3.727-9.308l.007-.019a89.33 89.33 0 00.368-1.184l.008-.026.511.196-.067.025a1.349 1.349 0 00-.354.247.409.409 0 00.307-.04l.075-.05-.22.554-.029-.052c-.032-.057-.129-.182-.226-.22a.394.394 0 00-.013.11c0 .203.142.297.282.368.244.125.392.14.453.045a.14.14 0 00.015-.064.162.162 0 00-.043-.108c-.046-.05-.13-.088-.239-.042l-.033.015-.005-.037c-.014-.148.033-.234.074-.279a.255.255 0 01.197-.086c.085 0 .162.052.212.135.029-.308.201-.53.487-.62l.026-.008.01.026a.827.827 0 01.052.277c0 .177-.073.335-.223.501.121-.02.232.01.283.088a.256.256 0 01.038.21c-.014.062-.06.15-.19.217l-.034.02-.006-.038c-.018-.094-.08-.157-.164-.17-.071-.009-.138.022-.167.077-.061.121.027.248.262.378.283.16.465.022.572-.132a.484.484 0 00-.327.084l-.089.056.363-.68.014.08a.508.508 0 00.136.257.847.847 0 00.043-.246c0-.063-.01-.13-.041-.195l-.036-.08.746.433-.087.007c-.131.014-.255.087-.377.224.138.036.254 0 .292-.013l.074-.027-.406.654.002-.104v-.022a.49.49 0 00-.09-.303.496.496 0 00-.054.215c0 .12.055.245.226.347.229.137.383.15.457.037.034-.053.027-.126-.017-.183-.052-.067-.139-.089-.228-.058l-.036.012-.001-.036c-.007-.146.046-.229.091-.273a.266.266 0 01.202-.074c.106.007.181.1.22.204.101-.319.276-.48.587-.538l.026-.005.007.025a.815.815 0 01.019.167c0 .224-.109.42-.312.566.099.001.182.041.225.116a.285.285 0 01.037.134.233.233 0 01-.014.078c-.019.06-.069.144-.204.204l-.035.015-.003-.035c-.015-.117-.091-.172-.157-.186-.067-.015-.131.01-.162.062-.054.1.033.22.264.368.155.1.335.187.549-.004-.079-.066-.235-.088-.305-.088h-.056l.367-.466-.006.09-.001.016a.41.41 0 00.121.27c.029-.127.042-.24.042-.33a.599.599 0 00-.007-.1l-.01-.07.426.342-.02.022c-.005.006-.564.604-.839.91l-.016.016-3.826-2.209zm4.509 5.076a.29.29 0 01.086-.207l.001-.002a.286.286 0 01.213-.072c.13.002.267.07.372.18.103.11.164.255.159.383a.294.294 0 01-.086.208h-.002a.284.284 0 01-.213.074.554.554 0 01-.371-.18.554.554 0 01-.159-.384zm1.637 7.528a.554.554 0 01.245-.336.54.54 0 01.401-.09.29.29 0 01.192.122h.002c.05.078.047.163.035.222a.562.562 0 01-.244.336c-.221.144-.489.13-.594-.03a.294.294 0 01-.037-.224zM33.776 11.94a.474.474 0 01-.143.323.25.25 0 01-.174.068c-.152-.01-.272-.187-.272-.392l.001-.03a.464.464 0 01.138-.323.26.26 0 01.178-.068.248.248 0 01.167.088.468.468 0 01.105.334zm2.408-4.949c.128-.244 0-.616.446-.616.22 0 .415.22.68.306-.43.035-.817.132-1.126.31zm7.018 6.193c.298.817.889 1.11 1.34.901-1.008-.117-.191-1.842-1.489-1.842a.902.902 0 00-.21.022c-.22-.232-.472-.33-.845-.33-.549 0-1.495.531-1.495 1.626 0 2.357 2.739 2.565 2.739 4.65 0 .61-.46.987-.975.987-.46 0-.831-.518-1.218-1.326-.185-.385-.581-.913-1.005-1.462.125.088.267.14.407.143a.523.523 0 00.38-.139.518.518 0 00.161-.37l.001-.02a.8.8 0 00-.223-.532.791.791 0 00-.537-.255.536.536 0 00-.38.14.523.523 0 00-.16.37l-.001.021a.67.67 0 00.044.24c-.589-.769-1.137-1.525-1.137-1.939 0-.367.252-.686.563-1.073.014.01.107.06.107.06l.083-.09c.11-.122.339-.372.811-.879l.028-.03-.001.001.114-.12-.293-.236c.077-.178.144-.37.196-.58.091.38.285.621.554.544-.179-.39.181-.916-.056-1.875.225.37.547.566.779.498-.607-.539.18-1.289-.61-2.45.26.086.43.036.543-.092-.719-.1-.391-1.022-1.655-1.35.315-.056.498-.24.45-.406-.332.242-.626-.449-1.721-.43-.068-.41-.447-.842-.879-1.05.082.317.006.602-.077.84l-3.571-3.505c-.104-.098-.162-.122-.19-.084-.031.035-.028.1.04.171l3.066 3.846c-.231.078-.456.175-.696.264a.414.414 0 00-.266.397c-.567.284-1.068.633-1.317.86-.189.172-.339.212-.173.6.064.145-.133.51.311.242.292-.174.953-.537 1.05-.309.053.12-.275.276-.5.36-.223.088-.465.26-.429.346.034.085.212-.006.223.085.013.103.084.193.173.193.09 0 .205-.188.278-.126.07.063-.037.482-.109.588.348-.043.57-.374.579-.632.009-.258.081-.32.134-.357.054-.036.117.277.045.464.184-.04.375-.28.347-.728.095-.073.188-.128.258-.128.117 0 .349.32.679.32.606 0 .943-.492.98-.722.028-.186.015-.368-.085-.505.215.174.286.448.286.654 0 .86-1.52 1.264-2.145 1.858-.024.021-.045.043-.068.066l-.713-.277-.048.158-.041.134c-.075.244-.232.754-.327 1.046l-.038.12.064.035c-.422.564-.764 1.193-.841 1.84a6.096 6.096 0 00-.519-.474.79.79 0 00.036-.198.685.685 0 00-.161-.502.47.47 0 00-.329-.165.474.474 0 00-.347.126.666.666 0 00-.063.067 1.53 1.53 0 01-.076-.059c-.236-.18-.528-.397-.705-.59-.075-.084-.151-.128-.31-.128-.06 0-.211-.007-.317-.007-.106 0-.166.081-.287.19-.068.056-.294.233-.523.406.109.106.215.217.316.333.031.032.059.066.088.1.1-.08.178-.14.233-.183a.41.41 0 01.264-.075c.091 0 .219.067.309.204.066.097.643.855 1.122 1.383a1.575 1.575 0 00-.152.054c-.204.087-.667.07-.871.053-.206-.018-.246-.068-.386.151-.053.083-.12.183-.189.265-.068.084-.122.178.023.424.212.355.734 1.294.909 1.718.173.423.378.491.71.627.334.136.901.462.97.537l.021-.324c-.097-.1-.417-.218-.537-.262-.12-.044-.151-.094-.007-.094s.544.143.824.256c-.084-.317-.386-.666-.567-.86-.241-.07-.485-.07-.583.005a.133.133 0 01-.136.152c-.093 0-.157-.079-.129-.167.032-.096.175-.128.144-.309-.03-.18-.256-.212-.4-.227-.205-.295-.44-.726-.544-.9-.108-.175-.043-.273.029-.333.175-.143.537.076 1.262.121.253.015.575.031.899.047.097.842.435 1.643 1.609 1.937.573.141 1.163.561 1.367 1.113-2.345-.042-2.711.873-2.711 1.734 0 .981.824.925.824 1.66 0 .641-1.97.906-2.565.994-.505.074-.793.186-1.035.428-.241.243-.488.476-.927.917 0 0 .186.043.374.032l.334-.43c.097-.144.165-.265.231-.254.064.012.021.121-.056.275l-.274.462c1.155.078 1.231-.35 1.231-.527 0-.177-.284-.297-.119-.408.164-.11.306-.033.44.12.133.156.175.288.496.166 0 0 2.52-1.045 2.84-1.189.286-.128.204-.254.033-.397-.189-.154-.22-.407-.22-.67 0-.763.459-.999 1.279-.983-.014.13-.025.255-.025.367 0 1.191 1.8 2.354 2.286 2.354.217 0 .51-.16.529.556.012.528.119.9.024 1.51s-.27.703-.637.96c-.364.26-.711 1.063-.866 1.232.164.11.339.121.474-.27.112-.325.243-.557.383-.635-.142.36-.248.884-.315 1.041.459.08 1.205-.338 1.205-.663s-.258-.299-.258-.514c0-.096.117-.203.258-.203.185 0 .324.146.338.215.204-.108.332-.31.325-.786a24.86 24.86 0 00-.019-.575.536.536 0 00.457.311.81.81 0 00.502-.136.777.777 0 00.343-.485.502.502 0 00-.07-.397.518.518 0 00-.338-.223.794.794 0 00-.58.124.805.805 0 00-.334.442c-.038-.646-.084-1.257-.066-1.504.026-.364.041-.527-.081-.58-.122-.055-.257.15-.433.15-.177 0-.705-.489-.705-1.002 0-.516.556-1.18.528-1.884-.01-.219.129-.334.215-.134.11.243.267.568.504.833-.145.885.829 1.75 1.63 1.107-.397.06-.668-.293-.844-.645a1.344 1.344 0 00.334.013c.281.348 1.177.32 1.406-.545-.156.181-.478.32-.71.288.336-.26.512-.688.512-1.146 0-2.248-2.726-2.509-2.726-4.555 0-.757.665-1.244 1.125-1.244.176 0 .312.053.422.134-.175.18-.27.451-.255.782.073 1.613 2.708 1.533 2.743 2.311.296-1.17-1.669-.809-1.742-2.387zM27.809 26.53c-.067-.126-.164-.196-.248-.196-.38 0-.232.998-.683.998-.197 0-.302-.126-.302-.267 0-.14.098-.182.098-.296 0-.111-.088-.153-.186-.153-.1 0-.187.041-.187.154 0 .113.099.155.099.296 0 .14-.106.267-.303.267-.45 0-.303-.998-.681-.998-.085 0-.183.07-.248.194a.904.904 0 01-.118-.392c0-.181.14-.436.436-.436.506 0 .386.69.629.69.107 0 .186-.063.186-.168 0-.198-.351-.383-.351-.663 0-.282.256-.518.538-.744.28.226.538.462.538.744 0 .28-.352.465-.352.663 0 .105.078.168.186.168.243 0 .124-.69.63-.69.296 0 .435.255.435.436a.926.926 0 01-.116.392m-1.321 1.398a.247.247 0 010-.493.247.247 0 010 .493m1.002-2.42a.665.665 0 00-.187.026v-1.077a7.813 7.813 0 01-1.621-.26v1.341a.631.631 0 00-.827.6c0 .287.168.55.313.715.074-.172.14-.314.236-.314.193 0 .106.963.67.99a.444.444 0 00.414.596.443.443 0 00.413-.596c.564-.026.469-.99.664-.99.096 0 .156.133.242.314.147-.165.314-.428.314-.715a.631.631 0 00-.631-.63M24.303 5.852c-.169.325-.315.514-.293.765.022.251.285.428.41.68.113-.292.302-.514.279-.744-.023-.23-.338-.533-.396-.7m4.357-.001c.171.325.317.514.294.765-.023.251-.285.428-.41.68-.113-.292-.302-.514-.28-.744.023-.23.34-.533.396-.7m-6.865-.188a.294.294 0 100-.59.294.294 0 000 .59m.195.421a.293.293 0 00-.293-.294.293.293 0 100 .588.293.293 0 00.294-.294m.144.714a.294.294 0 10-.588-.002.294.294 0 00.588.002m1.29-2.539a.295.295 0 100-.588.295.295 0 000 .588m-.732.225a.295.295 0 100-.59.295.295 0 000 .59m-.574.506a.295.295 0 10-.002-.59.295.295 0 00.002.59m2.076-.66a.295.295 0 10-.002-.59.295.295 0 00.002.59m.728.211a.295.295 0 000-.589.294.294 0 00-.294.293c0 .163.132.296.294.296m.687.323a.295.295 0 100-.591.295.295 0 00-.292.296c0 .163.13.295.293.295m5.255.504a.294.294 0 10.588 0 .294.294 0 00-.588 0m.392.421a.295.295 0 100 .59.295.295 0 100-.59m-.144.714a.294.294 0 100 .588.294.294 0 000-.588M29.53 4.261a.295.295 0 10.002-.59.295.295 0 00-.002.59m.732.225a.295.295 0 100-.59.295.295 0 000 .59m.575.506a.294.294 0 00.294-.295.294.294 0 10-.588 0c0 .163.132.295.294.295m-2.077-.66a.294.294 0 10.002-.588.294.294 0 00-.002.588m-.73.211a.295.295 0 000-.589.295.295 0 000 .59m-.98.027a.295.295 0 10.588 0 .294.294 0 10-.588 0m-1.075 1.593h.33V4.902a1.132 1.132 0 01-.33-.101v1.363zM26.982 4.8a1.179 1.179 0 01-.331.103v1.26h.33V4.801zm-.695-1.392V2.66a.927.927 0 00-.723.748h.723zm.383 0h.72a.931.931 0 00-.72-.748v.748zm-1.095.362a.925.925 0 001.806 0h-1.806zm1.41-1.227c-.211-.165-.371-.403-.402-.652.24.043.508.216.67.425V1.301c-.162.21-.431.384-.67.425.027-.245.178-.469.386-.726h-.981c.206.257.357.481.386.726a1.159 1.159 0 01-.67-.425v1.015c.159-.209.428-.382.669-.425-.031.25-.192.487-.403.652h1.015zm.026 21.132a.362.362 0 11.001-.723.362.362 0 01-.001.723zm-1.738-.536a.396.396 0 11.001-.79.396.396 0 01-.001.79zm-.598-1.762l-.097-.075c-.18-.134-.332-.133-.495.006-.076.066-.145.146-.214.226l-.099.116.068.053c.189.151.219.317.164.416a.15.15 0 01-.097.075c-.094.026-.228-.009-.365-.088l-.072-.044-.044.07a.425.425 0 01-.034.051c-.016.024-.033.049-.05.078-.081.142-.12.25-.12.338 0 .025.004.049.009.072.029.102.112.15.186.192l.045.026c.085.053.205.125.294.177a.513.513 0 01-.504.02c-.255-.122-.417-.412-.417-.558 0-.218.1-.495.28-.782l.028-.043-.027-.044a1.81 1.81 0 01-.13-.256c.096.014.191.03.285.053l.048.012.033-.037c.111-.12.502-.514.864-.514.163 0 .331.083.458.228a.702.702 0 01.168.355 4.987 4.987 0 01-.165-.123zm-2.503.056l-.229-.323.399-.282-.225-.317-.398.28-.229-.325 1.107-.78.229.325-.397.282.223.317.399-.282.229.328-1.108.777zm-1.111-1.94a.717.717 0 01.001-.558.68.68 0 01.382-.363.671.671 0 01.526.01c.175.077.306.22.382.414a.78.78 0 01.053.28.683.683 0 01-.44.637.677.677 0 01-.523-.009.728.728 0 01-.381-.41zm7.007 3.277c-.927-.233-2.03-.628-3.062-1.096l.002-.015a.815.815 0 00-.209-.625.795.795 0 00-.585-.287.831.831 0 00-.282.055 4.411 4.411 0 01-.426-.436 5.075 5.075 0 01-.909-1.58 5.584 5.584 0 01-.267-1.05c-.049.3-.406.65-.986.657.01-.062-.007-.154-.061-.168-.153.17-.352.34-.876.153.08.41.194.813.339 1.203a7.162 7.162 0 001.332 2.235c.189.213.387.413.594.593a.964.964 0 00-.008.12c0 .217.21.563.511.71.248.118.516.087.757-.087a8.35 8.35 0 001.642.636c.693.195 1.364.301 1.889.301.451 0 1.048-.212 1.638-.584.236-.148.456-.314.62-.466.023-.023.045-.044.063-.064-.458.065-1.148-.063-1.716-.206z" fill="#FFF"/><path d="M22.017 19.266v-.004a.384.384 0 00-.025-.13c-.067-.171-.235-.25-.402-.184-.168.066-.24.233-.172.407a.328.328 0 00.166.182.316.316 0 00.236 0 .293.293 0 00.197-.271m.196-5.903c-.15-.078-.313-.024-.395.132a.3.3 0 00-.027.231.28.28 0 00.145.166.283.283 0 00.394-.126c.025-.05.034-.1.034-.145a.29.29 0 00-.15-.258m8.104-.723l-.146.041.075.098zm1.751 2.743l-.125-.25-.002.002a.898.898 0 00-.073.104c-.015.018-.028.04-.042.06a.705.705 0 01.083.03l.159.053m-.115 1.74c.024 0 .05 0 .053-.064l.001-.078-.11-.001-.002.064c0 .034.008.057.017.066.007.006.015.013.041.013m-6.837-6.372a.31.31 0 00-.238-.005.323.323 0 00-.193.16.328.328 0 00-.006.243c.024.067.127.279.416.173a.298.298 0 00.174-.158.268.268 0 00.029-.126.307.307 0 00-.021-.105.306.306 0 00-.16-.181" fill="#FFF"/><path d="M32.388 17.059a.48.48 0 01-.136.35.431.431 0 01-.313.115.404.404 0 01-.295-.123.509.509 0 01-.126-.362v-.068a95.3 95.3 0 01-.483-.008l.007-.398 1.354.025-.008.469zm-.211 1.623l-.373-.07.085-.464-.1-.02-.082.45-.375-.067.083-.45-.109-.021-.088.48-.375-.067.159-.871 1.332.243-.157.857zm-.213.649l-.841.292.621.252-.144.359-1.256-.508.117-.288.83-.285-.614-.247.144-.36 1.255.508-.112.277zm-.805 1.626a.758.758 0 01-.316.233l.001-.001-.378-.255c.397-.125.421-.238.401-.257-.016-.016-.08.019-.158.057-.14.072-.355.179-.578.028a.421.421 0 01-.179-.266.429.429 0 01.073-.328.771.771 0 01.375-.266l.377.255-.062.014a.759.759 0 00-.367.197c-.016.02-.024.04-.023.054 0 .002.001.007.007.01.034.023.133-.023.209-.06.152-.067.34-.153.53-.026a.4.4 0 01.182.333.484.484 0 01-.094.278zm-1.099 1.23l-.271-.265.332-.34-.071-.07-.32.326-.273-.265.321-.327-.08-.08-.35.335-.271-.266.629-.616.965.949-.611.62zm-3.401-5.455v-4.853c.506.024 1 .152 1.467.383.503.249.954.607 1.342 1.062.391.456.696.989.91 1.58a5.61 5.61 0 01.331 1.828h-4.05zm-.17-5.144c-.29.006-.587-.16-.595-.544l-.002-.811.397-.01v.78c.003.112.019.126.036.145.043.04.092.058.158.056.079-.002.142-.023.178-.06.019-.02.036-.051.034-.163l-.002-.767.398.005v.8c0 .158-.05.296-.143.394-.105.11-.258.17-.459.175zm-4.223 5.144a5.664 5.664 0 01.331-1.827 5.11 5.11 0 01.909-1.581c.389-.455.84-.813 1.344-1.062a3.66 3.66 0 011.564-.385v4.855h-4.148zm-.012-2.445a.656.656 0 01-.501-.05.657.657 0 01-.322-.385.69.69 0 01.058-.531.7.7 0 01.405-.352.66.66 0 01.501.05.648.648 0 01.353.58.72.72 0 01-.089.34.684.684 0 01-.405.348zm.021-2.123l1.02.8-.239.305-1.02-.803.239-.302zm.995-.962l.25.27-.271.25.63.682-.284.262-.628-.682-.27.25-.251-.271.824-.761zm2.616.182l-.171.368c-.289.07-.61-.006-.681-.025a.68.68 0 01-.732-.442.668.668 0 01.014-.52.76.76 0 01.437-.384.688.688 0 01.829 1.017c.065-.002.182.02.304-.014zm1.996-1.042l-.267 1.365-.39-.078.268-1.364.389.077zm-4.743-.307c0-.787 2.22-.855 3.347-.855h.002c1.127 0 3.345.068 3.345.855 0 .219-.138.404-.459.594-.555-.37-1.506-.776-2.887-.776-1.382 0-2.333.406-2.887.776-.322-.19-.461-.375-.461-.594zm6.683 1.205l.236.185-.817 1.107-.33-.23.418-.543-.402.104-.064-.427-.385.553-.349-.188.787-1.137.267.142.089.569.55-.135zm.929.882l.165.208-.716 1.39-.26-.357.131-.243-.261-.336-.23.074-.32-.301 1.491-.435zm1.949 4.21a1.262 1.262 0 01-.388-.454c-.147-.05-.544-.191-.716-.253l-.092-.032-.555.15-.104-.385.558-.15.05-.065c.081-.107.233-.304.3-.382a17.11 17.11 0 00-.361-.64.785.785 0 01-.126-.39l-.511.269.223.453-.344.169-.395-.812 1.214-.593.053.1c.031-.041.064-.086.094-.135a.86.86 0 01.114-.151 6.871 6.871 0 00-.818-1.13 6.284 6.284 0 00-1.258-1.09c.248-.158.497-.391.497-.776a.709.709 0 00-.257-.553c.259-.833.724-1.834 1.12-2.272l-.833-.353a1.3 1.3 0 01.183.94c-.218-.151-.402-.357-.466-.63a3.635 3.635 0 01-.306.907c.241-.114.436-.165.679-.063a.993.993 0 01-1.048.349c-.298-.07-.592-.227-.579-.458.008-.135.109-.301.293-.282.182.019.192.294.137.417.235-.135.484-.834.113-.938-.294-.081-.563.32-.659.63-.057-.372-.212-.73-.506-.71-.384.029-.261.736-.125.916.023-.248.158-.38.272-.372.101.007.238.08.214.306-.024.226-.345.366-.714.366-.353 0-.972-.11-1.03-.79.229.04.586.215.741.445a4.43 4.43 0 010-1.133 1.148 1.148 0 01-.731.443c.064-.291.315-.6.607-.781h-1.515c.291.182.541.489.605.779a1.145 1.145 0 01-.717-.441 4.57 4.57 0 010 1.133c.149-.227.5-.398.729-.443-.059.678-.678.788-1.03.788-.369 0-.691-.14-.715-.366-.022-.226.113-.3.215-.306.113-.008.249.124.271.372.136-.18.26-.887-.124-.915-.296-.021-.45.337-.505.709-.097-.31-.366-.711-.659-.63-.373.104-.124.803.114.938-.057-.123-.047-.398.134-.417.187-.02.286.147.294.282.013.23-.282.388-.579.458a.992.992 0 01-1.046-.347c.248-.105.444-.055.688.06a3.683 3.683 0 01-.308-.906c-.062.277-.253.485-.474.637a1.309 1.309 0 01.181-.947l-.833.353c.398.439.864 1.444 1.123 2.279a.71.71 0 00-.249.546c0 .385.249.618.496.777a6.34 6.34 0 00-1.258 1.09 7.092 7.092 0 00-1.376 2.339c.093.097.185.195.276.295.003-.013.008-.025.013-.038a.767.767 0 01.258-.293l.417.166c-.173.124-.382.293-.338.335.018.018.11-.057.15-.088.126-.097.308-.25.558-.151a.416.416 0 01.234.556.776.776 0 01-.309.343l-.381-.151a1.07 1.07 0 00.33-.315c.014-.032.015-.061 0-.067-.032-.02-.113.044-.189.102a.79.79 0 01-.287.158c.178.254.297.49.304.684.013.377.092.527.293.78.302.382-.007.352.255.824a6.006 6.006 0 01-.02-.403h4.148v4.527c-.168.002-.352.024-.495.196.481.194.962.367 1.421.51a1.09 1.09 0 01.271-.625s-.625-.062-.952-.08v-4.528h4.05a5.607 5.607 0 01-.331 1.807 5.043 5.043 0 01-.91 1.58 4.363 4.363 0 01-1.342 1.062c-.118.059-.205.25-.282.419a1.544 1.544 0 00-.127.448c.192.056.229.094.409.14 1.423.357 1.795.286 1.875.224.32-.247.618-.527.895-.841a7.099 7.099 0 001.332-2.236 7.769 7.769 0 00.488-2.733 8.06 8.06 0 00-.016-.516zM15.743 26.485l-.08.044.343.572.085-.049c.299-.159.264-.364.184-.486-.155-.242-.346-.172-.531-.08m18.495-1.756a.083.083 0 00.05-.04.084.084 0 00.012-.041c0-.03-.02-.058-.058-.084a6.45 6.45 0 00-.113-.067l-.091.154.097.058c.035.023.072.03.103.02m-1.781-.2c.268.068.437.024.54-.233.076-.19.017-.342-.293-.427h.001l-.102-.025-.237.664.091.021m2.692 1.487a.38.38 0 00.288.046.353.353 0 00.228-.168.322.322 0 00.04-.26.357.357 0 00-.172-.218.4.4 0 00-.292-.05.35.35 0 00-.226.17.322.322 0 00-.044.262.357.357 0 00.179.218m-6.711 3.084a.365.365 0 00-.277-.096.415.415 0 00-.288.115.353.353 0 00-.108.27c0 .106.034.187.107.254a.382.382 0 00.28.094.41.41 0 00.285-.115.372.372 0 00.11-.27.322.322 0 00-.11-.252" fill="#FFF"/><path d="M32.405 26.462c0 .359-.325.707-.9 1.004.163-.76-1.65-.993-1.65-1.553 0-.483.723-.736 1.267-.83.359.458 1.283.793 1.283 1.379zm-1.864 3.203l-.321.114s-.522-.527-.637-.645c-.011.162-.05.827-.05.827l-.421.082.094-1.587.304-.055.652.658.047-.808.425-.116-.093 1.53zm-1.79.257a.917.917 0 01-.604.24.828.828 0 01-.59-.206.729.729 0 01-.238-.556.78.78 0 01.239-.578.87.87 0 01.595-.243.827.827 0 01.6.207.723.723 0 01.245.56.766.766 0 01-.247.576zm-1.56.273l-.43.007v-.82l-.36.427-.36-.427v.819l-.428-.011v-1.544l.359.01.432.525.42-.52.368-.008v1.542zm-2.411-1.197l-.444-.055v1.154l-.431-.061V28.88a19.453 19.453 0 01-.435-.07v-.41c.379.065.892.138 1.31.188v.41zm-2.37.653l-.08-1.522c.236.066.744.2 1.009.248l.009.416c-.13-.024-.381-.08-.564-.127l.007.134c.057.016.524.13.524.13l.015.42-.517-.127.008.16c.145.05.366.105.552.144l.02.422a5.034 5.034 0 01-.983-.298zm-.942-2.185c-.573-.297-.897-.645-.897-1.004 0-.586.92-.921 1.28-1.377.544.093 1.269.346 1.269.828 0 .56-1.812.794-1.652 1.553zm-1.508-2.253c-.443.192-.712.002-.858-.313l-.353-.797.379-.2s.356.807.358.807c.077.169.16.22.319.145.188-.09.187-.17.116-.324l-.37-.842.419-.143.347.82c.137.33.106.644-.357.847zm-1.702.963l-.786-1.262.827-.54.21.339-.473.316c.022.037.049.08.07.119l.458-.308.21.338-.456.308c.026.039.058.09.082.13l.49-.327.212.339-.844.548zm-.83.548l-.79-1.257.348-.23.789 1.263-.347.224zm-1.143.682l-.436.237-.753-1.261.46-.252a.96.96 0 01.433-.134.72.72 0 01.375.098c.116.068.22.158.282.279.169.318.188.743-.361 1.033zm16.044-4.043l.573.14c.362.095.696.426.499.915-.228.56-.652.595-1.072.497l-.505-.123.505-1.43zm2.127.877c.07.044.164.117.224.22a.4.4 0 01-.013.424.38.38 0 01-.23.187.392.392 0 01-.115.009c.014.062.022.134.027.217.019.314.062.654.062.66l-.457-.291-.036-.435c-.012-.156-.021-.22-.07-.252l-.271.464-.373-.195.747-1.3c.114.064.393.224.505.292zm.679.732a.806.806 0 01.6.094.778.778 0 01.406.666c0 .13-.04.259-.114.38a.733.733 0 01-.488.346.845.845 0 01-.604-.104.757.757 0 01-.37-.46.692.692 0 01.087-.572.751.751 0 01.483-.35zm1.824.879l-.784 1.284-.368-.227.786-1.276.366.219zm1.345.739l-.193.348a10.575 10.575 0 01-.455-.213c-.126.203-.49.778-.557.887l-.386-.17c.005-.007.434-.681.576-.91a10.97 10.97 0 01-.387-.225l.193-.348c.315.19.944.514 1.209.63zm-.328 1.425c.773 0 1.462-.977 2.429-1.408-2.444.712-5.818-3.43-8.114-3.43-.644 0-1.392.245-1.76 1.133-.386.944-.817 1.253-.817 1.67 0 .365.33.646.887.94.36.193.736.297.716.639-1.05.479-2.777.809-4.83.809-2.052 0-3.78-.33-4.83-.81-.02-.341.357-.445.715-.637.558-.295.889-.574.889-.94 0-.418-.43-.727-.818-1.671-.366-.888-1.114-1.132-1.76-1.132-2.294 0-5.67 4.142-8.112 3.43.967.43 1.655 1.409 2.429 1.409 1.982 0 4.273-2.975 6.425-2.975.029 0 .06 0 .095.003-.502.62-1.201.75-1.201 1.377 0 .44.38.706.643 1.295.165.369.196.628.335 1.149.124.458.443 1.63 5.19 1.63 4.748 0 5.067-1.172 5.189-1.63.14-.521.172-.78.337-1.15.264-.588.643-.853.643-1.294 0-.628-.7-.756-1.2-1.378l.093-.003c2.152 0 4.444 2.974 6.427 2.974z" fill="#FFF"/></g></svg>