<svg xmlns="http://www.w3.org/2000/svg" xmlns:xlink="http://www.w3.org/1999/xlink" style="display:none"><defs><path id="a" d="M604.4 302h50.406c1.764 0 3.194 1.545 3.194 3.45 0 1.905-1.43 3.448-3.194 3.448h-48.56l-24.28 45.375c-.882 1.65-2.838 2.218-4.367 1.264-1.53-.953-2.053-3.061-1.17-4.711l25.203-47.102c.57-1.066 1.626-1.724 2.768-1.724"/></defs><symbol id="icon-arrow--decor" viewBox="0 0 82 54"><use xlink:href="#a" transform="translate(-576 -302)"/></symbol><symbol id="icon-arrow--thin" viewBox="0 0 22.75 38.99"><title>cion-arrow--thin</title><path d="M.95 5.51A3.24 3.24 0 1 1 5.52.94l16.21 16.2c.08.09.17.18.24.27a3.22 3.22 0 0 1-.38 4.56.27.27 0 0 1-.08.07l-16 16a3.23 3.23 0 0 1-4.55-4.53l14-14z"/></symbol><symbol id="icon-arrow" viewBox="0 0 7.6 11.52"><title>icon-arrow</title><path d="M7.6 5.71a1.61 1.61 0 0 1-.5 1.1l-4.6 4.3a1.27 1.27 0 0 1-1 .4A1.54 1.54 0 0 1 0 10a1.61 1.61 0 0 1 .5-1.1l1-1L4 5.71l-2.4-2.3-1-1A1.46 1.46 0 0 1 .83.36L.9.31a1.68 1.68 0 0 1 1.8-.1l4.5 4.4a1.55 1.55 0 0 1 .4 1.1z"/></symbol><symbol id="icon-close" viewBox="0 0 12 11"><title>icon-close</title><path d="M11.5 8.38a1.5 1.5 0 0 1-1 2.62 1.47 1.47 0 0 1-1-.38L8.24 9.5 6 7.51l-2.24 2-1.26 1.11a1.5 1.5 0 0 1-2-2.24L3.74 5.5.5 2.62a1.5 1.5 0 1 1 2-2.24L3.76 1.5 6 3.49l2.24-2L9.5.38a1.5 1.5 0 1 1 2 2.24L8.26 5.5z"/></symbol><symbol id="icon-decor-line-1" viewBox="0 0 1347.49 58.62"><title>decor-line-1</title><path d="M1347.49 0v1H914.35l-41.66 57.62H0v-1h872.17L913.84 0h433.65z" opacity=".51"/></symbol><symbol id="icon-decor-line-2" viewBox="0 0 787.11 83.35"><title>decor-line-2</title><path d="M787.11 6.25h-501a5.89 5.89 0 0 1-2.73 2.42 4.57 4.57 0 0 1-1.29.19h-.47l-39.23 67.17a4.43 4.43 0 0 1-3.36 7.32 4.42 4.42 0 0 1-4-2.61H0V77.1h235a4.42 4.42 0 0 1 4-2.61L278.43 7a4.43 4.43 0 0 1 3.61-7 4.4 4.4 0 0 1 4 2.61l501.07-.05z" fill-rule="evenodd" opacity=".2"/></symbol><symbol id="icon-facebook" viewBox="0 0 90 90"><title>icon-facebook</title><path d="M90 15c0-7.88-7.12-15-15-15H15C7.12 0 0 7.12 0 15v60c0 7.88 7.12 15 15 15h30V56H34V41h11v-5.84C45 25.08 52.57 16 61.88 16H74v15H61.88C60.55 31 59 32.61 59 35v6h15v15H59v34h16c7.88 0 15-7.12 15-15z"/></symbol><symbol id="icon-linkedin" viewBox="0 0 430.11 430.12"><title>icon-linkedin</title><path d="M398.36 0H31.78C14.23 0 0 13.79 0 30.82v368.47c0 17 14.23 30.83 31.78 30.83h366.58c17.54 0 31.76-13.82 31.76-30.83V30.82C430.11 13.8 415.9 0 398.36 0zm-268 360h-65V165.85h65zM97.91 139.32h-.43c-21.8 0-35.92-14.91-35.92-33.57 0-19 14.54-33.53 36.76-33.53s35.9 14.49 36.33 33.53c0 18.67-14.09 33.57-36.74 33.57zM364.66 360h-65V256.14c0-26.11-9.41-43.92-32.9-43.92-18 0-28.65 12-33.33 23.62-1.74 4.14-2.17 9.94-2.17 15.73V360h-64.92s.85-176 0-194.19h65v27.53c8.63-13.23 24-32.1 58.54-32.1 42.76 0 74.82 27.74 74.82 87.42V360zM230.88 194c.11-.18.27-.4.42-.61v.61z"/></symbol><symbol id="icon-list" viewBox="0 0 27.6 19.6"><title>icon-list</title><path d="M6 3.6V0h21.6v3.6zM6 19.6V16h21.6v3.6zM6 11.6V8h21.6v3.6zM0 3.6V0h3.6v3.6zM0 19.6V16h3.6v3.6zM0 11.6V8h3.6v3.6z"/></symbol><symbol id="icon-marker" viewBox="0 0 16.81 23.23"><title>icon-marker</title><path d="M8.4 0A8.67 8.67 0 0 0 0 8.92c0 8.92 8.4 14.31 8.4 14.31s8.4-5.39 8.4-14.31A8.67 8.67 0 0 0 8.4 0zm0 12.49A3.47 3.47 0 0 1 5 9a3.47 3.47 0 0 1 3.37-3.65 3.47 3.47 0 0 1 3.36 3.57 3.47 3.47 0 0 1-3.33 3.57z"/></symbol><symbol id="icon-play" viewBox="0 0 12 15"><title>icon-play</title><path d="M0 0v15l12-7.5z"/></symbol><symbol id="icon-plus" viewBox="0 0 29.46 29.46"><title>icon-plus</title><path d="M17.96 3.23v8.27h8.27a3.23 3.23 0 0 1 0 6.46h-8.27v8.27a3.23 3.23 0 0 1-6.46 0v-8.27H3.23a3.23 3.23 0 0 1 0-6.46h8.27V3.23a3.23 3.23 0 0 1 6.46 0z"/></symbol></svg>